/* XPM */
static char *result[] = {
/* columns rows colors chars-per-pixel */
"48 48 169 2 ",
"   c #1D141D",
".  c #1D1C1D",
"X  c #1D251F",
"o  c #2C2A1D",
"O  c #35361F",
"+  c #383A1F",
"@  c #1B1C23",
"#  c #1C1832",
"$  c #1C2A27",
"%  c #192E32",
"&  c #193236",
"*  c #18373B",
"=  c #193B3E",
"-  c #213C26",
";  c #393D24",
":  c #363B2E",
">  c #2D3E34",
",  c #5B3C2E",
"<  c #1D4E3E",
"1  c #214027",
"2  c #234C2B",
"3  c #3F4221",
"4  c #25552F",
"5  c #37512A",
"6  c #27433E",
"7  c #3A4031",
"8  c #255B33",
"9  c #286636",
"0  c #2A6D39",
"q  c #386C37",
"w  c #2C763D",
"e  c #2C793E",
"r  c #3B743A",
"t  c #414522",
"y  c #464A22",
"u  c #515725",
"i  c #545B26",
"p  c #51563D",
"a  c #6A4634",
"s  c #596127",
"d  c #5C6428",
"f  c #5C672D",
"g  c #546D35",
"h  c #5B7431",
"j  c #626B2A",
"k  c #65712C",
"l  c #6B762D",
"z  c #6E792E",
"x  c #717D2F",
"c  c #737F33",
"v  c #1D174F",
"b  c #381E58",
"n  c #162544",
"m  c #14284B",
"M  c #1D2E4B",
"N  c #173F42",
"B  c #122B51",
"V  c #201065",
"C  c #2C1765",
"Z  c #381D66",
"A  c #220F76",
"S  c #221072",
"D  c #3A1174",
"F  c #3D117A",
"G  c #073665",
"H  c #083564",
"J  c #03396B",
"K  c #11326F",
"L  c #142F7B",
"P  c #352164",
"I  c #164244",
"U  c #1E4444",
"Y  c #154648",
"T  c #144A4C",
"R  c #1B5B4C",
"E  c #304150",
"W  c #1E624C",
"Q  c #21694C",
"!  c #2A7946",
"~  c #25734C",
"^  c #357E40",
"/  c #2A426D",
"(  c #4C5740",
")  c #78524A",
"_  c #5D7343",
"`  c #69704F",
"'  c #555769",
"]  c #40637B",
"[  c #85636A",
"{  c #74802F",
"}  c #61873C",
"|  c #768230",
" . c #7A8631",
".. c #7D8A32",
"X. c #2F8243",
"o. c #2C834C",
"O. c #2F894C",
"+. c #308644",
"@. c #328A46",
"#. c #318D4A",
"$. c #34964C",
"%. c #31865A",
"&. c #639643",
"*. c #818E33",
"=. c #859335",
"-. c #889736",
";. c #8C9B37",
":. c #A88C70",
">. c #C5855B",
",. c #E59B6A",
"<. c #24138D",
"1. c #270C9F",
"2. c #35179C",
"3. c #0F3582",
"4. c #133389",
"5. c #183096",
"6. c #2B14A6",
"7. c #2A17B7",
"8. c #1E2BA4",
"9. c #2720BD",
"0. c #481B8A",
"q. c #450CB7",
"w. c #560FB1",
"e. c #5B33A5",
"r. c #5C5BBD",
"t. c #5A74B2",
"y. c #3409C6",
"u. c #291CC4",
"i. c #2F06D0",
"p. c #2F0AD5",
"a. c #3005D6",
"s. c #3606D7",
"d. c #3005D8",
"f. c #3D1FD7",
"g. c #5E0EC1",
"h. c #4506DF",
"j. c #570BDE",
"k. c #6B0DDD",
"l. c #5B27C9",
"z. c #5E31C7",
"x. c #4023D7",
"c. c #6620DA",
"v. c #5307E4",
"b. c #5A08E7",
"n. c #5E08E9",
"m. c #591DE3",
"M. c #6A0BE8",
"N. c #690AEE",
"B. c #730BF4",
"V. c #780BF7",
"C. c #7C27F7",
"Z. c #6A50CE",
"A. c #745ACE",
"S. c #9879C7",
"D. c #9779EF",
"F. c #8E62F5",
"G. c #9777F3",
"H. c #B696B4",
"J. c #D8B59E",
"K. c #D9B4AF",
"L. c #CFAAB6",
"P. c #F0C89F",
"I. c #F2CAA2",
"U. c #AC8DC2",
"Y. c #9A86E5",
"T. c #AE9DF1",
"R. c #C7C4E8",
"E. c #CFD2E4",
"W. c #D7DBE8",
/* pixels */
";.;.;.;.;.;.;.;.;.;.;.;.;.;.;.;.;.;.;.;.;.;.;.;.;.;.;.;.;.;.;.;.;.;.;.;.;.;.;.;.;.;.;.;.;.;.;.;.",
";.;.;.;.;.;.;.;.;.;.;.;.;.;.;.;.;.;.;.;.;.;.;.;.;.;.;.;.;.;.;.;.;.;.;.;.;.;.;.;.;.;.;.;.;.;.;.;.",
";.;.;.;.;.;.;.;.;.;.;.;.;.;.;.;.;.;.;.;.;.;.;.;.;.;.;.;.;.;.;.;.;.;.;.;.;.;.;.;.;.;.;.;.;.;.;.;.",
";.;.;.;.;.;.;.;.;.;.;.;.;.;.;.;.;.;.;.;.;.;.;.;.;.;.;.;.;.;.;.;.;.;.;.;.;.;.;.;.;.;.;.;.;.;.;.;.",
";.;.;.;.;.;.;.;.;.;.;.;.;.;.;.;.;.;.;.;.;.;.;.;.;.;.;.;.;.;.;.;.;.;.;.;.;.;.;.;.;.;.;.;.;.;.;.;.",
";.;.;.;.;.;.;.;.;.;.;.;.;.;.;.;.;.;.;.;.;.;.;.;.;.;.;.;.;.;.;.;.;.;.;.;.;.;.;.;.;.;.;.;.;.;.;.;.",
";.;.;.;.;.;.;.;.;.;.;.;.;.;.;.;.;.;.;.;.;.;.;.;.;.;.;.;.;.;.;.;.;.;.;.;.;.;.;.;.;.;.;.;.;.;.;.;.",
";.;.;.;.;.;.;.;.;.;.;.;.;.;.;.;.;.;.;.;.;.;.;.;.;.;.;.;.;.;.;.;.;.;.;.;.;.;.;.;.;.;.;.;.;.;.;.;.",
";.;.;.;.;.;.;.;.;.;.;.;.;.;.;.;.;.;.;.;.;.;.;.;.;.;.;.;.;.;.;.;.;.;.;.;.;.;.;.;.;.;.;.;.;.;.;.;.",
";.;.;.;.;.;.;.;.;.;.;.;.;.;.;.;.;.*.i i ;.;.;.-.;.;.;.;.;.;.;.;.;.;.;.;.;.;.;.;.;.;.;.;.;.;.;.;.",
";.;.;.;.;.;.;.;.O + O O + + + 1 ; > Y @ ; O ; O d ;.;.-.O ; =.;.;.;.;.-.;.i O ; O ..;.;.;.;.;.;.",
";.;.;.;.*.c v V 4.d.d.d.p.L H P 0.M.V.V.B.B.V.h.y.V  .4 #.8  .;.;.;.;.-.` M.V.k.e.*.;.;.;.;.;.;.",
";.;.;.{ M K u.d.d.d.d.d.d.7.F j.B.V.V.V.V.V.V.V.B.h.1.$.! & & z ;.;.;.*.w.V.g.j  .;.;.;.;.;.;.;.",
";.;. .E G u.d.d.d.d.d.d.i.2.j.V.V.V.V.V.V.V.V.V.V.b.d.Q W T T U x ;.;.' M.V.  ;.;.;.;.;.;.;.;.;.",
";.*.M J p.d.d.d.d.d.d.d.b s.N.V.V.V.V.V.V.V.V.V.V.b.d.$.o.Y T T < x ;.F V.V.  ;.;.;.;.;.;.;.;.;.",
";.*.m J p.d.d.d.d.d.d.Z p.v.V.V.V.V.V.V.V.V.V.V.V.b.d.$.$.~ W Q 6 | ;.F V.V.S ............;.;.;.",
";.*.m J p.d.d.d.d.d.7.2.d.v.V.V.V.V.V.V.V.V.V.B.V.b.s.w $.o.$.$.e { ;.F V.N.d.1.1.1.1.1.1.` ;.;.",
";.*.m J p.d.d.d.d.d.H.Z.d.v.V.V.V.V.V.V.F.R.F.B.V.b.5.. 4 ^ $.$.e { ;.` q.s.d.a.d.d.d.d.p.L i ;.",
";.a ,.[ / f.i.K.I.p.H.A.x.m.V.V.V.B.C.C.G.W.G.V.N.<.T R 8 $.$.$.e { ;.;.z 7.a.a.a.d.a.d.p.3.G d ",
";., >.) P.J.5.H.L.5.F b I.L.c.D.G.c.R.W.n.V.V.V.r.O.$.$.$.$.$.$.g ..;.;.;.k i u i u p 7.5.J G d ",
";.z l ( :.Y.i.i.d.d.d.C U.S.l.E.E.l.Y.T.V.V.z.t.$.$.$.$.$.$.$.q  .;.;.;.;.;.;.;.;.;.-.n J J G d ",
";.;.;.....V V V V V V # A s.N.F.F.V.V.V.D ] %.$.$.$.$.$.$.$.4 =.;.;.;.;.;.;.;.;.;.;.-.n J J G d ",
";.;.;.;.;.;.;.;.;.;.-.;.-.O O . Y T T T 4 $.$.$.$.$.$.@.O O =.;.;.;.;.;.;.;.;.;.-.-...n J J G d ",
";.;.;.;.;.;.;.;.;.;.;.;.;.;. .7 T T T T $.$.$.$.#.g s d -.;.;.| { x x ;.;.;.;.=.' <.<.J J J G d ",
";.;.;.;.;.;.;.;.;...d =.;.;.d Y T T T T $.$.$.$.X.y s d ;.;.k e e e X ;.;.;.-.' y.d.p.8.J J H d ",
";.;.;.;.;.;.;.;.;. .0 5 ;. .U T #.$.$.$.$.$.$.$.$.#.#.@.+ + X $.$.$.X ;.;.;.; i.a.d.p.9.J G : -.",
";.;.;.;.;.;.;.;.;. .r $.- * T #.$.$.$.$.$.$.$.$.$.$.$.$.$.$.$.$.$.0 1 1 1 { % d.a.d.p.7.H 7 ;.;.",
";.;.;.;.;.;.;.;.;.;.x r #.T T #.$.$.$.$.$.$.$.$.$.$.$.$.$.$.$.$.$.$.$.$.$.e J d.d.d.6.j d -.;.;.",
";.;.;.;.;.;.;.;.;.;.;. .8 T T $.$.$.$.$.$.$.$.$.$.$.$.$.$.$.$.$.$.$.$.$.$.$.%.s.d.d.o ;.;.;.;.;.",
";.;.;.;.;.;.;.;.;.;.;.;.@ T T O.$.$.$.$.$.$.$.$.$.$.$.$.$.$.$.$.$.$.$.$.$.$.$.5.d.d.o ;.;.;.;.;.",
";.;.;.;.;.;.;.;.;.;.;.;.@ T T $.$.$.$.$.$.$.$.$.$.$.$.$.$.$.$.$.$.$.$.$.$.$.$.J J 7 ;.;.;.;.;.;.",
";.;.;.;.;.;.;.;.;.;.;.;.@ T T $.$.$.$.$.$.$.$.$.$.~ #.$.#.#.$.#.~ $.$.$.$.$.$.B ( =.;.;.;.;.;.;.",
";.;.;.;.;.;.;.;.;.;.;.;.| * T W $.$.$.$.$.$.$.$.$.~ #.$.o.R W W ~ $.$.$.$.$.$.y =.;.;.;.;.;.;.;.",
";.;.;.;.;.;.;.;.;.;.;.;.=.% T T R $.$.$.#.~ $.$.$.~ T Y T T T R $.$.$.$.$.$.$.u ;.;.;.;.;.;.;.;.",
";.;.;.;.;.;.;.;.;.;.;.;.-.% T T T Y N N N ~ $.$.$.~ I I T T T R $.$.$.$.$.$.X.h ;.;. .*.;.;.;.;.",
";.;.;.;.;.;.;.;.;.;.;.;.f N T T T N s l - o.$.$.$.9   = T T T R $.$.$.$.$.$.  ;.;.l 0 i ;.;.;.;.",
";.;.;.;.;.;.;.;.;.;.;.;.@ T T T Y f -.;.2 $.$.$.+.k 3 T T T T T ! $.$.$.$.$.+.y y ^ #.s ;.;.;.;.",
";.;.;.;.;.;.;.;.;.;.;.;.@ T T T I j ;.;.2 $.$.$.X.l y T T T T T N ^ $.$.$.$.$.$.$.$.#.d ;.;.;.;.",
";.;.;.;.;.;.;.;.;.;.;. .& T T T 6 z ;. .0 $.$.$.r  .j = T T T T = y ^ X.@.$.$.$.$.+.d ;.;.;.;.;.",
";.;.;.;.;.;.;.;.;.;.;.t T T T T t ;.;.o $.$.$.$.i ;.;.z & I T T = | z z h 9 $.$.$.2 ;.;.;.;.;.;.",
";.;.;.;.;.;.;.;.;.;.;.t T T T $ =.;.;.o $.$.$.- =.;.;.-.% T T T <  .;.;.l +.$.$.$.2 ;.;.;.;.;.;.",
";.;.;.;.;.;.;.;.;.;.j Y T T Y : ;.;.i $.$.$.#.t ;.;.;.@ T T T U h ;.;...0 $.$.$.q *.;.;.;.;.;.;.",
";.;.;.;.;.;.;.;.;.;.| _ _ _ f ;.;.;.z &.&.&.h ;.;.;.;.f _ _ _ k -.;.;.-.} } } }  .;.;.;.;.;.;.;.",
";.;.;.;.;.;.;.;.;.;.;.;.;.;.;.;.;.;.;.;.;.;.;.;.;.;.;.;.;.;.;.;.;.;.;.;.;.;.;.;.;.;.;.;.;.;.;.;.",
";.;.;.;.;.;.;.;.;.;.;.;.;.;.;.;.;.;.;.;.;.;.;.;.;.;.;.;.;.;.;.;.;.;.;.;.;.;.;.;.;.;.;.;.;.;.;.;.",
";.;.;.;.;.;.;.;.;.;.;.;.;.;.;.;.;.;.;.;.;.;.;.;.;.;.;.;.;.;.;.;.;.;.;.;.;.;.;.;.;.;.;.;.;.;.;.;.",
";.;.;.;.;.;.;.;.;.;.;.;.;.;.;.;.;.;.;.;.;.;.;.;.;.;.;.;.;.;.;.;.;.;.;.;.;.;.;.;.;.;.;.;.;.;.;.;.",
";.;.;.;.;.;.;.;.;.;.;.;.;.;.;.;.;.;.;.;.;.;.;.;.;.;.;.;.;.;.;.;.;.;.;.;.;.;.;.;.;.;.;.;.;.;.;.;."
};
