/* XPM */
static char *result[] = {
/* columns rows colors chars-per-pixel */
"48 48 251 2 ",
"   c #1C131C",
".  c #1C161C",
"X  c #1C161E",
"o  c #1D221E",
"O  c #2C2B1D",
"+  c #35361F",
"@  c #1B2429",
"#  c #1F3523",
"$  c #1A2B30",
"%  c #1A2E32",
"&  c #17223E",
"*  c #193236",
"=  c #183538",
"-  c #183639",
";  c #18383B",
":  c #183B3E",
">  c #362A20",
",  c #203A25",
"<  c #203E2B",
"1  c #393D2A",
"2  c #2F3335",
"3  c #2B393B",
"4  c #453730",
"5  c #224529",
"6  c #3D4021",
"7  c #24502D",
"8  c #234B30",
"9  c #204D37",
"0  c #24403C",
"q  c #27443F",
"w  c #2A433C",
"e  c #29463E",
"r  c #245632",
"t  c #265B31",
"y  c #276335",
"u  c #2A6D39",
"i  c #2B733C",
"p  c #2C773E",
"a  c #2C793E",
"s  c #434822",
"d  c #4A4F23",
"f  c #4D5324",
"g  c #4F5525",
"h  c #525825",
"j  c #535A26",
"k  c #565E26",
"l  c #454F3E",
"z  c #475330",
"x  c #455434",
"c  c #586027",
"v  c #596228",
"b  c #5C6528",
"n  c #5E6629",
"m  c #586A2D",
"M  c #416833",
"N  c #596734",
"B  c #596938",
"V  c #626C2A",
"C  c #646E2B",
"Z  c #656F2B",
"A  c #656F2D",
"S  c #67712B",
"D  c #69732C",
"F  c #6A752C",
"G  c #6B752C",
"H  c #6C772D",
"J  c #6D782D",
"K  c #6E792D",
"L  c #707C2E",
"P  c #737F2F",
"I  c #626C32",
"U  c #616C38",
"Y  c #687435",
"T  c #6E7A34",
"R  c #707C34",
"E  c #1F114E",
"W  c #1B1C4A",
"Q  c #1F115A",
"!  c #2F1159",
"~  c #30115C",
"^  c #17234D",
"/  c #132A4E",
"(  c #132A4F",
")  c #173D40",
"_  c #122B51",
"`  c #371D68",
"'  c #230F79",
"]  c #142C69",
"[  c #0B3360",
"{  c #093462",
"}  c #083E64",
"|  c #03396A",
" . c #03396B",
".. c #043869",
"X. c #093776",
"o. c #063870",
"O. c #292B6D",
"+. c #164043",
"@. c #164143",
"#. c #164345",
"$. c #164346",
"%. c #154547",
"&. c #154548",
"*. c #154749",
"=. c #14484A",
"-. c #13494F",
";. c #144A4C",
":. c #154C4C",
">. c #17524C",
",. c #18544C",
"<. c #19564C",
"1. c #1C5D4C",
"2. c #3E4A46",
"3. c #35434B",
"4. c #1E604C",
"5. c #1F634C",
"6. c #20654C",
"7. c #226A4C",
"8. c #2D7D40",
"9. c #2E7C40",
"0. c #27774C",
"q. c #287A4C",
"w. c #297B4C",
"e. c #2B7F4C",
"r. c #4B5740",
"t. c #587045",
"y. c #5B625C",
"u. c #6B754D",
"i. c #656759",
"p. c #4A5170",
"a. c #95797D",
"s. c #5D863C",
"d. c #75812F",
"f. c #768230",
"g. c #778330",
"h. c #788531",
"j. c #798531",
"k. c #798631",
"l. c #7A8731",
"z. c #7B8731",
"x. c #7B8831",
"c. c #7B8832",
"v. c #7D8A32",
"b. c #7E8C33",
"n. c #7F8C33",
"m. c #79853B",
"M. c #2F8443",
"N. c #2C834C",
"B. c #2D854C",
"V. c #338041",
"C. c #308845",
"Z. c #308946",
"A. c #318A46",
"S. c #308C4C",
"D. c #308D4C",
"F. c #318E4C",
"G. c #329049",
"H. c #33944B",
"J. c #33944C",
"K. c #34954C",
"L. c #34964C",
"P. c #308266",
"I. c #439449",
"U. c #5F9443",
"Y. c #5F9845",
"T. c #768141",
"R. c #818F33",
"E. c #828F34",
"W. c #849234",
"Q. c #859335",
"!. c #869435",
"~. c #879535",
"^. c #879635",
"/. c #8A9836",
"(. c #8A9936",
"). c #8B9A37",
"_. c #8C9A37",
"`. c #8C9B37",
"'. c #E59B6A",
"]. c #240E87",
"[. c #251396",
"{. c #0F3581",
"}. c #13338A",
"|. c #15318B",
" X c #14328B",
".X c #14338B",
"XX c #14328C",
"oX c #280CA1",
"OX c #241CA4",
"+X c #2128AD",
"@X c #382DA5",
"#X c #2425B4",
"$X c #4F10A1",
"%X c #5B0FBB",
"&X c #542ABE",
"*X c #31729A",
"=X c #32749D",
"-X c #325EB5",
";X c #2D08C6",
":X c #2D07C8",
">X c #2E07CE",
",X c #281DC0",
"<X c #2A1AC6",
"1X c #2B18C8",
"2X c #2F06D4",
"3X c #3006D6",
"4X c #3005D8",
"5X c #2D11D0",
"6X c #3F22D7",
"7X c #4A0ACC",
"8X c #4308D2",
"9X c #4406DE",
"0X c #6421D7",
"qX c #6521D8",
"wX c #6A26DC",
"eX c #4D07E1",
"rX c #5207E3",
"tX c #5B08E7",
"yX c #6A09EF",
"uX c #720CEA",
"iX c #700AF2",
"pX c #720AF3",
"aX c #750BF2",
"sX c #780BF6",
"dX c #780BF7",
"fX c #304AC2",
"gX c #314BC4",
"hX c #4A46C9",
"jX c #765AD0",
"kX c #7A60CF",
"lX c #7247EA",
"zX c #9B7EA9",
"xX c #8F6EC3",
"cX c #8B5BF5",
"vX c #8E62F5",
"bX c #9E818B",
"nX c #A288AC",
"mX c #C2A0A0",
"MX c #CEABA3",
"NX c #DFBAAD",
"BX c #E5BFA9",
"VX c #EEC79F",
"CX c #F3CBA1",
"ZX c #9F81C6",
"AX c #AC8DC2",
"SX c #B689D5",
"DX c #B1A1F1",
"FX c #B7ABF0",
"GX c #C8C5ED",
"HX c #CDCCEC",
"JX c #DDE2E9",
/* pixels */
"`.`.`.`.`.`.`.`.`.`.`.`.`.`.`.`.`.`.`.`.`.`.`.`.`.`.`.`.`.`.`.`.`.`.`.`.`.`.`.`.`.`.`.`.`.`.`.`.",
"`.`.`.`.`.`.`.`.`.`.`.`.`.`.`.`.`.`.`.`.`.`.`.`.`.`.`.`.`.`.`.`.`.`.`.`.`.`.`.`.`.`.`.`.`.`.`.`.",
"`.`.`.`.`.`.`.`.`.`.`.`.`.`.`.`.`.`.`.`.`.`.`.`.`.`.`.`.`.`.`.`.`.`.`.`.`.`.`.`.`.`.`.`.`.`.`.`.",
"`.`.`.`.`.`.`.`.`.`.`.`.`.`.`.`.`.`.`.`.`.`.`.`.`.`.`.`.`.`.`.`.`.`.`.`.`.`.`.`.`.`.`.`.`.`.`.`.",
"`.`.`.`.`.`.`.`.`.`.`.`.`.`.`.`.`.`.`.`.`.`.`.`.`.`.`.`.`.`.`.`.`.`.`.`.`.`.`.`.`.`.`.`.`.`.`.`.",
"`.`.`.`.`.`.`.`.`.`.`.`.`.`.`.`.`.`.`.`.`.`.`.`.`.`.`.`.`.`.`.`.`.`.`.`.`.`.`.`.`.`.`.`.`.`.`.`.",
"`.`.`.`.`.`.`.`.`.`.`.`.`.`.`.`.`.`.`.`.`.`.`.`.`.`.`.`.`.`.`.`.`.`.`.`.`.`.`.`.`.`.`.`.`.`.`.`.",
"`.`.`.`.`.`.`.`.`.`.`.`.`.`.`.`.`.`.`.`.`.`.`.`.`.`.`.`.`.`.`.`.`.`.`.`.`.`.`.`.`.`.`.`.`.`.`.`.",
"`.`.`.`.`.`.`.`.`.`.`.`.`.`.`.`.`.`.`.`.`.`.`.`.`.`.`.`.`.`.`.`.`.`.`.`.`.`.`.`.`.`.`.`.`.`.`.`.",
"`.`.`.`.`.`.`.`.`.`.`.`.`.`.`.`.`.`.`.`.`.`.`.`.`.`.`.`.`.`.`.`.`.`.`.`.`.`.`.`.`.`.`.`.`.`.`.`.",
"`.`.`.`.`.`.`.`.`.`.`.`.`.`.`.`.`.`.`.`.`.`.`.`.`.`.`.`.`.`.`.`.`.`.`.`.`.`.`.`.`.`.`.`.`.`.`.`.",
"`.`.`.`.`.`.`.`.`.`.`.`.`.`.`.`.`.`.`.`.`.`.`.`.`.`.`.P P P P `.`.`.`.`.`.`.`.`.`.`.k.P P `.`.`.",
"`.`.`.`.`.`.`.`.`.`.`.`.`.`.`.`.`.`.`.`.`.`.`.`.`.m.! yXdXdX9X! E !.!.# c `.`.`.`.`.j aXdX~ T.`.",
"`.`.`.`.`.`.`.`.`.`.`.`.`.`.`.`.`.`.`.`.`.`.`.`.L 8XdXdXdXdXdXdXiX:XP.u O `.`.`.`.`.`.i.$XdXuXH ",
"`.`.`.`.`.`.`.`.`.`.`.`.`.`.`.`.`.`.`.`.`.`.`.K 7XdXdXdXdXdXdXdXdXpX-X1.;.0 !.`.`.`.`.`.x.sXdX%X",
"`.`.`.`.`.`.`.`.`.`.`.`.`.`.`.`.`.`.`.`.`.`.g.;XtXdXdXdXdXdXdXdXdXpX4XL.4.;.@ `.`.`.`.E.( 0XqX_ ",
"`.`.`.`.`.`.`.`.`.`.`.`.`.`.`.`.`.`.`.`.`.x.4 4XtXdXdXdXdXdXdXdXdXpX2XK.N.L.5 `.`.`.`.oX4XX...S ",
"`.`.`.`.`.`.`.`.`.`.`.`.`.`.`.`.`.`.`.`.`.x.CXmXSXdXdXdXdXcXHXyXdX9XQ < L.L.5 `.`.`.b >X4X4XT `.",
"`.`.`.`.`.`.`.`.`.`.`.`.`.`.`.`.`.`.`.`.`.`.F zXxXjXFX&XJXlXDXdXeX*Xq.Z.L.L.5 `.`.`.d 4X4X4Xl.`.",
"`.`.`.`.`.`.`.`.`.`.`.`.`.`.`.`.`.`.`.`.`.`.`.@XrXvXGXdXdXdXwXhXw.L.L.L.L.V.W.`.`.`.d 4X4X4Xu.`.",
"`.`.`.`.`.`.`.`.`.`.`.`.`.`.`.`.`.`.`._._.z.    ;.;.;.;.;.5 L.L.L.L.L.K.9._._._.`.`.`.oX4X4X' `.",
"`.`.`.`.`.f.f f f f `.`.`.f `.`.`.f f e @.$.;.;.;.;.;.;.7.L.L.L.L.7 7 c.K M.M.t `.`.`.y.4X4X;XL ",
"`.`.`.F 2.OX#X4X4X1X[.I x ) A - - ;.;.;.;.;.0.;.;.<.0.0.B.L.L.L.C.u u u 8.L.p h D `.`.r.4X4X4XZ ",
"`.`.R |.4X4X4X4X4X4X5Xo.-.3 ;.;.;.;.;.;.;.;.L.6.;.L.L.L.L.L.L.L.L.L.L.L.L.L.L.L.L.8 W  .}.<X.XZ ",
"`.G  X4X4X4X4X4X4X4X4X{.| ;.;.;.;.;.;.;.X X o 6.;.L.L.L.L.L.L.L.L.L.L.L.L.L.L.L.L.L.fX . . . .Z ",
"`./ XX4X4X4X4X4X4X4X4X{. .;.2 * $ z h.h.`.`.`.+.;.L.L.L.L.L.L.L.L.L.L.L.L.L.L.L.L.L.gX . . .Y `.",
"g '.O.3X4XkXZX4XAXnXBX{.} %.> !.`.`.`.`.`.`.`.+.;.L.L.L.L.L.L.L.D.L.L.S.L.,.L.L.L.L.=X[ 3.V `.`.",
"n +  .VXa.bXMX` NX+X,X{ s C `.`.`.`.`.`.`.`.`.q ;.F.L.L.L.L.L.L.e.S.S.;.;.>.J.L.L.L.L.D `.`.`.`.",
"`./.& p.6X4X4X4X4X] 1 ~.`.`.`.`.`.`.`.`.`.`.`.g ;.:.J.L.L.5.L.L.e.;.;.;.;.;.S.L.L.L.L.D `.`.`.`.",
"`.`.^.d.l ].].^ U b.`.`.`.`.`.`.`.`.`.`.`.`.`.g ;.;.;.; % 9 L.L.a K &.;.;.=.r L.L.L.L.D R.9.l.`.",
"`.`.`.`.`.`.`.`.`.`.`.`.`.`.`.`.`.`.`.`.`.`.`.H #.;.;.g.`.m H.L.a ^.w ;.;.*.k A.L.L.L.y i L.l.`.",
"`.`.`.`.`.`.`.`.`.`.`.`.`.`.`.`.`.`.`.`.`.`.`.`.= ;.;.g.`.R.G.L.a `.`.O ;.;.@ D I.L.L.L.H.6 `.`.",
"`.`.`.`.`.`.`.`.`.`.`.`.`.`.`.`.`.`.`.`.`.`.`.`.= ;.;.g.`.R.G.L.a `.`.n ;.;.@ `.(., C.L.M._.`.`.",
"`.`.`.`.`.`.`.`.`.`.`.`.`.`.`.`.`.`.`.`.`.`.`.`.= ;.;.g.`.R.G.L.a `.`.v.: ;.;.J `.).M L.L.. `.`.",
"`.`.`.`.`.`.`.`.`.`.`.`.`.`.`.`.`.`.`.`.`.`.`.`.B t.t.n.`.Q.U.Y.s.`.`.`.N t.t.j.`.`.S Y.Y.v `.`.",
"`.`.`.`.`.`.`.`.`.`.`.`.`.`.`.`.`.`.`.`.`.`.`.`.`.`.`.`.`.`.`.`.`.`.`.`.`.`.`.`.`.`.`.`.`.`.`.`.",
"`.`.`.`.`.`.`.`.`.`.`.`.`.`.`.`.`.`.`.`.`.`.`.`.`.`.`.`.`.`.`.`.`.`.`.`.`.`.`.`.`.`.`.`.`.`.`.`.",
"`.`.`.`.`.`.`.`.`.`.`.`.`.`.`.`.`.`.`.`.`.`.`.`.`.`.`.`.`.`.`.`.`.`.`.`.`.`.`.`.`.`.`.`.`.`.`.`.",
"`.`.`.`.`.`.`.`.`.`.`.`.`.`.`.`.`.`.`.`.`.`.`.`.`.`.`.`.`.`.`.`.`.`.`.`.`.`.`.`.`.`.`.`.`.`.`.`.",
"`.`.`.`.`.`.`.`.`.`.`.`.`.`.`.`.`.`.`.`.`.`.`.`.`.`.`.`.`.`.`.`.`.`.`.`.`.`.`.`.`.`.`.`.`.`.`.`.",
"`.`.`.`.`.`.`.`.`.`.`.`.`.`.`.`.`.`.`.`.`.`.`.`.`.`.`.`.`.`.`.`.`.`.`.`.`.`.`.`.`.`.`.`.`.`.`.`.",
"`.`.`.`.`.`.`.`.`.`.`.`.`.`.`.`.`.`.`.`.`.`.`.`.`.`.`.`.`.`.`.`.`.`.`.`.`.`.`.`.`.`.`.`.`.`.`.`.",
"`.`.`.`.`.`.`.`.`.`.`.`.`.`.`.`.`.`.`.`.`.`.`.`.`.`.`.`.`.`.`.`.`.`.`.`.`.`.`.`.`.`.`.`.`.`.`.`.",
"`.`.`.`.`.`.`.`.`.`.`.`.`.`.`.`.`.`.`.`.`.`.`.`.`.`.`.`.`.`.`.`.`.`.`.`.`.`.`.`.`.`.`.`.`.`.`.`.",
"`.`.`.`.`.`.`.`.`.`.`.`.`.`.`.`.`.`.`.`.`.`.`.`.`.`.`.`.`.`.`.`.`.`.`.`.`.`.`.`.`.`.`.`.`.`.`.`.",
"`.`.`.`.`.`.`.`.`.`.`.`.`.`.`.`.`.`.`.`.`.`.`.`.`.`.`.`.`.`.`.`.`.`.`.`.`.`.`.`.`.`.`.`.`.`.`.`.",
"`.`.`.`.`.`.`.`.`.`.`.`.`.`.`.`.`.`.`.`.`.`.`.`.`.`.`.`.`.`.`.`.`.`.`.`.`.`.`.`.`.`.`.`.`.`.`.`.",
"`.`.`.`.`.`.`.`.`.`.`.`.`.`.`.`.`.`.`.`.`.`.`.`.`.`.`.`.`.`.`.`.`.`.`.`.`.`.`.`.`.`.`.`.`.`.`.`."
};
