/* XPM */
static char *result[] = {
/* columns rows colors chars-per-pixel */
"48 48 163 2 ",
"   c #1C131B",
".  c #29181E",
"X  c #1D201E",
"o  c #26221C",
"O  c #302F1E",
"+  c #1A1A2E",
"@  c #1B1735",
"#  c #2B1921",
"$  c #1B2527",
"%  c #192F33",
"&  c #17223F",
"*  c #193034",
"=  c #18363A",
"-  c #18393C",
";  c #2B2329",
":  c #392022",
">  c #392128",
",  c #203B25",
"<  c #362532",
"1  c #283B3A",
"2  c #5C3D2E",
"3  c #23482A",
"4  c #3D4126",
"5  c #24522E",
"6  c #3C5E2F",
"7  c #204E36",
"8  c #255830",
"9  c #276134",
"0  c #296937",
"q  c #2C793E",
"w  c #3A783D",
"e  c #4B5124",
"r  c #555C26",
"t  c #4E5735",
"y  c #505B3E",
"u  c #586027",
"i  c #5B6428",
"p  c #5B682B",
"a  c #4A6E34",
"s  c #636C2A",
"d  c #66702B",
"f  c #6A742C",
"g  c #6E792D",
"h  c #727D2E",
"j  c #616C30",
"k  c #677830",
"l  c #1E1145",
"z  c #1F1153",
"x  c #27115D",
"c  c #31115D",
"v  c #18224B",
"b  c #122B51",
"n  c #122D5F",
"m  c #0E315C",
"M  c #13305A",
"N  c #302941",
"B  c #283A50",
"V  c #381769",
"C  c #220F77",
"Z  c #221072",
"A  c #0A3665",
"S  c #053768",
"D  c #03396B",
"F  c #173664",
"G  c #1C227B",
"H  c #0B3779",
"J  c #38366C",
"K  c #3E3D72",
"L  c #154547",
"P  c #154749",
"I  c #144A4C",
"U  c #1A574C",
"Y  c #234441",
"T  c #35444D",
"R  c #226A4B",
"E  c #2D7B41",
"W  c #26734C",
"Q  c #297C4C",
"!  c #297D59",
"~  c #4C5544",
"^  c #714F4C",
"/  c #5B625D",
"(  c #6A7443",
")  c #5D6461",
"_  c #A8714E",
"`  c #AD7756",
"'  c #74802F",
"]  c #768330",
"[  c #7A8731",
"{  c #7D8A32",
"}  c #2C824C",
"|  c #318A47",
" . c #318D49",
".. c #34964C",
"X. c #318E51",
"o. c #338B71",
"O. c #818E33",
"+. c #859335",
"@. c #899736",
"#. c #8C9B37",
"$. c #AC8D70",
"%. c #E59B6A",
"&. c #300F88",
"*. c #201D86",
"=. c #270D9A",
"-. c #182D87",
";. c #103583",
":. c #173291",
">. c #3B3696",
",. c #280DA3",
"<. c #290CA9",
"1. c #2C0ABA",
"2. c #1E2BA6",
"3. c #2624B9",
"4. c #2E7287",
"5. c #2C46B4",
"6. c #5C409B",
"7. c #2D09C3",
"8. c #2E07CA",
"9. c #291CC4",
"0. c #2C15CB",
"q. c #2F06D2",
"w. c #3005D6",
"e. c #3108D2",
"r. c #3005D8",
"t. c #313BCC",
"y. c #4F0CD8",
"u. c #610ECA",
"i. c #660DD1",
"p. c #690DD8",
"a. c #671FDB",
"s. c #472BD6",
"d. c #6721D5",
"f. c #662AD6",
"g. c #4B07E1",
"h. c #5007E3",
"j. c #5D08E8",
"k. c #6D0DE1",
"l. c #6909EF",
"z. c #7212EB",
"x. c #760BF6",
"c. c #780BF7",
"v. c #6C55D4",
"b. c #846A9C",
"n. c #8B6FCB",
"m. c #997BC8",
"M. c #8D5EF5",
"N. c #9379ED",
"B. c #9066F5",
"V. c #A98E9C",
"C. c #BEA088",
"Z. c #A085B4",
"A. c #B998B9",
"S. c #CBA885",
"D. c #D3AFAE",
"F. c #E2BCAB",
"G. c #F3CBA1",
"H. c #A789C4",
"J. c #A995F2",
"K. c #B8ADEF",
"L. c #B5B6E4",
"P. c #CFD0EB",
"I. c #DDE2E9",
/* pixels */
"#.#.#.#.#.#.#.#.#.#.#.#.#.#.#.#.#.#.#.#.#.#.#.#.#.#.#.#.#.#.#.#.#.#.#.#.#.#.#.#.#.#.#.#.#.#.#.#.",
"#.#.#.#.#.#.#.#.#.#.#.#.#.#.#.#.#.#.#.#.#.#.#.#.#.#.#.#.#.#.#.#.#.#.#.#.#.#.#.#.#.#.#.#.#.#.#.#.",
"#.#.#.#.#.#.#.#.#.#.#.#.#.#.#.#.#.#.#.#.#.#.#.#.#.#.#.#.#.#.#.#.#.#.#.#.#.#.#.#.#.#.#.#.#.#.#.#.",
"#.#.#.#.#.#.#.#.#.#.#.#.#.#.#.#.#.#.#.#.#.#.#.#.#.#.#.#.#.#.#.#.#.#.#.#.#.#.#.#.#.#.#.#.#.#.#.#.",
"#.#.#.#.#.#.#.#.#.#.#.#.#.#.#.#.#.#.#.#.#.#.#.#.#.#.#.#.#.#.#.#.#.#.#.#.#.#.#.#.#.#.#.#.#.#.#.#.",
"#.#.#.#.#.#.#.#.#.#.#.#.#.#.#.#.#.#.#.#.#.#.#.#.#.#.#.#.#.#.#.#.#.#.#.#.#.#.#.#.#.#.#.#.#.#.#.#.",
"#.#.#.#.#.#.#.#.#.#.#.#.#.#.#.#.#.#.#.#.#.#.#.#.#.#.#.#.#.#.#.#.#.#.#.#.#.#.#.#.#.#.#.#.#.#.#.#.",
"#.#.#.#.#.#.#.#.#.#.#.#.#.#.#.#.#.#.#.#.#.#.#.#.#.#.#.#.#.#.#.#.#.#.#.#.#.#.#.#.#.#.#.#.#.#.#.#.",
"#.#.#.#.#.#.#.#.#.#.#.#.#.#.#.#.#.#.#.#.#.#.#.#.#.#.#.#.#.#.#.#.#.#.#.#.#.#.#.#.#.#.#.#.#.#.#.#.",
"#.#.#.#.#.#.#.#.#.#.#.#.#.#.#.#.#.#.#.#.#.#.#.#.#.#.#.#.#.#.#.#.#.#.#.#.#.#.#.#.#.#.#.#.#.#.#.#.",
"#.#.#.#.#.#.#.#.#.#.#.#.#.#.#.#.#.#.#.#.#.#.#.#.#.#.#.#.#.#.#.#.#.#.#.#.#.#.#.#.#.#.#.#.#.#.#.#.",
"#.#.#.#.#.#.#.#.#.#.#.#.#.#.#.#.#.#.#.#.#.#.#.#.#.#.#.#.#.#.#.#.#.#.#.#.#.#.#.#.#.#.#.#.#.#.#.#.",
"#.#.#.#.#.#.#.#.#.#.#.#.#.#.#.#.#.#.#.#.#.#.#.#.#.#.#.#.#.#.#.#.#.#.#.#.#.#.#.#.#.#.#.#.#.#.#.#.",
"#.#.+.+.+.@.#.#.#.#.#.#.#.#.#.#.#.#.#.#.#.#.@.x c c c +.@.+.#.#.+.+.#.#.#.#.+.@.+.+.#.#.#.#.#.#.",
"#.h m m m t r r #.#.#.#.#.#.#.#.#.#.#.#.@.~ u.l.x.x.c.i.u.1.r r E   #.#.#.] u.i.i.i.r r r +.#.#.",
"{ m D D w.r.w.:.C K [ #.#.#.#.#.#.#.#.#./ g.x.c.c.x.c.c.c.x.g.o.q % j #.#.#.r 6.p.z.c.c.x.&.+.#.",
"o D D S r.r.r.r.r.q.-.p #.#.#.#.#.#.#.e y.c.c.c.c.c.c.c.c.c.l.t.U I L r #.#.#.+.{ / V k.l.r.>.#.",
". %.: : V e.H.r.r.r.r.7.( #.#.#.#.' ) 8.j.x.c.c.c.c.c.c.c.c.l.r...W I L [ #.#.#.#.#.#.e 9.r.*.#.",
"o F : : O > G.r.r.r.r.r.;.s #.#.#.e D.r.l.x.c.c.c.c.c.c.c.c.l.r.....Q  .[ #.#.#.#.  . A D D b #.",
"#.m : : : : : # 7.r.r.r.r.~ @.s #.' b.A.N.c.c.c.c.c.K.N.c.c.h.x 7 ....| [ #.#.[ ,.3.D D D D y #.",
"#.f M > > > :     v.s.r.r.<.$ % X X ; F.V.>.M.z.P.L.P.J.c.g.5.U 0 .... .[ #.#.=.q.r.0.A A 4 #.#.",
"#.#.] ` ` <       G.n.r.r.8.P L I I I 0.l.v.I.a.N.B.c.c.y.4...........6 @.#.#.=.r.r.K [ ] #.#.#.",
"#.#.+._ ` B @     z q.q.r.r.I I I I I I 9.f.f.f.f.d.v.R ............a #.#.#.#.=.r.r.K +.#.#.#.#.",
"#.#.@.+.#.O b       1.r.r.r.I 1 I I I I I I I I I R ............, , @.#.#.#.#.=.r.r.r.J #.#.#.#.",
"#.#.#.#.+.B & .   l 8.r.r.r.I I ; - - - I I I I I } ......9   p #.#.a 0 0 u #.[ <.r.r.Z #.#.#.#.",
"#.#.#.#.v < O   C.F.q.r.r.<.o o #.e i @.- I I I I ............3   $ ....5 #.#.#.@ r.r.C @.#.#.#.",
"#.#.@.T N : : : b.m.r.r.r.G #.#.#.e  .p L } ............................q q q p n r.r.r.i #.#.#.",
"#.#.; ^ : : : : 3.r.r.r.0.s #.#.@.i  .U I ....................................! D 3.q.0.i #.#.#.",
"#.#.2 %.: S.$.n r.r.r.9.l +.#.#.#.#.k I I ......................................D ;.:.H i #.#.#.",
"#.#.+ N : C.Z.r.r.r.9.T @.#.#.#.#.#.' P I .......................... ...........D D S t #.#.#.#.",
"#.#.{ m F A 2.r.r.8.@ #.#.#.#.#.#.#.' P I ................R ....W ..W ........X.X.D 4 #.#.#.#.#.",
"#.#.#.] b b v ,.d g #.#.#.#.#.#.#.@.O.7 I Q ..............R Q Q I I I Q ..........r #.#.#.#.#.#.",
"#.#.#.#.#.#.#.#.#.#.#.#.#.#.#.#.#.#.#.O I I Q ....Q ......R P I I I I U ..........h #.@.@.#.#.#.",
"#.#.#.#.#.#.#.#.#.#.#.#.#.#.#.#.#.#.#.O I I I * % % ......8 s L I I I ;  .........h +.w i @.#.#.",
"#.#.#.#.#.#.#.#.#.#.#.#.#.#.#.#.#.#.#.#.= I I e #.#.o ....8 O.Y I I I o w ........3 8 ..i #.#.#.",
"#.#.#.#.#.#.#.#.#.#.#.#.#.#.#.#.#.#.#.#.= I I e #.#.o ....8 #.O.- I I 7 h 0 ..........9 +.#.#.#.",
"#.#.#.#.#.#.#.#.#.#.#.#.#.#.#.#.#.#.#.] L I I e #.+.8 ....8 #.#.g I I L [ { i E ....| { @.#.#.#.",
"#.#.#.#.#.#.#.#.#.#.#.#.#.#.#.#.#.#.#.O I I I e #.h ......8 #.#.g I I L { #.#.f ....| { #.#.#.#.",
"#.#.#.#.#.#.#.#.#.#.#.#.#.#.#.#.#.#.#.O I I * #.#.h .... .[ #.#.g I I L [ #.#.f ....| { #.#.#.#.",
"#.#.#.#.#.#.#.#.#.#.#.#.#.#.#.#.#.#.#.#.#.#.#.#.#.#.#.#.#.#.#.#.#.#.#.#.#.#.#.#.#.@.#.#.#.#.#.#.",
"#.#.#.#.#.#.#.#.#.#.#.#.#.#.#.#.#.#.#.#.#.#.#.#.#.#.#.#.#.#.#.#.#.#.#.#.#.#.#.#.#.#.#.#.#.#.#.#.",
"#.#.#.#.#.#.#.#.#.#.#.#.#.#.#.#.#.#.#.#.#.#.#.#.#.#.#.#.#.#.#.#.#.#.#.#.#.#.#.#.#.#.#.#.#.#.#.#.",
"#.#.#.#.#.#.#.#.#.#.#.#.#.#.#.#.#.#.#.#.#.#.#.#.#.#.#.#.#.#.#.#.#.#.#.#.#.#.#.#.#.#.#.#.#.#.#.#.",
"#.#.#.#.#.#.#.#.#.#.#.#.#.#.#.#.#.#.#.#.#.#.#.#.#.#.#.#.#.#.#.#.#.#.#.#.#.#.#.#.#.#.#.#.#.#.#.#.",
"#.#.#.#.#.#.#.#.#.#.#.#.#.#.#.#.#.#.#.#.#.#.#.#.#.#.#.#.#.#.#.#.#.#.#.#.#.#.#.#.#.#.#.#.#.#.#.#.",
"#.#.#.#.#.#.#.#.#.#.#.#.#.#.#.#.#.#.#.#.#.#.#.#.#.#.#.#.#.#.#.#.#.#.#.#.#.#.#.#.#.#.#.#.#.#.#.#.",
"#.#.#.#.#.#.#.#.#.#.#.#.#.#.#.#.#.#.#.#.#.#.#.#.#.#.#.#.#.#.#.#.#.#.#.#.#.#.#.#.#.#.#.#.#.#.#.#.",
"#.#.#.#.#.#.#.#.#.#.#.#.#.#.#.#.#.#.#.#.#.#.#.#.#.#.#.#.#.#.#.#.#.#.#.#.#.#.#.#.#.#.#.#.#.#.#.#."
};
