/* XPM */
static char *result[] = {
/* columns rows colors chars-per-pixel */
"48 48 183 2 ",
"   c #1C121B",
".  c #221B1C",
"X  c #2C2A1D",
"o  c #2E311F",
"O  c #33331E",
"+  c #1D162B",
"@  c #20122E",
"#  c #1B252A",
"$  c #1F3623",
"%  c #1A2C31",
"&  c #17213D",
"*  c #18203A",
"=  c #183639",
"-  c #18393C",
";  c #392222",
":  c #2A3624",
">  c #3B3D20",
",  c #2C2337",
"<  c #1A463F",
"1  c #214027",
"2  c #214328",
"3  c #3E4223",
"4  c #354629",
"5  c #24502D",
"6  c #2C433B",
"7  c #3D4C34",
"8  c #265B31",
"9  c #235538",
"0  c #276335",
"q  c #286736",
"w  c #296C39",
"e  c #336634",
"r  c #2B723C",
"t  c #2D7A3F",
"y  c #36763C",
"u  c #414421",
"i  c #454D26",
"p  c #4C5224",
"a  c #48592A",
"s  c #515725",
"d  c #545C26",
"f  c #4C483A",
"g  c #4D5836",
"h  c #4B642E",
"j  c #596227",
"k  c #5C6428",
"l  c #5B652C",
"z  c #476B33",
"x  c #596735",
"c  c #597231",
"v  c #636C2A",
"b  c #65752F",
"n  c #69742C",
"m  c #6F7B2E",
"M  c #717D2E",
"N  c #677333",
"B  c #6E7B31",
"V  c #707C34",
"C  c #2E1C4F",
"Z  c #162A4F",
"A  c #173E41",
"S  c #112D55",
"D  c #15355C",
"F  c #303559",
"G  c #21136D",
"H  c #371C6E",
"J  c #220F78",
"K  c #0A3665",
"L  c #03396B",
"P  c #1D2178",
"I  c #164345",
"U  c #154648",
"Y  c #144A4C",
"T  c #1B5548",
"R  c #1B5B4C",
"E  c #29524B",
"W  c #215B4C",
"Q  c #1F634C",
"!  c #236D4C",
"~  c #2C7F47",
"^  c #26744C",
"/  c #165765",
"(  c #185C64",
")  c #565D47",
"_  c #656C4B",
"`  c #6A6C61",
"'  c #8F6B51",
"]  c #9A7E64",
"[  c #A97768",
"{  c #74802F",
"}  c #768230",
"|  c #798631",
" . c #7C8932",
".. c #2F8444",
"X. c #2C834C",
"o. c #2F894C",
"O. c #308745",
"+. c #318B46",
"@. c #328E49",
"#. c #34964C",
"$. c #3E964B",
"%. c #30895A",
"&. c #818F34",
"*. c #869435",
"=. c #889736",
"-. c #8C9B37",
";. c #A68A73",
":. c #C18466",
">. c #E59B6A",
",. c #2A128A",
"<. c #261C99",
"1. c #35179C",
"2. c #192D8D",
"3. c #242598",
"4. c #3B3597",
"5. c #280CA5",
"6. c #2A1BAB",
"7. c #2B09B9",
"8. c #1F2AA7",
"9. c #2029AA",
"0. c #2731AE",
"q. c #45108B",
"w. c #471091",
"e. c #593C97",
"r. c #4F10A2",
"t. c #5716B0",
"y. c #532BBC",
"u. c #632EBD",
"i. c #32769A",
"p. c #3265AE",
"a. c #485C98",
"s. c #2C08C2",
"d. c #2E07CD",
"f. c #310BCC",
"g. c #281EC1",
"h. c #2C16CB",
"j. c #3012C4",
"k. c #2F06D2",
"l. c #2F0BD5",
"z. c #3006D7",
"x. c #3108D2",
"c. c #3005D8",
"v. c #2E1BD0",
"b. c #4406DE",
"n. c #510CD7",
"m. c #690DD8",
"M. c #6A16DB",
"N. c #6A24DC",
"B. c #6828D8",
"V. c #6B33DC",
"C. c #7036DE",
"Z. c #4906E0",
"A. c #5A0AE2",
"S. c #690BE7",
"D. c #6008EA",
"F. c #730CEF",
"G. c #6E0AF1",
"H. c #760CF4",
"J. c #780BF7",
"K. c #6E29E2",
"L. c #7939EE",
"P. c #7C29F7",
"I. c #684FCA",
"U. c #7D5FEA",
"Y. c #7F4AF2",
"T. c #8A6AB6",
"R. c #8065CE",
"E. c #977AC8",
"W. c #8B59F5",
"Q. c #9672F4",
"!. c #A789BE",
"~. c #CDAB87",
"^. c #CCA9B1",
"/. c #E8C2A8",
"(. c #F3CBA1",
"). c #9D9BCA",
"_. c #9F95E7",
"`. c #A289F3",
"'. c #AEA0EE",
"]. c #B6A9F0",
"[. c #CDCBEC",
"{. c #D4D7E8",
"}. c #DDE2E9",
/* pixels */
"-.-.-.-.-.-.-.-.-.-.-.-.-.-.-.-.-.-.-.-.-.-.-.-.-.-.-.-.-.-.-.-.-.-.-.-.-.-.-.-.-.-.-.-.-.-.-.-.",
"-.-.-.-.-.-.-.-.-.-.-.-.-.-.-.-.-.-.-.-.-.-.-.-.-.-.-.-.-.-.-.-.-.-.-.-.-.-.-.-.-.-.-.-.-.-.-.-.",
"-.-.-.-.-.-.-.-.-.-.-.-.-.-.-.-.-.-.-.-.-.-.-.-.-.-.-.-.-.-.-.-.-.-.-.-.-.-.-.-.-.-.-.-.-.-.-.-.",
"-.-.-.-.-.-.-.-.-.-.-.-.-.-.-.-.-.-.-.-.-.-.-.-.-.-.-.-.-.-.-.-.-.-.-.-.-.-.-.-.-.-.-.-.-.-.-.-.",
"-.-.-.-.-.-.-.-.-.-.-.-.-.-.-.-.-.-.-.-.-.-.-.-.-.-.-.-.-.-.-.-.-.-.-.-.-.-.-.-.-.-.-.-.-.-.-.-.",
"-.-.-.-.-.-.-.-.-.-.-.-.-.-.-.-.-.-.-.-.-.-.-.-.-.-.-.-.-.-.-.-.-.-.-.-.-.-.-.-.-.-.-.-.-.-.-.-.",
"-.-.-.-.-.-.-.-.-.-.-.-.-.-.-.-.-.-.-.-.-.-.-.-.-.-.-.-.-.-.-.-.-.-.-.-.-.-.-.-.-.-.-.-.-.-.-.-.",
"-.-.-.-.-.-.-.-.-.-.-.-.-.-.-.-.-.-.-.-.-.-.-.-.-.-.-.-.-.-.-.-.-.-.-.-.-.-.-.-.-.-.-.-.-.-.-.-.",
"-.-.-.-.-.-.-.-.-.-.=.-.-.-.-.-.-.-.-.-.-.-.-.-.-.-.-.-.-.-.-.-.-.-.-.-.-.-.-.-.-.-.-.-.-.-.-.-.",
"-.-.-.-.-.-. . .g & J J J J * f | =.-.|  .*.-.-.-.-.-.-.-.-.-.-.-.-.-.-.-.-.-.-.-.-.-.-.-.-.-.-.",
"-.-.-.-.-.b S P 8.8.k.c.c.c.9.3., x v = % d *.-.-.-.-.-.-.-.-.-.-.-.-.-.-.-.-.M b -.-.-.-.-.-.-.",
"-.-.-.-.b D P h.c.c.c.c.c.c.x.H , 6.m.B.N.q.p s d } -.-.s s  .-.-.-.-.-.-.-.M u.+ -.-.-.-.-.-.-.",
"-.-.-.n D L l.c.c.c.c.c.c.c.C f.A.H.H.J.J.H.H.F.k.1.X X #.w } -.-.-.-.-.-.| t.J.@ -.-.-.-.-.-.-.",
"-.-.B S L l.c.c.c.c.c.c.f.,.b.J.H.H.J.J.J.J.H.J.J.D.c.#.O.# #  .-.-.-.-.=.w.J.r.&.*.-.-.-.-.-.-.",
"-.-.& L L l.c.c.c.c.c.f.1.n.J.J.J.J.J.J.J.J.J.J.J.J.Z.i.^ Y Y = M =.-.-.=.w.J.J.r.e.m m =.-.-.-.",
"-.-.& L 9.z.c.c.c.c.k.1.f.F.J.J.J.J.J.J.J.J.J.J.J.J.Z.c.~ ! Y Y E V -.-.-.` m.J.J.G.t.7.) -.-.-.",
"-.O * K g.c.c.c.c.c.H d.l.G.J.J.J.J.J.J.J.J.J.J.J.J.Z.c.#.@.Q Y I k -.-.-.-._ S.J.J.D.c.d.p -.-.",
"-.; >.[ K f.l.!.(.I./.k.c.H.J.J.J.J.J.J.J.J.J.J.J.J.Z.k.#.#.! #.+.k -.-.-.-.-.d O S.x.c.c.d.j -.",
"-.; :.' ; ;   ' ~.f ^.I.E.L.J.J.J.J.J.J.W.`.L.J.J.G.b.  T o.#.#.+.k -.-.-.-.-.-.-.a 5.x.k.6.j -.",
"-.n Z Z ;.~.  . ,.5.f.] (.T.y.J.J.J.].'._.}.U.J.G.Z.0.- $ O.#.#.@.k -.-.-.-.-.-.-.x P 8.8.K j -.",
"-.-.B <.^.(.7.s.z.c.k.e.R.C.K.[.).e.{.{.Y.Q.P.J.c.p.%.+.+.#.#.#.@.k -.-.-.-.-.-.p K L L L K j -.",
"-.-.-.b .   l.l.c.C   J c.G.P.{.'.G.J.J.J.J.J.v.! #.#.#.#.#.#.#.u -.-.-.-.-.-.-.. L L L L u -.-.",
"-.-.-.-.-.-.p p p *.=. .4.7.m.M.N.N.N.N.V.a.! #.#.#.#.#.#.#.+.a -.-.-.-.-.-.-.-.. L L L + -.-.-.",
"-.-.-.-.-.-.-.-.-.-.-.-.| b v # Y Y Y U 0 #.@.#.#.#.#.r r r c =.-.-.-.-.-.-.-.-.. L L L S m -.-.",
"-.-.-.-.-.-.-.-.-.-.-.-.-.-.s I Y Y Y T @.#.#.#.#.~ 8 } } } *.-.s d s d -.-.-.-.. L 2.g.g.> -.-.",
"-.-.-.-.-.-.-.-.-.-.X k -.-.+ Y Y Y Y Q #.#.#.#.#.e   O -.-.-.u #.@.#.: -.-.-.-.-.G l.c.c.> -.-.",
"-.-.-.-.-.-.-.-.-.-.$ ..b i Y ! #.#.#.#.#.#.#.#.#.#.#.#.1 1 1 #.#.#.8 |  .*.-.-.-.J c.c.c.F *.-.",
"-.-.-.-.-.-.-.-.-.-.$ #.w U Y #.#.#.#.#.#.#.#.#.#.#.#.#.#.#.#.#.#...0 0 q z B M M 5.c.c.c.f.j -.",
"-.-.-.-.-.-.-.-.-.-.m t ^ Y Y #.#.#.#.#.#.#.#.#.#.#.#.#.#.#.#.#.#.#.#.#.#.@.W S S c.c.c.c.d.j -.",
"-.-.-.-.-.-.-.-.-.-.-.m T Y Y #.#.#.#.#.#.#.#.#.#.#.#.#.#.#.#.#.#.#.#.#.#.#.#./ h.l.c.c.c.f.j -.",
"-.-.-.-.-.-.-.-.-.-.-.} - Y Y #.#.#.#.#.#.#.#.#.#.#.#.#.#.#.#.#.#.#.#.#.#.#.#.( l.c.c.c.l.j.k -.",
"-.-.-.-.-.-.-.-.-.-.-.} - Y Y #.#.#.#.#.#.#.#.#.#.@.#.#.#.#.#.#.o.#.#.#.#.#.#.( g.c.c.c.7.k -.-.",
"-.-.-.-.-.-.-.-.-.-.-.| - Y Y #.#.#.#.#.#.#.#.#.#.^ o.#.@.X.#.#.R #.#.#.#.#.#.( L 8.9.<._ -.-.-.",
"-.-.-.-.-.-.-.-.-.-.-.*.l I Y ^ #.#.#.#.#.#.#.#.#.^ o.#.X.T Q Q R #.#.#.#.#.#.9 & & & N -.-.-.-.",
"-.-.-.-.-.-.-.-.-.-.-.-.v I Y Y ^ #.#.#.X.~ #.#.#.^ Y Y Y Y Y Y #.#.#.#.#.#.#.5 *.-.-.-.-.-.-.-.",
"-.-.-.-.-.-.-.-.-.-.-.-.v I Y Y Y I I I I ~ #.#.#.^ I I Y Y Y Y #.#.#.#.#.#.#.a -.-.*. .-.-.-.-.",
"-.-.-.-.-.-.-.-.-.-.-.*.g U Y Y Y % k j 2 O.#.#.#.w   = Y Y Y Y #.#.#.#.#.#.w  .-.=.c : *.-.-.-.",
"-.-.-.-.-.-.-.-.-.-.-.} - Y Y Y < v -.*.q #.#.#.O.c u Y Y Y Y Y ^ #.#.#.#.#.+.h j h +.8 *.-.-.-.",
"-.-.-.-.-.-.-.-.-.-.-.} - Y Y Y =  .-. .q #.#.#...n p Y Y Y Y Y Y q #.#.#.#.#.#.@.@.#.8 *.-.-.-.",
"-.-.-.-.-.-.-.-.-.-.*.B - Y Y Y 6  .-.| w #.#.#.y M j I Y Y Y Y I X y +.#.#.#.#.#.#.y | -.-.-.-.",
"-.-.-.-.-.-.-.-.-.-.*.% Y Y Y I v -.-.2 #.#.#.#.d -.-.k A I Y Y U k { k k t +.#.#.O.k -.-.-.-.-.",
"-.-.-.-.-.-.-.-.-.-.*.% Y Y Y 7 *.-.-.2 #.#.#.e | -.-.-.@ A Y Y U k -.-.-.2 +.#.#.O.c -.-.-.-.-.",
"-.-.-.-.-.-.-.-.-.-.3 U Y U Y p -.-.p +.#.#.#.O -.-.-.u U Y Y Y 4 *.-.-.3 #.#.#.#.a =.-.-.-.-.-.",
"-.-.-.-.-.-.-.-.-.-.: E E E : -.-.-.O $.$.$.4 -.-.-.-.O E E E : -.-.-.-.O $.$.$.o -.-.-.-.-.-.-.",
"-.-.-.-.-.-.-.-.-.-.-.-.-.-.-.-.-.-.-.-.-.-.-.-.-.-.-.-.-.-.-.-.-.-.-.-.-.-.-.-.-.-.-.-.-.-.-.-.",
"-.-.-.-.-.-.-.-.-.-.-.-.-.-.-.-.-.-.-.-.-.-.-.-.-.-.-.-.-.-.-.-.-.-.-.-.-.-.-.-.-.-.-.-.-.-.-.-.",
"-.-.-.-.-.-.-.-.-.-.-.-.-.-.-.-.-.-.-.-.-.-.-.-.-.-.-.-.-.-.-.-.-.-.-.-.-.-.-.-.-.-.-.-.-.-.-.-.",
"-.-.-.-.-.-.-.-.-.-.-.-.-.-.-.-.-.-.-.-.-.-.-.-.-.-.-.-.-.-.-.-.-.-.-.-.-.-.-.-.-.-.-.-.-.-.-.-."
};
