/* XPM */
static char *result[] = {
/* columns rows colors chars-per-pixel */
"48 48 251 2 ",
"   c #2A293D",
".  c #383A3F",
"X  c #393B3F",
"o  c #3F433B",
"O  c #3E423C",
"+  c #43473F",
"@  c #4F553C",
"#  c #505739",
"$  c #52593B",
"%  c #5D6639",
"&  c #5D653F",
"*  c #677236",
"=  c #6B7736",
"-  c #6F7A36",
";  c #6F7B37",
":  c #68723B",
">  c #707C35",
",  c #727E36",
"<  c #282444",
"1  c #292545",
"2  c #2A2546",
"3  c #2B2647",
"4  c #2B2648",
"5  c #2E284D",
"6  c #2F294D",
"7  c #2F294E",
"8  c #32294F",
"9  c #302A50",
"0  c #312A52",
"q  c #352C55",
"w  c #342C56",
"e  c #372E5A",
"r  c #372E5B",
"t  c #382E5A",
"y  c #382E5B",
"u  c #382E5C",
"i  c #382F5C",
"p  c #3A2F5D",
"a  c #373254",
"s  c #3B3950",
"d  c #3A305E",
"f  c #3B305E",
"g  c #3B305F",
"h  c #3C305F",
"j  c #3C3160",
"k  c #3C3161",
"l  c #3D3161",
"z  c #3E3261",
"x  c #3F3465",
"c  c #42345B",
"v  c #433C5E",
"b  c #403363",
"n  c #403364",
"m  c #403465",
"M  c #413567",
"N  c #423566",
"B  c #433566",
"V  c #443566",
"C  c #443567",
"Z  c #423568",
"A  c #44376A",
"S  c #45376B",
"D  c #47386A",
"F  c #47396E",
"G  c #48386B",
"H  c #4B3A6F",
"J  c #4C3A6F",
"K  c #493A71",
"L  c #4A3B71",
"P  c #4A3B72",
"I  c #4B3B72",
"U  c #4B3C73",
"Y  c #4C3C73",
"T  c #4E3C72",
"R  c #4C3C74",
"E  c #4D3D75",
"W  c #4E3D74",
"Q  c #4F3D74",
"!  c #4E3D75",
"~  c #4E3D76",
"^  c #513E75",
"/  c #513F78",
"(  c #454846",
")  c #5A575A",
"_  c #605F5B",
"`  c #5E6641",
"'  c #5D6448",
"]  c #727B42",
"[  c #737D44",
"{  c #7E7E5B",
"}  c #7F7F5D",
"|  c #5B5267",
" . c #5A5069",
".. c #564177",
"X. c #52407A",
"o. c #53407A",
"O. c #54407A",
"+. c #54417B",
"@. c #56417B",
"#. c #55427C",
"$. c #56427D",
"%. c #57437E",
"&. c #5A427A",
"*. c #59437D",
"=. c #58437E",
"-. c #58437F",
";. c #5A427F",
":. c #5A437F",
">. c #5B447E",
",. c #5B457F",
"<. c #6A567A",
"1. c #676164",
"2. c #766C65",
"3. c #736476",
"4. c #766A71",
"5. c #776A71",
"6. c #748036",
"7. c #758236",
"8. c #798636",
"9. c #7B8836",
"0. c #7C8936",
"q. c #7C8A36",
"w. c #7F8C36",
"e. c #748038",
"r. c #7A8543",
"t. c #808D36",
"y. c #818E36",
"u. c #818F36",
"i. c #849236",
"p. c #859437",
"a. c #869437",
"s. c #869537",
"d. c #889637",
"f. c #889737",
"g. c #899837",
"h. c #8A9937",
"j. c #8B9A37",
"k. c #8C9B37",
"l. c #5C4381",
"z. c #5B4580",
"x. c #5B4582",
"c. c #5D4681",
"v. c #5F4682",
"b. c #5E4782",
"n. c #5F4786",
"m. c #624686",
"M. c #624787",
"N. c #634787",
"B. c #604886",
"V. c #634987",
"C. c #634788",
"Z. c #614988",
"A. c #624989",
"S. c #664B8B",
"D. c #664C8D",
"F. c #6C4E8B",
"G. c #684D8E",
"H. c #684E8F",
"J. c #694E8F",
"K. c #6F508E",
"L. c #7F5E8B",
"P. c #6A4E90",
"I. c #6A4E91",
"U. c #6C4F92",
"Y. c #6D4F92",
"T. c #6F5191",
"R. c #6D5094",
"E. c #6E5195",
"W. c #6F5196",
"Q. c #735394",
"!. c #725295",
"~. c #705297",
"^. c #715397",
"/. c #735297",
"(. c #765297",
"). c #755597",
"_. c #725398",
"`. c #735399",
"'. c #74539A",
"]. c #76539A",
"[. c #735499",
"{. c #755599",
"}. c #765599",
"|. c #74549A",
" X c #76559B",
".X c #77549C",
"XX c #78559E",
"oX c #79559E",
"OX c #7B559E",
"+X c #7B589F",
"@X c #7F57A3",
"#X c #7C59A0",
"$X c #7D5AA1",
"%X c #8C6A97",
"&X c #8E669B",
"*X c #8F7093",
"=X c #8157A2",
"-X c #8157A3",
";X c #8257A3",
":X c #825CA2",
">X c #855EA3",
",X c #845EA7",
"<X c #895EA9",
"1X c #8E5FAA",
"2X c #8F5FAE",
"3X c #905BAE",
"4X c #955DB2",
"5X c #8A62A2",
"6X c #8960AA",
"7X c #8C63AC",
"8X c #8C64AD",
"9X c #8D64AE",
"0X c #9164AF",
"qX c #9E7BA0",
"wX c #9167B1",
"eX c #9266B1",
"rX c #9266B2",
"tX c #9267B2",
"yX c #9367B3",
"uX c #9666B3",
"iX c #9567B4",
"pX c #9965B3",
"aX c #9867B6",
"sX c #9A67B7",
"dX c #9368B2",
"fX c #9568B4",
"gX c #9E69B7",
"hX c #996CB6",
"jX c #9B66B9",
"kX c #9A6AB8",
"lX c #9D69B9",
"zX c #9E6DBA",
"xX c #A26DBE",
"cX c #A072BA",
"vX c #A273BB",
"bX c #A372BD",
"nX c #A473BD",
"mX c #A375BC",
"MX c #A56EC1",
"NX c #A96FC4",
"BX c #A570C0",
"VX c #AB73C1",
"CX c #AD71C7",
"ZX c #B27EC4",
"AX c #B377CB",
"SX c #B479CB",
"DX c #BC82CF",
"FX c #BD88C9",
"GX c #BC88CB",
"HX c #C18ECE",
"JX c #D6A3D8",
/* pixels */
"k.k.k.k.k.k.k.k.k.k.k.k.k.k.k.k.k.k.k.k.k.k.k.k.k.k.k.k.k.k.k.k.k.k.k.k.k.k.k.k.k.k.k.k.k.k.k.k.",
"k.k.k.k.k.k.k.k.k.k.k.k.k.k.k.k.k.k.k.k.k.k.k.k.k.k.k.k.k.k.k.k.k.k.k.k.k.k.k.k.k.k.k.k.k.k.k.k.",
"k.k.k.k.k.k.k.k.k.k.k.k.k.k.k.k.k.k.k.k.k.k.k.k.k.k.k.k.k.k.k.k.k.k.k.k.k.k.k.k.k.k.k.k.k.k.k.k.",
"k.k.k.k.k.k.k.k.k.k.k.k.k.k.k.k.k.k.k.k.k.k.k.k.k.k.k.k.k.k.k.k.k.k.k.k.k.k.k.k.k.k.k.k.k.k.k.k.",
"k.k.k.k.k.k.k.k.k.k.k.k.k.k.k.k.k.k.k.k.k.k.k.k.k.k.k.k.k.k.k.k.k.k.k.k.k.k.k.k.k.k.k.k.k.k.k.k.",
"k.k.k.k.k.k.k.k.k.k.k.k.k.k.k.k.k.k.k.k.k.k.k.k.k.k.k.k.k.k.k.k.k.k.k.k.k.k.k.k.k.k.k.k.k.k.k.k.",
"k.k.k.k.k.k.k.k.k.k.k.k.k.k.k.k.k.k.k.k.k.k.k.k.k.k.k.k.k.k.k.k.k.k.k.k.k.k.k.k.k.k.k.k.k.k.k.k.",
"k.k.k.k.k.k.k.k.k.k.k.k.k.k.k.k.k.k.k.k.k.k.k.k.k.k.k.k.k.k.k.k.k.k.k.k.k.k.k.k.k.k.k.k.k.k.k.k.",
"k.k.k.k.k.k.k.k.k.k.k.k.k.k.k.k.k.k.k.k.k.k.k.k.k.k.k.k.k.k.k.k.k.k.k.k.k.k.k.k.k.k.k.k.k.k.k.k.",
"k.k.k.k.k.k.k.k.k.k.k.k.k.k.k.k.k.k.k.k.k.k.k.k.k.k.k.k.k.k.k.k.k.k.k.k.k.k.k.k.k.k.k.k.k.k.k.k.",
"k.k.k.k.k.k.k.k.k.k.k.k.k.k.k.k.k.k.k.k.k.k.k.k.k.k.k.k.k.k.k.k.k.k.k.k.k.k.k.k.k.k.k.k.k.k.k.k.",
"k.k.k.k.k.k.k.k.k.k.k.k.k.k.k.k.k.k.k.k.k.k.k.k.k.k.k.k.k.k.k.k.k.k.k.k.k.k.k.k.k.k.k.k.k.k.k.k.",
"k.k.k.k.k.k.k.k.k.k.k.k.k.k.k.k.k.k.k.k.k.k.k.k.k.k.k.k.k.k.k.k.k.k.k.k.k.k.k.k.k.k.k.k.k.k.k.k.",
"k.k.k.k.k.k.k.k.k.k.k.k.k.k.k.k.k.k.k.2.} a.k.k.k.k.k.k.k.k.k.k.k.k.k.k.k.k.k.k.k.k.k.k.k.k.k.k.",
"k.k.k.k.k.k.k.k.k.k.k.k.k.k.k.k.k.k., JXFXqX{ s.k.k.k.k.k.k.k.k.k.k.k.k.k.k.k.k.k.k.k.k.k.k.k.k.",
"k.k.k.k.k.k.k.k.k.k.k.k.k.k.k.k.k.k. .HXDXSXVX%X4.q.k.k.k.k.k.k.k.k.k.k.k.k.k.k.k.k.k.k.k.k.k.k.",
"k.k.k.k.k.k.k.k.k.k.k.k.k.k.k.k.k., /.uXAXNXxXfXeX5X5.g.k.> ] *XL.3.p.k.k.k.k.k.k.k.k.k.k.k.k.k.",
"k.k.k.k.k.k.k.k.k.k.k.k.k.k.k.k.k. .A.Y.CXyXnXzXGXhX>Xr.' pXZXBXkXQ.9.k.k.k.k.k.k.k.k.k.k.k.k.k.",
"k.k.k.k.k.k.k.k.k.k.k.k.k.k.k.k.t.v $.I 1XMXdXtXmXaXiXc #.).lXcX9XV.9.k.k.k.k.k.k.k.k.k.k.k.k.k.",
"k.k.k.k.k.k.k.k.k.k.k.k.k.k.k.k.& m M.P (.`.6XrXjXbXwXS.m.R vXsX#X~._ k.k.k.k.k.k.k.k.k.k.k.k.k.",
"k.k.k.k.k.k.k.k.k.k.k.k.k.k.k.t.s ! $.U E.E.].<XwXtX,XZ.E =.7X7XW.=X_ k.k.k.k.k.k.k.k.k.k.k.k.k.",
"k.k.k.k.k.k.k.k.k.k.k.k.k.k.k.8.a l.P -.oXE.E.I.{.$X[.I.+.@.r &. XXX1.k.k.k.k.k.k.k.k.k.k.k.k.k.",
"k.k.k.k.k.k.k.k.k.k.k.k.k.k.k.k.( Q U n.3X@X_.`.B.R.'.|.S r h n J v.[ k.k.k.k.k.k.k.k.k.k.k.k.k.",
"k.k.k.k.k.k.k.k.k.k.k.k.k.k.k.k.: T / J.4XOX].U./ +.}.8XW r p B 7 $ d.k.k.k.k.k.k.k.k.k.k.k.k.k.",
"k.k.k.k.k.k.k.k.k.k.k.k.k.k.k.0.) B x.Y P.+X.XT.K ;.P b.%.Z e 7 $ d.k.k.k.k.k.k.k.k.k.k.k.k.k.k.",
"k.k.k.k.k.k.k.k.k.k.k.k.k.k.i.<.>.L N x b F.:X..o.O.P P ,.0XgX&Xt.k.k.k.k.k.k.k.k.k.k.k.k.k.k.k.",
"k.k.k.k.k.k.k.k.k.k.k.k.k.k.k.% 3 6 9 i D i V A E X.~ m.K.kX2X!.6.k.k.k.k.k.k.k.k.k.k.k.k.k.k.k.",
"k.k.k.k.k.k.k.k.k.k.k.k.k.k.k.h.o 8 2 0 f r r M P $.P F z ^.-XG.6.k.k.k.k.k.k.k.k.k.k.k.k.k.k.k.",
"k.k.k.k.k.k.k.k.k.k.k.k.k.k.k.k.w.* # 2 u g H k N.P %.d r *.;XG.6.k.k.k.k.k.k.k.k.k.k.k.k.k.k.k.",
"k.k.k.k.k.k.k.k.k.k.k.k.k.k.k.k.k.k.k.  q G r r z.C.P l u M ^ | k.k.k.k.k.k.k.k.k.k.k.k.k.k.k.k.",
"k.k.k.k.k.k.k.k.k.k.k.k.k.k.k.k.k.k.k.= < 5 y p *.D.! j f t X y.k.k.k.k.k.k.k.k.k.k.k.k.k.k.k.k.",
"k.k.k.k.k.k.k.k.k.k.k.k.k.k.k.k.k.k.k.j.- O 1 w H H.:.C 4 . u.k.k.k.k.k.k.k.k.k.k.k.k.k.k.k.k.k.",
"k.k.k.k.k.k.k.k.k.k.k.k.k.k.k.k.k.k.k.k.k.g.; + 7 c.z ` 7.u.k.k.k.k.k.k.k.k.k.k.k.k.k.k.k.k.k.k.",
"k.k.k.k.k.k.k.k.k.k.k.k.k.k.k.k.k.k.k.k.k.k.k.f.; @ e.h.k.k.k.k.k.k.k.k.k.k.k.k.k.k.k.k.k.k.k.k.",
"k.k.k.k.k.k.k.k.k.k.k.k.k.k.k.k.k.k.k.k.k.k.k.k.k.k.k.k.k.k.k.k.k.k.k.k.k.k.k.k.k.k.k.k.k.k.k.k.",
"k.k.k.k.k.k.k.k.k.k.k.k.k.k.k.k.k.k.k.k.k.k.k.k.k.k.k.k.k.k.k.k.k.k.k.k.k.k.k.k.k.k.k.k.k.k.k.k.",
"k.k.k.k.k.k.k.k.k.k.k.k.k.k.k.k.k.k.k.k.k.k.k.k.k.k.k.k.k.k.k.k.k.k.k.k.k.k.k.k.k.k.k.k.k.k.k.k.",
"k.k.k.k.k.k.k.k.k.k.k.k.k.k.k.k.k.k.k.k.k.k.k.k.k.k.k.k.k.k.k.k.k.k.k.k.k.k.k.k.k.k.k.k.k.k.k.k.",
"k.k.k.k.k.k.k.k.k.k.k.k.k.k.k.k.k.k.k.k.k.k.k.k.k.k.k.k.k.k.k.k.k.k.k.k.k.k.k.k.k.k.k.k.k.k.k.k.",
"k.k.k.k.k.k.k.k.k.k.k.k.k.k.k.k.k.k.k.k.k.k.k.k.k.k.k.k.k.k.k.k.k.k.k.k.k.k.k.k.k.k.k.k.k.k.k.k.",
"k.k.k.k.k.k.k.k.k.k.k.k.k.k.k.k.k.k.k.k.k.k.k.k.k.k.k.k.k.k.k.k.k.k.k.k.k.k.k.k.k.k.k.k.k.k.k.k.",
"k.k.k.k.k.k.k.k.k.k.k.k.k.k.k.k.k.k.k.k.k.k.k.k.k.k.k.k.k.k.k.k.k.k.k.k.k.k.k.k.k.k.k.k.k.k.k.k.",
"k.k.k.k.k.k.k.k.k.k.k.k.k.k.k.k.k.k.k.k.k.k.k.k.k.k.k.k.k.k.k.k.k.k.k.k.k.k.k.k.k.k.k.k.k.k.k.k.",
"k.k.k.k.k.k.k.k.k.k.k.k.k.k.k.k.k.k.k.k.k.k.k.k.k.k.k.k.k.k.k.k.k.k.k.k.k.k.k.k.k.k.k.k.k.k.k.k.",
"k.k.k.k.k.k.k.k.k.k.k.k.k.k.k.k.k.k.k.k.k.k.k.k.k.k.k.k.k.k.k.k.k.k.k.k.k.k.k.k.k.k.k.k.k.k.k.k.",
"k.k.k.k.k.k.k.k.k.k.k.k.k.k.k.k.k.k.k.k.k.k.k.k.k.k.k.k.k.k.k.k.k.k.k.k.k.k.k.k.k.k.k.k.k.k.k.k.",
"k.k.k.k.k.k.k.k.k.k.k.k.k.k.k.k.k.k.k.k.k.k.k.k.k.k.k.k.k.k.k.k.k.k.k.k.k.k.k.k.k.k.k.k.k.k.k.k.",
"k.k.k.k.k.k.k.k.k.k.k.k.k.k.k.k.k.k.k.k.k.k.k.k.k.k.k.k.k.k.k.k.k.k.k.k.k.k.k.k.k.k.k.k.k.k.k.k."
};
