/* XPM */
static char *fcbe2617d730451ce9756c21fdd742e4I1sP0uj2kuihRWiB[] = {
/* columns rows colors chars-per-pixel */
"48 48 228 2 ",
"   c #3E1F1D",
".  c #143D31",
"X  c #342B24",
"o  c #2C372A",
"O  c #343727",
"+  c #4D2D1F",
"@  c #4B351C",
"#  c #442622",
"$  c #4C2A25",
"%  c #4D2C29",
"&  c #552F24",
"*  c #522E2B",
"=  c #4C3525",
"-  c #4A3828",
";  c #583826",
":  c #54332A",
">  c #5A342C",
",  c #54392B",
"<  c #5B3B2D",
"1  c #4E3332",
"2  c #573433",
"3  c #5C3532",
"4  c #5D3A31",
"5  c #643A2B",
"6  c #623A34",
"7  c #663C35",
"8  c #184838",
"9  c #1C543B",
"0  c #2A482D",
"q  c #35462B",
"w  c #3A552F",
"e  c #294732",
"r  c #3A4532",
"t  c #295536",
"y  c #245B3D",
"u  c #375534",
"i  c #3B5D35",
"p  c #2D612F",
"a  c #21633B",
"s  c #286938",
"d  c #386738",
"f  c #2C763B",
"g  c #39763A",
"h  c #53421C",
"j  c #4A4529",
"k  c #534427",
"l  c #5B422B",
"z  c #584A29",
"x  c #4A572A",
"c  c #585627",
"v  c #4C4D30",
"b  c #574632",
"n  c #445B34",
"m  c #5A5A35",
"M  c #62452C",
"N  c #6A442E",
"B  c #644A2D",
"V  c #6C4A2E",
"C  c #73482E",
"Z  c #6B552E",
"A  c #64592A",
"S  c #654531",
"D  c #6D4233",
"F  c #6C4138",
"G  c #754736",
"H  c #744B33",
"J  c #7B4A3A",
"K  c #695533",
"L  c #735434",
"P  c #745D33",
"I  c #765936",
"U  c #7C5D36",
"Y  c #7C5D39",
"T  c #46642E",
"R  c #58662C",
"E  c #4C6433",
"W  c #486636",
"Q  c #556737",
"!  c #546A33",
"~  c #497638",
"^  c #557434",
"/  c #5B7333",
"(  c #537C35",
")  c #5A7739",
"_  c #646326",
"`  c #646C2B",
"'  c #696829",
"]  c #6B6D2A",
"[  c #73642E",
"{  c #65742E",
"}  c #6C742B",
"|  c #6C7A2F",
" . c #72742C",
".. c #747A2D",
"X. c #787A2F",
"o. c #686836",
"O. c #746433",
"+. c #7B623B",
"@. c #786A38",
"#. c #637431",
"$. c #677637",
"%. c #647B33",
"&. c #6C7D33",
"*. c #737435",
"=. c #7B7334",
"-. c #727E31",
";. c #7B7B32",
":. c #1E5A41",
">. c #236741",
",. c #2C7742",
"<. c #3B506A",
"1. c #345B79",
"2. c #3A617A",
"3. c #5C5751",
"4. c #6B5643",
"5. c #4C7B45",
"6. c #527B42",
"7. c #5C7941",
"8. c #5D675C",
"9. c #6B7941",
"0. c #73734C",
"q. c #535461",
"w. c #4E6667",
"e. c #676765",
"r. c #814D3A",
"t. c #875339",
"y. c #955A3D",
"u. c #82643D",
"i. c #82683A",
"p. c #83743A",
"a. c #89763E",
"s. c #847839",
"d. c #847C3B",
"f. c #896B41",
"g. c #956A42",
"h. c #8C7443",
"j. c #887644",
"k. c #947D46",
"l. c #957848",
"z. c #9A7C4A",
"x. c #907C5C",
"c. c #34823D",
"v. c #46853B",
"b. c #5F8136",
"n. c #77812F",
"m. c #79822F",
"M. c #6B8133",
"N. c #66823B",
"B. c #738433",
"V. c #7B8530",
"C. c #7E8C33",
"Z. c #778A3B",
"A. c #7D953F",
"S. c #368841",
"D. c #368C42",
"F. c #3A9645",
"G. c #4E8249",
"H. c #598446",
"J. c #5E8947",
"K. c #53854A",
"L. c #568B4D",
"P. c #5B8C4B",
"I. c #5E924D",
"U. c #648443",
"Y. c #658C46",
"T. c #6B8944",
"R. c #638F4A",
"E. c #768E47",
"W. c #6D9246",
"Q. c #64924B",
"!. c #699149",
"~. c #699A4E",
"^. c #739344",
"/. c #7A9541",
"(. c #70904C",
"). c #678C73",
"_. c #828D33",
"`. c #848738",
"'. c #88823D",
"]. c #859335",
"[. c #899736",
"{. c #8C9B37",
"}. c #82963B",
"|. c #889639",
" X c #85993B",
".X c #8A9A39",
"XX c #8B8644",
"oX c #948346",
"OX c #948847",
"+X c #9C844C",
"@X c #9C8B4C",
"#X c #9D8A51",
"$X c #9D9054",
"%X c #A2844F",
"&X c #A0884F",
"*X c #A48C52",
"=X c #AA8D54",
"-X c #A78F59",
";X c #AB9356",
":X c #A89657",
">X c #AE9659",
",X c #B09157",
"<X c #B3965A",
"1X c #B49B5B",
"2X c #B99D5D",
"3X c #B9A15E",
"4X c #9C926D",
"5X c #BBA462",
"6X c #B9A46A",
"7X c #C1A663",
"8X c #C4AA65",
"9X c #C9AD67",
"0X c #C4AA69",
"qX c #CDB56B",
"wX c #C7B673",
"eX c #DAC477",
"rX c #346685",
"tX c #3A7793",
"yX c #3E809D",
"uX c #519198",
"iX c #438BA5",
"pX c #458CAB",
"aX c #559EA6",
"sX c #479AB6",
"dX c #48A2BB",
"fX c #49A9C0",
"gX c #55C3D5",
"hX c #63E4ED",
/* pixels */
"{.{.{.{.{.{.{.{.{.{.{.{.{.{.{.{.{.{.{.{.{.{.B.B.{.{.{.{.{.{.{.{.{.{.{.{.{.{.{.{.{.{.{.{.{.{.{.{.",
"{.{.{.{.{.{.{.{.{.{.{.{.{.{.{.{.{.{.{.{.{.{.%.c.].{.{.{.{.{.{.{.{.{.{.{.{.{.{.{.{.{.{.{.{.{.{.{.",
"{.{.{.{.{.{.{.{.{.{.{.{.{.{.{.{.{.{.{.{.{.{.].d [.[.B.].{.{.{.{.{.{.{.{.{.{.{.{.{.{.{.{.{.{.{.{.",
"{.{.{.{.{.{.{.{.{.{.{.{.{.{.{.{.{.{.{.{.{.{.{...{.M.f C.{.{.{.{.{.{.{.{.{.{.{.{.{.{.{.{.{.{.{.{.",
"{.{.{.{.{.{.{.{.{.{.{.{.{.{.{.{.{.{.#.v.[.{.{...{.{ b.{.{.{.{.{.A.b.( {.{.{.{.{.{.{.{.{.{.{.{.{.",
"{.{.{.{.{.{.{.{.{.{.{.{.T c.C.{.{.{.].c.( {._.*X]...{.{.{.B.( C.v.c.( {.{.{.{.{.{.{.{.{.{.{.{.{.",
"{.{.{.{.{.{.{.{.{.{.C.M.B.D.v.C.{.{.{.v.g {._.+Xn...].{.{.p M.n.~ ^ ].{.{.{.{.{.{.{.M.].{.{.{.{.",
"{.{.{.{.{.{.{.{.{.{.C.c.M.M./ V.{.{.{..X_ _._.=X@X} v.C.n.C.C.C.{.{.{.{.].{.{.{.{.b.f C.{.{.{.{.",
"{.{.{.{.{.i C.]./ .X.X%.{ [.C.m. .{.{.{._.;X&Xa.m.( c.B.} R _._.( {.{.{.p n.{._.{.s d [.{.{.{.{.",
"{.{.{.{.{.! T ~ F.| .X.X../ v.{.OX+X;.]  .c & C & f w 5 B X.[.v.c.{.{.{.n.c.g g { n a p C.{.{.{.",
"{.{.{.{.{.{.n.i f .._.V.c f S.C.[.c j.* C 5 @ z l v B O.=X0X@Xc.s A./ B.{.^ S.a z { ^ C.{.{.{.{.",
"{.{.{.{.M.( ].C.` _.@.) X ~ ~ ].P q D.| V._.m.Q ! ] { 0 ..=.+X~ s v.v.[.|.oXO.v C..X{.{.{.{.{.{.",
"{.{..X.X| F.v.[...{./ ,.@.B.| B A ].f / M.C.[.R s ` f &..X|.V.P w p B.XX3X`.V.' | ) {.{..X{.{.{.",
"|.C.M.|._.s ,.C.z [.} k Z *X; A [.[.M.{ ~ c.T ;X' { ` {.].].{._.@ 8X5X2XX.{._.] { S.V.{.M.~ ! {.",
"| s F.b..XC.! ].'.a...$ ].O.*X_.{.{.].m.].i m +.] _.A { c.c.%.{.Z =.7X=X_.{.d._.n.>.V.^ D.f B.{.",
".XM.a t C..X].V.m.a.c O / $ +.@X{.[.] ..h.h.=.B _ .. .V p F.D.%.oX'.k.z._.`.OX]..X{ C.w d B.{.{.",
"{.{.{.|  .h _._ ].p.f.j B = i.6X`._.>Xh.;.C.V.*Xj.5 C t.D x 9 R  .3X .<XX.a.s.[.{.c  .[.{.{.{.{.",
"{.{.M.>.| [.Z [ O.} >Xf.G ..[.a.;.[ d.]..Xu | ;X;X{.].} } B .._._ =Xz.3XoXk.].{.OX=.[.[.].{.{.{.",
"{.{.T / [.]...M B m. .k.P {.{.a.3Xo.^ .X.Xd ,.z.+X{.{.{.{.m.I =._.oX2X+X2Xa.{.OXd.@  .t ~ B.{..X",
"{.{.{.{._.g R @.=.B.c 6 f.'.m.=X'.#.:.C..X-.>.o.+X%.].{._.T m.J =.`.8XoX7XX.|.oX' k {.! 9 y n.{.",
"{.{.{.{.| a `.p.=.E f j n.p.+XM ].|.E ].{.{.| l 0.s B.{.i i [.c G m.%X2Xz. .oX_.} k {.{.[.[.[.{.",
"{.{.C.{ C.C.{.p.$X[.x e _.].i.5X'.`.} } {.[.;.3.uXE [.{.! i {.X.6 L s.<Xu.O.p.[.= ..{.{.{.{.{.{.",
"{.{.C.a %.{.{.p.*X[.j r c ] =X .*X-X>X5XOX+X%XaXhXe.:XXXXXm.{.{.z 7 M 9XL =Xs.V.# [.[.{.{.{.{.{.",
"{..XC.9 9 C.%.V.1X..e a B.O.u. ...] oX8X;Xp.8.sXgXiX@.k.<X7X`.[.m.> ; 2Xh.+X[.c ' .X{.{.{.{.{.{.",
"{.{.{.#.. #.n m.<X1XX X V.1X'._. .+X<XI } |.uXdXsXsX).{._.h.9X>X[.X % l.<X_ | % C.B.d t {.{.{.{.",
"{.{.{.{._...c ..i.9X@.* h.1X].{.`.=XU A D F tXdXpXfX<.[ [.[.s.0X+Xy - Y *Xl b O B.8 y B.{.{.{.{.",
"{.{.{.{.{._.] c < z.<Xf.7Xm.{._.>Xu.C G G 2 rXpXpXpX<.7 Z X.].s.7X*X .%XY 7 r / } B._.{.{.{.{.{.",
"{.{.{.{.{.-...} = 7 z.2Xj.{.{.=.y.G 6 $ # &.rXpXpXpXw.X.B 7 P k.f.9Xk.%XS 3 O j } {.{.{.{.{.{.{.",
"{.{.{..X/ :.-..XZ * D +. .{.].i.J % ] [.- 1 rXpXiXiXw.{.[.c 5 D A z.=Xz.+ % > Z {. X_.{.B.#.-.{.",
"{.{.{./ 9 u {.{...B 7 5 ] {.[ J k n.]./ x # 1.yXpXrX).{._.oX] 3 6 C u.H 5 5 + _.{.T E V.t ,.~ |.",
"{.{.[.R #.].{.{...t.: C ' ..r.l C..Xu :.i -.4X1.rX2.-.j.oX_...  4 > N H > * * } [.8 R R E Q |..X",
"{.{.{.{.{.{.{.{.X.h.N 7 ] l 3 } _...R %.[.OX2Xq.1.x.U Z  .n t | < 4 4 V N h.6 ' C.c ` .X{.{.{..X",
".X{.{.{.{.{.{.{.n.k.I 6 : F k [ 6 e i ]._.=X6X0X4.V _.{.{.n :.y x $ ; 4 > < > , , c e W |.{.{.{.",
"{.{.{.{.{.{.{.{...l.h.3 3 6 * V } ! 9 d %X5X1X;._ 6 U _.{.-.j | c ; u.L % 4 $   C..X-.i &.{.{.{.",
"{.{.{.{.{.{.{.{.[ %Xh.% * D 6 X.{.].n m 7X<XV.{..X] 6 U ].k _ .X} B l.l.S z.2 # |.{.{.{.{.{.{.{.",
"{.{.{.{.{.{.{.{.Z 2X<X* * J K ^.o.k $ <X2X*.|.{.^.A.Q J Y % &.!.! *.<X,Xz.f.7 $ [.}.{.{.{..X{.{.",
"{.{.{.{.{.{.XX/.m o 0.$ * : P ] m %.N.z.L ^.!.^.^.^.].M g.$ %.Z.0 ;.qX9XK Q J * J.Q./..X{.{.{.{.",
"{.{.{.{.{./.G.K.K O.8 0 * 3 > 2 T.^.@.z. .^.^.W./.W.!.o.y.3 $.W . *.qX<Xv r.J 3 Y.K.Q.!.{.{.{.{.",
"{.{.{.{.{.Y.Q.T.h.qX-Xj.; 2 b 7.A.!.*.u.U.!.!./. X/.W.) y.6 B.V.u E.eXz.$.b K b v H.K.^.{.{.{.{.",
"{.{.{.{.{.^.K.Q ) <XP j.- Y Y j.#X_.=.+.Z..X!.W.!.P.W.%.t.< Y.R.6.e 2X,X$.1 Q.5.!.~.K.P..X{.{.{.",
"{.{.{.{.{.!.L.I.Q f.R.d 8 % , 9.%XwX+.Y A.T. X^./.Y.L.5.J b ^. X0 x -X2XQ 6.H.L.I.Q.I.A.{.{.{.{.",
"{.{.{.{.{.{.Q.^.L.9.^ 8 o 6 z T.Z.#X2Xh.Z.^.L.L.P.L.^.&.G j 7.j V.].;X<X*./.!.W.I.^.^..X{.{.{.{.",
"{.{.{.{.{.{..X.X/.U.J.q 2 r.I ~.T.`.z.<X}.P.L.P.!./.W.$.7 2 b 6.T.U.3X<XK P.Y./.|..X.X{.{.{.{.{.",
"{.{.{.{.{.{.{.^.!.K.~.b 4 J G 9.K.J.Y >XP.K.W. X/.{. X$.F 4 7.L.G.(.qX<Xu.!.K.L. X.X{.{.{.{.{.{.",
"{.{.{.{.{.{..XI.K.P.r b 2 F : n L.H.z.7XU.P.Q./.{.!.L.~ 7 b J.G.L.m 6XeX+.^ K.R.^..X{.{.{.{.{.{.",
"{.{.{.{.{.{.{./.H.I.L.Q.6.6.W ~.L.9.3XqXXXG.I.A./.J.I.m 6 2 n 5.Q XX!.5XY.H.K.!.Q..X{.{.{.{.{.{.",
"{.{.{.{.{.{.{..XW.P.!.K.~.5.L.L.L.7.E.#XT.P.L.A.XXL.I.U.W J.Y.P.R.6.L.*.6.I.I.^.{.{.{.{.{.{.{.{.",
"{.{.{.{.{.{.{..XA.|.W.L.^.L.!./.L.L.~.G.I.K.I. X~.L.L.L.G.Q.K.Q./.W.P.W.L.^.|..X{.{.{.{.{.{.{.{."
};
