/* XPM */
static char *result[] = {
/* columns rows colors chars-per-pixel */
"48 48 191 2 ",
"   c #000101",
".  c #01040D",
"X  c #00080B",
"o  c #1B0108",
"O  c #000315",
"+  c #000C13",
"@  c #00051C",
"#  c #38110D",
"$  c #2D0C12",
"%  c #3E1410",
"&  c #1F2818",
"*  c #232708",
"=  c #353C10",
"-  c #383F12",
";  c #000B26",
":  c #000A27",
">  c #011C25",
",  c #00142B",
"<  c #00192E",
"1  c #151121",
"2  c #001C30",
"3  c #3B1422",
"4  c #00212C",
"5  c #17212B",
"6  c #002534",
"7  c #022A36",
"8  c #002D3B",
"9  c #1E2C35",
"0  c #242631",
"q  c #480F19",
"w  c #710D1E",
"e  c #572A1C",
"r  c #64251E",
"t  c #6D311E",
"y  c #4C0F29",
"u  c #580622",
"i  c #5B0529",
"p  c #69082B",
"a  c #6A0932",
"s  c #750836",
"d  c #54202A",
"f  c #5A232D",
"g  c #632A2F",
"h  c #732C25",
"j  c #792E2A",
"k  c #6D3D35",
"l  c #7A3631",
"z  c #7B3833",
"x  c #3A4112",
"c  c #3D4927",
"v  c #006A2E",
"b  c #414916",
"n  c #505A1C",
"m  c #454625",
"M  c #545328",
"N  c #684932",
"B  c #5D6522",
"V  c #5E6923",
"C  c #447734",
"Z  c #646525",
"A  c #636D25",
"S  c #716B2C",
"D  c #6B7427",
"F  c #737E2C",
"G  c #7A7F2F",
"H  c #1F2F42",
"J  c #353F5B",
"K  c #354251",
"L  c #2D466D",
"P  c #414D5E",
"I  c #6B554B",
"U  c #616C43",
"Y  c #4F546E",
"T  c #515D68",
"R  c #465376",
"E  c #4E5C77",
"W  c #566275",
"Q  c #820A3D",
"!  c #941237",
"~  c #A5182C",
"^  c #BF1E35",
"/  c #8A362F",
"(  c #883531",
")  c #8B3C33",
"_  c #953B32",
"`  c #B83133",
"'  c #C01E35",
"]  c #DF253F",
"[  c #93462B",
"{  c #9F4636",
"}  c #95483A",
"|  c #A64737",
" . c #A84D39",
".. c #A8563B",
"X. c #AB553E",
"o. c #BC583D",
"O. c #96653D",
"+. c #8C7638",
"@. c #910D46",
"#. c #A5104F",
"$. c #AC144E",
"%. c #B4164D",
"&. c #BA184C",
"*. c #C31B4B",
"=. c #D52147",
"-. c #DB2246",
";. c #D32048",
":. c #E42545",
">. c #EA2743",
",. c #A74A43",
"<. c #B54D48",
"1. c #BF5746",
"2. c #A56846",
"3. c #A5694A",
"4. c #B37049",
"5. c #A16C59",
"6. c #B97650",
"7. c #C25947",
"8. c #CB5851",
"9. c #CC6142",
"0. c #C56947",
"q. c #D36443",
"w. c #DB6C47",
"e. c #CA7D53",
"r. c #E26D48",
"t. c #E6744C",
"y. c #E7794F",
"u. c #EB7A4F",
"i. c #E5655D",
"p. c #E17C51",
"a. c #EC7D51",
"s. c #F16D64",
"d. c #EE7166",
"f. c #F37A6C",
"g. c #77832E",
"h. c #79862E",
"j. c #74992C",
"k. c #7C8030",
"l. c #7E8B30",
"z. c #00DA00",
"x. c #859334",
"c. c #899736",
"v. c #8C9B37",
"b. c #AA8A67",
"n. c #CB8655",
"m. c #C98457",
"M. c #D28A5A",
"N. c #D98858",
"B. c #DD935D",
"V. c #EE8355",
"C. c #E88958",
"Z. c #F18B5A",
"A. c #ED915D",
"S. c #F4945F",
"D. c #EF9460",
"F. c #EB9B64",
"G. c #F69661",
"H. c #F79962",
"J. c #F89C64",
"K. c #ED8C78",
"L. c #F6927D",
"P. c #F3A067",
"I. c #FBA167",
"U. c #F7A369",
"Y. c #FCA66A",
"T. c #FFAA6D",
"R. c #AFEF41",
"E. c #546486",
"W. c #576791",
"Q. c #657893",
"!. c #60719F",
"~. c #778192",
"^. c #7C8BA9",
"/. c #6684B3",
"(. c #618DCF",
"). c #6892D2",
"_. c #6699E3",
"`. c #868D93",
"'. c #98A0A7",
"]. c #97A1BC",
"[. c #CE9E81",
"{. c #D4A386",
"}. c #E0AC8D",
"|. c #F3A187",
" X c #F9A68B",
".X c #FDB999",
"XX c #FFC4A1",
"oX c #A4ADC7",
"OX c #D0D1D1",
"+X c #CDD8E4",
"@X c #FBFCFC",
/* pixels */
"v.v.v.v.v.v.v.v.v.v.v.v.v.v.v.v.v.v.v.v.v.v.v.v.v.v.v.v.v.v.v.v.v.v.v.v.v.v.v.v.v.v.v.v.v.v.v.v.",
"v.v.v.v.v.v.v.v.v.v.v.v.v.v.v.v.v.v.v.v.v.v.v.v.v.v.v.v.v.v.v.v.v.v.v.v.v.v.v.v.v.v.v.v.v.v.v.v.",
"v.v.v.v.v.v.v.v.v.v.v.v.v.v.v.v.v.v.v.v.v.v.v.v.v.v.v.v.v.v.v.v.v.v.v.v.v.v.v.v.v.v.v.v.v.v.v.v.",
"v.v.v.v.v.v.v.v.v.v.v.v.v.v.v.v.v.v.v.v.v.v.v.v.v.v.v.v.v.v.v.v.v.v.v.v.v.v.v.v.v.v.v.v.v.v.v.v.",
"v.v.v.v.v.v.v.v.v.v.v.v.v.v.v.v.v.v.v.v.v.v.v.v.v.v.v.v.v.v.v.v.v.v.v.v.v.v.v.v.v.v.v.v.v.v.v.v.",
"v.v.v.v.v.v.v.v.v.v.v.v.v.v.v.v.v.v.v.v.v.v.v.v.v.v.v.v.v.v.v.v.v.v.v.v.v.v.v.v.v.v.v.v.v.v.v.v.",
"v.v.v.v.v.v.v.v.v.v.v.v.v.v.v.v.v.v.v.v.v.A x x x x x x x.v.v.v.v.v.v.v.v.v.v.v.v.v.v.v.v.v.v.v.",
"v.v.v.v.v.v.v.v.v.v.v.v.v.v.v.v.v.v.l.S n.C.Z.Z.S.H.T.T.n.n.B v.v.v.v.v.v.v.v.v.v.v.v.v.v.v.v.v.",
"v.v.v.v.v.v.v.v.v.v.v.v.v.v.v.v.v.l.n.S.V.Z.T.T.Z.Z.Z.H.H.T.T.2.G v.v.v.v.v.v.v.v.v.v.v.v.v.v.v.",
"v.v.v.v.v.v.v.v.v.v.v.v.v.v.v.x.M M.S.u.Y.U.U.U.U.Y.T.T.a.u.Z.Y.T.k.v.v.v.v.v.v.v.v.v.v.v.v.v.v.",
"v.v.v.v.v.v.v.v.v.v.v.v.v.v.h.F.V.| 0.P.X.U.P.P.P.X.X.a.Y.Y.N.t.T.O.v.v.v.v.v.v.v.v.v.v.v.v.v.v.",
"v.v.v.v.v.v.v.v.v.v.v.v.v.F N.X.C.S.N.T.T.T.T.Y.T.T.T.B.7.p.H.I.o.Y.A v.v.v.v.v.v.v.v.v.v.v.v.v.",
"v.v.v.v.v.v.v.v.v.v.v.v.v.+.e.T.y.9.j o.8.N.S.Y.Z.Z.H.J.T.N.q.I.T.q.m.v.v.v.v.v.v.v.v.v.v.v.v.v.",
"v.v.v.v.v.v.v.v.v.v.v.v.x.N.3.t.l N f.f.z f _ | r.Y.T.I.u.T.M.p.T.0.A.x v.v.v.v.v.v.v.v.v.v.v.v.",
"v.v.v.v.v.v.v.v.v.v.v.v.- 6.G.w.[ K.XXXX.XK.<.$ f | a.T.T.w.Y.z T.U.9.B.c.v.v.v.v.v.v.v.v.v.v.v.",
"v.v.v.v.v.v.v.v.v.v.v.v.v.3 H.d $ .X.Xs.,.5.5.|.h  .[ u.Y.F.0.F.w.T.) U.Z v.v.v.v.v.v.v.v.v.v.v.",
"v.v.v.v.v.v.v.v.v.v.v.v.v.b S.f # XXi.  X P W m f.j w.) r.U.n.a.k H.m.a.4.x.v.v.v.v.v.v.v.v.v.v.",
"v.v.v.v.v.v.v.v.v.v.v.v.v.A D.d } [.8.C v ^.].^.I _ o.J._ G.T.z g q.M.| Y.k.v.v.v.v.v.v.v.v.v.v.",
"v.v.v.v.v.v.v.v.v.v.v.v.v.v.[ $ _ [.|.R.z.OX@XI .Xi.h a.k q.T.z g q.T.f y.O.c.v.v.v.v.v.v.v.v.v.",
"v.v.v.v.v.v.v.v.v.v.v.v.v.v.+.w.) [..Xj.x '.{.XXXX|.r 7.T.{ J.F.r.) Z.m.o.J.V v.v.v.v.v.v.v.v.v.",
"v.v.v.v.v.v.v.v.v.v.v.v.v.v.l.n...K.XXXXXXXXXXXXXXL.1.| T.} Z.e.t.2.p.F._ P.V v.v.v.v.v.v.v.v.v.",
"v.v.v.v.v.v.v.v.v.v.v.v.v.v.v.c.B.{.XXXXXXXXXXXXXXL.<._ r.3.e.f r.T. .F.r.P.D v.v.v.v.v.v.v.v.v.",
"v.v.v.v.v.v.v.v.v.v.v.v.v.v.v.v.x XXXXXXXXXXXXXXXXd.r q r.3.) _ r.T...F.r.O.v.v.v.v.v.v.v.v.v.v.",
"v.v.v.v.v.v.v.v.v.v.v.v.v.v.v.v.g.}.XXXXXXXXXXK.s.( _ % r.4.3.j r.Y.6.t Y.g.v.v.v.v.v.v.v.v.v.v.",
"v.v.v.v.v.v.v.v.v.v.v.v.v.v.v.v.v.b. X X|.s.1.<.g _ _ q C./ Z.l A.B.B x.B v.v.v.v.v.v.v.v.v.v.v.",
"v.v.v.v.v.v.v.v.v.v.v.v.v.v.v.v.v.A - - I k i.# _ _ h | F.9.Y.[ Y.O.v.v.v.v.v.v.v.v.v.v.v.v.v.v.",
"v.v.v.v.v.v.v.v.v.v.v.v.v.v.v.v.v.v.v.v.M ,.  8 $ j r y.N G...F.e c.v.v.v.v.v.v.v.v.v.v.v.v.v.v.",
"v.v.v.v.v.v.v.v.v.v.v.v.v.v.v.c.n v.v.c.c.~ -.+ 7 > | O.n g.x.h.v.v.v.v.v.v.v.v.v.v.v.v.v.v.v.v.",
"v.v.v.v.v.v.v.v.v.v.v.v.v.v.l.# y B c.v.v.^ ;.+ 8 8 > 4 E U c.v.v.v.v.v.v.v.v.v.v.v.v.v.v.v.v.v.",
"v.v.v.v.v.v.v.v.v.v.v.v.v.v.g.y (.L l.v.v.^ ;.+ 8 8 8 8 9 ).V c.x.v.v.v.v.v.v.v.v.v.v.v.v.v.v.v.",
"v.v.v.v.v.v.v.v.v.v.v.v.v.v.c.0 Q.Q._.* * ' =.+ 8 8 8 8 . H c.& 8 g.v.v.v.v.v.v.v.v.v.v.v.v.v.v.",
"v.v.v.v.v.v.v.v.v.v.v.v.v.v.v.F 5 E.Q././.' %.X 8 8 8 8 2 b c 2 7 7 [ ` c.v.v.v.v.v.v.v.v.v.v.v.",
"v.v.v.v.v.v.v.v.v.v.v.v.v.v.v.v.v.c K E 5 ! p : : 2 < @ > 6 6 s 1 < Q ] D c.v.v.v.v.v.v.v.v.v.v.",
"v.v.v.v.v.v.v.v.v.v.v.v.v.v.v.v.v.v.g.b h.+ ; . . . @ 8 2 ; a #.#.@ ~ ] $ v.v.v.v.v.v.v.v.v.v.v.",
"v.v.v.v.v.v.v.v.v.v.v.v.v.v.v.v.v.v.v.x.7 8 8 ; 7 8 : 7 : 7 5 %.:.p #.! x.v.v.v.v.v.v.v.v.v.v.v.",
"v.v.v.v.v.v.v.v.v.v.v.v.v.v.v.v.v.v.n 6 8 8 < 7 8 H : 3 @.: , a &.p s g v.v.v.v.v.v.v.v.v.v.v.v.",
"v.v.v.v.v.v.v.v.v.v.v.v.v.v.v.v.S '.W 4 6 : y a 4 , : q *.^ a s A v.l.v.v.v.v.v.v.v.v.v.v.v.v.v.",
"v.v.v.v.v.v.v.v.v.v.v.v.v.v.v.~.+X].^ w 1 O $.:.&.i u #.;.-.@.v.v.v.v.v.v.v.v.v.v.v.v.v.v.v.v.v.",
"v.v.v.v.v.v.v.v.v.v.v.v.v.v.`.oXQ.P >.:.#.Q *.>.>.&.#.o o #.B v.v.v.v.v.v.v.v.v.v.v.v.v.v.v.v.v.",
"v.v.v.v.v.v.v.v.v.v.v.v.v.v.x.h.G E.Y &.#.i %.&.p i E.!.!.E.Y v.v.v.v.v.v.v.v.v.v.v.v.v.v.v.v.v.",
"v.v.v.v.v.v.v.v.v.v.v.v.v.v.v.v.= !.W.A A v.A A c.T R R R R J v.v.v.v.v.v.v.v.v.v.v.v.v.v.v.v.v.",
"v.v.v.v.v.v.v.v.v.v.v.v.v.v.v.v.- !.Y v.v.v.v.v.v.v.v.v.v.v.v.v.v.v.v.v.v.v.v.v.v.v.v.v.v.v.v.v.",
"v.v.v.v.v.v.v.v.v.v.v.v.v.v.v.v.= X v.v.v.v.v.v.v.v.v.v.v.v.v.v.v.v.v.v.v.v.v.v.v.v.v.v.v.v.v.v.",
"v.v.v.v.v.v.v.v.v.v.v.v.v.v.v.v.v.v.v.v.v.v.v.v.v.v.v.v.v.v.v.v.v.v.v.v.v.v.v.v.v.v.v.v.v.v.v.v.",
"v.v.v.v.v.v.v.v.v.v.v.v.v.v.v.v.v.v.v.v.v.v.v.v.v.v.v.v.v.v.v.v.v.v.v.v.v.v.v.v.v.v.v.v.v.v.v.v.",
"v.v.v.v.v.v.v.v.v.v.v.v.v.v.v.v.v.v.v.v.v.v.v.v.v.v.v.v.v.v.v.v.v.v.v.v.v.v.v.v.v.v.v.v.v.v.v.v.",
"v.v.v.v.v.v.v.v.v.v.v.v.v.v.v.v.v.v.v.v.v.v.v.v.v.v.v.v.v.v.v.v.v.v.v.v.v.v.v.v.v.v.v.v.v.v.v.v.",
"v.v.v.v.v.v.v.v.v.v.v.v.v.v.v.v.v.v.v.v.v.v.v.v.v.v.v.v.v.v.v.v.v.v.v.v.v.v.v.v.v.v.v.v.v.v.v.v."
};
