/* XPM */
static char *result[] = {
/* columns rows colors chars-per-pixel */
"48 48 198 2 ",
"   c #010102",
".  c #080002",
"X  c #00020E",
"o  c #000A0F",
"O  c #140005",
"+  c #171B04",
"@  c #000418",
"#  c #00151E",
"$  c #091319",
"%  c #390A1B",
"&  c #2E1310",
"*  c #202407",
"=  c #2E2A13",
"-  c #000721",
";  c #000926",
":  c #031B24",
">  c #00142A",
",  c #001D2A",
"<  c #151223",
"1  c #001D30",
"2  c #2D1228",
"3  c #00212D",
"4  c #1B262C",
"5  c #003924",
"6  c #002535",
"7  c #042936",
"8  c #002D3B",
"9  c #2B392A",
"0  c #560813",
"q  c #4E1B16",
"w  c #5A221F",
"e  c #67261F",
"r  c #4E0422",
"t  c #511129",
"y  c #62072D",
"u  c #6A0732",
"i  c #740C38",
"p  c #5A2A2F",
"a  c #612623",
"s  c #6A2928",
"d  c #762D28",
"f  c #7D312E",
"g  c #703033",
"h  c #3A4112",
"j  c #424A16",
"k  c #4B541A",
"l  c #545D1E",
"z  c #514E24",
"x  c #6E522C",
"c  c #794538",
"v  c #5A6421",
"b  c #5F6923",
"n  c #78692F",
"m  c #6A7628",
"M  c #6D7929",
"N  c #717E2B",
"B  c #2A3A57",
"V  c #353F5B",
"C  c #73284D",
"Z  c #3D474B",
"A  c #3C496B",
"S  c #2D4374",
"D  c #434252",
"F  c #5E5858",
"G  c #6E5342",
"H  c #5A6540",
"J  c #68724D",
"K  c #455363",
"L  c #555A6A",
"P  c #485679",
"I  c #526277",
"U  c #8B1324",
"Y  c #820A3E",
"T  c #8F0E3F",
"R  c #871738",
"E  c #A1172B",
"W  c #BB1D35",
"Q  c #823B26",
"!  c #82332C",
"~  c #8D362E",
"^  c #833832",
"/  c #953B32",
"(  c #983F37",
")  c #D3223B",
"_  c #914836",
"`  c #8A5D37",
"'  c #A64637",
"]  c #A64A37",
"[  c #B04D39",
"{  c #AC523C",
"}  c #B5533C",
"|  c #B9573B",
" . c #BD563D",
".. c #8E7239",
"X. c #8B0C42",
"o. c #940D47",
"O. c #A00F4D",
"+. c #A4104F",
"@. c #AD144C",
"#. c #B4164D",
"$. c #BD194C",
"%. c #C21B4B",
"&. c #DA2247",
"*. c #E52643",
"=. c #EA2743",
"-. c #B14C46",
";. c #AD544A",
":. c #B95C41",
">. c #9D6840",
",. c #93715C",
"<. c #A46A44",
"1. c #B36647",
"2. c #BA6746",
"3. c #AA7249",
"4. c #B2714D",
"5. c #B87650",
"6. c #BB7952",
"7. c #9E7A64",
"8. c #C55A46",
"9. c #CA5851",
"0. c #D35C55",
"q. c #CA6343",
"w. c #CF6947",
"e. c #D86846",
"r. c #C3724C",
"t. c #DE615A",
"y. c #E26E48",
"u. c #E6734B",
"i. c #E9744C",
"p. c #EA794F",
"a. c #E6655D",
"s. c #E27C52",
"d. c #EC7E51",
"f. c #D96C60",
"g. c #ED6861",
"h. c #F16A62",
"j. c #F27569",
"k. c #75822D",
"l. c #79862F",
"z. c #7D8335",
"x. c #7E8B31",
"c. c #71BF29",
"v. c #00C600",
"b. c #818F32",
"n. c #849334",
"m. c #889735",
"M. c #8C9B37",
"N. c #9E835C",
"B. c #BB8051",
"V. c #C48153",
"C. c #CC8657",
"Z. c #D98657",
"A. c #D38A5A",
"S. c #DC925D",
"D. c #E78657",
"F. c #EE8455",
"G. c #F28D5B",
"H. c #E3945F",
"J. c #F4935F",
"K. c #C69A7B",
"L. c #E49561",
"P. c #E79962",
"I. c #EC9C64",
"U. c #F69761",
"Y. c #F69963",
"T. c #F99D65",
"R. c #F6907B",
"E. c #FAA067",
"W. c #F4A268",
"Q. c #FCA56A",
"!. c #FFAA6D",
"~. c #BFEB48",
"^. c #55668D",
"/. c #536892",
"(. c #64768F",
"). c #60719F",
"_. c #4F74AC",
"`. c #9F7D85",
"'. c #75849E",
"]. c #7087AF",
"[. c #648FD0",
"{. c #AD9B92",
"}. c #8B9AB7",
"|. c #ABB4BD",
" X c gray74",
".X c #F69D84",
"XX c #D8A587",
"oX c #E0AC8D",
"OX c #FAAC90",
"+X c #E9B292",
"@X c #FBB394",
"#X c #F7B999",
"$X c #FBC19E",
"%X c #FFC4A1",
"&X c #A8B1CA",
"*X c #CFD4D9",
"=X c #C8D2E1",
"-X c white",
/* pixels */
"M.M.M.M.M.M.M.M.M.M.M.M.M.M.M.M.M.M.M.M.M.M.M.M.M.M.M.M.M.M.M.M.M.M.M.M.M.M.M.M.M.M.M.M.M.M.M.M.",
"M.M.M.M.M.M.M.M.M.M.M.M.M.M.M.M.M.M.M.M.M.M.M.M.M.M.M.M.M.M.M.M.M.M.M.M.M.M.M.M.M.M.M.M.M.M.M.M.",
"M.M.M.M.M.M.M.M.M.M.M.M.M.M.M.M.M.M.M.M.M.M.M.M.M.M.M.M.M.M.M.M.M.M.M.M.M.M.M.M.M.M.M.M.M.M.M.M.",
"M.M.M.M.M.M.M.M.M.M.M.M.M.M.M.M.M.M.M.M.M.M.M.M.M.M.M.M.M.M.M.M.M.M.M.M.M.M.M.M.M.M.M.M.M.M.M.M.",
"M.M.M.M.M.M.M.M.M.M.M.M.M.M.M.M.M.M.M.M.N N N N N N N m.M.M.M.M.M.M.M.M.M.M.M.M.M.M.M.M.M.M.M.M.",
"M.M.M.M.M.M.M.M.M.M.M.M.M.M.M.M.M.M.+ z !.T.p.y.u.Q.Q.x + M.M.M.M.M.M.M.M.M.M.M.M.M.M.M.M.M.M.M.",
"M.M.M.M.M.M.M.M.M.M.M.M.M.M.m.M...V.G.G.G.J.J.G.G.E.!.!.!.B.>.M M.M.M.M.M.M.M.M.M.M.M.M.M.M.M.M.",
"M.M.M.M.M.M.M.M.M.M.M.M.M.M.b.n !.i.U.!.!.!.!.!.!.G.d.i.!.Q.!.I.x.M.M.M.M.M.M.M.M.M.M.M.M.M.M.M.",
"M.M.M.M.M.M.M.M.M.M.M.M.M.k H.r.d.y.!.2.2.2.:.S.!.!.!.T.T.u.F.!.H.M M.M.M.M.M.M.M.M.M.M.M.M.M.M.",
"M.M.M.M.M.M.M.M.M.M.M.n.>.L.q.r.Z.!.r.!.!.!.!.L.r.r.q.J.E.!.D.e.Q...M.M.M.M.M.M.M.M.M.M.M.M.M.M.",
"M.M.M.M.M.M.M.M.M.M.M.<.i.C.E.F.:.!.!.!.!.!.!.!.!.!.Q.:.8.i.!.P.e.A.m.M.M.M.M.M.M.M.M.M.M.M.M.M.",
"M.M.M.M.M.M.M.M.M.M.M Z.p Y.y.8.s ] :.8.D.T.!.J.U.G.Y.!.J.;.F.!.1.G.& M.M.M.M.M.M.M.M.M.M.M.M.M.",
"M.M.M.M.M.M.M.M.M.M.x C.!.y.p G j.j.2.g f ~ e.F.Q.!.E.p.!.!.:.Q.!.} !.M M.M.M.M.M.M.M.M.M.M.M.M.",
"M.M.M.M.M.M.M.M.M.x.P.4.D.{ ~ oX%X%X#XOX0.& p ( } F.!.!.w.!.3.F.!.Z.F.<.M.M.M.M.M.M.M.M.M.M.M.M.",
"M.M.M.M.M.M.M.M.M.M.h 4.i.f x %X$Xh.t.f.XXf.] d _  .d.!.H.q.Q.^ Q.A.w.C.l.M.M.M.M.M.M.M.M.M.M.M.",
"M.M.M.M.M.M.M.M.M.M.j 4.i.f G %Xj.s &   X = +X-.' ' } p.!.W.q.H.w.Q.s U.h M.M.M.M.M.M.M.M.M.M.M.",
"M.M.M.M.M.M.M.M.M.M.M.>.i.Q c $X9.5 5 S }.].4 -.d d.4.| G.!.2.Z.} T.p s.I.l.M.M.M.M.M.M.M.M.M.M.",
"M.M.M.M.M.M.M.M.M.M.M.M y.d ~ +Xj.~.v.F -X}.F .Xw q.!._ :.!.4.e.Q G.!.| Q.` M.M.M.M.M.M.M.M.M.M.",
"M.M.M.M.M.M.M.M.M.M.M.k.J._ _ K.OX~.c.*X X{.$X#Xa.! d.H.-.!.I.' ' q.!.f d.L.m M.M.M.M.M.M.M.M.M.",
"M.M.M.M.M.M.M.M.M.M.M.m.+ q.d +X%X7.,.7.+X%X%X%Xh.! [ E.g p.!.f 1.| !.5.' T.l M.M.M.M.M.M.M.M.M.",
"M.M.M.M.M.M.M.M.M.M.M.M.x.C.r.K.%X%X%X%X%X%X%X%Xh.( [ T.V.u.6.] E.d F.5.] T.l M.M.M.M.M.M.M.M.M.",
"M.M.M.M.M.M.M.M.M.M.M.M.N.l.B.$X%X%X%X%X%X%X%X%Xg.g / y.C.( 4.] T.A.y.5.F.C.k.M.M.M.M.M.M.M.M.M.",
"M.M.M.M.M.M.M.M.M.M.M.M.M.M.x %X%X%X%X%X%X%X%X.Xt.! q y.C./ ! ] E.A.i.4.F.` M.M.M.M.M.M.M.M.M.M.",
"M.M.M.M.M.M.M.M.M.M.M.M.M.M.z.+X%X%X%X%X%X#XR.9.! / q e.Z.s <.[ E.A.Q.| I.k.M.M.M.M.M.M.M.M.M.M.",
"M.M.M.M.M.M.M.M.M.M.M.M.M.M.n.K.@X@XOXh.0.0.s d / / q s.d i.4.i.E.B.k M v M.M.M.M.M.M.M.M.M.M.M.",
"M.M.M.M.M.M.M.M.M.M.M.M.M.M.M.k a a a a 9.8.~ / / e ] T.] Q.4.d.!.l M.M.M.M.M.M.M.M.M.M.M.M.M.M.",
"M.M.M.M.M.M.M.M.M.M.M.M.M.M.M.M.M.M.N..Xg   : d / e e.c F.V.s.6...m.M.M.M.M.M.M.M.M.M.M.M.M.M.M.",
"M.M.M.M.M.M.M.M.M.M.M.M.M.M.M.M.M.M.M.o # =.0 8 . ! S.b.* M.* M.M.M.M.M.M.M.M.M.M.M.M.M.M.M.M.M.",
"M.M.M.M.M.M.M.M.M.M.M.M.M.M.k 2 m M.M.o # &.% 8 4 Q $ l M.M.M.M.M.M.M.M.M.M.M.M.M.M.M.M.M.M.M.M.",
"M.M.M.M.M.M.M.M.M.M.M.M.M.b t A % M.M.o : &.y 6 8 8 6 I H M.M.M.M.M.M.M.M.M.M.M.M.M.M.M.M.M.M.M.",
"M.M.M.M.M.M.M.M.M.M.M.M.M.b t /.[.z M o : =.@., 8 8 8 # ].h M.= b.M.M.M.M.M.M.M.M.M.M.M.M.M.M.M.",
"M.M.M.M.M.M.M.M.M.M.M.M.M.M.4 ^.).[._._.B =.@.3 8 8 8 6 /.m z 8 3 l.m b.M.M.M.M.M.M.M.M.M.M.M.M.",
"M.M.M.M.M.M.M.M.M.M.M.M.M.M.n.+ A (.(.(.D &.o.> 7 8 8 >   X , , 8 6 =.E M.M.M.M.M.M.M.M.M.M.M.M.",
"M.M.M.M.M.M.M.M.M.M.M.M.M.M.M.M.b 4 K K d y 2 ; 1 ; @ 3 6 : u i ; > U ) m M.M.M.M.M.M.M.M.M.M.M.",
"M.M.M.M.M.M.M.M.M.M.M.M.M.M.M.M.M.M.= $ - X X X X - 8 , > O +.#.r @ =.%.9 M.M.M.M.M.M.M.M.M.M.M.",
"M.M.M.M.M.M.M.M.M.M.M.M.M.M.M.M.M.M.9 8 7 6 ; 8 8 ; 8 > 8 7 X.=.@.y $.i x.M.M.M.M.M.M.M.M.M.M.M.",
"M.M.M.M.M.M.M.M.M.M.M.M.M.M.M.M.b.4 8 8 6 > 8 8 8 ; 2 i ; 6 u @.W X.O.x M.M.M.M.M.M.M.M.M.M.M.M.",
"M.M.M.M.M.M.M.M.M.M.M.M.M.M.M.M.: 6 8 ; ; . 8 8 ; ; r +.W . Y o.x.m.+ M.M.M.M.M.M.M.M.M.M.M.M.M.",
"M.M.M.M.M.M.M.M.M.M.M.M.M.l.J |.`.% - ; u #.T y @ @ X.*.=.+.n k.M.M.M.M.M.M.M.M.M.M.M.M.M.M.M.M.",
"M.M.M.M.M.M.M.M.M.M.M.M.x.|.=XL =.=.Y < o.=.=.=.+.+.o.o.+.o.N M.M.M.M.M.M.M.M.M.M.M.M.M.M.M.M.M.",
"M.M.M.M.M.M.M.M.M.M.M.l.*X&X'.Z R *.%.o.+.=.$.#.O.r ^.^.r x.M.M.M.M.M.M.M.M.M.M.M.M.M.M.M.M.M.M.",
"M.M.M.M.M.M.M.M.M.M.M.M.l v v x.x.R X.A C Y X.v v N ^.).P M.M.M.M.M.M.M.M.M.M.M.M.M.M.M.M.M.M.M.",
"M.M.M.M.M.M.M.M.M.M.M.M.M.M.M.M.M.m.P ).V M.M.M.M.M.B ).).+ M.M.M.M.M.M.M.M.M.M.M.M.M.M.M.M.M.M.",
"M.M.M.M.M.M.M.M.M.M.M.M.M.M.M.M.M.M.l.K H M.M.M.M.M.m.K ).P x.M.M.M.M.M.M.M.M.M.M.M.M.M.M.M.M.M.",
"M.M.M.M.M.M.M.M.M.M.M.M.M.M.M.M.M.M.M.M.M.M.M.M.M.M.M.M.K /.l.M.M.M.M.M.M.M.M.M.M.M.M.M.M.M.M.M.",
"M.M.M.M.M.M.M.M.M.M.M.M.M.M.M.M.M.M.M.M.M.M.M.M.M.M.M.M.n.x.M.M.M.M.M.M.M.M.M.M.M.M.M.M.M.M.M.M.",
"M.M.M.M.M.M.M.M.M.M.M.M.M.M.M.M.M.M.M.M.M.M.M.M.M.M.M.M.M.M.M.M.M.M.M.M.M.M.M.M.M.M.M.M.M.M.M.M.",
"M.M.M.M.M.M.M.M.M.M.M.M.M.M.M.M.M.M.M.M.M.M.M.M.M.M.M.M.M.M.M.M.M.M.M.M.M.M.M.M.M.M.M.M.M.M.M.M."
};
