/* XPM */
static char *result[] = {
/* columns rows colors chars-per-pixel */
"48 48 206 2 ",
"   c #00051B",
".  c #2C0212",
"X  c #27051C",
"o  c #38111C",
"O  c #090620",
"+  c #000A23",
"@  c #041924",
"#  c #00142A",
"$  c #001B2D",
"%  c #11132A",
"&  c #320D28",
"*  c #00212E",
"=  c #0F212A",
"-  c #14252F",
";  c #002333",
":  c #072936",
">  c #012C3A",
",  c #342228",
"<  c #32332C",
"1  c #4C1E18",
"2  c #58221F",
"3  c #460B2B",
"4  c #411A27",
"5  c #571827",
"6  c #5B1533",
"7  c #68092B",
"8  c #690A34",
"9  c #760B37",
"0  c #681A3B",
"q  c #6E2A29",
"w  c #6A3629",
"e  c #773726",
"r  c #793732",
"t  c #3A452C",
"y  c #374734",
"u  c #4C541A",
"i  c #495529",
"p  c #7A443A",
"a  c #6C5432",
"s  c #596320",
"d  c #576335",
"f  c #646A27",
"g  c #7A612C",
"h  c #6B752A",
"j  c #6D7A2A",
"k  c #74772C",
"l  c #7D6B33",
"z  c #6E7B31",
"x  c #757E36",
"c  c #6B2545",
"v  c #0A5F44",
"b  c #36485C",
"n  c #31496C",
"m  c #4D4F4C",
"M  c #745A4E",
"N  c #5C6548",
"B  c #4D5A62",
"V  c #47536B",
"C  c #496078",
"Z  c #58667B",
"A  c #636771",
"S  c #98172E",
"D  c #8C0F3F",
"F  c #861038",
"G  c #96143B",
"H  c #B21E37",
"J  c #87382C",
"K  c #91382F",
"L  c #853931",
"P  c #943835",
"I  c #AB2938",
"U  c #B72238",
"Y  c #D0213C",
"T  c #89432B",
"R  c #95452B",
"E  c #884738",
"W  c #954434",
"Q  c #9B4635",
"!  c #9D443C",
"~  c #98553B",
"^  c #A44839",
"/  c #A8533B",
"(  c #B4523C",
")  c #8B6433",
"_  c #897735",
"`  c #94763A",
"'  c #C15A3F",
"]  c #950F45",
"[  c #931245",
"{  c #A91545",
"}  c #B81946",
"|  c #8E2941",
" . c #B32A41",
".. c #C51C48",
"X. c #CE2044",
"o. c #D82146",
"O. c #E52544",
"+. c #895645",
"@. c #AD4A43",
"#. c #A95B41",
"$. c #B25B4A",
"%. c #9E6D4E",
"&. c #AB6245",
"*. c #B36445",
"=. c #B76A46",
"-. c #A67742",
";. c #B7784B",
":. c #AC6A59",
">. c #BB7A51",
",. c #AE7B64",
"<. c #BA7A64",
"1. c #B86370",
"2. c #CF5A53",
"3. c #C86745",
"4. c #CB6D49",
"5. c #D76A4F",
"6. c #C4744D",
"7. c #CB734D",
"8. c #D4744D",
"9. c #C96B5D",
"0. c #C47C52",
"q. c #CA7E54",
"w. c #D47C52",
"e. c #DB7C52",
"r. c #E3784F",
"t. c #E67F53",
"y. c #D77465",
"u. c #F07368",
"i. c #76822D",
"p. c #788434",
"a. c #7D8931",
"s. c #4BB539",
"d. c #7A8748",
"f. c #788957",
"g. c #748275",
"h. c #878835",
"j. c #8A8C36",
"k. c #95863C",
"l. c #859334",
"z. c #899536",
"x. c #8C9B37",
"c. c #8C973A",
"v. c #919139",
"b. c #8E924D",
"n. c #A28542",
"m. c #AB884F",
"M. c #828B77",
"N. c #AF866D",
"B. c #AF9666",
"V. c #C3844F",
"C. c #C58452",
"Z. c #CB8554",
"A. c #D68757",
"S. c #DC8355",
"D. c #DC8B5A",
"F. c #DD925D",
"G. c #E48456",
"H. c #EC8556",
"J. c #E18658",
"K. c #E28D5B",
"L. c #EB8D5B",
"P. c #F18B5A",
"I. c #E4915E",
"U. c #EA915E",
"Y. c #F3925E",
"T. c #C29278",
"R. c #D8947B",
"E. c #E99662",
"W. c #ED9661",
"Q. c #F49661",
"!. c #F29A63",
"~. c #F99C65",
"^. c #E88C77",
"/. c #F38A77",
"(. c #F3957E",
"). c #CFBE6B",
"_. c #FAA067",
"`. c #FBA369",
"'. c #F8A56A",
"]. c #A7C243",
"[. c #57668A",
"{. c #566C92",
"}. c #5B6995",
"|. c #627387",
" X c #627FAC",
".X c #75809A",
"XX c #5D81B8",
"oX c #6484BB",
"OX c #828B8F",
"+X c #B59588",
"@X c #9BA49E",
"#X c #B7B38C",
"$X c #8794AA",
"%X c #99A4BB",
"&X c #AEA5B7",
"*X c #F49981",
"=X c #D5A486",
"-X c #F7AB8A",
";X c #FAB694",
":X c #FBBD9C",
">X c #FBC09E",
",X c #D5C5BD",
"<X c #FFC4A1",
"1X c #B5C0C0",
"2X c #DDE6DC",
"3X c #E5E4E6",
/* pixels */
"x.x.x.x.x.x.x.x.x.x.x.x.x.x.x.x.x.x.x.x.x.x.x.x.x.x.x.x.x.x.x.x.x.x.x.x.x.x.x.x.x.x.x.x.x.x.x.x.",
"x.x.x.x.x.x.x.x.x.x.x.x.x.x.x.x.x.x.x.x.x.x.x.x.x.x.x.x.x.x.x.x.x.x.x.x.x.x.x.x.x.x.x.x.x.x.x.x.",
"x.x.x.x.x.x.x.x.x.x.x.x.x.x.x.x.x.x.x.x.x.x.x.x.x.x.x.x.x.x.x.x.x.x.x.x.x.x.x.x.x.x.x.x.x.x.x.x.",
"x.x.x.x.x.x.x.x.x.x.x.x.x.x.x.x.x.x.x.x.x.x.x.x.x.x.x.x.x.x.x.x.x.x.x.x.x.x.x.x.x.x.x.x.x.x.x.x.",
"x.x.x.x.x.x.x.x.x.x.x.x.x.x.x.x.x.x.x.x.x.x.x.x.x.x.x.x.x.x.x.x.x.x.x.x.x.x.x.x.x.x.x.x.x.x.x.x.",
"x.x.x.x.x.x.x.x.x.x.x.x.x.x.x.x.x.x.x.x.x.z.z.z.x.z.z.x.x.x.x.x.x.x.x.x.x.x.x.x.x.x.x.x.x.x.x.x.",
"x.x.x.x.x.x.x.x.x.x.x.x.x.x.x.x.x.x.v.x._ g g g g l l h.x.x.x.x.x.x.x.x.x.x.x.x.x.x.x.x.x.x.x.x.",
"x.x.x.x.x.x.x.x.x.x.x.x.x.x.x.x.z.v.-.=.J.Y.Y.P.H._.'.F.;.n.j.z.x.x.x.x.x.x.x.x.x.x.x.x.x.x.x.x.",
"x.x.x.x.x.x.x.x.x.x.x.x.x.x.x.l.j.A.Y.H.P.`.'.P.H.Y.`.`.`._.V.k.x.z.x.x.x.x.x.x.x.x.x.x.x.x.x.x.",
"x.x.x.x.x.x.x.x.x.x.x.x.x.x.h.n.V.G.P.!.U.I.E.I.`.`.Y.Y.Y.Y._.I.k.l.x.x.x.x.x.x.x.x.x.x.x.x.x.x.",
"x.x.x.x.x.x.x.x.x.x.x.x.x._ =.0.I.L.!.E.D.D.D.D.!.!.D.L._.Y.S.Y.0.j.z.x.x.x.x.x.x.x.x.x.x.x.x.x.",
"x.x.x.x.x.x.x.x.x.x.x.x.p.Z.w.K.L.S.Q._.'.`.'._.Y.'.I.A.S.Y.U.K.L.k.x.x.x.x.x.x.x.x.x.x.x.x.x.x.",
"x.x.x.x.x.x.x.x.x.x.x.x.;.S.D.e.~ L ~ *.7.H.`.`._.L.Y._.D.e.Y.I.G.-.z.x.x.x.x.x.x.x.x.x.x.x.x.x.",
"x.x.x.x.x.x.x.x.x.x.x.j A.*.t.Q %.R.R.9.r P *.8.Y.~.~.~.!.K.J.!.4.S.k x.x.x.x.x.x.x.x.x.x.x.x.x.",
"x.x.x.x.x.x.x.x.x.x.x.u ;.U.3.p T.<X;X-X^.$.r r / t.~.W.e.W.S.U.!.e.Z.l.x.x.x.x.x.x.x.x.x.x.x.x.",
"x.x.x.x.x.x.x.x.x.x.x.x.w W.L ,.>X-Xu.$.M r *X2 ( W r.!.I.S.=.S._.#.'.a x.x.x.x.x.x.x.x.x.x.x.x.",
"x.x.x.x.x.x.x.x.x.x.x.x.a U.J ,.;Xy.q % C [.M u.e 5./ r.~.Z.A.7.!.>.H.0.a.x.x.x.x.x.x.x.x.x.x.x.",
"x.x.x.x.x.x.x.x.x.x.x.x.k D.L J :.<.t v $X%X.Xa @.( K./ L._.e.! 5.6./ ~.k x.x.x.x.x.x.x.x.x.x.x.",
"x.x.x.x.x.x.x.x.x.x.x.x.z.e T e N.'.].s.2X3X+X<Xy.J e.6.3.!.e.^ 3.~.E r.C.l.x.x.x.x.x.x.x.x.x.x.",
"x.x.x.x.x.x.x.x.x.x.x.x.x.` 8.q N.>X).#X,X+X:X<X(.K 4.A.#.!.0.=.^ L.;.' !.u x.x.x.x.x.x.x.x.x.x.",
"x.x.x.x.x.x.x.x.x.x.x.x.x.v.V./ N.<X>X>X>X>X<X<X*X2./ 8.&.S.0.w.&.J.I.^ U.u x.x.x.x.x.x.x.x.x.x.",
"x.x.x.x.x.x.x.x.x.x.x.x.x.x.j.m.=X<X<X<X<X<X<X<X(.^ Q S.D.>.=.w.K.4.F.3.F.j x.x.x.x.x.x.x.x.x.x.",
"x.x.x.x.x.x.x.x.x.x.x.x.x.x.l.B.<X<X<X<X<X<X<X-Xy.q J 8.D.+.@.w._.e.0.G.-.x.x.x.x.x.x.x.x.x.x.x.",
"x.x.x.x.x.x.x.x.x.x.x.x.x.x.z.b.=X<X<X<X:X;X*Xy.P J e 8.q.&.#.e._.Z.) K.i.x.x.x.x.x.x.x.x.x.x.x.",
"x.x.x.x.x.x.x.x.x.x.x.x.x.x.x.l.m.^.*X/./.:.@.^ K K e =./ w.w.U.>.k.j.n.x.x.x.x.x.x.x.x.x.x.x.x.",
"x.x.x.x.x.x.x.x.x.x.x.x.x.x.x.x.j.%.) <.9.! 1 K K K Q 3.7.S.S.E.` l.x.x.x.x.x.x.x.x.x.x.x.x.x.x.",
"x.x.x.x.x.x.x.x.x.x.x.x.x.x.x.x.x.l.l.-.r q 5 4 q e 4.4.4.6.=._ l.x.x.x.x.x.x.x.x.x.x.x.x.x.x.x.",
"x.x.x.x.x.x.x.x.x.x.x.x.x.x.x.a.s l.x.x y H G : , Q +.m f l.j.z.x.x.x.x.x.x.x.x.x.x.x.x.x.x.x.x.",
"x.x.x.x.x.x.x.x.x.x.x.x.x.x.l.i o s l.i.y U ] > > @ % V Z f.x.x.x.x.x.x.x.x.x.x.x.x.x.x.x.x.x.x.",
"x.x.x.x.x.x.x.x.x.x.x.x.x.x.a., n C f.x y U o.. > > : b |.g.z.z.x.x.x.x.x.x.x.x.x.x.x.x.x.x.x.x.",
"x.x.x.x.x.x.x.x.x.x.x.x.x.x.a.N Z XX X[.n ..o.. > > > : i x d y p.x.z.x.x.x.x.x.x.x.x.x.x.x.x.x.",
"x.x.x.x.x.x.x.x.x.x.x.x.x.x.l.i.m Z {.XXoX@.} X > > > ; i i * ; - T R x.x.x.x.x.x.x.x.x.x.x.x.x.",
"x.x.x.x.x.x.x.x.x.x.x.x.x.x.x.x.a.d B Z m D 9 O $ * @ $ ; , 6 3 - H Y k x.x.x.x.x.x.x.x.x.x.x.x.",
"x.x.x.x.x.x.x.x.x.x.x.x.x.x.x.x.x.a.z y = +   + + + ; ; $ 8 { [ & G X.1 x.x.x.x.x.x.x.x.x.x.x.x.",
"x.x.x.x.x.x.x.x.x.x.x.x.x.x.x.x.x.x.p.y > * # ; ; # ; ; ; 6 } } F { ] h x.x.x.x.x.x.x.x.x.x.x.x.",
"x.x.x.x.x.x.x.x.x.x.x.x.x.x.x.x.a.f y > ; $ ; > : # 4 9 4 & D  .E | a x.x.x.x.x.x.x.x.x.x.x.x.x.",
"x.x.x.x.x.x.x.x.x.x.x.x.x.x.l.M.1XOX@ $ # 8 0 @ # + 8 } U ] 8 l a.h.a.x.x.x.x.x.x.x.x.x.x.x.x.x.",
"x.x.x.x.x.x.x.x.x.x.x.x.x.b.@X&X&X1.S 3 X { X.U F 9 ] ....P k l.x.x.x.x.x.x.x.x.x.x.x.x.x.x.x.x.",
"x.x.x.x.x.x.x.x.x.x.x.x.x.g.%X$XZ I ..] ] ..O.o.} [ c c [ l x.x.x.x.x.x.x.x.x.x.x.x.x.x.x.x.x.x.",
"x.x.x.x.x.x.x.x.x.x.x.x.x.x.d.d.p.) { ] 9 { } 7 0 [.{.}.A a.x.x.x.x.x.x.x.x.x.x.x.x.x.x.x.x.x.x.",
"x.x.x.x.x.x.x.x.x.x.x.x.x.x.x.x.x.x.j B {.V < x.i.s s s i.x.x.x.x.x.x.x.x.x.x.x.x.x.x.x.x.x.x.x.",
"x.x.x.x.x.x.x.x.x.x.x.x.x.x.x.x.x.x.x.i.|.}.[.l.x.x.x.x.x.x.x.x.x.x.x.x.x.x.x.x.x.x.x.x.x.x.x.x.",
"x.x.x.x.x.x.x.x.x.x.x.x.x.x.x.x.x.x.x.x.p.[.Z l.x.x.x.x.x.x.x.x.x.x.x.x.x.x.x.x.x.x.x.x.x.x.x.x.",
"x.x.x.x.x.x.x.x.x.x.x.x.x.x.x.x.x.x.x.x.c.p.j x.x.x.x.x.x.x.x.x.x.x.x.x.x.x.x.x.x.x.x.x.x.x.x.x.",
"x.x.x.x.x.x.x.x.x.x.x.x.x.x.x.x.x.x.x.x.x.x.x.x.x.x.x.x.x.x.x.x.x.x.x.x.x.x.x.x.x.x.x.x.x.x.x.x.",
"x.x.x.x.x.x.x.x.x.x.x.x.x.x.x.x.x.x.x.x.x.x.x.x.x.x.x.x.x.x.x.x.x.x.x.x.x.x.x.x.x.x.x.x.x.x.x.x.",
"x.x.x.x.x.x.x.x.x.x.x.x.x.x.x.x.x.x.x.x.x.x.x.x.x.x.x.x.x.x.x.x.x.x.x.x.x.x.x.x.x.x.x.x.x.x.x.x.",
"x.x.x.x.x.x.x.x.x.x.x.x.x.x.x.x.x.x.x.x.x.x.x.x.x.x.x.x.x.x.x.x.x.x.x.x.x.x.x.x.x.x.x.x.x.x.x.x."
};
