/* XPM */
static char *result[] = {
/* columns rows colors chars-per-pixel */
"48 48 209 2 ",
"   c #36351F",
".  c #010C22",
"X  c #061829",
"o  c #031D2D",
"O  c #101A28",
"+  c #25172D",
"@  c #32112C",
"#  c #00212D",
"$  c #14262E",
"%  c #032635",
"&  c #132433",
"*  c #192B37",
"=  c #1C3139",
"-  c #2A232B",
";  c #2E2C2F",
":  c #431428",
">  c #570E31",
",  c #511630",
"<  c #541735",
"1  c #640D34",
"2  c #760C37",
"3  c #771931",
"4  c #4F3027",
"5  c #562433",
"6  c #622A26",
"7  c #79362A",
"8  c #6E2D30",
"9  c #793933",
"0  c #3D4B2E",
"q  c #315B28",
"w  c #49521D",
"e  c #514C27",
"r  c #4D5A2D",
"t  c #7E4539",
"y  c #734C39",
"u  c #5B642C",
"i  c #59643D",
"p  c #6E632D",
"a  c #6B762A",
"s  c #79712E",
"d  c #737C2C",
"f  c #7B6535",
"g  c #6E7B38",
"h  c #7E7435",
"j  c #333A4E",
"k  c #781344",
"l  c #533C4F",
"z  c #742F48",
"x  c #2C4555",
"c  c #434B5C",
"v  c #4A5352",
"b  c #7B4152",
"n  c #526E50",
"m  c #5C6559",
"M  c #727F4A",
"N  c #626F53",
"B  c #584F66",
"V  c #485466",
"C  c #734167",
"Z  c #5C6578",
"A  c #6C747B",
"S  c #91182E",
"D  c #8A153A",
"F  c #A11838",
"G  c #8B362E",
"H  c #95223B",
"J  c #873935",
"K  c #913C34",
"L  c #AB253B",
"P  c #C41F38",
"I  c #84483B",
"U  c #904F30",
"Y  c #964738",
"T  c #A74C39",
"R  c #A6563E",
"E  c #8C6734",
"W  c #837737",
"Q  c #98783A",
"!  c #A27B3E",
"~  c #900E46",
"^  c #8C1B41",
"/  c #961745",
"(  c #A81743",
")  c #B71945",
"_  c #9D2F45",
"`  c #A82246",
"'  c #B42644",
"]  c #C81E47",
"[  c #8C4640",
"{  c #8E5542",
"}  c #9B5848",
"|  c #A44744",
" . c #A65945",
".. c #B65F43",
"X. c #BA5C55",
"o. c #8A6543",
"O. c #8E6554",
"+. c #966856",
"@. c #9D7158",
"#. c #A86547",
"$. c #B66646",
"%. c #BC6446",
"&. c #B46C4B",
"*. c #A97846",
"=. c #B5774B",
"-. c #AA6E5C",
";. c #BA6A5D",
":. c #A77D5F",
">. c #BC7951",
",. c #855B7A",
"<. c #866B69",
"1. c #B27563",
"2. c #C96A48",
"3. c #D56D49",
"4. c #C5734D",
"5. c #CD724C",
"6. c #D2744D",
"7. c #C57C53",
"8. c #C67A54",
"9. c #CB7D53",
"0. c #D57C52",
"q. c #DB7C52",
"w. c #D57A6A",
"e. c #76822E",
"r. c #79862F",
"t. c #7D8B31",
"y. c #7D8B3D",
"u. c #70B238",
"i. c #7C8A4A",
"p. c #7F8A54",
"a. c #838D34",
"s. c #8A8836",
"d. c #95893D",
"f. c #99893D",
"g. c #859334",
"h. c #899636",
"j. c #8C9B37",
"k. c #91933A",
"l. c #89B73D",
"z. c #8B884A",
"x. c #899147",
"c. c #A48743",
"v. c #B5864B",
"b. c #A99248",
"n. c #B9944D",
"m. c #BBAB5F",
"M. c #819361",
"N. c #BA8A6D",
"B. c #CB8457",
"V. c #D38356",
"C. c #DD8456",
"Z. c #D68659",
"A. c #D48A5D",
"S. c #DC8C5D",
"D. c #CC9356",
"F. c #D7925B",
"G. c #E38456",
"H. c #E58758",
"J. c #E48A5A",
"K. c #EB8C5B",
"L. c #E4945F",
"P. c #ED915E",
"I. c #F3935F",
"U. c #DB8B64",
"Y. c #DC9162",
"T. c #C28B74",
"R. c #DC8F7A",
"E. c #C9957A",
"W. c #D9937C",
"Q. c #E49463",
"!. c #EB9661",
"~. c #ED9A65",
"^. c #EC9C69",
"/. c #F59761",
"(. c #F49B64",
"). c #F99D65",
"_. c #F89F68",
"`. c #F58876",
"'. c #CFB477",
"]. c #F7A36A",
"[. c #F8A870",
"{. c #4B5D85",
"}. c #586585",
"|. c #556B8C",
" X c #556A94",
".X c #626F8A",
"XX c #677BA7",
"oX c #7C848B",
"OX c #7B8298",
"+X c #8B948D",
"@X c #B5968A",
"#X c #9FA994",
"$X c #979DA6",
"%X c #9EA6BC",
"&X c #A9AFBF",
"*X c #EA9C84",
"=X c #D7AE91",
"-X c #E8A78B",
";X c #F1A98E",
":X c #E6B88D",
">X c #F3AE91",
",X c #E9B495",
"<X c #F7BA9A",
"1X c #F2BEA2",
"2X c #FCC19F",
"3X c #D8C0B5",
"4X c #FFC3A1",
"5X c #B1B6C4",
"6X c #CBC7C8",
/* pixels */
"j.j.j.j.j.j.j.j.j.j.j.j.j.j.j.j.j.j.j.j.j.j.j.j.j.j.j.j.j.j.j.j.j.j.j.j.j.j.j.j.j.j.j.j.j.j.j.j.",
"j.j.j.j.j.j.j.j.j.j.j.j.j.j.j.j.j.j.j.j.j.j.j.j.j.j.j.j.j.j.j.j.j.j.j.j.j.j.j.j.j.j.j.j.j.j.j.j.",
"j.j.j.j.j.j.j.j.j.j.j.j.j.j.j.j.j.j.j.j.j.j.j.j.j.j.j.j.j.j.j.j.j.j.j.j.j.j.j.j.j.j.j.j.j.j.j.j.",
"j.j.j.j.j.j.j.j.j.j.j.j.j.j.j.j.j.j.j.j.j.j.j.j.j.j.j.j.j.j.j.j.j.j.j.j.j.j.j.j.j.j.j.j.j.j.j.j.",
"j.j.j.j.j.j.j.j.j.j.j.j.j.j.j.j.j.j.j.j.h.h.h.h.j.h.h.j.j.j.j.j.j.j.j.j.j.j.j.j.j.j.j.j.j.j.j.j.",
"j.j.j.j.j.j.j.j.j.j.j.j.j.j.j.j.j.h.e.s.n.n.v.f.c.n.b.e.r.j.j.j.j.j.j.j.j.j.j.j.j.j.j.j.j.j.j.j.",
"j.j.j.j.j.j.j.j.j.j.j.j.j.j.j.h.a.c.v.F.].I.J.9.V.S.Z.=.*.s.a.j.j.j.j.j.j.j.j.j.j.j.j.j.j.j.j.j.",
"j.j.j.j.j.j.j.j.j.j.j.j.j.j.h.f.D.L.].).I.I.].].^.^.~.~.J.B.n.g.j.j.j.j.j.j.j.j.j.j.j.j.j.j.j.j.",
"j.j.j.j.j.j.j.j.j.j.j.j.j.h.s.D.]./.).(.I.).[.^.A.A.A.Y.Q.C.F.c.d.r.j.j.j.j.j.j.j.j.j.j.j.j.j.j.",
"j.j.j.j.j.j.j.j.j.j.j.j.j.a.=.I.H.H.)./.J.!.!.Y.U.A.A.Y.Q.U.9.B.=.*.a.j.j.j.j.j.j.j.j.j.j.j.j.j.",
"j.j.j.j.j.j.j.j.j.j.j.j.h.c.F.H.P.P.K.q.K.!.Q.^.[.[.[.^.Q.F.;.Y.A.>.v.g.j.j.j.j.j.j.j.j.j.j.j.j.",
"j.j.j.j.j.j.j.j.j.j.j.j.g.! H.C.).K.q.L.]./.(._.].^.U.7.>.#.I 8.S.B.B.W j.j.j.j.j.j.j.j.j.j.j.j.",
"j.j.j.j.j.j.j.j.j.j.j.h.d.5.6.I.K.C.~.).).I./.Q.B.&.R } -.1.-.{ &.A.&.v.t.j.j.j.j.j.j.j.j.j.j.j.",
"j.j.j.j.j.j.j.j.j.j.h.k.=.H.S.(.q.!.P.K.).K.q.#.9 t ;.R.-X>X-X+.Y 4.7.:.e.j.j.j.j.j.j.j.j.j.j.j.",
"j.j.j.j.j.j.j.j.j.j.h.d.V.5.(.L.4.K.J.~.K.2.T z { +.;.T.R.;X<XE.9 &.Y.f r.j.j.j.j.j.j.j.j.j.j.j.",
"j.j.j.j.j.j.j.j.j.j.h.=.J.=.~.6.9.4.(.K.3.%.R [ 1.<.B l [ ;.;X=X4 } A.u j.j.j.j.j.j.j.j.j.j.j.j.",
"j.j.j.j.j.j.j.j.j.j.f.F.6.=.H.T C.Z.(.2.%.5.T } <.OXOXx q M w.E.8 U D.d j.j.j.j.j.j.j.j.j.j.j.j.",
"j.j.j.j.j.j.j.j.j.a.Q G.R J.3.Y q.].H...0.2.| w.@X5X6Xn u.m.W.O.7 y *.y.j.j.j.j.j.j.j.j.j.j.j.j.",
"j.j.j.j.j.j.j.j.h.d.V.3.4.I.R R 9._.6.&.H.| ;.>X2X3X6XoXl.'.,XO.t U s j.j.j.j.j.j.j.j.j.j.j.j.j.",
"j.j.j.j.j.j.j.j.g.c.I.R B.L.T 3.>./.%.9.3.T w.4X4X1X=X=X'.:X,XO. .v.a.j.j.j.j.j.j.j.j.j.j.j.j.j.",
"j.j.j.j.j.j.j.j.g.c.I.2.B.q.B.C.$.!.R Z.T K `.<X4X4X4X4X4X4X,X@.=.b.h.j.j.j.j.j.j.j.j.j.j.j.j.j.",
"j.j.j.j.j.j.j.j.h.d.V.G.4.q.I.C.R B.R J.G G w.<X4X4X4X2X4X4X<XE.d.j.j.j.j.j.j.j.j.j.j.j.j.j.j.j.",
"j.j.j.j.j.j.j.j.j.h.Q G.4.H.(.q.Y } R J.K G  .R.<X2X2X2X4X2X2X=Xe.j.j.j.j.j.j.j.j.j.j.j.j.j.j.j.",
"j.j.j.j.j.j.j.j.j.h.k.! E B.(.G.$.9.R 4.K G G  .N.*X-X;X4X2X:XN.h.j.j.j.j.j.j.j.j.j.j.j.j.j.j.j.",
"j.j.j.j.j.j.j.j.j.j.h.d e.W B.K.0.~.2. .T 7 K 9 9 X.;.;.E.E.N.z.j.j.j.j.j.j.j.j.j.j.j.j.j.j.j.j.",
"j.j.j.j.j.j.j.j.j.j.j.j.h.g.Q F.0.C.0.2.2.7 G 9 6 8 { -.o.h W a.j.j.j.j.j.j.j.j.j.j.j.j.j.j.j.j.",
"j.j.j.j.j.j.j.j.j.j.j.j.j.j.j.c.! U =.} R U 6 5 3 3 y N.x.j.j.j.j.j.j.j.j.j.j.j.j.j.j.j.j.j.j.j.",
"j.j.j.j.j.j.j.j.j.j.j.j.j.j.j.j.r.a i c 6 U : 3 ( H O w j.j.j.j.j.j.j.j.j.j.j.j.j.j.j.j.j.j.j.j.",
"j.j.j.j.j.j.j.j.j.j.j.j.j.j.j.j.j.M..XV ; 4 3 ` L 5 * w j.j.j.j.j.j.j.j.j.j.j.j.j.j.j.j.j.j.j.j.",
"j.j.j.j.j.j.j.j.j.j.j.j.j.j.g.e.r.M. Xx # < ( ' 8 & * w j.j.j.j.j.j.j.j.j.j.j.j.j.j.j.j.j.j.j.j.",
"j.j.j.j.j.j.j.j.j.j.j.h.t.e.a q r g N $ % 5 ` ,.{.X * 4 e.j.j.j.j.j.j.j.j.j.j.j.j.j.j.j.j.j.j.j.",
"j.j.j.j.j.j.j.j.j.j.j.h.U Y ; % $ 0 u # % * l |.XX XV - e t.j.j.j.j.j.j.j.j.j.j.j.j.j.j.j.j.j.j.",
"j.j.j.j.j.j.j.j.j.j.g.E P S & : 2 + X # o X * c }.XX}.+ e r.j.j.j.j.j.j.j.j.j.j.j.j.j.j.j.j.j.j.",
"j.j.j.j.j.j.j.j.j.j.g.7 P S @ 2 ( 2 . % o . . O j c c   a j.j.j.j.j.j.j.j.j.j.j.j.j.j.j.j.j.j.j.",
"j.j.j.j.j.j.j.j.j.j.h.s / ) 2 ] ] 1 o # o o o & O O $   u e.t.j.j.j.j.j.j.j.j.j.j.j.j.j.j.j.j.j.",
"j.j.j.j.j.j.j.j.j.j.j.s.I ^ 7 ' / . - 1 1 X % * * & * = = m +Xp.g.j.j.j.j.j.j.j.j.j.j.j.j.j.j.j.",
"j.j.j.j.j.j.j.j.j.j.j.h.s.h d f 2 2 F ) ~ . o & - < X & & Z 5X$X#Xr.j.j.j.j.j.j.j.j.j.j.j.j.j.j.",
"j.j.j.j.j.j.j.j.j.j.j.j.g.j.h.a.p D ] ] ~ 1 1 3 ^ / , + < z OX%X&X+Xx.j.j.j.j.j.j.j.j.j.j.j.j.j.",
"j.j.j.j.j.j.j.j.j.j.j.j.j.j.j.j.g.f ` _ J ^ ~ ' ' ' k > / ` z A oX+Xi.j.j.j.j.j.j.j.j.j.j.j.j.j.",
"j.j.j.j.j.j.j.j.j.j.j.j.j.j.j.j.j.s.W W g f 2 ^ ` ` k 1 / | Q e.d r.h.j.j.j.j.j.j.j.j.j.j.j.j.j.",
"j.j.j.j.j.j.j.j.j.j.j.j.j.j.j.j.j.j.j.j.j.y.j B z C l v b W j.j.j.j.j.j.j.j.j.j.j.j.j.j.j.j.j.j.",
"j.j.j.j.j.j.j.j.j.j.j.j.j.j.j.j.j.j.j.j.h.i.Z }.x B N i.g.h.j.j.j.j.j.j.j.j.j.j.j.j.j.j.j.j.j.j.",
"j.j.j.j.j.j.j.j.j.j.j.j.j.j.j.j.j.j.j.j.g.N |.A d d t.j.j.j.j.j.j.j.j.j.j.j.j.j.j.j.j.j.j.j.j.j.",
"j.j.j.j.j.j.j.j.j.j.j.j.j.j.j.j.j.j.j.j.g.N Z A h.j.j.j.j.j.j.j.j.j.j.j.j.j.j.j.j.j.j.j.j.j.j.j.",
"j.j.j.j.j.j.j.j.j.j.j.j.j.j.j.j.j.j.j.j.h.y.i.g.j.j.j.j.j.j.j.j.j.j.j.j.j.j.j.j.j.j.j.j.j.j.j.j.",
"j.j.j.j.j.j.j.j.j.j.j.j.j.j.j.j.j.j.j.j.j.h.h.j.j.j.j.j.j.j.j.j.j.j.j.j.j.j.j.j.j.j.j.j.j.j.j.j.",
"j.j.j.j.j.j.j.j.j.j.j.j.j.j.j.j.j.j.j.j.j.j.j.j.j.j.j.j.j.j.j.j.j.j.j.j.j.j.j.j.j.j.j.j.j.j.j.j.",
"j.j.j.j.j.j.j.j.j.j.j.j.j.j.j.j.j.j.j.j.j.j.j.j.j.j.j.j.j.j.j.j.j.j.j.j.j.j.j.j.j.j.j.j.j.j.j.j."
};
