/* XPM */
static char *result[] = {
/* columns rows colors chars-per-pixel */
"48 48 212 2 ",
"   c #03081E",
".  c #370E1B",
"X  c #351019",
"o  c #2E351E",
"O  c #040C24",
"+  c #031325",
"@  c #00142A",
"#  c #011B2D",
"$  c #12172A",
"%  c #001E31",
"&  c #250A24",
"*  c #2A1D29",
"=  c #38192C",
"-  c #00212D",
";  c #002334",
":  c #012937",
">  c #002C3B",
",  c #0A2A38",
"<  c #192834",
"1  c #352D37",
"2  c #471A1C",
"3  c #57271B",
"4  c #473A19",
"5  c #6C321D",
"6  c #440729",
"7  c #540927",
"8  c #4C122C",
"9  c #551B27",
"0  c #541132",
"q  c #770B3B",
"w  c #6B1033",
"e  c #47292F",
"r  c #542A2A",
"t  c #57322E",
"y  c #6C2A21",
"u  c #762C25",
"i  c #77362A",
"p  c #743633",
"a  c #1D4039",
"s  c #36402C",
"d  c #464E17",
"f  c #414919",
"g  c #4D561B",
"h  c #4C4421",
"j  c #424B3B",
"k  c #684B28",
"l  c #7D4327",
"z  c #784D36",
"x  c #775833",
"c  c #596325",
"v  c #666A26",
"b  c #697427",
"n  c #6B7628",
"m  c #757E2D",
"M  c #787B32",
"N  c #543941",
"B  c #364356",
"V  c #2F4668",
"C  c #4D454D",
"Z  c #596359",
"A  c #656E54",
"S  c #445264",
"D  c #49546E",
"F  c #57597B",
"G  c #576367",
"H  c #5A6D7A",
"J  c #6E7C67",
"K  c #851035",
"L  c #95123B",
"P  c #9C143C",
"I  c #B01B39",
"U  c #85342B",
"Y  c #8A382E",
"T  c #913233",
"R  c #943B33",
"E  c #AD2532",
"W  c #A92932",
"Q  c #C72838",
"!  c #D5233E",
"~  c #884929",
"^  c #954A2A",
"/  c #8A552D",
"(  c #854F31",
")  c #9A4534",
"_  c #9F4339",
"`  c #8F5E3A",
"'  c #995838",
"]  c #A0512D",
"[  c #A64A39",
"{  c #A9563B",
"}  c #B8583B",
"|  c #90782D",
" . c #976C39",
".. c #887B35",
"X. c #9B7639",
"o. c #AB7339",
"O. c #C4493B",
"+. c #C15C3D",
"@. c #8D1145",
"#. c #9B1348",
"$. c #A81448",
"%. c #B81946",
"&. c #913249",
"*. c #C51D47",
"=. c #CC2244",
"-. c #DA2346",
";. c #E12940",
":. c #8F5649",
">. c #B04A43",
",. c #A75A47",
"<. c #B75B48",
"1. c #B56A4C",
"2. c #A97A46",
"3. c #B8754B",
"4. c #B57C4B",
"5. c #BD6C5B",
"6. c #BD7A51",
"7. c #9A5D68",
"8. c #BF796C",
"9. c #C95F40",
"0. c #E24145",
"q. c #C86745",
"w. c #D66848",
"e. c #C8764D",
"r. c #D5744E",
"t. c #DD714A",
"y. c #C46759",
"u. c #D76751",
"i. c #C77955",
"p. c #D97C51",
"a. c #E36E49",
"s. c #E5744C",
"d. c #EA764D",
"f. c #E77F52",
"g. c #D76C60",
"h. c #C97F69",
"j. c #D17D6A",
"k. c #E07B6B",
"l. c #78842F",
"z. c #7E8931",
"x. c #3BC93B",
"c. c #76844B",
"v. c #53A251",
"b. c #42C444",
"n. c #818E33",
"m. c #888835",
"M. c #93893B",
"N. c #859334",
"B. c #899535",
"V. c #8C9B37",
"C. c #97963D",
"Z. c #B5864B",
"A. c #B3876F",
"S. c #C5844E",
"D. c #C88953",
"F. c #D78658",
"G. c #DC8A5A",
"H. c #CD9556",
"J. c #D8925B",
"K. c #E58657",
"L. c #ED8556",
"P. c #E28B5B",
"I. c #ED8D5B",
"U. c #F28B5B",
"Y. c #E6945E",
"T. c #F4945F",
"R. c #CA8268",
"E. c #C28872",
"W. c #CF8F71",
"Q. c #D68977",
"!. c #D8987D",
"~. c #E79561",
"^. c #EC9B63",
"/. c #F49661",
"(. c #F59C64",
"). c #F99D65",
"_. c #E88875",
"`. c #E3957D",
"'. c #F7A167",
"]. c #F6A268",
"[. c #FBA56A",
"{. c #FEA96C",
"}. c #B8F146",
"|. c #465F87",
" X c #5D6D9A",
".X c #5F779F",
"XX c #646C9A",
"oX c #697193",
"OX c #5D78A1",
"+X c #617BA4",
"@X c #5D87BF",
"#X c #6182B3",
"$X c #919D8C",
"%X c #B59D91",
"&X c #9EA990",
"*X c #959EB9",
"=X c #B59FA0",
"-X c #AEACAA",
";X c #ED9F85",
":X c #D7A692",
">X c #EFA086",
",X c #EBA68A",
"<X c #F5A78C",
"1X c #FBB293",
"2X c #F9B99B",
"3X c #FDBB9B",
"4X c #EDBCA0",
"5X c #FEC19E",
"6X c #FFC3A1",
"7X c #FCD3BE",
"8X c #C4CAD1",
"9X c #F2EEEC",
/* pixels */
"V.V.V.V.V.V.V.V.V.V.V.V.V.V.V.V.V.V.V.V.V.V.V.V.V.V.V.V.V.V.V.V.V.V.V.V.V.V.V.V.V.V.V.V.V.V.V.V.",
"V.V.V.V.V.V.V.V.V.V.V.V.V.V.V.V.V.V.V.V.V.V.V.V.V.V.V.V.V.V.V.V.V.V.V.V.V.V.V.V.V.V.V.V.V.V.V.V.",
"V.V.V.V.V.V.V.V.V.V.V.V.V.V.V.V.V.V.V.V.V.V.V.V.V.V.V.V.V.V.V.V.V.V.V.V.V.V.V.V.V.V.V.V.V.V.V.V.",
"V.V.V.V.V.V.V.V.V.V.V.V.V.V.V.V.V.V.V.V.V.V.V.V.V.V.V.V.V.V.V.V.V.V.V.V.V.V.V.V.V.V.V.V.V.V.V.V.",
"V.V.V.V.V.V.V.V.V.V.V.V.V.V.V.V.V.V.V.V.V.V.V.V.V.V.V.V.V.V.V.V.V.V.V.V.V.V.V.V.V.V.V.V.V.V.V.V.",
"V.V.V.V.V.V.V.V.V.V.V.V.V.V.V.V.V.V.V.V.V.V.V.V.V.V.V.V.V.V.V.V.V.V.V.V.V.V.V.V.V.V.V.V.V.V.V.V.",
"V.V.V.V.V.V.V.V.V.V.V.V.V.V.V.V.V.V.V.V.V.V.V.V.V.V.V.V.V.V.V.V.V.V.V.V.V.V.V.V.V.V.V.V.V.V.V.V.",
"V.V.V.V.V.V.V.V.V.V.V.V.V.V.V.V.V.V.V.l.g d d d d d b V.V.V.V.V.V.V.V.V.V.V.V.V.V.V.V.V.V.V.V.V.",
"V.V.V.V.V.V.V.V.V.V.V.V.V.V.V.V.n.M 4.~.I.9.} r./.[.^.D.X.n B.V.V.V.V.V.V.V.V.V.V.V.V.V.V.V.V.V.",
"V.V.V.V.V.V.V.V.V.V.V.V.V.V.V.m.4.~.I.d.L.L.L.t.t.(.{.{.{.^.2.B.V.V.V.V.V.V.V.V.V.V.V.V.V.V.V.V.",
"V.V.V.V.V.V.V.V.V.V.V.V.V.B.m.i./.d.I.].[.[.L.s.t.t./.{.{.[.{.3.C.B.V.V.V.V.V.V.V.V.V.V.V.V.V.V.",
"V.V.V.V.V.V.V.V.V.V.V.V.V.M.H.{./.p.p.G.~.^.^.^.P.e.U.].(.U.(.{.D.C.V.V.V.V.V.V.V.V.V.V.V.V.V.V.",
"V.V.V.V.V.V.V.V.V.V.V.V.B.2.].~.~.(.).).{.{.{.{./.P.G.F.F.G.K./.{.Z.B.V.V.V.V.V.V.V.V.V.V.V.V.V.",
"V.V.V.V.V.V.V.V.V.V.V.V.m.^.~.~.[.)./.[.[.(.G.S.u.<.e.G.p.G.G.U.T.'.M V.V.V.V.V.V.V.V.V.V.V.V.V.",
"V.V.V.V.V.V.V.V.V.V.V.N. .G.^.[./.[.)./.p.u.j.h.;X`.5.r.P.P.5.^.I.G.Z.z.V.V.V.V.V.V.V.V.V.V.V.V.",
"V.V.V.V.V.V.V.V.V.V.V.n.~.P.].K./.I.f.} [ Q.k._.6X3X;Xu.K.p.J.^.].,.].l.V.V.V.V.V.V.V.V.V.V.V.V.",
"V.V.V.V.V.V.V.V.V.V.V. .e.'.r.1.L.s.} [ U :.z :.h.<X3XE.q.p.).p.{.G.p.2.V.V.V.V.V.V.V.V.V.V.V.V.",
"V.V.V.V.V.V.V.V.V.V.n ].[ I.1.I.t.[ [ 7.oXa -X-Xt h.3XE.} P.].r.).[.,.D.l.V.V.V.V.V.V.V.V.V.V.V.",
"V.V.V.V.V.V.V.V.V.V.Z.{.q.q.S.K.[ i !.=X8Xb.x.v.%X3X2XR.e.P.(.,.I.{.3.D.b V.V.V.V.V.V.V.V.V.V.V.",
"V.V.V.V.V.V.V.V.V.g ^.w.].Y r.} 9 y.1XE.9XZ }.-X3X6X<Xu./.G.i i a.{.).{ v V.V.V.V.V.V.V.V.V.V.V.",
"V.V.V.V.V.V.V.V.N.Z.'.2.[.,.K.) R u.1X6X4X7X:X6X5X3XR.e.G.F.!.,.t.{.(.q.H.V.V.V.V.V.V.V.V.V.V.V.",
"V.V.V.V.V.V.V.V.z.^.K.6.).{ p.U _ g.1X6X6X6X6X6X6X2X!.R.W.!.5XR.q.{.~.e.H.N.V.V.V.V.V.V.V.V.V.V.",
"V.V.V.V.V.V.V.V.B.Z.,.[.a.) [ y i ,.>X3X6X3X6X6X6X5X6X6X6X6X6X_.} {.' L.J.v V.V.V.V.V.V.V.V.V.V.",
"V.V.V.V.V.V.V.V.V.b ( [.a.) } 5 u Y <.Q.,X2X6X6X3X3X3X6X6X6X,X,.t.].{ L.J.v V.V.V.V.V.V.V.V.V.V.",
"V.V.V.V.V.V.V.V.V.V.m Z.I.) a.] u R Y R >.8.;X;X>X>X;X>X;Xh.>.>.L.^.e.T.H.l.V.V.V.V.V.V.V.V.V.V.",
"V.V.V.V.V.V.V.V.V.V.V.n 6.} 9.9.U T R U U u T g.k.`.5.>.R T y q.'.e.s.T.Z.V.V.V.V.V.V.V.V.V.V.V.",
"V.V.V.V.V.V.V.V.V.V.V.V.m.X. .+.[ U R y W W X ,.5.A.z u U Y [ P.^.<.T.J.l.V.V.V.V.V.V.V.V.V.V.V.",
"V.V.V.V.V.V.V.V.V.V.V.V.B.N.N.| / ~ l W ! $.O 1 N C < T E T e.Y.3.F.J.M.N.V.V.V.V.V.V.V.V.V.V.V.",
"V.V.V.V.V.V.V.V.V.V.V.V.V.V.V.B.B.B.v Q -.$.O > > > > e Q ;.0.i v C.C.B.V.V.V.V.V.V.V.V.V.V.V.V.",
"V.V.V.V.V.V.V.V.V.V.V.V.V.V.V.V.V.B.] =.$.6 : > > > > ; 7 $.w .X#X@XA Z.o.b N.V.V.V.V.V.V.V.V.V.",
"V.V.V.V.V.V.V.V.V.V.V.V.V.V.V.V.V...O.=.7 # > > > > : - c b s S F X 9 l :X8X&XV.V.V.V.V.V.V.V.V.",
"V.V.V.V.V.V.V.V.V.V.V.V.V.V.V.V.B.J V e 2 O > > > > 1 3 5 k l.c h 9 . 5 E.*X$XV.V.V.V.V.V.V.V.V.",
"V.V.V.V.V.V.V.V.V.V.V.V.V.V.V.V.c.+X#XB ^ 3 r r r 3 ~ ^ e : # o z.4 p l 2.H c.V.V.V.V.V.V.V.V.V.",
"V.V.V.V.V.V.V.V.V.V.V.V.V.V.B.n H .XS * t / ^ ^ ^ ^ l : : % : @ + c m | | z.B.V.V.V.V.V.V.V.V.V.",
"V.V.V.V.V.V.V.V.V.V.V.V.V.V.n.f |.+XC X , > # - - : ; > > ; O 0 $ o N.V.V.V.V.V.V.V.V.V.V.V.V.V.",
"V.V.V.V.V.V.V.V.V.V.V.V.V.V.m./ D |.N = , : : > > > @ ; > % 0 I K c V.V.V.V.V.V.V.V.V.V.V.V.V.V.",
"V.V.V.V.V.V.V.V.V.V.V.V.V.B.' I w * * ; ; O ; > % : # # % & L -.P n.V.V.V.V.V.V.V.V.V.V.V.V.V.V.",
"V.V.V.V.V.V.V.V.V.V.V.V.V.B.` *.L O # # 8 @.8 # # :     @ 7 $.%.x V.V.V.V.V.V.V.V.V.V.V.V.V.V.V.",
"V.V.V.V.V.V.V.V.V.V.V.V.V.V.m. .#.q 6 q %.-.!   @ = L $.q w q x z.V.V.V.V.V.V.V.V.V.V.V.V.V.V.V.",
"V.V.V.V.V.V.V.V.V.V.V.V.V.V.N...p k &.%.-.P L #.& K *.*.&.|.A m.V.V.V.V.V.V.V.V.V.V.V.V.V.V.V.V.",
"V.V.V.V.V.V.V.V.V.V.V.V.V.V.V.V.B.N.:.#.@.XXXX4 n.k #.p F  XB z.V.V.V.V.V.V.V.V.V.V.V.V.V.V.V.V.",
"V.V.V.V.V.V.V.V.V.V.V.V.V.V.V.V.V.V.N.N.l. XOXn V.B.z.N.J  XB N.V.V.V.V.V.V.V.V.V.V.V.V.V.V.V.V.",
"V.V.V.V.V.V.V.V.V.V.V.V.V.V.V.V.V.V.V.V.l.G s V.V.V.V.V.l.Z j N.V.V.V.V.V.V.V.V.V.V.V.V.V.V.V.V.",
"V.V.V.V.V.V.V.V.V.V.V.V.V.V.V.V.V.V.V.V.V.V.V.V.V.V.V.V.V.V.V.V.V.V.V.V.V.V.V.V.V.V.V.V.V.V.V.V.",
"V.V.V.V.V.V.V.V.V.V.V.V.V.V.V.V.V.V.V.V.V.V.V.V.V.V.V.V.V.V.V.V.V.V.V.V.V.V.V.V.V.V.V.V.V.V.V.V.",
"V.V.V.V.V.V.V.V.V.V.V.V.V.V.V.V.V.V.V.V.V.V.V.V.V.V.V.V.V.V.V.V.V.V.V.V.V.V.V.V.V.V.V.V.V.V.V.V.",
"V.V.V.V.V.V.V.V.V.V.V.V.V.V.V.V.V.V.V.V.V.V.V.V.V.V.V.V.V.V.V.V.V.V.V.V.V.V.V.V.V.V.V.V.V.V.V.V.",
"V.V.V.V.V.V.V.V.V.V.V.V.V.V.V.V.V.V.V.V.V.V.V.V.V.V.V.V.V.V.V.V.V.V.V.V.V.V.V.V.V.V.V.V.V.V.V.V."
};
