/* XPM */
static char *result[] = {
/* columns rows colors chars-per-pixel */
"48 48 210 2 ",
"   c #33031A",
".  c #050620",
"X  c #000A24",
"o  c #011627",
"O  c #001C2D",
"+  c #121129",
"@  c #171929",
"#  c #2B0E27",
"$  c #380828",
"%  c #29172A",
"&  c #0B222D",
"*  c #1F3029",
"=  c #012735",
"-  c #062936",
";  c #002D3B",
":  c #2B2F34",
">  c #273C35",
",  c #420617",
"<  c #4B1515",
"1  c #6D0D1B",
"2  c #57201C",
"3  c #430B22",
"4  c #58072D",
"5  c #52192F",
"6  c #6B0D2C",
"7  c #690933",
"8  c #7B0B3A",
"9  c #4A2A2D",
"0  c #5B2228",
"q  c #662829",
"w  c #77352A",
"e  c #6B3E32",
"r  c #793633",
"t  c #045B3D",
"y  c #3B4739",
"u  c #56531F",
"i  c #574723",
"p  c #4A572D",
"a  c #694D2B",
"s  c #6A5D27",
"d  c #73572F",
"f  c #7A4335",
"g  c #4D6A24",
"h  c #5B6734",
"j  c #636C25",
"k  c #6D792B",
"l  c #797C2F",
"z  c #636F30",
"x  c #6F7B31",
"c  c #7B7B31",
"v  c #2E394E",
"b  c #423640",
"n  c #7D3755",
"m  c #3B4858",
"M  c #3F4B6B",
"N  c #474951",
"B  c #44515A",
"V  c #596345",
"C  c #596659",
"Z  c #676356",
"A  c #404C6C",
"S  c #4D5867",
"D  c #4A5D76",
"F  c #545E72",
"G  c #6B466A",
"H  c #566364",
"J  c #8A1931",
"K  c #931539",
"L  c #A3163B",
"P  c #85362B",
"I  c #8B362E",
"U  c #8A3A35",
"Y  c #953A33",
"T  c #BE2138",
"R  c #AD3836",
"E  c #D7283D",
"W  c #894436",
"Q  c #964431",
"!  c #8F5A38",
"~  c #A54A3A",
"^  c #B14E3A",
"/  c #AA563D",
"(  c #B5573C",
")  c #856B38",
"_  c #9C6B3C",
"`  c #867635",
"'  c #95783B",
"]  c #A27438",
"[  c #C35B3F",
"{  c #8C0D42",
"}  c #930F41",
"|  c #9B1545",
" . c #A81549",
".. c #BA1949",
"X. c #8A334E",
"o. c #B62A47",
"O. c #C61D48",
"+. c #DA2247",
"@. c #E12445",
"#. c #974D43",
"$. c #8D5047",
"%. c #955942",
"&. c #B04B45",
"*. c #A85846",
"=. c #BA5D45",
"-. c #B56244",
";. c #B86A49",
":. c #A67941",
">. c #B37949",
",. c #AB6754",
"<. c #BC7654",
"1. c #AF7C66",
"2. c #C65947",
"3. c #CF5E55",
"4. c #D95F57",
"5. c #C36545",
"6. c #CD6B48",
"7. c #D66A47",
"8. c #C2744E",
"9. c #CC744D",
"0. c #CC794E",
"q. c #D2754E",
"w. c #DE744C",
"e. c #D1784E",
"r. c #CB6A5A",
"t. c #C77951",
"y. c #CC7B52",
"u. c #D47C52",
"i. c #DC7C50",
"p. c #E1724B",
"a. c #E27D52",
"s. c #EB7E52",
"d. c #C67362",
"f. c #D47364",
"g. c #EF7C6D",
"h. c #339F39",
"j. c #78842E",
"k. c #79842F",
"l. c #7B8531",
"z. c #7E8B32",
"x. c #758E56",
"c. c #778A6D",
"v. c #828932",
"b. c #95863C",
"n. c #859334",
"m. c #899736",
"M. c #8C9B37",
"N. c #88973D",
"B. c #A5813D",
"V. c #85B935",
"C. c #948841",
"Z. c #889644",
"A. c #AC8B46",
"S. c #B5854A",
"D. c #AA9046",
"F. c #9AAF49",
"G. c #88936B",
"H. c #B4886A",
"J. c #B09069",
"K. c #CB8A55",
"L. c #D38054",
"P. c #DE8255",
"I. c #D48659",
"U. c #DE8B5B",
"Y. c #D8945A",
"T. c #E48455",
"R. c #EA8657",
"E. c #E38C5B",
"W. c #F18D5B",
"Q. c #E7975F",
"!. c #EC925E",
"~. c #F5925E",
"^. c #CF9077",
"/. c #C9997D",
"(. c #EC9762",
"). c #E79A61",
"_. c #EB9B64",
"`. c #F49661",
"'. c #F49B64",
"]. c #F99E65",
"[. c #E68874",
"{. c #E8947D",
"}. c #F7A167",
"|. c #FBA46A",
" X c #FEA96D",
".X c #E0A571",
"XX c #555D80",
"oX c #566A88",
"OX c #5C6C96",
"+X c #59759B",
"@X c #62799C",
"#X c #567DB7",
"$X c #897B88",
"%X c #678399",
"&X c #5E82B7",
"*X c #8D9794",
"=X c #9AA5B8",
"-X c #B3B5B8",
";X c #F59B84",
":X c #D4A285",
">X c #E3AC8D",
",X c #F4B08D",
"<X c #E9B897",
"1X c #FABB9A",
"2X c #FDC19E",
"3X c #DFC5B7",
"4X c #FFC4A1",
"5X c #ABB6C9",
"6X c #D8E0DE",
"7X c #D7DBE2",
/* pixels */
"M.M.M.M.M.M.M.M.M.M.M.M.M.M.M.M.M.M.M.M.M.M.M.M.M.M.M.M.M.M.M.M.M.M.M.M.M.M.M.M.M.M.M.M.M.M.M.M.",
"M.M.M.M.M.M.M.M.M.M.M.M.M.M.M.M.M.M.M.M.M.M.M.M.M.M.M.M.M.M.M.M.M.M.M.M.M.M.M.M.M.M.M.M.M.M.M.M.",
"M.M.M.M.M.M.M.M.M.M.M.M.M.M.M.M.M.M.M.M.M.M.M.M.M.M.M.M.M.M.M.M.M.M.M.M.M.M.M.M.M.M.M.M.M.M.M.M.",
"M.M.M.M.M.M.M.M.M.M.M.M.M.M.M.M.M.M.M.M.M.M.M.M.M.M.M.M.M.M.M.M.M.M.M.M.M.M.M.M.M.M.M.M.M.M.M.M.",
"M.M.M.M.M.M.M.M.M.M.M.M.M.M.M.M.M.M.M.M.M.M.M.M.M.M.M.M.M.M.M.M.M.M.M.M.M.M.M.M.M.M.M.M.M.M.M.M.",
"M.M.M.M.M.M.M.M.M.M.M.M.M.M.M.M.M.M.M.M.M.M.M.M.M.M.M.M.M.M.M.M.M.M.M.M.M.M.M.M.M.M.M.M.M.M.M.M.",
"M.M.M.M.M.M.M.M.M.M.M.M.M.M.M.M.M.M.m.z.b.D.D.B.] D.D.D.j.n.M.M.M.M.M.M.M.M.M.M.M.M.M.M.M.M.M.M.",
"M.M.M.M.M.M.M.M.M.M.M.M.M.M.M.M.M.v.' K.Y._._.E.T.i.i.P.K.S.v.M.M.M.M.M.M.M.M.M.M.M.M.M.M.M.M.M.",
"M.M.M.M.M.M.M.M.M.M.M.M.M.M.M.m.c Y.).|.].~.].].|.].].`.'.R.K.b.m.M.M.M.M.M.M.M.M.M.M.M.M.M.M.M.",
"M.M.M.M.M.M.M.M.M.M.M.M.M.M.M.b.).].`.W.`.].|. X(.(.(._.].~.W.K.' v.m.M.M.M.M.M.M.M.M.M.M.M.M.M.",
"M.M.M.M.M.M.M.M.M.M.M.M.M.M.M.>.].w.P.|.`.a.;.-._.}.}._.L.u.T./ q.Q.b.m.M.M.M.M.M.M.M.M.M.M.M.M.",
"M.M.M.M.M.M.M.M.M.M.M.M.M.M.u '.q.'.].a.6.E.]. X X X X X X|.!.Q.E.;.u.c M.M.M.M.M.M.M.M.M.M.M.M.",
"M.M.M.M.M.M.M.M.M.M.M.M.M.z.).7.|.'.7.U. X X Xs.s. X].`.p.7.^ 2.T.}.I.a M.M.M.M.M.M.M.M.M.M.M.M.",
"M.M.M.M.M.M.M.M.M.M.M.M.M.` R.u.|.i.u.].`.`.`.|.R.9.&.r #.r.r.*.~ a.0._.k.M.M.M.M.M.M.M.M.M.M.M.",
"M.M.M.M.M.M.M.M.M.M.M.M.z.>.7.E.`.t.|.(.'.].(.6.Y r $.,.;X1X1X:X$.( I.5._ M.M.M.M.M.M.M.M.M.M.M.",
"M.M.M.M.M.M.M.M.M.M.M.M.` `.#.|.i.I.U.E.].R.( U U r.d.{.f.[.,X1X1.w T.r c M.M.M.M.M.M.M.M.M.M.M.",
"M.M.M.M.M.M.M.M.M.M.M.j.Y.i.K.!.=.u.t.'.T.5.( Q 2.1.F A 0 &.f.1XH.0 P.e l.M.M.M.M.M.M.M.M.M.M.M.",
"M.M.M.M.M.M.M.M.M.M.m._ !.=._.i.r u.U.E.;.y.6.~ d.F =X-Xt g r.:X,.0 0.s m.M.M.M.M.M.M.M.M.M.M.M.",
"M.M.M.M.M.M.M.M.M.M.v.Y.e.%.}.[ r t.|.q.8.P.Q 3.>X$X7X6Xh.V..X^.#.q ( v.M.M.M.M.M.M.M.M.M.M.M.M.",
"M.M.M.M.M.M.M.M.M.M.C.E.^ K.!.~ 5.I.`.;.y.6.q [.2X>X3X-Xx.F.>X/.W ^ ] M.M.M.M.M.M.M.M.M.M.M.M.M.",
"M.M.M.M.M.M.M.M.M.M.A.w.U }.w.;.p.I.E.-.u.=.2.;X4X4X<X<X<X<X2XJ.%.L.b.m.M.M.M.M.M.M.M.M.M.M.M.M.",
"M.M.M.M.M.M.M.M.M.M.S.E./ ].~ Q.7.;.I.8.u.Y 4.;X4X4X4X4X2X4X4X:X<.D.n.M.M.M.M.M.M.M.M.M.M.M.M.M.",
"M.M.M.M.M.M.M.M.M.M.k.).*.].W |.7.%.;.8.e.P 2 [.4X4X4X4X4X4X4X4XJ.z.M.M.M.M.M.M.M.M.M.M.M.M.M.M.",
"M.M.M.M.M.M.M.M.M.M.m.s T.! ! |.7.I q <.e.P I &.g.4X4X4X4X4X4X4XJ.z.M.M.M.M.M.M.M.M.M.M.M.M.M.M.",
"M.M.M.M.M.M.M.M.M.M.M.j.] ` a }.w.;.U.-.=.P I I #.4.;X;X,X1X1X^.C.m.M.M.M.M.M.M.M.M.M.M.M.M.M.M.",
"M.M.M.M.M.M.M.M.M.M.M.M.m.m.M.>.'.9.E.-.-.Q I Y Y < r 4.f.4.r.:.m.M.M.M.M.M.M.M.M.M.M.M.M.M.M.M.",
"M.M.M.M.M.M.M.M.M.M.M.M.M.M.M.b.Y.t.8.q.6./ P I P < U =.H.j z.n.m.M.M.M.M.M.M.M.M.M.M.M.M.M.M.M.",
"M.M.M.M.M.M.M.M.M.M.M.M.M.M.M.m.l A.>.:._ ;.P 9 @ J J : ' M.m.z.n.M.M.M.M.M.M.M.M.M.M.M.M.M.M.M.",
"M.M.M.M.M.M.M.M.M.M.M.M.M.M.M.M.n.m.Z.H m a q : = K E > k m.j.u j n.N.M.M.M.M.M.M.M.M.M.M.M.M.M.",
"M.M.M.M.M.M.M.M.M.M.M.M.M.M.M.M.m.m.c.+Xm & = ; % ..T > k v.V v b k.M.M.M.M.M.M.M.M.M.M.M.M.M.M.",
"M.M.M.M.M.M.M.M.M.M.M.M.M.M.M.z.h x c.D v = ; ; $ +.o.* C %X+XoXN l.M.M.M.M.M.M.M.M.M.M.M.M.M.M.",
"M.M.M.M.M.M.M.M.M.M.M.M.m.d z.p - y z h - ; ; ; 3 +.o.#X&X@X@XD h v.M.M.M.M.M.M.M.M.M.M.M.M.M.M.",
"M.M.M.M.M.M.M.M.M.M.M.M.k E w = O O > : O O = = # | o.XX@XoXB h v.M.M.M.M.M.M.M.M.M.M.M.M.M.M.M.",
"M.M.M.M.M.M.M.M.M.M.M.m.~ E , + 7 { 3 O & o X X .   , % v y k m.M.M.M.M.M.M.M.M.M.M.M.M.M.M.M.M.",
"M.M.M.M.M.M.M.M.M.M.M.M.X...1 3  ...K O ; = o X X X O = p M.N.N.M.M.M.M.M.M.M.M.M.M.M.M.M.M.M.M.",
"M.M.M.M.M.M.M.M.M.M.M.M.j |  .L +.} o & % @ o ; ; o = ; - p v.n.M.M.M.M.M.M.M.M.M.M.M.M.M.M.M.M.",
"M.M.M.M.M.M.M.M.M.M.M.M.M.a i u U 7 3 6 } 7 X ; ; v # = = = y x.Z.M.M.M.M.M.M.M.M.M.M.M.M.M.M.M.",
"M.M.M.M.M.M.M.M.M.M.M.M.M.M.m.m.l f } O.O.8 $ % 4 K 8 # + 5 $X-X*XG.Z.M.M.M.M.M.M.M.M.M.M.M.M.M.",
"M.M.M.M.M.M.M.M.M.M.M.M.M.M.m.M.M.v.W .. .{ 8 } O.@...4 4 K o.$X5X=XG.Z.M.M.M.M.M.M.M.M.M.M.M.M.",
"M.M.M.M.M.M.M.M.M.M.M.M.M.M.M.M.m.n.c n G G n  .O.@.O.} { ..R Z c.*X*XZ.M.M.M.M.M.M.M.M.M.M.M.M.",
"M.M.M.M.M.M.M.M.M.M.M.M.M.M.M.M.M.M.z.V M M v d ) K K G X.Y ` z.j.j.n.M.M.M.M.M.M.M.M.M.M.M.M.M.",
"M.M.M.M.M.M.M.M.M.M.M.M.M.M.M.M.M.M.M.z.x j.x z.v.N XXOXH j.n.M.M.M.M.M.M.M.M.M.M.M.M.M.M.M.M.M.",
"M.M.M.M.M.M.M.M.M.M.M.M.M.M.M.M.M.M.M.M.N.M.M.M.n.XX+XH Z.M.M.M.M.M.M.M.M.M.M.M.M.M.M.M.M.M.M.M.",
"M.M.M.M.M.M.M.M.M.M.M.M.M.M.M.M.M.M.M.M.M.M.M.M.m.S H z.M.M.M.M.M.M.M.M.M.M.M.M.M.M.M.M.M.M.M.M.",
"M.M.M.M.M.M.M.M.M.M.M.M.M.M.M.M.M.M.M.M.M.M.M.M.m.N.N.M.M.M.M.M.M.M.M.M.M.M.M.M.M.M.M.M.M.M.M.M.",
"M.M.M.M.M.M.M.M.M.M.M.M.M.M.M.M.M.M.M.M.M.M.M.M.M.M.M.M.M.M.M.M.M.M.M.M.M.M.M.M.M.M.M.M.M.M.M.M.",
"M.M.M.M.M.M.M.M.M.M.M.M.M.M.M.M.M.M.M.M.M.M.M.M.M.M.M.M.M.M.M.M.M.M.M.M.M.M.M.M.M.M.M.M.M.M.M.M.",
"M.M.M.M.M.M.M.M.M.M.M.M.M.M.M.M.M.M.M.M.M.M.M.M.M.M.M.M.M.M.M.M.M.M.M.M.M.M.M.M.M.M.M.M.M.M.M.M."
};
