/* XPM */
static char *result[] = {
/* columns rows colors chars-per-pixel */
"48 48 192 2 ",
"   c #010101",
".  c #00030A",
"X  c #000315",
"o  c #000B16",
"O  c #00051A",
"+  c #170F10",
"@  c #350B0C",
"#  c #2D0611",
"$  c #2A0C16",
"%  c #252909",
"&  c #3A2D1B",
"*  c #383E11",
"=  c #000721",
"-  c #000926",
";  c #000D28",
":  c #001A24",
">  c #00132B",
",  c #0C1229",
"<  c #001B2D",
"1  c #131D23",
"2  c #141A29",
"3  c #2C1027",
"4  c #381527",
"5  c #00212C",
"6  c #19232A",
"7  c #002433",
"8  c #002834",
"9  c #002D3B",
"0  c #26303C",
"q  c #560B1E",
"w  c #4A1915",
"e  c #551E19",
"r  c #670B18",
"t  c #5C2818",
"y  c #63241E",
"u  c #4D0322",
"i  c #550426",
"p  c #4D1729",
"a  c #62062E",
"s  c #750A30",
"d  c #452C21",
"f  c #58242B",
"g  c #6B2821",
"h  c #6E2C2B",
"j  c #752C25",
"k  c #7B2F28",
"l  c #6D3532",
"z  c #753432",
"x  c #7B3532",
"c  c #3D4516",
"v  c #00462C",
"b  c #434B16",
"n  c #4B531A",
"m  c #545D1E",
"M  c #57611F",
"N  c #4D5927",
"B  c #674328",
"V  c #784E2F",
"C  c #7B493A",
"Z  c #5C6621",
"A  c #596425",
"S  c #6C642B",
"D  c #657026",
"F  c #697427",
"G  c #6C7529",
"H  c #6D7A2A",
"J  c #72742B",
"K  c #717D2B",
"L  c #7D7431",
"P  c #283147",
"I  c #4F2D49",
"U  c #364359",
"Y  c #515E45",
"T  c #5D6A43",
"R  c #667553",
"E  c #49576A",
"W  c #841122",
"Q  c #820A3D",
"!  c #A1143D",
"~  c #84332B",
"^  c #90382F",
"/  c #843531",
"(  c #8B3A33",
")  c #963B32",
"_  c #D1223B",
"`  c #874839",
"'  c #964637",
"]  c #91583C",
"[  c #A44536",
"{  c #A84C36",
"}  c #A34C3A",
"|  c #AD523C",
" . c #B7553D",
".. c #BC553D",
"X. c #986D3E",
"o. c #C1593E",
"O. c #8A0B41",
"+. c #920D46",
"@. c #9C0F4B",
"#. c #A4104F",
"$. c #AB134E",
"%. c #B9184C",
"&. c #C51C4A",
"*. c #D92245",
"=. c #E42545",
"-. c #EA2743",
";. c #BE5844",
":. c #99745F",
">. c #A66D44",
",. c #AA6B4B",
"<. c #A87145",
"1. c #B7774C",
"2. c #9C7760",
"3. c #C25F42",
"4. c #C85751",
"5. c #D75E57",
"6. c #C66646",
"7. c #CA6242",
"8. c #C06E4B",
"9. c #D56947",
"0. c #DC6B46",
"q. c #C6704C",
"w. c #E36E48",
"e. c #E5734B",
"r. c #E9754C",
"t. c #EB794F",
"y. c #E6655D",
"u. c #EA665F",
"i. c #E87D52",
"p. c #C87061",
"a. c #F16A62",
"s. c #F37A6C",
"d. c #78852E",
"f. c #6D9029",
"g. c #7E8C31",
"h. c #00D300",
"j. c #768242",
"k. c #818F32",
"l. c #859334",
"z. c #889635",
"x. c #8C9B37",
"c. c #9E845D",
"v. c #B0876E",
"b. c #CB8556",
"n. c #D38858",
"m. c #DC8A5A",
"M. c #DA905C",
"N. c #ED8053",
"B. c #E78859",
"V. c #F18B5A",
"C. c #E5925F",
"Z. c #ED925F",
"A. c #F5935E",
"S. c #E89660",
"D. c #EC9B64",
"F. c #F69761",
"G. c #F49C65",
"H. c #F99C64",
"J. c #EA8C78",
"K. c #F6947E",
"L. c #F0A066",
"P. c #FAA067",
"I. c #F6A369",
"U. c #FCA46A",
"Y. c #FFAA6D",
"T. c #B3C34C",
"R. c #C6E04C",
"E. c #485A84",
"W. c #546486",
"Q. c #556C9E",
"!. c #5C6C98",
"~. c #6A7186",
"^. c #647895",
"/. c #60719F",
"(. c #456AA0",
"). c #7E8DAB",
"_. c #678ECA",
"`. c #6895D9",
"'. c #8C9097",
"]. c #8595B5",
"[. c #99A3BD",
"{. c #A9B2BA",
"}. c #D09E82",
"|. c #F09981",
" X c #F9A389",
".X c #E9B392",
"XX c #FCB596",
"oX c #FEC19F",
"OX c #FFC4A1",
"+X c #BAC4D7",
"@X c #CCD1D7",
"#X c #FEFEFF",
/* pixels */
"x.x.x.x.x.x.x.x.x.x.x.x.x.x.x.x.x.x.x.x.x.x.x.x.x.x.x.x.x.x.x.x.x.x.x.x.x.x.x.x.x.x.x.x.x.x.x.x.",
"x.x.x.x.x.x.x.x.x.x.x.x.x.x.x.x.x.x.x.x.x.x.x.x.x.x.x.x.x.x.x.x.x.x.x.x.x.x.x.x.x.x.x.x.x.x.x.x.",
"x.x.x.x.x.x.x.x.x.x.x.x.x.x.x.x.x.x.x.x.x.x.x.x.x.x.x.x.x.x.x.x.x.x.x.x.x.x.x.x.x.x.x.x.x.x.x.x.",
"x.x.x.x.x.x.x.x.x.x.x.x.x.x.x.x.x.x.x.x.x.x.x.x.x.x.x.x.x.x.x.x.x.x.x.x.x.x.x.x.x.x.x.x.x.x.x.x.",
"x.x.x.x.x.x.x.x.x.x.x.x.x.x.x.x.x.x.x.x.x.x.x.x.x.x.x.x.x.x.x.x.x.x.x.x.x.x.x.x.x.x.x.x.x.x.x.x.",
"x.x.x.x.x.x.x.x.x.x.x.x.x.x.x.x.x.x.x.x.x.x.x.x.x.x.x.x.x.x.x.x.x.x.x.x.x.x.x.x.x.x.x.x.x.x.x.x.",
"x.x.x.x.x.x.x.x.x.x.x.x.x.x.x.x.x.x.x.x.x.x.x.x.x.x.x.x.x.x.x.x.x.x.x.x.x.x.x.x.x.x.x.x.x.x.x.x.",
"x.x.x.x.x.x.x.x.x.x.x.x.x.x.x.x.x.x.x.x.H n n n n n n g.x.x.x.x.x.x.x.x.x.x.x.x.x.x.x.x.x.x.x.x.",
"x.x.x.x.x.x.x.x.x.x.x.x.x.x.x.x.x.l.J 1.S.Y.U.F.N.A.A.b.1.F x.x.x.x.x.x.x.x.x.x.x.x.x.x.x.x.x.x.",
"x.x.x.x.x.x.x.x.x.x.x.x.x.x.x.x.L 1.Y.Y.P.P.N.N.A.Y.Y.N.t.U.] z.x.x.x.x.x.x.x.x.x.x.x.x.x.x.x.x.",
"x.x.x.x.x.x.x.x.x.x.x.x.x.x.x.c U.Y.r.r.F.U.Y.Y.Y.Y.Y.Y.U.r.U.X.Z x.x.x.x.x.x.x.x.x.x.x.x.x.x.x.",
"x.x.x.x.x.x.x.x.x.x.x.x.x.x.l.L.F.9.H.U.F.B.8.8.C.C.C.C.8.H...>.B.b.z.x.x.x.x.x.x.x.x.x.x.x.x.x.",
"x.x.x.x.x.x.x.x.x.x.x.x.x.x.B A.q.Y.F.9.q.m.Y.Y.Y.Y.Y.Y.Y.U.m.U.q.6.1.l.x.x.x.x.x.x.x.x.x.x.x.x.",
"x.x.x.x.x.x.x.x.x.x.x.x.x.H U.[ U.F.9.G.Y.U.U.t.F.Y.P.i.0.7.^ 0.V.L.D.L x.x.x.x.x.x.x.x.x.x.x.x.",
"x.x.x.x.x.x.x.x.x.x.x.x.x.<.e.D.Y.3.I.Y.t.U.U.Y.t.} [ f } y.y.k | t.` >.x.x.x.x.x.x.x.x.x.x.x.x.",
"x.x.x.x.x.x.x.x.x.x.x.x.H m.;.Y.V.,.U.6.Y.H.V.;.h $ 4.|.XXoXoX:.x r.M.C.M x.x.x.x.x.x.x.x.x.x.x.",
"x.x.x.x.x.x.x.x.x.x.x.x.X.S.C Y.} U.3.I.H.w./ x ^ J.}.p.5.s.OXOXy z U.$ x.x.x.x.x.x.x.x.x.x.x.x.",
"x.x.x.x.x.x.x.x.x.x.x.l.M.;.Y.t.n.3.Y.U.e.( w.w |.1 0 2   h a.OXy z U.& x.x.x.x.x.x.x.x.x.x.x.x.",
"x.x.x.x.x.x.x.x.x.x.x.% A.( U. .6.,.Y.i.x S.[ 4.w ).].E.v 8 u.v.^ z U.K x.x.x.x.x.x.x.x.x.x.x.x.",
"x.x.x.x.x.x.x.x.x.x.g.L.9.1.U.[ 3.,.Y.{ b.i.g y..X'.#X'.h.R. X2.) t t x.x.x.x.x.x.x.x.x.x.x.x.x.",
"x.x.x.x.x.x.x.x.x.x.V H.[ n.0./ } Y.F.z H.3.@ XXOX.X2.@Xf.T.OXc.j e.D x.x.x.x.x.x.x.x.x.x.x.x.x.",
"x.x.x.x.x.x.x.x.x.x.V t.h Y.9.G.} U.w.l V.~ a.XXOXOXOXOXOXOXOX2.{ Z.l.x.x.x.x.x.x.x.x.x.x.x.x.x.",
"x.x.x.x.x.x.x.x.x.x.V P.' F.C Y.;.,.[ D.7.~ a.XXOXOXOXOXOXOXOX2.n.k.x.x.x.x.x.x.x.x.x.x.x.x.x.x.",
"x.x.x.x.x.x.x.x.x.x.k.I.' F.C Y. .] ) D.3.g # K.OXOXOXOXOXOXOXOXZ x.x.x.x.x.x.x.x.x.x.x.x.x.x.x.",
"x.x.x.x.x.x.x.x.x.x.x.% V.<.C Y...` / D.o.e ) ;.K.XXOXOXOXOXOX.XF x.x.x.x.x.x.x.x.x.x.x.x.x.x.x.",
"x.x.x.x.x.x.x.x.x.x.x.x.  H B Y.r.,.0.h o.e ) )   a.a.a.OXOXOX2.x.x.x.x.x.x.x.x.x.x.x.x.x.x.x.x.",
"x.x.x.x.x.x.x.x.x.x.x.x.x.x.l.L.V.,.A.z B.k ) ) ' j 5.x / / / d.x.x.x.x.x.x.x.x.x.x.x.x.x.x.x.x.",
"x.x.x.x.x.x.x.x.x.x.x.x.x.x.x.H 1.B.b.r.q.{ j j f :   J.c.x.x.x.x.x.x.x.x.x.x.x.x.x.x.x.x.x.x.x.",
"x.x.x.x.x.x.x.x.x.x.x.x.x.x.x.x.x.b z.b M m.w 8 9 r -.u x.x.x.x.g.x.x.x.x.x.x.x.x.x.x.x.x.x.x.x.",
"x.x.x.x.x.x.x.x.x.x.x.x.x.x.x.x.x.x.x.b E + # 8 9 u -.W x.x.x.M 4 c x.x.x.x.x.x.x.x.x.x.x.x.x.x.",
"x.x.x.x.x.x.x.x.x.x.x.x.x.x.x.x.x.x.Y ^.6 9 9 9 9 i -.W x.x.x.+ Q.p l.x.x.x.x.x.x.x.x.x.x.x.x.x.",
"x.x.x.x.x.x.x.x.x.x.x.x.x.x.x.K : d.T W.5 9 9 9 9 i -.W H R (._.W.d l.x.x.x.x.x.x.x.x.x.x.x.x.x.",
"x.x.x.x.x.x.x.x.x.x.x.x.l.r d.9 9 5 k.* 9 9 9 9 9 i =.W `._.^.~.0 n x.x.x.x.x.x.x.x.x.x.x.x.x.x.",
"x.x.x.x.x.x.x.x.x.x.x.x.m -.o > O : 9 9 O ; 9 < ; , #.*.E ^.U 6 l.x.x.x.x.x.x.x.x.x.x.x.x.x.x.x.",
"x.x.x.x.x.x.x.x.x.x.x.x.! _ O O @.@.. > 7 < X X X X O   A 2 H l.x.x.x.x.x.x.x.x.x.x.x.x.x.x.x.x.",
"x.x.x.x.x.x.x.x.x.x.x.x.x %.a a *.@.: 9 7 9 - < > ; 9 9 N x.x.x.x.x.x.x.x.x.x.x.x.x.x.x.x.x.x.x.",
"x.x.x.x.x.x.x.x.x.x.x.x.Z #.@.*.%.O.9 = # 7 ; 9 9 ; 8 9 9 b l.x.x.x.x.x.x.x.x.x.x.x.x.x.x.x.x.x.",
"x.x.x.x.x.x.x.x.x.x.x.x.x.J l.g.O.O.. _ $.X ; 9 9 o - > 9 9 . * x.x.x.x.x.x.x.x.x.x.x.x.x.x.x.x.",
"x.x.x.x.x.x.x.x.x.x.x.x.x.x.x.x.d.S $.=.&.s O O Q &.Q = - q ~.@X{.F x.x.x.x.x.x.x.x.x.x.x.x.x.x.",
"x.x.x.x.x.x.x.x.x.x.x.x.x.x.x.x.x.d.+.#.O.+.#.*.-.-.#.3 O.-.-.^.[.+Xj.x.x.x.x.x.x.x.x.x.x.x.x.x.",
"x.x.x.x.x.x.x.x.x.x.x.x.x.x.x.x.x.x.2 2 /.W.3 @.#.=.#.#.&.*.3 U % % l.x.x.x.x.x.x.x.x.x.x.x.x.x.",
"x.x.x.x.x.x.x.x.x.x.x.x.x.x.x.x.x.d./././././.P D u u g.u I /.!.F x.x.x.x.x.x.x.x.x.x.x.x.x.x.x.",
"x.x.x.x.x.x.x.x.x.x.x.x.x.x.x.x.x.g.G G D F F l.x.x.x.x.x.g.!./.Z x.x.x.x.x.x.x.x.x.x.x.x.x.x.x.",
"x.x.x.x.x.x.x.x.x.x.x.x.x.x.x.x.x.x.x.x.x.x.x.x.x.x.x.x.x.x.m W.Z x.x.x.x.x.x.x.x.x.x.x.x.x.x.x.",
"x.x.x.x.x.x.x.x.x.x.x.x.x.x.x.x.x.x.x.x.x.x.x.x.x.x.x.x.x.x.x.x.x.x.x.x.x.x.x.x.x.x.x.x.x.x.x.x.",
"x.x.x.x.x.x.x.x.x.x.x.x.x.x.x.x.x.x.x.x.x.x.x.x.x.x.x.x.x.x.x.x.x.x.x.x.x.x.x.x.x.x.x.x.x.x.x.x.",
"x.x.x.x.x.x.x.x.x.x.x.x.x.x.x.x.x.x.x.x.x.x.x.x.x.x.x.x.x.x.x.x.x.x.x.x.x.x.x.x.x.x.x.x.x.x.x.x.",
"x.x.x.x.x.x.x.x.x.x.x.x.x.x.x.x.x.x.x.x.x.x.x.x.x.x.x.x.x.x.x.x.x.x.x.x.x.x.x.x.x.x.x.x.x.x.x.x."
};
