/* XPM */
static char *result[] = {
/* columns rows colors chars-per-pixel */
"48 48 211 2 ",
"   c #00030A",
".  c #1A020C",
"X  c #38041C",
"o  c #01261A",
"O  c #272112",
"+  c #010C26",
"@  c #190E28",
"#  c #001329",
"$  c #011B2D",
"%  c #1A1628",
"&  c #081E31",
"*  c #310F26",
"=  c #27192B",
"-  c #00202E",
";  c #19252C",
":  c #002333",
">  c #032835",
",  c #002D3B",
"<  c #172735",
"1  c #332E2E",
"2  c #3C2436",
"3  c #541E1B",
"4  c #4B251D",
"5  c #66261F",
"6  c #540A2D",
"7  c #55092F",
"8  c #431526",
"9  c #5B1534",
"0  c #77102B",
"q  c #690A32",
"w  c #771A35",
"e  c #502B28",
"r  c #482338",
"t  c #5E2A39",
"y  c #672825",
"u  c #772F2F",
"i  c #7A302A",
"p  c #3C4828",
"a  c #364733",
"s  c #4E571B",
"d  c #56601F",
"f  c #5F552A",
"g  c #614E25",
"h  c #68542B",
"j  c #7D5534",
"k  c #5B6527",
"l  c #5E693D",
"z  c #666628",
"x  c #636D2B",
"c  c #697528",
"v  c #737A2D",
"b  c #756731",
"n  c #697537",
"m  c #787A33",
"M  c #273546",
"N  c #703544",
"B  c #344556",
"V  c #374965",
"C  c #515B4C",
"Z  c #4B5652",
"A  c #5B6753",
"S  c #465163",
"D  c #4C5372",
"F  c #664B71",
"G  c #675376",
"H  c #56697A",
"J  c #850C3D",
"K  c #941A37",
"L  c #A8183E",
"P  c #B61B3A",
"I  c #87352C",
"U  c #90382F",
"Y  c #863B35",
"T  c #933A31",
"R  c #993F32",
"E  c #BE263F",
"W  c #C61F38",
"Q  c #CB2339",
"!  c #804E34",
"~  c #964638",
"^  c #815936",
"/  c #A64A39",
"(  c #A95537",
")  c #AD543B",
"_  c #B4543C",
"`  c #83722C",
"'  c #846735",
"]  c #946A3C",
"[  c #8C7937",
"{  c #987D3C",
"}  c #A57C3C",
"|  c #8B0C43",
" . c #821B44",
".. c #9C1547",
"X. c #A51545",
"o. c #B81849",
"O. c #8E2F42",
"+. c #BC2E46",
"@. c #C51D45",
"#. c #CA2747",
"$. c #D72244",
"%. c #E22545",
"&. c #875F4D",
"*. c #AA4842",
"=. c #B24C46",
"-. c #A35941",
";. c #A85944",
":. c #B65847",
">. c #936553",
",. c #A46346",
"<. c #AC6246",
"1. c #B66A46",
"2. c #A87943",
"3. c #B76B54",
"4. c #A5735D",
"5. c #BD5362",
"6. c #CC5D48",
"7. c #C76A49",
"8. c #D46A47",
"9. c #C3734D",
"0. c #CB744D",
"q. c #D7744D",
"w. c #D56051",
"e. c #CD7D52",
"r. c #D37D52",
"t. c #DB7D52",
"y. c #E5744D",
"u. c #EC7E52",
"i. c #DD6C60",
"p. c #CD7F6C",
"a. c #D77968",
"s. c #E97B6C",
"d. c #2AAA21",
"f. c #78852E",
"g. c #7A862F",
"h. c #7C8331",
"j. c #7D8B30",
"k. c #59D023",
"l. c #7C8A48",
"z. c #6F8E77",
"x. c #7BAE7C",
"c. c #838D33",
"v. c #8B8A37",
"b. c #938B3B",
"n. c #859334",
"m. c #899436",
"M. c #8C9B37",
"N. c #84933B",
"B. c #8D9638",
"V. c #86904C",
"C. c #A68343",
"Z. c #B88D4C",
"A. c #89946B",
"S. c #B39E6A",
"D. c #CB8453",
"F. c #DC8255",
"G. c #D48658",
"H. c #DC8C5B",
"J. c #D39259",
"K. c #E48355",
"L. c #ED8355",
"P. c #E28858",
"I. c #E38C5B",
"U. c #EB8C5A",
"Y. c #F18D5B",
"T. c #E8925E",
"R. c #F3935F",
"E. c #CF8A72",
"W. c #E69661",
"Q. c #EB9661",
"!. c #EB9A63",
"~. c #F39661",
"^. c #F49C64",
"/. c #F99C65",
"(. c #E48571",
"). c #F38372",
"_. c #F58D79",
"`. c #DCB264",
"'. c #F5A167",
"]. c #FAA067",
"[. c #F6A268",
"{. c #FBA56A",
"}. c #FEA96C",
"|. c #4F5E85",
" X c #5A698A",
".X c #596A99",
"XX c #58749B",
"oX c #796688",
"OX c #6B7B86",
"+X c #66779A",
"@X c #5C7DAD",
"#X c #637EAA",
"$X c #8F918E",
"%X c #B99C8C",
"&X c #8792AB",
"*X c #9DA5B6",
"=X c #AEABB5",
"-X c #F59981",
";X c #D9A688",
":X c #D1B09E",
">X c #EDA88C",
",X c #F9A78C",
"<X c #E9B48E",
"1X c #F9AD90",
"2X c #F8BB9A",
"3X c #FDC19F",
"4X c #D2C3BC",
"5X c #FFC4A1",
"6X c #A9B1C5",
"7X c #D4D8E2",
"8X c #ECEAE9",
/* pixels */
"M.M.M.M.M.M.M.M.M.M.M.M.M.M.M.M.M.M.M.M.M.M.M.M.M.M.M.M.M.M.M.M.M.M.M.M.M.M.M.M.M.M.M.M.M.M.M.M.",
"M.M.M.M.M.M.M.M.M.M.M.M.M.M.M.M.M.M.M.M.M.M.M.M.M.M.M.M.M.M.M.M.M.M.M.M.M.M.M.M.M.M.M.M.M.M.M.M.",
"M.M.M.M.M.M.M.M.M.M.M.M.M.M.M.M.M.M.M.M.M.M.M.M.M.M.M.M.M.M.M.M.M.M.M.M.M.M.M.M.M.M.M.M.M.M.M.M.",
"M.M.M.M.M.M.M.M.M.M.M.M.M.M.M.M.M.M.M.M.M.M.M.M.M.M.M.M.M.M.M.M.M.M.M.M.M.M.M.M.M.M.M.M.M.M.M.M.",
"M.M.M.M.M.M.M.M.M.M.M.M.M.M.M.M.M.M.M.M.M.M.M.M.M.M.M.M.M.M.M.M.M.M.M.M.M.M.M.M.M.M.M.M.M.M.M.M.",
"M.M.M.M.M.M.M.M.M.M.M.M.M.M.M.M.M.M.M.M.M.d d d d d d d n.M.M.M.M.M.M.M.M.M.M.M.M.M.M.M.M.M.M.M.",
"M.M.M.M.M.M.M.M.M.M.M.M.M.M.M.M.M.m.j.] ] [.[.T.K.L.~.~.} ] j.M.M.M.M.M.M.M.M.M.M.M.M.M.M.M.M.M.",
"M.M.M.M.M.M.M.M.M.M.M.M.M.M.M.m.f.' H.}.}.}.{.L.L.^.].u.u.L.T.z M.M.M.M.M.M.M.M.M.M.M.M.M.M.M.M.",
"M.M.M.M.M.M.M.M.M.M.M.M.M.M.M.v.J./././.L.Y.~.}.}.'.'.'.{.Y.U.!.b.v.n.M.M.M.M.M.M.M.M.M.M.M.M.M.",
"M.M.M.M.M.M.M.M.M.M.M.M.M.M.c.Z.'.U.u./.].^.^.'.I.9.9.9.H.^.u.t.D.D.[ m.M.M.M.M.M.M.M.M.M.M.M.M.",
"M.M.M.M.M.M.M.M.M.M.M.M.M.M.b.G.P.U.Q.Q.F.K.I.H.!.}.}.}.'.I./.9.F.F.e.C.m.M.M.M.M.M.M.M.M.M.M.M.",
"M.M.M.M.M.M.M.M.M.M.M.M.M.m.C.t.I.^.u.t.G.].]./.].}.{.^.T.H.7.) K.U.e.1.b.m.M.M.M.M.M.M.M.M.M.M.",
"M.M.M.M.M.M.M.M.M.M.M.M.M.v.r.t.^.U.F.!.~.~././.~.t.9.,.~ w.6.=./ 8.F.D.[ n.M.M.M.M.M.M.M.M.M.M.",
"M.M.M.M.M.M.M.M.M.M.M.M.m.2.P.I./.0.W.~.~././.L.7.~ u *.p.1X1X>X>./ F.G.e.B.M.M.M.M.M.M.M.M.M.M.",
"M.M.M.M.M.M.M.M.M.M.M.M.v.D.t.Q.G.G.R.e.}./.q.~ u =.(.>X).).1X5X;Xy 1.9.' v.M.M.M.M.M.M.M.M.M.M.",
"M.M.M.M.M.M.M.M.M.M.M.M.^ U.1.T.r.F.e.^.~.8.R ~ -.E.&.e 4 =.i.,X>X3 :.7.h n.M.M.M.M.M.M.M.M.M.M.",
"M.M.M.M.M.M.M.M.M.M.M.z }.F.3.U.r.q.T.^.y.~ Q.) Y O.+X&XV o 4 _.;X3 1.1.b.B.M.M.M.M.M.M.M.M.M.M.",
"M.M.M.M.M.M.M.M.M.M.m.C.R.) T.7._ <.!.K.Y W.8.*.a.$X6X7Xz.d.Z.(.4.I _ } m.B.M.M.M.M.M.M.M.M.M.M.",
"M.M.M.M.M.M.M.M.M.M.h.H.8.,.^.7./ 9.!.8.,.Y.R 3.,X;X4X8Xx.k.`.3X4.I _ b.m.M.M.M.M.M.M.M.M.M.M.M.",
"M.M.M.M.M.M.M.M.M.M.g U.( G.I.:.;.H.~.;.!.8.R a.2X5X<X:X%XS.`.3X4.( 1.v.M.M.M.M.M.M.M.M.M.M.M.M.",
"M.M.M.M.M.M.M.M.M.M.g R.) H.t.D.r.3.t.-.Q._ u _.5X5X5X5X5X5X5X3XZ.3.C.N.M.M.M.M.M.M.M.M.M.M.M.M.",
"M.M.M.M.M.M.M.M.M.M.v T.8.G.q.W.F.( 1.,.L.~ u a.2X5X5X5X5X5X5X3XE.{ N.M.M.M.M.M.M.M.M.M.M.M.M.M.",
"M.M.M.M.M.M.M.M.M.M.M.2.L.9.I.Q.r.~ ~ ,.u.I i :.-X2X5X5X5X5X5X5X;Xx M.M.M.M.M.M.M.M.M.M.M.M.M.M.",
"M.M.M.M.M.M.M.M.M.M.M.c I.] H.Q.F.-.( <.y.I U U :.s.>X2X3X3X3X3XS.n.M.M.M.M.M.M.M.M.M.M.M.M.M.M.",
"M.M.M.M.M.M.M.M.M.M.M.M.c.n.v.D.R.1.q./ P.I U U T T ~ i.)._._.E.v.M.M.M.M.M.M.M.M.M.M.M.M.M.M.M.",
"M.M.M.M.M.M.M.M.M.M.M.M.M.M.c.C.R.0.T.q.G.6.3 U U y *.*.>.O s k j.M.M.M.M.M.M.M.M.M.M.M.M.M.M.M.",
"M.M.M.M.M.M.M.M.M.M.M.M.M.M.M.n.m e.} K.! P.U 5 * 8 8 y 3.c.M.M.M.M.M.M.M.M.M.M.M.M.M.M.M.M.M.M.",
"M.M.M.M.M.M.M.M.M.M.M.M.M.M.M.M.M.f.j.c g.j / 2 , K P t k M.M.j.v n.M.M.M.M.M.M.M.M.M.M.M.M.M.M.",
"M.M.M.M.M.M.M.M.M.M.M.M.M.M.M.M.M.M.M.c.C ; e < < J L t x M.j.1 2 x M.M.M.M.M.M.M.M.M.M.M.M.M.M.",
"M.M.M.M.M.M.M.M.M.M.M.M.M.M.M.N.f.n.j.OXS : , , 1 L E t x c H .XZ f j.M.M.M.M.M.M.M.M.M.M.M.M.M.",
"M.M.M.M.M.M.M.M.M.M.M.M.M.j.j.f.a k k @XM , , , r +.W F H XX@X#XS k M.M.M.M.M.M.M.M.M.M.M.M.M.M.",
"M.M.M.M.M.M.M.M.M.M.M.M.m.( ( a > & p B & , , , r L E oXXX#X+XV C N.M.M.M.M.M.M.M.M.M.M.M.M.M.M.",
"M.M.M.M.M.M.M.M.M.M.M.M.` Q K - 7 7 = : $ # # : @ q K N H H B x j.M.M.M.M.M.M.M.M.M.M.M.M.M.M.M.",
"M.M.M.M.M.M.M.M.M.M.M.M.y $.P * 0 ..q % # , #     . X . % 1 j.n.M.M.M.M.M.M.M.M.M.M.M.M.M.M.M.M.",
"M.M.M.M.M.M.M.M.M.M.M.M.z ..L q @.o.9 < : > # & & # & , > x M.N.M.M.M.M.M.M.M.M.M.M.M.M.M.M.M.M.",
"M.M.M.M.M.M.M.M.M.M.M.M.n.O...E #...r @ X * # : , & $ , , , c N.M.M.M.M.M.M.M.M.M.M.M.M.M.M.M.M.",
"M.M.M.M.M.M.M.M.M.M.M.M.M.h.b v ^ w 7 K o.| + # , 2 6 @ : , 1 A.N.M.M.M.M.M.M.M.M.M.M.M.M.M.M.M.",
"M.M.M.M.M.M.M.M.M.M.M.M.M.M.M.M.h.z O.$.$.| 7 7 0 X.X.7 + 7 T =Xz.A.V.M.M.M.M.M.M.M.M.M.M.M.M.M.",
"M.M.M.M.M.M.M.M.M.M.M.M.M.M.M.M.M.m.b o... .| ..$.%.$.J 7 ..Q 5.*X=X$XM.M.M.M.M.M.M.M.M.M.M.M.M.",
"M.M.M.M.M.M.M.M.M.M.M.M.M.M.M.M.M.M.c.N |.D N ~ L @.@...| o.@.,.OX&X$Xl.M.M.M.M.M.M.M.M.M.M.M.M.",
"M.M.M.M.M.M.M.M.M.M.M.M.M.M.M.M.M.M.B.S +X Xm c.m j u G F w ' m.l.l.V.V.M.M.M.M.M.M.M.M.M.M.M.M.",
"M.M.M.M.M.M.M.M.M.M.M.M.M.M.M.M.M.M.c  X.XA M.M.M.n.c  X|.n M.M.M.M.M.M.M.M.M.M.M.M.M.M.M.M.M.M.",
"M.M.M.M.M.M.M.M.M.M.M.M.M.M.M.M.M.n.H .XS N.M.M.M.M.n.l n M.M.M.M.M.M.M.M.M.M.M.M.M.M.M.M.M.M.M.",
"M.M.M.M.M.M.M.M.M.M.M.M.M.M.M.M.M.M.l C m.M.M.M.M.M.M.M.M.M.M.M.M.M.M.M.M.M.M.M.M.M.M.M.M.M.M.M.",
"M.M.M.M.M.M.M.M.M.M.M.M.M.M.M.M.M.M.M.M.M.M.M.M.M.M.M.M.M.M.M.M.M.M.M.M.M.M.M.M.M.M.M.M.M.M.M.M.",
"M.M.M.M.M.M.M.M.M.M.M.M.M.M.M.M.M.M.M.M.M.M.M.M.M.M.M.M.M.M.M.M.M.M.M.M.M.M.M.M.M.M.M.M.M.M.M.M.",
"M.M.M.M.M.M.M.M.M.M.M.M.M.M.M.M.M.M.M.M.M.M.M.M.M.M.M.M.M.M.M.M.M.M.M.M.M.M.M.M.M.M.M.M.M.M.M.M.",
"M.M.M.M.M.M.M.M.M.M.M.M.M.M.M.M.M.M.M.M.M.M.M.M.M.M.M.M.M.M.M.M.M.M.M.M.M.M.M.M.M.M.M.M.M.M.M.M."
};
