/* XPM */
static char *result[] = {
/* columns rows colors chars-per-pixel */
"48 48 208 2 ",
"   c #030D1B",
".  c #1E191B",
"X  c #021629",
"o  c #0C1328",
"O  c #001D2E",
"+  c #0A1A29",
"@  c #191C2B",
"#  c #370B28",
"$  c #2E1A2D",
"%  c #17272B",
"&  c #052836",
"*  c #152735",
"=  c #182E3A",
"-  c #1A3239",
";  c #262835",
":  c #25303B",
">  c #48181F",
",  c #47142E",
"<  c #59142F",
"1  c #541A34",
"2  c #72112E",
"3  c #7D0D3A",
"4  c #661335",
"5  c #473728",
"6  c #472837",
"7  c #672C25",
"8  c #712629",
"9  c #7C3729",
"0  c #6F2C34",
"q  c #793937",
"w  c #35422E",
"e  c #4C572A",
"r  c #794337",
"t  c #775F33",
"y  c #5F6B2B",
"u  c #656B2A",
"i  c #6A7528",
"p  c #68742A",
"a  c #737D2C",
"s  c #7F782D",
"d  c #666933",
"f  c #6C7534",
"g  c #7B7836",
"h  c #24354B",
"j  c #373D49",
"k  c #3E3854",
"l  c #721240",
"z  c #4B3A59",
"x  c #713359",
"c  c #374B66",
"v  c #7F4A40",
"b  c #5C6756",
"n  c #686D4F",
"m  c #697656",
"M  c #727E59",
"N  c #4B526C",
"B  c #4C596A",
"V  c #754665",
"C  c #754971",
"Z  c #556479",
"A  c #66756C",
"S  c #696D75",
"D  c #8A0F3A",
"F  c #8B1C36",
"G  c #95153D",
"H  c #B91D3C",
"J  c #86342C",
"K  c #8D233B",
"L  c #8A3B33",
"P  c #9B3F3B",
"I  c #D22D3E",
"U  c #88442E",
"Y  c #97422F",
"T  c #884A39",
"R  c #9B4A39",
"E  c #88573D",
"W  c #9C533D",
"Q  c #A34A39",
"!  c #AD503B",
"~  c #B9593F",
"^  c #847E2F",
"/  c #866738",
"(  c #877837",
")  c #997838",
"_  c #A37A3E",
"`  c #890D42",
"'  c #871742",
"]  c #991743",
"[  c #A81749",
"{  c #B91B45",
"}  c #8E3147",
"|  c #A92246",
" . c #B82644",
".. c #C71D46",
"X. c #994A43",
"o. c #8C5649",
"O. c #A75746",
"+. c #B45C41",
"@. c #A15F53",
"#. c #B65C52",
"$. c #996E46",
"%. c #9E7343",
"&. c #9A6C58",
"*. c #A76844",
"=. c #B56145",
"-. c #BC6445",
";. c #BB6549",
":. c #B46A4A",
">. c #A97747",
",. c #B5754B",
"<. c #BB744D",
"1. c #A76657",
"2. c #B26D57",
"3. c #AC7558",
"4. c #B47053",
"5. c #BD7B55",
"6. c #8B6B70",
"7. c #B27B67",
"8. c #C46A48",
"9. c #D66F4A",
"0. c #C7744D",
"q. c #D4744D",
"w. c #D9774D",
"e. c #C7665A",
"r. c #C67A53",
"t. c #D47C52",
"y. c #DB7A51",
"u. c #E37E52",
"i. c #CB7B6A",
"p. c #E47C6C",
"a. c #5A9C33",
"s. c #73802C",
"d. c #79862F",
"f. c #7E8B31",
"g. c #7E8B44",
"h. c #7B8652",
"j. c #76916F",
"k. c #888737",
"l. c #828D33",
"z. c #95883C",
"x. c #859334",
"c. c #899736",
"v. c #8C9B37",
"b. c #8A9439",
"n. c #93943B",
"m. c #A9853F",
"M. c #9B8845",
"N. c #8D944D",
"B. c #A98846",
"V. c #B7874C",
"C. c #B68951",
"Z. c #828D70",
"A. c #B68A6F",
"S. c #B5BA6A",
"D. c #CC8155",
"F. c #CC8456",
"G. c #DD8456",
"H. c #D58759",
"J. c #DD8C5D",
"K. c #CB9257",
"L. c #D9945B",
"P. c #E28356",
"I. c #E58758",
"U. c #E48B5B",
"Y. c #EB8D5B",
"T. c #F38F5C",
"R. c #E4915D",
"E. c #EB945F",
"W. c #F4925E",
"Q. c #D68E67",
"!. c #C58A72",
"~. c #C8937A",
"^. c #DA917B",
"/. c #E49462",
"(. c #EA9562",
"). c #E89A64",
"_. c #E99B68",
"`. c #F39661",
"'. c #F49A64",
"]. c #F99E65",
"[. c #F7A269",
"{. c #F8A870",
"}. c #9DD74F",
"|. c #5D718F",
" X c #596A94",
".X c #64718F",
"XX c #7078A6",
"oX c #A46396",
"OX c #8E9696",
"+X c #9AB091",
"@X c #B1A492",
"#X c #989BAA",
"$X c #9CA2B6",
"%X c #AAAAB4",
"&X c #CE9C80",
"*X c #E79A83",
"=X c #DEAA8C",
"-X c #D5AA96",
";X c #EDA48A",
":X c #EEB092",
">X c #F7B697",
",X c #FBB798",
"<X c #FBBD9C",
"1X c #FDC09F",
"2X c #D9C6BC",
"3X c #FFC3A1",
"4X c #C4C8D5",
"5X c #EBEBED",
/* pixels */
"v.v.v.v.v.v.v.v.v.v.v.v.v.v.v.v.v.v.v.v.v.v.v.v.v.v.v.v.v.v.v.v.v.v.v.v.v.v.v.v.v.v.v.v.v.v.v.v.",
"v.v.v.v.v.v.v.v.v.v.v.v.v.v.v.v.v.v.v.v.v.v.v.v.v.v.v.v.v.v.v.v.v.v.v.v.v.v.v.v.v.v.v.v.v.v.v.v.",
"v.v.v.v.v.v.v.v.v.v.v.v.v.v.v.v.v.v.v.v.v.v.v.v.v.v.v.v.v.v.v.v.v.v.v.v.v.v.v.v.v.v.v.v.v.v.v.v.",
"v.v.v.v.v.v.v.v.v.v.v.v.v.v.v.v.v.v.v.v.v.v.v.v.v.v.v.v.v.v.v.v.v.v.v.v.v.v.v.v.v.v.v.v.v.v.v.v.",
"v.v.v.v.v.v.v.v.v.v.v.v.v.v.v.v.v.v.v.v.x.i p i i i i a c.v.v.v.v.v.v.v.v.v.v.v.v.v.v.v.v.v.v.v.",
"v.v.v.v.v.v.v.v.v.v.v.v.v.v.v.v.v.c.f.M.B.*.*.*.:.<.V.V.B.B.f.v.v.v.v.v.v.v.v.v.v.v.v.v.v.v.v.v.",
"v.v.v.v.v.v.v.v.v.v.v.v.v.v.v.v.v.M.C.D.H.J._.(.U.T.].[.).R.C.z.x.v.v.v.v.v.v.v.v.v.v.v.v.v.v.v.",
"v.v.v.v.v.v.v.v.v.v.v.v.v.v.v.x.( K.R./.).'.{.[.).W.[.[.W.W.W.K.V.d.v.v.v.v.v.v.v.v.v.v.v.v.v.v.",
"v.v.v.v.v.v.v.v.v.v.v.v.v.c.k.B.*.H.J.J._._._._.).R.(.`.W.W.Y.W.E.B.c.v.v.v.v.v.v.v.v.v.v.v.v.v.",
"v.v.v.v.v.v.v.v.v.v.v.v.c.M.5.5.F.r././.Q._._._._.R.U.P.Y.'.W.T.U.L.a v.v.v.v.v.v.v.v.v.v.v.v.v.",
"v.v.v.v.v.v.v.v.v.v.v.v.b.$.5.H.i.H.r./._.{.{._.R.'.[.R.U.P.W.[.I.D.B.x.v.v.v.v.v.v.v.v.v.v.v.v.",
"v.v.v.v.v.v.v.v.v.v.v.c.k.5.5.J.O.Q O.#.*.F.H.J.G.`.[.].'.R.P.W.'.y.R.k.v.v.v.v.v.v.v.v.v.v.v.v.",
"v.v.v.v.v.v.v.v.v.v.v.n.>.F.H.X.o.~.*X^.@.L T *.0.Y.].].'.`.J.0.[.I.q.) c.v.v.v.v.v.v.v.v.v.v.v.",
"v.v.v.v.v.v.v.v.v.v.v.n.>.4.0.v A.3X<X*X^.!.1.} q ~ P.].[.I.E.t.U.E.~ K.d.v.v.v.v.v.v.v.v.v.v.v.",
"v.v.v.v.v.v.v.v.v.v.v.l.t 4.+.o.&X>X^.O.@.7.1.2.X.L ~ w.'./.I.U.0.E.<.G.m.c.v.v.v.v.v.v.v.v.v.v.",
"v.v.v.v.v.v.v.v.v.v.v.x.g ,.=.o.A.;XX.5 j .X.X&.O.Q 8.-.u.'.I.0.8.I.R.0.K.s.v.v.v.v.v.v.v.v.v.v.",
"v.v.v.v.v.v.v.v.v.v.v.v.b.%.;.r 7.;X$.a.j.4X$XOX!.Y q.t.+.I./.X.~ t.).<.U.>.x.v.v.v.v.v.v.v.v.v.",
"v.v.v.v.v.v.v.v.v.v.v.v.x.z.r.7 &.>XQ.}.+X5X%X-X:X#.+.Y.5.q.[.<.! 8.U.:.P.E.l.v.v.v.v.v.v.v.v.v.",
"v.v.v.v.v.v.v.v.v.v.v.v.x.k.*.U &.1X=XS.@X2X-X<X,Xp.Y q.R.=.'.R.~ +.u.D.~ G.( v.v.v.v.v.v.v.v.v.",
"v.v.v.v.v.v.v.v.v.v.v.v.v.b.( >.&.3X1X=X=X:X3X3X,Xp.Q 8.R.;.P.r.8.r.q.R.W w./ v.v.v.v.v.v.v.v.v.",
"v.v.v.v.v.v.v.v.v.v.v.v.v.v.v.C.~.3X3X3X3X3X3X3X,Xp.P ~ P.0.-.T w.L.O.I.~ G.k.v.v.v.v.v.v.v.v.v.",
"v.v.v.v.v.v.v.v.v.v.v.v.v.v.v.M.~.3X3X3X3X3X3X1X;Xe.7 L q.,.R R y./.E G.<.K.l.v.v.v.v.v.v.v.v.v.",
"v.v.v.v.v.v.v.v.v.v.v.v.v.v.v.N.A.3X3X3X1X<X>X^.t.P 9 9 9.,.R R y.R.r 8.0.^ c.v.v.v.v.v.v.v.v.v.",
"v.v.v.v.v.v.v.v.v.v.v.v.v.v.v.c.N.=X;X;X;X^.7.O.X.L J U y.=.:.W P.L.a z.m.d.v.v.v.v.v.v.v.v.v.v.",
"v.v.v.v.v.v.v.v.v.v.v.v.v.v.v.v.b./ 3.3.!.#.0 7 L L J W D.8.G.;.E.V.c.c.c.v.v.v.v.v.v.v.v.v.v.v.",
"v.v.v.v.v.v.v.v.v.v.v.v.v.v.v.v.c.f.f.g &.r 0 > 8 J U 8.4.w.D.r.V.n.v.v.v.v.v.v.v.v.v.v.v.v.v.v.",
"v.v.v.v.v.v.v.v.v.v.v.v.v.v.v.v.v.v.v.x.u 1 F F < 8 Q *.6._ z.B.d.v.v.v.v.v.v.v.v.v.v.v.v.v.v.v.",
"v.v.v.v.v.v.v.v.v.v.v.v.v.v.v.v.v.v.v.c.f 6 K  .] 8 9 j B A l.c.v.v.v.v.v.v.v.v.v.v.v.v.v.v.v.v.",
"v.v.v.v.v.v.v.v.v.v.v.v.v.v.v.v.v.v.v.x.f = $ K H K $ & c |.s.v.x.v.v.v.v.v.v.v.v.v.v.v.v.v.v.v.",
"v.v.v.v.v.v.v.v.v.v.v.v.v.v.v.v.v.v.v.x.e = = z oXH 1 & h Z p p p d.v.v.v.v.v.v.v.v.v.v.v.v.v.v.",
"v.v.v.v.v.v.v.v.v.v.v.v.v.v.v.v.v.v.x.u . h c  XXX} 1 & % e p % - e d.) b.v.v.v.v.v.v.v.v.v.v.v.",
"v.v.v.v.v.v.v.v.v.v.v.v.v.v.v.v.v.v.f.5 c  XXXXXS : X O % w w $ ; % 9 I ^ v.v.v.v.v.v.v.v.v.v.v.",
"v.v.v.v.v.v.v.v.v.v.v.v.v.v.v.v.v.v.x.d k  XZ N j   X O X @ 1 ` 4   2 I / v.v.v.v.v.v.v.v.v.v.v.",
"v.v.v.v.v.v.v.v.v.v.v.v.v.v.v.v.v.v.x.p @ + ; @ + X X & X @ 4 [ [ < D ..t v.v.v.v.v.v.v.v.v.v.v.",
"v.v.v.v.v.v.v.v.v.v.v.v.v.v.v.v.x.g.d w - * * * = & X ; , & , [ ..G D } s c.v.v.v.v.v.v.v.v.v.v.",
"v.v.v.v.v.v.v.v.v.v.v.v.v.v.c.h.+XOX: - = % o * = O . < D 2 , ] P _ / / l.v.v.v.v.v.v.v.v.v.v.v.",
"v.v.v.v.v.v.v.v.v.v.v.v.v.b.j.#X$X#Xl * O # l 0 1 X # D ..H q E ^ c.c.x.v.v.v.v.v.v.v.v.v.v.v.v.",
"v.v.v.v.v.v.v.v.v.v.v.v.v.N.OX#XOX6.| 2 # 4 [  .] 3 3 ] { ..T l.c.v.v.v.v.v.v.v.v.v.v.v.v.v.v.v.",
"v.v.v.v.v.v.v.v.v.v.v.v.v.N.OXZ.M n | | l '  . .[ ] r ( E r k.v.v.v.v.v.v.v.v.v.v.v.v.v.v.v.v.v.",
"v.v.v.v.v.v.v.v.v.v.v.v.v.v.v.v.v.k./ ] x V F } C V y v.x.s.c.v.v.v.v.v.v.v.v.v.v.v.v.v.v.v.v.v.",
"v.v.v.v.v.v.v.v.v.v.v.v.v.v.v.v.v.c.l.i n b z z  X|.p v.v.v.v.v.v.v.v.v.v.v.v.v.v.v.v.v.v.v.v.v.",
"v.v.v.v.v.v.v.v.v.v.v.v.v.v.v.v.v.v.v.v.l.M M n Z |.m c.v.v.v.v.v.v.v.v.v.v.v.v.v.v.v.v.v.v.v.v.",
"v.v.v.v.v.v.v.v.v.v.v.v.v.v.v.v.v.v.v.v.v.v.v.l.b  XA c.v.v.v.v.v.v.v.v.v.v.v.v.v.v.v.v.v.v.v.v.",
"v.v.v.v.v.v.v.v.v.v.v.v.v.v.v.v.v.v.v.v.v.v.v.v.M A h.v.v.v.v.v.v.v.v.v.v.v.v.v.v.v.v.v.v.v.v.v.",
"v.v.v.v.v.v.v.v.v.v.v.v.v.v.v.v.v.v.v.v.v.v.v.v.x.l.x.v.v.v.v.v.v.v.v.v.v.v.v.v.v.v.v.v.v.v.v.v.",
"v.v.v.v.v.v.v.v.v.v.v.v.v.v.v.v.v.v.v.v.v.v.v.v.v.v.v.v.v.v.v.v.v.v.v.v.v.v.v.v.v.v.v.v.v.v.v.v.",
"v.v.v.v.v.v.v.v.v.v.v.v.v.v.v.v.v.v.v.v.v.v.v.v.v.v.v.v.v.v.v.v.v.v.v.v.v.v.v.v.v.v.v.v.v.v.v.v.",
"v.v.v.v.v.v.v.v.v.v.v.v.v.v.v.v.v.v.v.v.v.v.v.v.v.v.v.v.v.v.v.v.v.v.v.v.v.v.v.v.v.v.v.v.v.v.v.v."
};
