/* XPM */
static char *_64e7607dd484d19c9d459a4f2ff073cpmJmLBjQ0JqgJ9RZ[] = {
/* columns rows colors chars-per-pixel */
"48 48 151 2 ",
"   c #3E1E1B",
".  c #193926",
"X  c #332D21",
"o  c #3B2C22",
"O  c #2D3424",
"+  c #343325",
"@  c #462521",
"#  c #462A24",
"$  c #4C2A25",
"%  c #532E2C",
"&  c #563323",
"*  c #56302F",
"=  c #5E3633",
"-  c #6F3F2D",
";  c #623935",
":  c #683D36",
">  c #1E432A",
",  c #22462D",
"<  c #244B2B",
"1  c #344A28",
"2  c #26532D",
"3  c #2D572D",
"4  c #3B522B",
"5  c #325C2F",
"6  c #3D582C",
"7  c #234D31",
"8  c #284A30",
"9  c #275334",
"0  c #285636",
"q  c #2C5D3B",
"w  c #365632",
"e  c #325D32",
"r  c #2E6337",
"t  c #2D613D",
"y  c #366431",
"u  c #336A35",
"i  c #3B6A34",
"p  c #31673C",
"a  c #326B3A",
"s  c #357137",
"d  c #3A7337",
"f  c #367039",
"g  c #3B7538",
"h  c #3F7839",
"j  c #5C4625",
"k  c #405429",
"l  c #5B5625",
"z  c #5F572A",
"x  c #635828",
"c  c #74582E",
"v  c #614031",
"b  c #6D423A",
"n  c #704237",
"m  c #7B4732",
"M  c #784D30",
"N  c #73453B",
"B  c #7D4A3A",
"V  c #7B5132",
"C  c #7A503D",
"Z  c #42612E",
"A  c #4E642E",
"S  c #4E682E",
"D  c #51622C",
"F  c #5B6D2E",
"G  c #426731",
"H  c #4A6B31",
"J  c #437435",
"K  c #467937",
"L  c #41763C",
"P  c #447C39",
"I  c #497E39",
"U  c #5F7231",
"Y  c #6B672B",
"T  c #686B29",
"R  c #716D2D",
"E  c #63732F",
"W  c #68782F",
"Q  c #72732D",
"!  c #737A2D",
"~  c #7A6A33",
"^  c #647731",
"/  c #6D7D31",
"(  c #854D36",
")  c #824D3C",
"_  c #875137",
"`  c #87513C",
"'  c #8D533C",
"]  c #855E3B",
"[  c #8B5A3E",
"{  c #93573E",
"}  c #97593E",
"|  c #985B3F",
" . c #97643F",
".. c #9B6140",
"X. c #996D44",
"o. c #A16B44",
"O. c #A37145",
"+. c #AC7C49",
"@. c #4C833B",
"#. c #52863B",
"$. c #56893C",
"%. c #5C8D3C",
"&. c #5F903C",
"*. c #78812F",
"=. c #638837",
"-. c #628F3B",
";. c #748332",
":. c #7C8631",
">. c #7A8933",
",. c #64933C",
"<. c #68963D",
"1. c #6E993D",
"2. c #729C3D",
"3. c #759F3D",
"4. c #779F3D",
"5. c #799F3C",
"6. c #77A03D",
"7. c #7AA13D",
"8. c #7BA23E",
"9. c #7CA33E",
"0. c #7DA53D",
"q. c #7FA73C",
"w. c #7FA53E",
"e. c #828F34",
"r. c #839235",
"t. c #849335",
"y. c #879636",
"u. c #889535",
"i. c #889736",
"p. c #8A9936",
"a. c #8B9A37",
"s. c #8C9B37",
"d. c #81A63D",
"f. c #80A63E",
"g. c #86AC3B",
"h. c #82A93C",
"j. c #83A83E",
"k. c #87AB3D",
"l. c #85A93E",
"z. c #86AA3E",
"x. c #87AB3E",
"c. c #88AD3D",
"v. c #8CB13B",
"b. c #8DB23B",
"n. c #8CB03D",
"m. c #91B53A",
"M. c #93B63B",
"N. c #94B73A",
"B. c #96B93A",
"V. c #97BA3A",
"C. c #B2854C",
/* pixels */
"s.s.s.s.s.s.s.s.s.s.s.s.s.s.s.s.s.s.s.p.p.s.s.i.>.;.s.s.y.t.s.s.s.s.s.s.s.s.s.s.s.s.s.s.s.s.s.s.",
"s.s.s.s.s.s.s.s.s.s.s.s.s.s.s.s.s.s.W S A ;.D S < K W F S J ;.s.s.s.s.s.s.s.s.s.s.s.s.s.s.s.s.s.",
"s.s.s.s.s.s.s.s.s.s.s.s.s.s.s.>.E ;.J i @.J @.d @.#.%.I I 3 3 Z i.s.s.p.s.s.s.s.s.s.s.s.s.s.s.s.",
"s.s.s.s.s.s.s.s.s.s.s.s.s.s.4 . @.I ,.2.d.%.<.<.#.<.&.@.d.@.@.< 1 4 4 p.s.s.s.s.s.s.s.s.s.s.s.s.",
"s.s.s.s.s.s.s.s.s.s.s.s.^ y @.y K %.,.2.6.1.<.,.7.<.,.1.,.<.=.i @.@.J ;.s.s.s.s.s.s.s.s.s.s.s.s.",
"s.s.s.s.s.s.s.s.s.s.s.s.>.. @.@.&.M.<.x.1.<.<.g.<.<.2.%.5.x.<.@.@.J . . . s.s.s.s.s.s.s.s.s.s.s.",
"s.s.s.s.s.s.s.s.s.s.i.H d 1.x.x.%.2.B.6.<.j.g.B.B.2.7.<.2.<.<.<.%.#.%.#.y r.p.s.s.s.s.s.s.s.s.s.",
"s.s.s.s.s.s.s.s.s.s.> u @.#.<.j.<.<.<.<.1.<.M.B.v.1.1.<.2.B.d.<.1.0.<.@.@., y.p.s.s.s.s.s.s.s.s.",
"s.s.s.s.s.s.s.s.s.D J $.d $.&.<.<.<.<.<.M.v.<.6.1.N.V.v.V.V.1.<.2.q.@.@.@.g y A s.s.s.s.s.s.s.s.",
"s.s.s.s.s.s.s.t.3 @.%.<.1.x.2.<.x.q.B.0.B.V.B.c.V.B.N.V.V.v.q.7.6.<.,.8.g P @.u W s.s.s.s.s.s.s.",
"s.s.s.s.s.s.s.G @.d #.#.6.x.<.<.<.B.V.b.1.B.V.V.V.V.1.1.1.<.x.N.B.M.4.1.0.h g < s.s.s.s.s.s.s.s.",
"s.s.s.s.s.s.s.F s @.@.,.<.6.M.B.v.<.q.1.q.v.V.V.V.V.V.V.v.7.2.1.x.0.<.&.@.@.P s G i.s.s.s.s.s.s.",
"s.s.s.s.s.s.4 s @.h <.<.,.@.%.B.<.<.<.B.V.V.V.V.B.B.V.B.<.<.9.x.<.<.x.c.<.s s 2 s > s.s.s.s.s.s.",
"s.s.s.s.s.s.s.. L @.$.$.&.<.<.<.9.q.n.B.V.V.V.V.V.g.0.h.B.V.q.x.q.<.<.<.<.&.%.P 6 i.s.s.s.s.s.s.",
"s.s.s.s.s.p.6 @.$.<.,.@.<.<.<.x.x.q.<.<.<.V.V.B.V.V.6.v.B.B.M.<.1.x.x.$.@.@.P g A i.s.s.s.s.s.s.",
"s.s.s.s.s.y.Z y <.&.@.1.x.1.x.x.2.1.v.c.q.g.V.1.V.V.M.1.7.4.1.q.1.x.x.x.8.@.K @.i y.s.s.s.s.s.s.",
"s.s.s.s.p.y.6 s h @.$.x.x.1.<.<.6.V.V.B.x.q.<.9.1.N.M.x.<.<.q.x.6.1.q.$.s h @.P @.< s.s.s.s.s.s.",
"s.s.s.s.s.>.u L @.P 0.$.<.<.6.0.B.B.8.1.j.8.v.V.v.1.6.2.<.x.1.1.q.,.<.<.,.s g s 5 < s.s.s.s.s.s.",
"s.s.s.s.s.> q P $.#.P @.,.<.x.x.1.<.8.B.x.x.V.V.B.1.2.q.b.x.0.%.<.,.@.%.$.@.f @.5 t.s.s.s.s.s.s.",
"s.s.s.s.s.7 > s <.u @.h @.0.2.@.<.<.b.v.x.x.<.B.N.0.<.M.V.x.c.<.n.<.<.s @.@.@.t @.< s.s.s.s.s.s.",
"s.s.s.s.s.t.1 g p h h #.-.,.$.<.<.<.6.<.6.x.8.n.<.x.x.<.q.<.<.x.x.q.$.@.f P @.g q F s.s.s.s.p.s.",
"s.s.s.s.s.>.J L @.L h %.@.@.#.-.<.x.6.<.x.x.<.<.x.x.x.x.<.<.,.<.j.@.@.P f r d h p . s.s.s.s.s.s.",
"s.s.s.s.s.s.4 i h f P @.h f h I 6.x.6.<.0.q.<.<.<.1.x.x.<.$.<.<.@.P @.P s s t 0 / ;.p.s.s.s.s.s.",
"s.s.s.s.s./ d #.I %.P u I P P @.6.<.<.&.9.<.1.q.1.&.1.x.<.x.$.&.%.g @.@.$.<.%.e S p.s.s.s.s.s.s.",
"s.s.s.s.F s @.@.j.x.<.,.<.#.P f @.<.<.@.<.<.x.x.0.&.<.$.$.x.-.g I s s s L @.@.@.@.6 s.s.s.s.s.s.",
"s.s.s.s.>.r g ,.<.4.8.x.<.P @.f P <.#.$.<.<.2.x.0.&.<.@.@.@.g g P -.x.%.<.%.P K t W s.s.s.s.s.s.",
"s.s.s.s.A f @.@.x.6.x.x.x.$.<.<.P d @.$.<.<.@.2.@.%.<.#.s @.h @.,.3.x.9.<.K s I P q E i.s.s.s.s.",
"s.s.s.r.0 y P 5.x.0.2.1.,.d $.<.s $.<.@.,.@.@.&.@.@.$.@.g f P P I <.3.1.<.$.,.@.f 9 / s.s.s.s.s.",
"s.s.s.r.1 ;.u ,.<.x.0.d.<.h @.@.s ,.<.@.@.s <.<.g #.P @.P s @.@.,.-.,.x.x.-.,.<.f q ^ s.s.s.s.s.",
"s.s.s.p.y., u #.$.9.1.c.0.&.P @.a s g @.@.s P $.s %.<.@.s @.@.h 1.x.1.8.x.q.f @.J , E s.s.s.s.s.",
"s.s.s.s.p.>.q 2 @.#.,.<.2.<.s @.r t s @.g s s @.g s &.h s s s g 3.3.2.,.@.I s P H t./ s.s.s.s.s.",
"s.s.s.s.p.p.4 W r P #.h @.h s > i P s s s s s P g s s s a @.h ,.<.-.x.$.@.<.%.p D s.s.s.s.s.s.s.",
"s.s.s.s.s.s.s.>.0 r P s i a 2 s P $.P g @.@.f s a s s a g @.g <.@.$.@.P P $.,.q D s.s.s.s.s.s.s.",
"s.s.s.s.s.s.s.s.p.. t a . q 2 s @.<.$.$.<.f t r t a a t g s p f a P I I f L 4 D s.s.s.s.s.s.s.s.",
"s.s.s.s.s.s.s.s.p.s.W U s.;.H @.@.%.,.%.%.@.7 q t t r t 0 p , t a 0 p u p 7 s.s.s.s.s.s.s.s.s.s.",
"s.s.s.s.s.s.s.s.s.s.s.s.s.s.7 s K <.,.@.f @.s 0 t , q q ^ . E t 4 w 4 w q / s.s.s.s.s.s.s.s.s.s.",
"s.s.s.s.s.s.s.s.s.s.s.s.s.s.7 < @.I @.@.h a a O , # + X p.>.>.w i.i.p.y., r.s.s.s.s.s.s.s.s.s.s.",
"s.s.s.s.s.s.s.s.s.s.s.s.s.s.;.D d t u @.a 0 0 o @ $ @   s.s.s.s.s.s.s.s.s.p.s.s.s.s.s.s.s.s.s.s.",
"s.s.s.s.s.s.s.s.s.s.s.s.s.s.s.s.0 > q u q O # * $ * *   s.s.s.s.s.s.s.s.s.s.s.s.s.s.s.s.s.s.s.s.",
"s.s.s.s.s.s.s.s.s.s.s.s.s.s.s.s.;.s./ < + @ % ; = ; ; * z ! s.s.s.s.s.s.s.s.s.s.s.s.s.s.s.s.s.s.",
"s.s.s.s.s.s.s.s.s.s.s.s.s.s.s.s.s.y.    $ % n b b b ' = b | ! s.s.s.s.s.s.s.s.s.s.s.s.s.s.s.s.s.",
"s.s.s.s.s.s.s.s.s.s.s.s.s.s.s.s.s.  ; : ; : ` } N { { B [  .~ s.s.s.s.s.s.s.s.s.s.s.s.s.s.s.s.s.",
"s.s.s.s.s.s.s.s.s.s.s.s.s.s.s.s.p.p.l b : { } } { { } n B { { l s.s.s.s.s.s.s.s.s.s.s.s.s.s.s.s.",
"s.s.s.s.s.s.s.s.s.s.s.s.s.s.s.s.p.x X.O.} _ } o.N O._ C.] $ *.s.s.s.s.s.s.s.s.s.s.s.s.s.s.s.s.s.",
"s.s.s.s.s.s.s.s.s.s.s.s.s.s.s.s.T } ( V v ' C.X.x O.+.' C.C.R s.s.s.s.s.s.s.s.s.s.s.s.s.s.s.s.s.",
"s.s.s.s.s.s.s.s.s.s.s.s.s.s.s.s.y.j r.*._ } ..Q s.x o.C & ..n p.s.s.s.s.s.s.s.s.s.s.s.s.s.s.s.s.",
"s.s.s.s.s.s.s.s.s.s.s.s.s.s.s.s.s.s.s.t.M c T s.s.! m T s.T >.s.s.s.s.s.s.s.s.s.s.s.s.s.s.s.s.s.",
"s.s.s.s.s.s.s.s.s.s.s.s.s.s.s.s.s.s.s.s.s.s.s.s.s.s.s.s.s.s.s.s.s.s.s.s.s.s.s.s.s.s.s.s.s.s.s.s."
};
