/* XPM */
static char *result[] = {
/* columns rows colors chars-per-pixel */
"100 100 11 1 ",
"  c #1C121B",
". c #392022",
"X c #03396B",
"o c #144A4C",
"O c #34964C",
"+ c #8C9B37",
"@ c #E59B6A",
"# c #3005D8",
"$ c #780BF7",
"% c #F3CBA1",
"& c #DDE2E9",
/* pixels */
"++++++++++++++++++++++++++++++++++++++++++++++++++++++++++++++++++++++++++++++++++++++++++++++++++++",
"++++++++++++++++++++++++++++++++++++++++++++++++++++++++++++++++++++++++++++++++++++++++++++++++++++",
"++++++++++++++++++++++++++++++++++++++++++++++++++++++++++++++++++++++++++++++++++++++++++++++++++++",
"++++++++++++++++++++++++++++++++++++++++++++++++++++++++++++++++++++++++++++++++++++++++++++++++++++",
"++++++++++++++++++++++++++++++++++++++++++++++++++++++++++++++++++++++++++++++++++++++++++++++++++++",
"++++++++++++++++++++++++++++++++++++++++++++++++++++++++++++++++++++++++++++++++++++++++++++++++++++",
"++++++++++++++++++++++++++++++++++++++++++++++++++++++++++++++++++++++++++++++++++++++++++++++++++++",
"++++++++++++++++++++++++++++++++++++++++++++++++++++++++++++++++++++++++++++++++++++++++++++++++++++",
"++++++++++++++++++++++++++++++++++++++++++++++++++++++++++++++++++++++++++++++++++++++++++++++++++++",
"++++++++++++++++++++++++++++++++++++++++++++++++++++++++++++++++++++++++++++++++++++++++++++++++++++",
"++++++++++++++++++++++++++++++++++++++++++++++++++++++++++++++++++++++++++++++++++++++++++++++++++++",
"++++++++++++++++++++++++++++++++++++++++++++++++++++++++++++++++++++++++++++++++++++++++++++++++++++",
"++++++++++++++++++++++++++++++++++++++++++++++++++++++++++++++++++++++++++++++++++++++++++++++++++++",
"++++++++++++++++++++++++++++++++++++++++++++++++++++++++++++++++++++++++++++++++++++++++++++++++++++",
"++++++++++++++++++++++++++++++++++++++++++++++++++++++++++++++++++++++++++++++++++++++++++++++++++++",
"++++++++++++++++++++++++++++++++++++++++++++++++++++++++++++++++++++++++++++++++++++++++++++++++++++",
"++++++++++++++++++++++++++++++++++++++++++++++++++++++++++++++++++++++++++++++++++++++++++++++++++++",
"++++++++++++++++++++++++++++++++++++++++++++++++++++++++++++++++++++++++++++++++++++++++++++++++++++",
"++++++++++++++++++++++++++++++++++++++++++++++++++++++++++++++++++++++++++++++++++++++++++++++++++++",
"++++++++++++++++++++++++++++++++++++++++++++++++++++++++++++++++++++++++++++++++++++++++++++++++++++",
"++++++++++++++++++++++++++++++++++++++++++++++++++++++++++++++++++++++++++++++++++++++++++++++++++++",
"++++++++++++++++++++++++++++++++++++++++++++++++++++++++++++++++++++++++++++++++++++++++++++++++++++",
"++++++++++++++++++++++++++++++++++++++++++++++++++++++++++++++++++++++++++++++++++++++++++++++++++++",
"++++++++++++++++++++++++++++++++++++++++++++++++++++++++++++++++++++++++++++++++++++++++++++++++++++",
"++++++++++++++++++++++++++++++++++++++++++++++++++++++++++++++++++++++++++++++++++++++++++++++++++++",
"++++++++++++++++++++++++++++++++++++++++++++++++++++++++++++++++++++++++++++++++++++++++++++++++++++",
"++++++++++++++++++++++++++++++++++++++++++++++++++++++++++++++++++++++++++++++++++++++++++++++++++++",
"++++++++++++++++++++++++++++++++++++++++++++++++++++++++++++++++++++++++++++++++++++++++++++++++++++",
"++++++++++++++++++++++++++++++++++++++++++++++++++++++++++++++++++++++++++++++++++++++++++++++++++++",
"++++++++++++++++++++++++++++++++++++++++++++++++++++++++++++++++++++++++++++++++++++++++++++++++++++",
"++++++++++++++++++++++++++++++++++++++++++++++++++++++++++++++++++++++++++++++++++++++++++++++++++++",
"++++++++++++++++++++++++++++++++++++++++++++++++++++++++++++++++++++++++++++++++++++++++++++++++++++",
"++++++++++++++++++++++++++++++++++++++++++++++++++++++++++++++++++++++++++++++++++++++++++++++++++++",
"+++++++++++++++++++++++++++           +    +++++++++++++++++++++++++++++++++++++++++++++++++++++++++",
"++++++++++++++++++++++++   X#####XXXXX ooo +++++++++++++++++++++++++++++++++++++++++++++++++++++++++",
"++++++++++++++++++++++  X#########XXXX.oo         ++++   ++++++++++++   ++++++++++++++++++++++++++++",
"+++++++++++++++++++++ XX###########XX.##$$$$$$$###    OO +++++++++++ $$ ++++++++++++++++++++++++++++",
"++++++++++++++++++++ XX#############.#$$$$$$$$$$$###OOO   +++++++++ $$$ ++++++++++++++++++++++++++++",
"+++++++++++++++++++ XX#############.#$$$$$$$$$$$$$##OOOooo +++++++ $$$ +++++++++++++++++++++++++++++",
"+++++++++++++++++++ XX############.##$$$$$$$$$$$$$$##oooooo +++++ $$$$ +++++++++++++++++++++++++++++",
"+++++++++++++++++++ XX###########.##$$$$$$$$$$$$$$$##OOooooo ++++ $$$ ++++++++++++++++++++++++++++++",
"+++++++++++++++++++ XX##########.##$$$$$$$$$$$$$$$$##OOOoooo +++ $$$$ ++++++++++++++++++++++++++++++",
"+++++++++++++++++++ XX#########.###$$$$$$$$$$$$$$$$#oOOOoOOO +++ $$$ +++++++++++++++++++++++++++++++",
"++++++++++++++++++ @@XX###%%###.###$$$$$$$$$$$$$$$##   OOOOO +++ ### +++++++++++++++++++++++++++++++",
"++++++++++++++++++ @@.%%XX%%XX.%###$$$$$$$$$&&#$$$#o   OOOO ++++ ####   ++++++++++++++++++++++++++++",
"++++++++++++++++++   X%%######.%.%%$$$$$$$$$&&$$$# oo OOOOO +++++ ######    ++++++++++++++++++++++++",
"+++++++++++++++++++++  ########..%%XX&&XX&&#$$$$#oOOOOOOOOO ++++++ #########  ++++++++++++++++++++++",
"+++++++++++++++++++++++          ##$$&&$$&&$$$$#OOOOOOOOOO ++++++++ ########## +++++++++++++++++++++",
"+++++++++++++++++++++++++++++++++ ##$$$$$$$$$ooOOOOOOOOOO ++++++++++  ######### ++++++++++++++++++++",
"++++++++++++++++++++++++++++++++++    ooooo  OOOOOOOOOOO +++++++++++++    ###### +++++++++++++++++++",
"+++++++++++++++++++++++++++++++++++++ ooooo OOOOOOOO    ++++++++++++++++++ ##### +++++++++++++++++++",
"++++++++++++++++++++++++++++++++++++ ooooooOOOOOOO  ++++++     +++++++++++ ##### +++++++++++++++++++",
"+++++++++++++++++++++++++++++++  +++ ooooooOOOOOOO   ++++ OOOO +++++++++++ X###X +++++++++++++++++++",
"+++++++++++++++++++++++++++++++ O + ooOOOOOOOOOOOOOOO    OOOO ++++++++++++ XXXXX +++++++++++++++++++",
"+++++++++++++++++++++++++++++++ OO ooOOOOOOOOOOOOOOOOOOOOOOO     +++++    XXXXXX +++++++++++++++++++",
"+++++++++++++++++++++++++++++++ OOoooOOOOOOOOOOOOOOOOOOOOOOOOOOOO     XXXXXXXXXX +++++++++++++++++++",
"++++++++++++++++++++++++++++++++ OoooOOOOOOOOOOOOOOOOOOOOOOOOOOOOO#####XXXXXXXXX +++++++++++++++++++",
"+++++++++++++++++++++++++++++++++ oooOOOOOOOOOOOOOOOOOOOOOOOOOOOOOO#####XXXXXXX ++++++++++++++++++++",
"+++++++++++++++++++++++++++++++++ oooOOOOOOOOOOOOOOOOOOOOOOOOOOOOOO#####XXXXXX +++++++++++++++++++++",
"+++++++++++++++++++++++++++++++++ oooOOOOOOOOOOOOOOOOOOOOOOOOOOOOOO#####XXXX  ++++++++++++++++++++++",
"+++++++++++++++++++++++++++++++++ oooOOOOOOOOOOOOOoOOOOOOOoOOOOOOOO#####X   ++++++++++++++++++++++++",
"+++++++++++++++++++++++++++++++++ oooOOOOOOOOOOOOOoOOOoOOOoOOOOOOOO      +++++++++++++++++++++++++++",
"++++++++++++++++++++++++++++++++++ oooOOOOOOOOOOOOoOOOoooooOOOOOOO +++++++++++++++++++++++++++++++++",
"++++++++++++++++++++++++++++++++++ ooooOOOOOoOOOOOooooooooOOOOOOO ++++  ++++++++++++++++++++++++++++",
"++++++++++++++++++++++++++++++++++ ooooooooooOOOOOooooooooOOOOOOO +++ O ++++++++++++++++++++++++++++",
"++++++++++++++++++++++++++++++++++ ooooo     OOOOOooooooooOOOOOOOO   OO ++++++++++++++++++++++++++++",
"+++++++++++++++++++++++++++++++++ oooooo ++ OOOOO ooooooooOOOOOOOOOOOOO ++++++++++++++++++++++++++++",
"+++++++++++++++++++++++++++++++++ ooooo +++ OOOOO ooooooooOOOOOOOOOOOOO ++++++++++++++++++++++++++++",
"+++++++++++++++++++++++++++++++++ ooooo +++ OOOOO  ooooooooOOOOOOOOOOO +++++++++++++++++++++++++++++",
"+++++++++++++++++++++++++++++++++ ooooo ++ OOOOO ++ ooooooooOOOO  OOOO +++++++++++++++++++++++++++++",
"+++++++++++++++++++++++++++++++++ ooooo ++ OOOOO +++      oooo  + OOOO +++++++++++++++++++++++++++++",
"+++++++++++++++++++++++++++++++++ oooooo + OOOOO ++++++++ oooo ++ OOOO +++++++++++++++++++++++++++++",
"++++++++++++++++++++++++++++++++++ ooooo  OOOOO ++++++++ ooooo ++ OOOO +++++++++++++++++++++++++++++",
"+++++++++++++++++++++++++++++++++++ oooo  OOOOO ++++++++ ooooo ++ OOO ++++++++++++++++++++++++++++++",
"++++++++++++++++++++++++++++++++++++    + OOOO +++++++++ oooo ++++   +++++++++++++++++++++++++++++++",
"++++++++++++++++++++++++++++++++++++++++++++++++++++++++++++++++++++++++++++++++++++++++++++++++++++",
"++++++++++++++++++++++++++++++++++++++++++++++++++++++++++++++++++++++++++++++++++++++++++++++++++++",
"++++++++++++++++++++++++++++++++++++++++++++++++++++++++++++++++++++++++++++++++++++++++++++++++++++",
"++++++++++++++++++++++++++++++++++++++++++++++++++++++++++++++++++++++++++++++++++++++++++++++++++++",
"++++++++++++++++++++++++++++++++++++++++++++++++++++++++++++++++++++++++++++++++++++++++++++++++++++",
"++++++++++++++++++++++++++++++++++++++++++++++++++++++++++++++++++++++++++++++++++++++++++++++++++++",
"++++++++++++++++++++++++++++++++++++++++++++++++++++++++++++++++++++++++++++++++++++++++++++++++++++",
"++++++++++++++++++++++++++++++++++++++++++++++++++++++++++++++++++++++++++++++++++++++++++++++++++++",
"++++++++++++++++++++++++++++++++++++++++++++++++++++++++++++++++++++++++++++++++++++++++++++++++++++",
"++++++++++++++++++++++++++++++++++++++++++++++++++++++++++++++++++++++++++++++++++++++++++++++++++++",
"++++++++++++++++++++++++++++++++++++++++++++++++++++++++++++++++++++++++++++++++++++++++++++++++++++",
"++++++++++++++++++++++++++++++++++++++++++++++++++++++++++++++++++++++++++++++++++++++++++++++++++++",
"++++++++++++++++++++++++++++++++++++++++++++++++++++++++++++++++++++++++++++++++++++++++++++++++++++",
"++++++++++++++++++++++++++++++++++++++++++++++++++++++++++++++++++++++++++++++++++++++++++++++++++++",
"++++++++++++++++++++++++++++++++++++++++++++++++++++++++++++++++++++++++++++++++++++++++++++++++++++",
"++++++++++++++++++++++++++++++++++++++++++++++++++++++++++++++++++++++++++++++++++++++++++++++++++++",
"++++++++++++++++++++++++++++++++++++++++++++++++++++++++++++++++++++++++++++++++++++++++++++++++++++",
"++++++++++++++++++++++++++++++++++++++++++++++++++++++++++++++++++++++++++++++++++++++++++++++++++++",
"++++++++++++++++++++++++++++++++++++++++++++++++++++++++++++++++++++++++++++++++++++++++++++++++++++",
"++++++++++++++++++++++++++++++++++++++++++++++++++++++++++++++++++++++++++++++++++++++++++++++++++++",
"++++++++++++++++++++++++++++++++++++++++++++++++++++++++++++++++++++++++++++++++++++++++++++++++++++",
"++++++++++++++++++++++++++++++++++++++++++++++++++++++++++++++++++++++++++++++++++++++++++++++++++++",
"++++++++++++++++++++++++++++++++++++++++++++++++++++++++++++++++++++++++++++++++++++++++++++++++++++",
"++++++++++++++++++++++++++++++++++++++++++++++++++++++++++++++++++++++++++++++++++++++++++++++++++++",
"++++++++++++++++++++++++++++++++++++++++++++++++++++++++++++++++++++++++++++++++++++++++++++++++++++"
};
