/* XPM */
static char *result[] = {
/* columns rows colors chars-per-pixel */
"100 100 11 1 ",
"  c #1C121B",
". c #392022",
"X c #03396B",
"o c #144A4C",
"O c #34964C",
"+ c #8C9B37",
"@ c #E59B6A",
"# c #3005D8",
"$ c #780BF7",
"% c #F3CBA1",
"& c #DDE2E9",
/* pixels */
"++++++++++++++++++++++++++++++++++++++++++++++++++++++++++++++++++++++++++++++++++++++++++++++++++++",
"++++++++++++++++++++++++++++++++++++++++++++++++++++++++++++++++++++++++++++++++++++++++++++++++++++",
"++++++++++++++++++++++++++++++++++++++++++++++++++++++++++++++++++++++++++++++++++++++++++++++++++++",
"++++++++++++++++++++++++++++++++++++++++++++++++++++++++++++++++++++++++++++++++++++++++++++++++++++",
"++++++++++++++++++++++++++++++++++++++++++++++++++++++++++++++++++++++++++++++++++++++++++++++++++++",
"++++++++++++++++++++++++++++++++++++++++++++++++++++++++++++++++++++++++++++++++++++++++++++++++++++",
"++++++++++++++++++++++++++++++++++++++++++++++++++++++++++++++++++++++++++++++++++++++++++++++++++++",
"++++++++++++++++++++++++++++++++++++++++++++++++++++++++++++++++++++++++++++++++++++++++++++++++++++",
"++++++++++++++++++++++++++++++++++++++++++++++++++++++++++++++++++++++++++++++++++++++++++++++++++++",
"++++++++++++++++++++++++++++++++++++++++++++++++++++++++++++++++++++++++++++++++++++++++++++++++++++",
"++++++++++++++++++++++++++++++++++++++++++++++++++++++++++++++++++++++++++++++++++++++++++++++++++++",
"++++++++++++++++++++++++++++++++++++++++++++++++++++++++++++++++++++++++++++++++++++++++++++++++++++",
"++++++++++++++++++++++++++++++++++++++++++++++++++++++++++++++++++++++++++++++++++++++++++++++++++++",
"++++++++++++++++++++++++++++++++++++++++++++++++++++++++++++++++++++++++++++++++++++++++++++++++++++",
"++++++++++++++++++++++++++++++++++++++++++++++++++++++++++++++++++++++++++++++++++++++++++++++++++++",
"++++++++++++++++++++++++++++++++++++++++++++++++++++++++++++++++++++++++++++++++++++++++++++++++++++",
"++++++++++++++++++++++++++++++++++++++++++++++++++++++++++++++++++++++++++++++++++++++++++++++++++++",
"++++++++++++++++++++++++++++++++++++++++++++++++++++++++++++++++++++++++++++++++++++++++++++++++++++",
"++++++++++++++++++++++++++++++++++++++++++++++++++++++++++++++++++++++++++++++++++++++++++++++++++++",
"++++++++++++++++++++++++++++++++++++++++++++++++++++++++++++++++++++++++++++++++++++++++++++++++++++",
"++++++++++++++++++++++++++++++++++++++++++++++++++++++++++++++++++++++++++++++++++++++++++++++++++++",
"++++++++++++++++++++++++++++++++++++++++++++++++++++++++++++++++++++++++++++++++++++++++++++++++++++",
"++++++++++++++++++++++++++++++++++++++++++++++++++++++++++++++++++++++++++++++++++++++++++++++++++++",
"++++++++++++++++++++++++++++++++++++++++++++++++++++++++++++++++++++++++++++++++++++++++++++++++++++",
"++++++++++++++++++++++++++++++++++++++++++++++++++++++++++++++++++++++++++++++++++++++++++++++++++++",
"++++++++++++++++++++++++++++++++++++++++++++++++++++++++++++++++++++++++++++++++++++++++++++++++++++",
"++++++++++++++++++++++++++++++++++++++++++++++++++++++++++++++++++++++++++++++++++++++++++++++++++++",
"++++++++++++++++++++++++++++++++++++++++++++++++++++++++++++++++++++++++++++++++++++++++++++++++++++",
"++++++++++++++++++++++++++++++++++++++++++++++++++++++++++++++++++++++++++++++++++++++++++++++++++++",
"++++++++++++++++++++++++++++++++++++++++++++++++++++++++++++++++++++++++++++++++++++++++++++++++++++",
"++++++++++++++++++++++++++++++++++++++++++++++++++++++++++++++++++++++++++++++++++++++++++++++++++++",
"++++++++++++++++++++++++++++++++++++++++++++++++++++++++++++++++++++++++++++++++++++++++++++++++++++",
"++++++++++++++++++++++++++++++++++++++++++++++++++++++++++++++++++++++++++++++++++++++++++++++++++++",
"++++++++++++++++++++++++++++++++++++++++++++++++++++++++++++++++++++++++++++++++++++++++++++++++++++",
"++++++++++++++++++++++++++++++++++++++++++++++++++++++++++++++++++++++++++++++++++++++++++++++++++++",
"+++++++++++++++++++++++++++           +    +++++++++++++++++++++++++++++++++++++++++++++++++++++++++",
"++++++++++++++++++++++++   X#####XXXXX ooo +++++++++++++++++++++++++++++++++++++++++++++++++++++++++",
"++++++++++++++++++++++  X#########XXXX.oo       ++++   +++++++++++++++++++++++++++++++++++++++++++++",
"+++++++++++++++++++++ XX##########XX..#$$$$$$$##  + OO +++++++++++++++++++++++++++++++++++++++++++++",
"++++++++++++++++++++ XX###########X.#$$$$$$$$$$$## OO   ++++++++++++++++++++++++++++++++++++++++++++",
"+++++++++++++++++++ XX############.#$$$$$$$$$$$$$##OOooo +++++++++++++++++++++++++++++++++++++++++++",
"+++++++++++++++++++ XX###########.#$$$$$$$$$$$$$$##oooooo ++++++++++++++++++++++++++++++++++++++++++",
"+++++++++++++++++++ XX##########.##$$$$$$$$$$$$$$##OOooooo +++++++++++++++++++++++++++++++++++++++++",
"+++++++++++++++++++ XX#########.##$$$$$$$$$$$$$$$##OOOoooo ++++++++++   ++++++++++++++++++++++++++++",
"+++++++++++++++++++ XX#########.##$$$$$$$$$$$$$$$##OOOoOOO ++++++++++ $$ +++++++++++++++++++++++++++",
"++++++++++++++++++ @@XX###%%##.###$$$$$$$$$$$$$$$## OOOOOO ++++++++++ $$$  +++++++++++++++++++++++++",
"++++++++++++++++++ @@.%%XX%%XX%###$$$$$$$$$&&#$$$#o   OOOO +++++++++++ $$$$ ++++++++++++++++++++++++",
"++++++++++++++++++   X%%######%###$$$$$$$$$&&$$$# oo OOOOO ++++++++++++ $$$$ +++++++++++++++++++++++",
"+++++++++++++++++++++  ########.%%$$$$$$&&#$$$$$oOOOOOOOOO +++++++++++++ $$$# ++++++++++++++++++++++",
"+++++++++++++++++++++++        .%%XX&&XX&&$$$$$OOOOOOOOOO ++++++++      + #### +++++++++++++++++++++",
"+++++++++++++++++++++++++++++++ ##$$&&$$$$$$$oOOOOOOOOOO ++++++++ XXXXXX +  ### ++++++++++++++++++++",
"++++++++++++++++++++++++++++++++ ##$$$$$$$  OOOOOOOOOOO ++++++++ XXXXXXXX ++ ### +++++++++++++++++++",
"+++++++++++++++++++++++++++++++++    ooooo OOOOOOOO    ++     ++ XXXXXXX## + ### +++++++++++++++++++",
"+++++++++++++++++++++++++++++++++++ ooooooOOOOOOO  +++++ OOOO ++ XXXXXXX### #### +++++++++++++++++++",
"++++++++++++++++++++++++++++++  +++ ooooooOOOOOOO       OOOO +++ XXXXXX######### +++++++++++++++++++",
"++++++++++++++++++++++++++++++ O + ooOOOOOOOOOOOOOOOOOOOOOO      XXXXX ######### +++++++++++++++++++",
"++++++++++++++++++++++++++++++ OO ooOOOOOOOOOOOOOOOOOOOOOOOOOOOO  XXXXX ####### ++++++++++++++++++++",
"++++++++++++++++++++++++++++++ OOoooOOOOOOOOOOOOOOOOOOOOOOOOOOOOO######  ##### +++++++++++++++++++++",
"+++++++++++++++++++++++++++++++ OoooOOOOOOOOOOOOOOOOOOOOOOOOOOOOOO##### +     ++++++++++++++++++++++",
"++++++++++++++++++++++++++++++++ oooOOOOOOOOOOOOOOOOOOOOOOOOOOOOOO##### ++++++++++++++++++++++++++++",
"++++++++++++++++++++++++++++++++ oooOOOOOOOOOOOOOOOOOOOOOOOOOOOOOO##### ++++++++++++++++++++++++++++",
"++++++++++++++++++++++++++++++++ oooOOOOOOOOOOOOOoOOOOOOOoOOOOOOOO#### +++++++++++++++++++++++++++++",
"++++++++++++++++++++++++++++++++ oooOOOOOOOOOOOOOoOOOoOOoOOOOOOOOO    ++++++++++++++++++++++++++++++",
"++++++++++++++++++++++++++++++++ oooOOOOOOOOOOOOOOOOOoooOOOOOOOOO ++++++++++++++++++++++++++++++++++",
"++++++++++++++++++++++++++++++++ ooooOOOOOOoOOOOOOoOOoooOOOOOOOO +++++++++++++++++++++++++++++++++++",
"++++++++++++++++++++++++++++++++ oooooOOOOOooOOOOOoooooOOOOOOOO  ++  +++++++++++++++++++++++++++++++",
"+++++++++++++++++++++++++++++++ oooooooooooooOOOOOoooooOOOOOOOO  + O +++++++++++++++++++++++++++++++",
"+++++++++++++++++++++++++++++++ ooooo        OOOOO   ooOOOOOOOOO  OO +++++++++++++++++++++++++++++++",
"++++++++++++++++++++++++++++++ oooooo +++++++ OOOOO  ooOOOOOOOOOOOOO +++++++++++++++++++++++++++++++",
"++++++++++++++++++++++++++++++ ooooo ++++++++ OOOOO + ooOOOOOOOOOOO ++++++++++++++++++++++++++++++++",
"++++++++++++++++++++++++++++++ ooooo ++++++++ OOOOO ++ ooOOOOOOOOO +++++++++++++++++++++++++++++++++",
"+++++++++++++++++++++++++++++ ooooo ++++++++++ OOOO +++      oOOOO +++++++++++++++++++++++++++++++++",
"+++++++++++++++++++++++++++++ ooooo ++++++++++ OOOO ++++++++ oOOOO +++++++++++++++++++++++++++++++++",
"++++++++++++++++++++++++++++ ooooo ++++++++++ OOOOO +++++++ oOOOO ++++++++++++++++++++++++++++++++++",
"++++++++++++++++++++++++++++ ooooo ++++++++++ OOOOO +++++++ OOOOO ++++++++++++++++++++++++++++++++++",
"++++++++++++++++++++++++++++ oooo +++++++++++ OOOO ++++++++ OOOOo ++++++++++++++++++++++++++++++++++",
"++++++++++++++++++++++++++++++++++++++++++++++++++++++++++++++++++++++++++++++++++++++++++++++++++++",
"++++++++++++++++++++++++++++++++++++++++++++++++++++++++++++++++++++++++++++++++++++++++++++++++++++",
"++++++++++++++++++++++++++++++++++++++++++++++++++++++++++++++++++++++++++++++++++++++++++++++++++++",
"++++++++++++++++++++++++++++++++++++++++++++++++++++++++++++++++++++++++++++++++++++++++++++++++++++",
"++++++++++++++++++++++++++++++++++++++++++++++++++++++++++++++++++++++++++++++++++++++++++++++++++++",
"++++++++++++++++++++++++++++++++++++++++++++++++++++++++++++++++++++++++++++++++++++++++++++++++++++",
"++++++++++++++++++++++++++++++++++++++++++++++++++++++++++++++++++++++++++++++++++++++++++++++++++++",
"++++++++++++++++++++++++++++++++++++++++++++++++++++++++++++++++++++++++++++++++++++++++++++++++++++",
"++++++++++++++++++++++++++++++++++++++++++++++++++++++++++++++++++++++++++++++++++++++++++++++++++++",
"++++++++++++++++++++++++++++++++++++++++++++++++++++++++++++++++++++++++++++++++++++++++++++++++++++",
"++++++++++++++++++++++++++++++++++++++++++++++++++++++++++++++++++++++++++++++++++++++++++++++++++++",
"++++++++++++++++++++++++++++++++++++++++++++++++++++++++++++++++++++++++++++++++++++++++++++++++++++",
"++++++++++++++++++++++++++++++++++++++++++++++++++++++++++++++++++++++++++++++++++++++++++++++++++++",
"++++++++++++++++++++++++++++++++++++++++++++++++++++++++++++++++++++++++++++++++++++++++++++++++++++",
"++++++++++++++++++++++++++++++++++++++++++++++++++++++++++++++++++++++++++++++++++++++++++++++++++++",
"++++++++++++++++++++++++++++++++++++++++++++++++++++++++++++++++++++++++++++++++++++++++++++++++++++",
"++++++++++++++++++++++++++++++++++++++++++++++++++++++++++++++++++++++++++++++++++++++++++++++++++++",
"++++++++++++++++++++++++++++++++++++++++++++++++++++++++++++++++++++++++++++++++++++++++++++++++++++",
"++++++++++++++++++++++++++++++++++++++++++++++++++++++++++++++++++++++++++++++++++++++++++++++++++++",
"++++++++++++++++++++++++++++++++++++++++++++++++++++++++++++++++++++++++++++++++++++++++++++++++++++",
"++++++++++++++++++++++++++++++++++++++++++++++++++++++++++++++++++++++++++++++++++++++++++++++++++++",
"++++++++++++++++++++++++++++++++++++++++++++++++++++++++++++++++++++++++++++++++++++++++++++++++++++",
"++++++++++++++++++++++++++++++++++++++++++++++++++++++++++++++++++++++++++++++++++++++++++++++++++++",
"++++++++++++++++++++++++++++++++++++++++++++++++++++++++++++++++++++++++++++++++++++++++++++++++++++"
};
