/* XPM */
static char *result[] = {
/* columns rows colors chars-per-pixel */
"100 100 11 1 ",
"  c #1C121B",
". c #392022",
"X c #03396B",
"o c #144A4C",
"O c #34964C",
"+ c #8C9B37",
"@ c #E59B6A",
"# c #3005D8",
"$ c #780BF7",
"% c #F3CBA1",
"& c #DDE2E9",
/* pixels */
"++++++++++++++++++++++++++++++++++++++++++++++++++++++++++++++++++++++++++++++++++++++++++++++++++++",
"++++++++++++++++++++++++++++++++++++++++++++++++++++++++++++++++++++++++++++++++++++++++++++++++++++",
"++++++++++++++++++++++++++++++++++++++++++++++++++++++++++++++++++++++++++++++++++++++++++++++++++++",
"++++++++++++++++++++++++++++++++++++++++++++++++++++++++++++++++++++++++++++++++++++++++++++++++++++",
"++++++++++++++++++++++++++++++++++++++++++++++++++++++++++++++++++++++++++++++++++++++++++++++++++++",
"++++++++++++++++++++++++++++++++++++++++++++++++++++++++++++++++++++++++++++++++++++++++++++++++++++",
"++++++++++++++++++++++++++++++++++++++++++++++++++++++++++++++++++++++++++++++++++++++++++++++++++++",
"++++++++++++++++++++++++++++++++++++++++++++++++++++++++++++++++++++++++++++++++++++++++++++++++++++",
"++++++++++++++++++++++++++++++++++++++++++++++++++++++++++++++++++++++++++++++++++++++++++++++++++++",
"++++++++++++++++++++++++++++++++++++++++++++++++++++++++++++++++++++++++++++++++++++++++++++++++++++",
"++++++++++++++++++++++++++++++++++++++++++++++++++++++++++++++++++++++++++++++++++++++++++++++++++++",
"++++++++++++++++++++++++++++++++++++++++++++++++++++++++++++++++++++++++++++++++++++++++++++++++++++",
"++++++++++++++++++++++++++++++++++++++++++++++++++++++++++++++++++++++++++++++++++++++++++++++++++++",
"++++++++++++++++++++++++++++++++++++++++++++++++++++++++++++++++++++++++++++++++++++++++++++++++++++",
"++++++++++++++++++++++++++++++++++++++++++++++++++++++++++++++++++++++++++++++++++++++++++++++++++++",
"++++++++++++++++++++++++++++++++++++++++++++++++++++++++++++++++++++++++++++++++++++++++++++++++++++",
"++++++++++++++++++++++++++++++++++++++++++++++++++++++++++++++++++++++++++++++++++++++++++++++++++++",
"++++++++++++++++++++++++++++++++++++++++++++++++++++++++++++++++++++++++++++++++++++++++++++++++++++",
"++++++++++++++++++++++++++++++++++++++++++++++++++++++++++++++++++++++++++++++++++++++++++++++++++++",
"++++++++++++++++++++++++++++++++++++++++++++++++++++++++++++++++++++++++++++++++++++++++++++++++++++",
"++++++++++++++++++++++++++++++++++++++++++++++++++++++++++++++++++++++++++++++++++++++++++++++++++++",
"++++++++++++++++++++++++++++++++++++++++++++++++++++++++++++++++++++++++++++++++++++++++++++++++++++",
"++++++++++++++++++++++++++++++++++++++++++++++++++++++++++++++++++++++++++++++++++++++++++++++++++++",
"++++++++++++++++++++++++++++++++++++++++++++++++++++++++++++++++++++++++++++++++++++++++++++++++++++",
"++++++++++++++++++++++++++++++++++++++++++++++++++++++++++++++++++++++++++++++++++++++++++++++++++++",
"++++++++++++++++++++++++++++++++++++++++++++++++++++++++++++++++++++++++++++++++++++++++++++++++++++",
"++++++++++++++++++++++++++++++++++++++++++++++++++++++++++++++++++++++++++++++++++++++++++++++++++++",
"++++++++++++++++++++++++++++++++++++++++++++++++++++++++++++++++++++++++++++++++++++++++++++++++++++",
"++++++++++++++++++++++++++++++++++++++++++++++++++++++++++++++++++++++++++++++++++++++++++++++++++++",
"++++++++++++++++++++++++++++++++++++++++++++++++++++++++++++++++++++++++++++++++++++++++++++++++++++",
"++++++++++++++++++++++++++++++++++++++++++++++++++++++++++++++++++++++++++++++++++++++++++++++++++++",
"++++++++++++++++++++++++++++++++++++++++++++++++++++++++++++++++++++++++++++++++++++++++++++++++++++",
"+++++++++++++++++++++++++++           +    +++++++++++++++++++++++++++++++++++++++++++++++++++++++++",
"++++++++++++++++++++++++   X#####XXXXX ooo +++++++++++++++++++++++++   +++++++++++++++++++++++++++++",
"++++++++++++++++++++++  X#########XXXX.oo       ++++   +++++++++    $$$  +++++++++++++++++++++++++++",
"+++++++++++++++++++++ XX##########XX..#$$$$$$$##  + OO ++++++++ ####$$$$$ ++++++++++++++++++++++++++",
"++++++++++++++++++++ XX###########X.#$$$$$$$$$$$## OO   ++++++ ######$$$$$ +++++++++++++++++++++++++",
"+++++++++++++++++++ XX############.#$$$$$$$$$$$$$##OOooo ++++ #######  $$$ +++++++++++++++++++++++++",
"+++++++++++++++++++ XX###########.#$$$$$$$$$$$$$$##oooooo +++ ####   ++  $ +++++++++++++++++++++++++",
"+++++++++++++++++++ XX##########.##$$$$$$$$$$$$$$##OOooooo ++ ### +++++++  +++++++++++++++++++++++++",
"+++++++++++++++++++ XX#########.##$$$$$$$$$$$$$$$##OOOoooo ++ ### ++++++++++++++++++++++++++++++++++",
"+++++++++++++++++++ XX#########.##$$$$$$$$$$$$$$$##OOOoOOO ++ ####     +++++++++++++++++++++++++++++",
"++++++++++++++++++ @@XX###%%##.###$$$$$$$$$$$$$$$## OOOOOO ++ ######### ++++++++++++++++++++++++++++",
"++++++++++++++++++ @@.%%XX%%XX%###$$$$$$$$$&&#$$$#o   OOOO +++ ######### +++++++++++++++++++++++++++",
"++++++++++++++++++   X%%######%###$$$$$$$$$&&$$$# oo OOOOO ++++ ######### ++++++++++++++++++++++++++",
"+++++++++++++++++++++  ########.%%$$$$$$&&#$$$$$oOOOOOOOOO +++++    ###### +++++++++++++++++++++++++",
"+++++++++++++++++++++++        .%%XX&&XX&&$$$$$OOOOOOOOOO ++++++++++ ##### +++++++++++++++++++++++++",
"+++++++++++++++++++++++++++++++ ##$$&&$$$$$$$oOOOOOOOOOO ++++++++++++ #### +++++++++++++++++++++++++",
"++++++++++++++++++++++++++++++++ ##$$$$$$$  OOOOOOOOOOO +++++++++++++ #### +++++++++++++++++++++++++",
"+++++++++++++++++++++++++++++++++    ooooo OOOOOOOO    ++++++++++++++ ###XX ++++++++++++++++++++++++",
"+++++++++++++++++++++++++++++++++++ ooooooOOOOOOO  +++++++    ++++++++ XXXX ++++++++++++++++++++++++",
"++++++++++++++++++++++++++++++  +++ ooooooOOOOOOO   ++++  OOO ++++++++ XXXX ++++++++++++++++++++++++",
"++++++++++++++++++++++++++++++ O + ooOOOOOOOOOOOOOOO    OOOO +++++++++ XXXX ++++++++++++++++++++++++",
"++++++++++++++++++++++++++++++ OO ooOOOOOOOOOOOOOOOOOOOOOOO     +++++ XXXXX ++++++++++++++++++++++++",
"++++++++++++++++++++++++++++++ OOoooOOOOOOOOOOOOOOOOOOOOOOOOOOOO     XXXXXX ++++++++++++++++++++++++",
"+++++++++++++++++++++++++++++++ OoooOOOOOOOOOOOOOOOOOOOOOOOOOOOOO#####XXXXX ++++++++++++++++++++++++",
"++++++++++++++++++++++++++++++++ oooOOOOOOOOOOOOOOOOOOOOOOOOOOOOOO#####XXX +++++++++++++++++++++++++",
"++++++++++++++++++++++++++++++++ oooOOOOOOOOOOOOOOOOOOOOOOOOOOOOOO#####XXX +++++++++++++++++++++++++",
"++++++++++++++++++++++++++++++++ oooOOOOOOOOOOOOOOOOOOOOOOOOOOOOOO#####XX ++++++++++++++++++++++++++",
"++++++++++++++++++++++++++++++++ oooOOOOOOOOOOOOOoOOOOOOOoOOOOOOOO#####  +++++++++++++++++++++++++++",
"++++++++++++++++++++++++++++++++ oooOOOOOOOOOOOOOoOOOoOOOoOOOOOOOO     +++++++++++++++++++++++++++++",
"+++++++++++++++++++++++++++++++++ oooOOOOOOOOOOOooOOOooooooOOOOOOOO ++  ++++++++++++++++++++++++++++",
"+++++++++++++++++++++++++++++++++ ooooOOOOOOOOOOoooooooooooOOOOOOOO + O ++++++++++++++++++++++++++++",
"+++++++++++++++++++++++++++++++++ ooooooooOOOOOooooooooooo OOOOOOOO  OO ++++++++++++++++++++++++++++",
"+++++++++++++++++++++++++++++++++ ooooo  OOOOOO  oooooooo + OOOOOOOO OO ++++++++++++++++++++++++++++",
"++++++++++++++++++++++++++++++++++ oooo  OOOOO + ooooooooo  OOOOOOOOOO  ++++++++++++++++++++++++++++",
"++++++++++++++++++++++++++++++++++ oooooOOOOOO + oooooooooooOOOOOOOOOOO ++++++++++++++++++++++++++++",
"++++++++++++++++++++++++++++++++++ oooooOOOOO +++ oooooooooooOOOOOOOOOO ++++++++++++++++++++++++++++",
"++++++++++++++++++++++++++++++++++ oooooOOOOO ++++ ooooooooo  OOO   OOO ++++++++++++++++++++++++++++",
"+++++++++++++++++++++++++++++++++++ oooOOOOO ++++++     oooo +   ++ OOO ++++++++++++++++++++++++++++",
"+++++++++++++++++++++++++++++++++++ oooOOOOO ++++++++++ oooo ++++++ OOOO +++++++++++++++++++++++++++",
"++++++++++++++++++++++++++++++++++ oooOOOOO ++++++++++ oooo ++++++ OOOOO +++++++++++++++++++++++++++",
"++++++++++++++++++++++++++++++++++ oooOOOOO +++++++++ ooooo ++++++ OOOOO +++++++++++++++++++++++++++",
"++++++++++++++++++++++++++++++++++ oooOOOO ++++++++++ oooo +++++++ OOOOO +++++++++++++++++++++++++++",
"++++++++++++++++++++++++++++++++++++++++++++++++++++++++++++++++++++++++++++++++++++++++++++++++++++",
"++++++++++++++++++++++++++++++++++++++++++++++++++++++++++++++++++++++++++++++++++++++++++++++++++++",
"++++++++++++++++++++++++++++++++++++++++++++++++++++++++++++++++++++++++++++++++++++++++++++++++++++",
"++++++++++++++++++++++++++++++++++++++++++++++++++++++++++++++++++++++++++++++++++++++++++++++++++++",
"++++++++++++++++++++++++++++++++++++++++++++++++++++++++++++++++++++++++++++++++++++++++++++++++++++",
"++++++++++++++++++++++++++++++++++++++++++++++++++++++++++++++++++++++++++++++++++++++++++++++++++++",
"++++++++++++++++++++++++++++++++++++++++++++++++++++++++++++++++++++++++++++++++++++++++++++++++++++",
"++++++++++++++++++++++++++++++++++++++++++++++++++++++++++++++++++++++++++++++++++++++++++++++++++++",
"++++++++++++++++++++++++++++++++++++++++++++++++++++++++++++++++++++++++++++++++++++++++++++++++++++",
"++++++++++++++++++++++++++++++++++++++++++++++++++++++++++++++++++++++++++++++++++++++++++++++++++++",
"++++++++++++++++++++++++++++++++++++++++++++++++++++++++++++++++++++++++++++++++++++++++++++++++++++",
"++++++++++++++++++++++++++++++++++++++++++++++++++++++++++++++++++++++++++++++++++++++++++++++++++++",
"++++++++++++++++++++++++++++++++++++++++++++++++++++++++++++++++++++++++++++++++++++++++++++++++++++",
"++++++++++++++++++++++++++++++++++++++++++++++++++++++++++++++++++++++++++++++++++++++++++++++++++++",
"++++++++++++++++++++++++++++++++++++++++++++++++++++++++++++++++++++++++++++++++++++++++++++++++++++",
"++++++++++++++++++++++++++++++++++++++++++++++++++++++++++++++++++++++++++++++++++++++++++++++++++++",
"++++++++++++++++++++++++++++++++++++++++++++++++++++++++++++++++++++++++++++++++++++++++++++++++++++",
"++++++++++++++++++++++++++++++++++++++++++++++++++++++++++++++++++++++++++++++++++++++++++++++++++++",
"++++++++++++++++++++++++++++++++++++++++++++++++++++++++++++++++++++++++++++++++++++++++++++++++++++",
"++++++++++++++++++++++++++++++++++++++++++++++++++++++++++++++++++++++++++++++++++++++++++++++++++++",
"++++++++++++++++++++++++++++++++++++++++++++++++++++++++++++++++++++++++++++++++++++++++++++++++++++",
"++++++++++++++++++++++++++++++++++++++++++++++++++++++++++++++++++++++++++++++++++++++++++++++++++++",
"++++++++++++++++++++++++++++++++++++++++++++++++++++++++++++++++++++++++++++++++++++++++++++++++++++",
"++++++++++++++++++++++++++++++++++++++++++++++++++++++++++++++++++++++++++++++++++++++++++++++++++++",
"++++++++++++++++++++++++++++++++++++++++++++++++++++++++++++++++++++++++++++++++++++++++++++++++++++",
"++++++++++++++++++++++++++++++++++++++++++++++++++++++++++++++++++++++++++++++++++++++++++++++++++++"
};
