/* XPM */
static char *result[] = {
/* columns rows colors chars-per-pixel */
"100 100 11 1 ",
"  c #1C121B",
". c #392022",
"X c #03396B",
"o c #144A4C",
"O c #34964C",
"+ c #8C9B37",
"@ c #E59B6A",
"# c #3005D8",
"$ c #780BF7",
"% c #F3CBA1",
"& c #DDE2E9",
/* pixels */
"++++++++++++++++++++++++++++++++++++++++++++++++++++++++++++++++++++++++++++++++++++++++++++++++++++",
"++++++++++++++++++++++++++++++++++++++++++++++++++++++++++++++++++++++++++++++++++++++++++++++++++++",
"++++++++++++++++++++++++++++++++++++++++++++++++++++++++++++++++++++++++++++++++++++++++++++++++++++",
"++++++++++++++++++++++++++++++++++++++++++++++++++++++++++++++++++++++++++++++++++++++++++++++++++++",
"++++++++++++++++++++++++++++++++++++++++++++++++++++++++++++++++++++++++++++++++++++++++++++++++++++",
"++++++++++++++++++++++++++++++++++++++++++++++++++++++++++++++++++++++++++++++++++++++++++++++++++++",
"++++++++++++++++++++++++++++++++++++++++++++++++++++++++++++++++++++++++++++++++++++++++++++++++++++",
"++++++++++++++++++++++++++++++++++++++++++++++++++++++++++++++++++++++++++++++++++++++++++++++++++++",
"++++++++++++++++++++++++++++++++++++++++++++++++++++++++++++++++++++++++++++++++++++++++++++++++++++",
"++++++++++++++++++++++++++++++++++++++++++++++++++++++++++++++++++++++++++++++++++++++++++++++++++++",
"++++++++++++++++++++++++++++++++++++++++++++++++++++++++++++++++++++++++++++++++++++++++++++++++++++",
"++++++++++++++++++++++++++++++++++++++++++++++++++++++++++++++++++++++++++++++++++++++++++++++++++++",
"++++++++++++++++++++++++++++++++++++++++++++++++++++++++++++++++++++++++++++++++++++++++++++++++++++",
"++++++++++++++++++++++++++++++++++++++++++++++++++++++++++++++++++++++++++++++++++++++++++++++++++++",
"++++++++++++++++++++++++++++++++++++++++++++++++++++++++++++++++++++++++++++++++++++++++++++++++++++",
"++++++++++++++++++++++++++++++++++++++++++++++++++++++++++++++++++++++++++++++++++++++++++++++++++++",
"++++++++++++++++++++++++++++++++++++++++++++++++++++++++++++++++++++++++++++++++++++++++++++++++++++",
"++++++++++++++++++++++++++++++++++++++++++++++++++++++++++++++++++++++++++++++++++++++++++++++++++++",
"++++++++++++++++++++++++++++++++++++++++++++++++++++++++++++++++++++++++++++++++++++++++++++++++++++",
"++++++++++++++++++++++++++++++++++++++++++++++++++++++++++++++++++++++++++++++++++++++++++++++++++++",
"++++++++++++++++++++++++++++++++++++++++++++++++++++++++++++++++++++++++++++++++++++++++++++++++++++",
"++++++++++++++++++++++++++++++++++++++++++++++++++++++++++++++++++++++++++++++++++++++++++++++++++++",
"++++++++++++++++++++++++++++++++++++++++++++++++++++++++++++++++++++++++++++++++++++++++++++++++++++",
"++++++++++++++++++++++++++++++++++++++++++++++++++++++++++++++++++++++++++++++++++++++++++++++++++++",
"++++++++++++++++++++++++++++++++++++++++++++++++++++++++++++++++++++++++++++++++++++++++++++++++++++",
"++++++++++++++++++++++++++++++++++++++++++++++++++++++++++++++++++++++++++++++++++++++++++++++++++++",
"++++++++++++++++++++++++++++++++++++++++++++++++++++++++++++++++++++++++++++++++++++++++++++++++++++",
"++++++++++++++++++++++++++++++++++++++++++++++++++++++++++++++++++++++++++++++++++++++++++++++++++++",
"++++++++++++++++++++++++++++++++++++++++++++++++++++++++++++++++++++++++++++++++++++++++++++++++++++",
"++++++++++++++++++++++++++++++++++++++++++++++++++++++++++++++++++++++++++++++++++++++++++++++++++++",
"++++++++++++++++++++++++++++++++++++++++++++++++++++++++++++++++++++++++++++++++++++++++++++++++++++",
"++++++++++++++++++++++++++++++++++++++++++++++++++++++++++++++++++++++++++++++++++++++++++++++++++++",
"++++++++++++++++++++++++++++++++++++++++++++++++++++++++++++++++++++++++++++++++++++++++++++++++++++",
"++++++++++++++++++++++++++++++++++++++++++++++++++++++++    +           ++++++++++++++++++++++++++++",
"++++++++++++++++++++++++++++++++++++++++++++++++++++++++ ooo XXXXX#####X   +++++++++++++++++++++++++",
"+++++++++++++++++++++++++++   ++++++++++++   ++++         oo.XXXX#########X  +++++++++++++++++++++++",
"+++++++++++++++++++++++++++ $$ +++++++++++ OO    ###$$$$$$$##.XX###########XX ++++++++++++++++++++++",
"+++++++++++++++++++++++++++ $$$ +++++++++   OOO###$$$$$$$$$$$#.#############XX +++++++++++++++++++++",
"++++++++++++++++++++++++++++ $$$ +++++++ oooOOO##$$$$$$$$$$$$$#.#############XX ++++++++++++++++++++",
"++++++++++++++++++++++++++++ $$$$ +++++ oooooo##$$$$$$$$$$$$$$##.############XX ++++++++++++++++++++",
"+++++++++++++++++++++++++++++ $$$ ++++ oooooOO##$$$$$$$$$$$$$$$##.###########XX ++++++++++++++++++++",
"+++++++++++++++++++++++++++++ $$$$ +++ ooooOOO##$$$$$$$$$$$$$$$$##.##########XX ++++++++++++++++++++",
"++++++++++++++++++++++++++++++ $$$ +++ OOOoOOOo#$$$$$$$$$$$$$$$$###.#########XX ++++++++++++++++++++",
"++++++++++++++++++++++++++++++ ### +++ OOOOO   ##$$$$$$$$$$$$$$$###.###%%###XX@@ +++++++++++++++++++",
"+++++++++++++++++++++++++++   #### ++++ OOOO   o#$$$#&&$$$$$$$$$###%.XX%%XX%%.@@ +++++++++++++++++++",
"+++++++++++++++++++++++    ###### +++++ OOOOO oo #$$$&&$$$$$$$$$%%.%.######%%X   +++++++++++++++++++",
"+++++++++++++++++++++  ######### ++++++ OOOOOOOOOo#$$$$#&&XX&&XX%%..########  ++++++++++++++++++++++",
"++++++++++++++++++++ ########## ++++++++ OOOOOOOOOO#$$$$&&$$&&$$##          ++++++++++++++++++++++++",
"+++++++++++++++++++ #########  ++++++++++ OOOOOOOOOOoo$$$$$$$$$## ++++++++++++++++++++++++++++++++++",
"++++++++++++++++++ ######    +++++++++++++ OOOOOOOOOOO  ooooo    +++++++++++++++++++++++++++++++++++",
"++++++++++++++++++ ##### ++++++++++++++++++    OOOOOOOO ooooo ++++++++++++++++++++++++++++++++++++++",
"++++++++++++++++++ ##### +++++++++++     ++++++  OOOOOOOoooooo +++++++++++++++++++++++++++++++++++++",
"++++++++++++++++++ X###X +++++++++++ OOOO ++++   OOOOOOOoooooo +++  ++++++++++++++++++++++++++++++++",
"++++++++++++++++++ XXXXX ++++++++++++ OOOO    OOOOOOOOOOOOOOOoo + O ++++++++++++++++++++++++++++++++",
"++++++++++++++++++ XXXXXX    +++++     OOOOOOOOOOOOOOOOOOOOOOOoo OO ++++++++++++++++++++++++++++++++",
"++++++++++++++++++ XXXXXXXXXX     OOOOOOOOOOOOOOOOOOOOOOOOOOOOoooOO ++++++++++++++++++++++++++++++++",
"++++++++++++++++++ XXXXXXXXX#####OOOOOOOOOOOOOOOOOOOOOOOOOOOOOoooO +++++++++++++++++++++++++++++++++",
"+++++++++++++++++++ XXXXXXX#####OOOOOOOOOOOOOOOOOOOOOOOOOOOOOOooo ++++++++++++++++++++++++++++++++++",
"++++++++++++++++++++ XXXXXX#####OOOOOOOOOOOOOOOOOOOOOOOOOOOOOOooo ++++++++++++++++++++++++++++++++++",
"+++++++++++++++++++++  XXXX#####OOOOOOOOOOOOOOOOOOOOOOOOOOOOOOooo ++++++++++++++++++++++++++++++++++",
"+++++++++++++++++++++++   X#####OOOOOOOOoOOOOOOOoOOOOOOOOOOOOOooo ++++++++++++++++++++++++++++++++++",
"++++++++++++++++++++++++++      OOOOOOOOoOOOoOOOoOOOOOOOOOOOOOooo ++++++++++++++++++++++++++++++++++",
"++++++++++++++++++++++++++++++++ OOOOOOOoooooOOOoOOOOOOOOOOOOooo +++++++++++++++++++++++++++++++++++",
"+++++++++++++++++++++++++++  ++++ OOOOOOOooooooooOOOOOoOOOOOoooo +++++++++++++++++++++++++++++++++++",
"+++++++++++++++++++++++++++ O +++ OOOOOOOooooooooOOOOOoooooooooo +++++++++++++++++++++++++++++++++++",
"+++++++++++++++++++++++++++ OO   OOOOOOOOooooooooOOOOO     ooooo +++++++++++++++++++++++++++++++++++",
"+++++++++++++++++++++++++++ OOOOOOOOOOOOOoooooooo OOOOO ++ oooooo ++++++++++++++++++++++++++++++++++",
"+++++++++++++++++++++++++++ OOOOOOOOOOOOOoooooooo OOOOO +++ ooooo ++++++++++++++++++++++++++++++++++",
"++++++++++++++++++++++++++++ OOOOOOOOOOOoooooooo  OOOOO +++ ooooo ++++++++++++++++++++++++++++++++++",
"++++++++++++++++++++++++++++ OOOO  OOOOoooooooo ++ OOOOO ++ ooooo ++++++++++++++++++++++++++++++++++",
"++++++++++++++++++++++++++++ OOOO +  oooo      +++ OOOOO ++ ooooo ++++++++++++++++++++++++++++++++++",
"++++++++++++++++++++++++++++ OOOO ++ oooo ++++++++ OOOOO + oooooo ++++++++++++++++++++++++++++++++++",
"++++++++++++++++++++++++++++ OOOO ++ ooooo ++++++++ OOOOO  ooooo +++++++++++++++++++++++++++++++++++",
"+++++++++++++++++++++++++++++ OOO ++ ooooo ++++++++ OOOOO  oooo ++++++++++++++++++++++++++++++++++++",
"++++++++++++++++++++++++++++++   ++++ oooo +++++++++ OOOO +    +++++++++++++++++++++++++++++++++++++",
"++++++++++++++++++++++++++++++++++++++++++++++++++++++++++++++++++++++++++++++++++++++++++++++++++++",
"++++++++++++++++++++++++++++++++++++++++++++++++++++++++++++++++++++++++++++++++++++++++++++++++++++",
"++++++++++++++++++++++++++++++++++++++++++++++++++++++++++++++++++++++++++++++++++++++++++++++++++++",
"++++++++++++++++++++++++++++++++++++++++++++++++++++++++++++++++++++++++++++++++++++++++++++++++++++",
"++++++++++++++++++++++++++++++++++++++++++++++++++++++++++++++++++++++++++++++++++++++++++++++++++++",
"++++++++++++++++++++++++++++++++++++++++++++++++++++++++++++++++++++++++++++++++++++++++++++++++++++",
"++++++++++++++++++++++++++++++++++++++++++++++++++++++++++++++++++++++++++++++++++++++++++++++++++++",
"++++++++++++++++++++++++++++++++++++++++++++++++++++++++++++++++++++++++++++++++++++++++++++++++++++",
"++++++++++++++++++++++++++++++++++++++++++++++++++++++++++++++++++++++++++++++++++++++++++++++++++++",
"++++++++++++++++++++++++++++++++++++++++++++++++++++++++++++++++++++++++++++++++++++++++++++++++++++",
"++++++++++++++++++++++++++++++++++++++++++++++++++++++++++++++++++++++++++++++++++++++++++++++++++++",
"++++++++++++++++++++++++++++++++++++++++++++++++++++++++++++++++++++++++++++++++++++++++++++++++++++",
"++++++++++++++++++++++++++++++++++++++++++++++++++++++++++++++++++++++++++++++++++++++++++++++++++++",
"++++++++++++++++++++++++++++++++++++++++++++++++++++++++++++++++++++++++++++++++++++++++++++++++++++",
"++++++++++++++++++++++++++++++++++++++++++++++++++++++++++++++++++++++++++++++++++++++++++++++++++++",
"++++++++++++++++++++++++++++++++++++++++++++++++++++++++++++++++++++++++++++++++++++++++++++++++++++",
"++++++++++++++++++++++++++++++++++++++++++++++++++++++++++++++++++++++++++++++++++++++++++++++++++++",
"++++++++++++++++++++++++++++++++++++++++++++++++++++++++++++++++++++++++++++++++++++++++++++++++++++",
"++++++++++++++++++++++++++++++++++++++++++++++++++++++++++++++++++++++++++++++++++++++++++++++++++++",
"++++++++++++++++++++++++++++++++++++++++++++++++++++++++++++++++++++++++++++++++++++++++++++++++++++",
"++++++++++++++++++++++++++++++++++++++++++++++++++++++++++++++++++++++++++++++++++++++++++++++++++++",
"++++++++++++++++++++++++++++++++++++++++++++++++++++++++++++++++++++++++++++++++++++++++++++++++++++",
"++++++++++++++++++++++++++++++++++++++++++++++++++++++++++++++++++++++++++++++++++++++++++++++++++++",
"++++++++++++++++++++++++++++++++++++++++++++++++++++++++++++++++++++++++++++++++++++++++++++++++++++",
"++++++++++++++++++++++++++++++++++++++++++++++++++++++++++++++++++++++++++++++++++++++++++++++++++++"
};
