/* XPM */
static char *result[] = {
/* columns rows colors chars-per-pixel */
"100 100 11 1 ",
"  c #1C121B",
". c #392022",
"X c #03396B",
"o c #144A4C",
"O c #34964C",
"+ c #8C9B37",
"@ c #E59B6A",
"# c #3005D8",
"$ c #780BF7",
"% c #F3CBA1",
"& c #DDE2E9",
/* pixels */
"++++++++++++++++++++++++++++++++++++++++++++++++++++++++++++++++++++++++++++++++++++++++++++++++++++",
"++++++++++++++++++++++++++++++++++++++++++++++++++++++++++++++++++++++++++++++++++++++++++++++++++++",
"++++++++++++++++++++++++++++++++++++++++++++++++++++++++++++++++++++++++++++++++++++++++++++++++++++",
"++++++++++++++++++++++++++++++++++++++++++++++++++++++++++++++++++++++++++++++++++++++++++++++++++++",
"++++++++++++++++++++++++++++++++++++++++++++++++++++++++++++++++++++++++++++++++++++++++++++++++++++",
"++++++++++++++++++++++++++++++++++++++++++++++++++++++++++++++++++++++++++++++++++++++++++++++++++++",
"++++++++++++++++++++++++++++++++++++++++++++++++++++++++++++++++++++++++++++++++++++++++++++++++++++",
"++++++++++++++++++++++++++++++++++++++++++++++++++++++++++++++++++++++++++++++++++++++++++++++++++++",
"++++++++++++++++++++++++++++++++++++++++++++++++++++++++++++++++++++++++++++++++++++++++++++++++++++",
"++++++++++++++++++++++++++++++++++++++++++++++++++++++++++++++++++++++++++++++++++++++++++++++++++++",
"++++++++++++++++++++++++++++++++++++++++++++++++++++++++++++++++++++++++++++++++++++++++++++++++++++",
"++++++++++++++++++++++++++++++++++++++++++++++++++++++++++++++++++++++++++++++++++++++++++++++++++++",
"++++++++++++++++++++++++++++++++++++++++++++++++++++++++++++++++++++++++++++++++++++++++++++++++++++",
"++++++++++++++++++++++++++++++++++++++++++++++++++++++++++++++++++++++++++++++++++++++++++++++++++++",
"++++++++++++++++++++++++++++++++++++++++++++++++++++++++++++++++++++++++++++++++++++++++++++++++++++",
"++++++++++++++++++++++++++++++++++++++++++++++++++++++++++++++++++++++++++++++++++++++++++++++++++++",
"++++++++++++++++++++++++++++++++++++++++++++++++++++++++++++++++++++++++++++++++++++++++++++++++++++",
"++++++++++++++++++++++++++++++++++++++++++++++++++++++++++++++++++++++++++++++++++++++++++++++++++++",
"++++++++++++++++++++++++++++++++++++++++++++++++++++++++++++++++++++++++++++++++++++++++++++++++++++",
"++++++++++++++++++++++++++++++++++++++++++++++++++++++++++++++++++++++++++++++++++++++++++++++++++++",
"++++++++++++++++++++++++++++++++++++++++++++++++++++++++++++++++++++++++++++++++++++++++++++++++++++",
"++++++++++++++++++++++++++++++++++++++++++++++++++++++++++++++++++++++++++++++++++++++++++++++++++++",
"++++++++++++++++++++++++++++++++++++++++++++++++++++++++++++++++++++++++++++++++++++++++++++++++++++",
"++++++++++++++++++++++++++++++++++++++++++++++++++++++++++++++++++++++++++++++++++++++++++++++++++++",
"++++++++++++++++++++++++++++++++++++++++++++++++++++++++++++++++++++++++++++++++++++++++++++++++++++",
"++++++++++++++++++++++++++++++++++++++++++++++++++++++++++++++++++++++++++++++++++++++++++++++++++++",
"++++++++++++++++++++++++++++++++++++++++++++++++++++++++++++++++++++++++++++++++++++++++++++++++++++",
"++++++++++++++++++++++++++++++++++++++++++++++++++++++++++++++++++++++++++++++++++++++++++++++++++++",
"++++++++++++++++++++++++++++++++++++++++++++++++++++++++++++++++++++++++++++++++++++++++++++++++++++",
"++++++++++++++++++++++++++++++++++++++++++++++++++++++++++++++++++++++++++++++++++++++++++++++++++++",
"++++++++++++++++++++++++++++++++++++++++++++++++++++++++++++++++++++++++++++++++++++++++++++++++++++",
"++++++++++++++++++++++++++++++++++++++++++++++++++++++++++++++++++++++++++++++++++++++++++++++++++++",
"+++++++++++++++++++++++++++++           +    +++++++++++++++++++++++++++++++++++++++++++++++++++++++",
"++++++++++++++++++++++++++   X#####XXXXX ooo +++++++++++++++++++++++++++++++++++++++++++++++++++++++",
"++++++++++++++++++++++++  X#########XXXX.oo         ++++   +++++++++++++++++++++++++++++++++++++++++",
"+++++++++++++++++++++++ XX###########XX.##$$$$$$$###    OO +++++++++++++++   +++++++++++++++++++++++",
"++++++++++++++++++++++ XX#############.#$$$$$$$$$$$###OOO   +++++++++++++ $$ +++++++++++++++++++++++",
"+++++++++++++++++++++ XX#############.#$$$$$$$$$$$$$##OOOooo +++++++++++ $$$ +++++++++++++++++++++++",
"+++++++++++++++++++++ XX############.##$$$$$$$$$$$$$$##oooooo +++++++++ $$$ ++++++++++++++++++++++++",
"+++++++++++++++++++++ XX###########.##$$$$$$$$$$$$$$$##OOooooo ++++++++ $$$ ++++++++++++++++++++++++",
"+++++++++++++++++++++ XX##########.##$$$$$$$$$$$$$$$$##OOOoooo +++++++ $$$$ ++++++++++++++++++++++++",
"+++++++++++++++++++++ XX#########.###$$$$$$$$$$$$$$$$#oOOOoOOO +++++++ $$$ +++++++++++++++++++++++++",
"++++++++++++++++++++ @@XX###%%###.###$$$$$$$$$$$$$$$##   OOOOO +++++++ $$$    ++++++++++++++++++++++",
"++++++++++++++++++++ @@.%%XX%%XX.%###$$$$$$$$$&&#$$$#o   OOOO +++++++++ $$#### +++++++++++++++++++++",
"++++++++++++++++++++   X%%######.%.%%$$$$$$$$$&&$$$# oo OOOOO ++++++++++ ###### ++++++++++++++++++++",
"+++++++++++++++++++++++  ########..%%XX&&XX&&#$$$$# ooOOOOOOO +++++++++++  ##### +++++++++++++++++++",
"+++++++++++++++++++++++++          ##$$&&$$&&$$$$#oOOOOOOOOO ++++++++++++++  #### ++++++++++++++++++",
"+++++++++++++++++++++++++++++++++++ ##$$$$$$$$$ oOOOOOOOOOO +++++++++++++++++ #### +++++++++++++++++",
"++++++++++++++++++++++++++++++++++++    ooooo  oOOOOOOOOOO ++++++++++++++++++ #### +++++++++++++++++",
"+++++++++++++++++++++++++++++++++++++++ ooooo  OOOOOOOOO  ++++++++++++++++++++ ### +++++++++++++++++",
"+++++++++++++++++++++++++++++++++++++++ ooooo OOOOOOOO  ++++     +++++++++++++ ### +++++++++++++++++",
"++++++++++++++++++++++++++++++++++++++ ooooooOOOOOOO  +++++ OOOO +++++       + #### ++++++++++++++++",
"+++++++++++++++++++++++++++++++++  +++ ooooooOOOOOO        OOOO +++++ XXXXXXX  #### ++++++++++++++++",
"+++++++++++++++++++++++++++++++++ O + ooOOOOOOOOOOOOOOOOOOOOOO     + ##XXXXXXX##### ++++++++++++++++",
"+++++++++++++++++++++++++++++++++ OO ooOOOOOOOOOOOOOOOOOOOOOOOOOOOO ####XXXXXX##### ++++++++++++++++",
"+++++++++++++++++++++++++++++++++ OOoooOOOOOOOOOOOOOOOOOOOOOOOOOOOOO####XXXXXX##### ++++++++++++++++",
"++++++++++++++++++++++++++++++++++ OoooOOOOOOOOOOOOOOOOOOOOOOOOOOOOOO###XXXXXXX### +++++++++++++++++",
"+++++++++++++++++++++++++++++++++++ oooOOOOOOOOOOOOOOOOOOOOOOOOOOOOOO###    XXXXX ++++++++++++++++++",
"+++++++++++++++++++++++++++++++++++ oooOOOOOOOOOOOOOOOOOOOOOOOOOOOOOO## ++++     +++++++++++++++++++",
"+++++++++++++++++++++++++++++++++++ oooOOOOOOOOOOOOOoOOOOOOOoOOOOOOOO# +++++++++++++++++++++++++++++",
"+++++++++++++++++++++++++++++++++++ oooOOOOOOOOOOOOOoOOOoOOoOOOOOOOOO ++++++++++++++++++++++++++++++",
"+++++++++++++++++++++++++++++++++++ oooOOOOOOOOOOOOOoOOOoooOOOOOOOOO +  ++++++++++++++++++++++++++++",
"++++++++++++++++++++++++++++++++++++ oooOOOOOOoOOOOOoOOOooOOOOOOOOO + O ++++++++++++++++++++++++++++",
"++++++++++++++++++++++++++++++++++++ ooooOOOOOoOOOOOOoooooOOOOOOOO   OO ++++++++++++++++++++++++++++",
"++++++++++++++++++++++++++++++++++++ ooooooooo OOOOOOoooooOOOOOOOOOOOOO ++++++++++++++++++++++++++++",
"++++++++++++++++++++++++++++++++++++ ooooo     OOOOOO ooooOOOOOOOOOOOO +++++++++++++++++++++++++++++",
"+++++++++++++++++++++++++++++++++++ ooooo +++++ OOOOO oooooOOOOOOOOOO ++++++++++++++++++++++++++++++",
"+++++++++++++++++++++++++++++++++++ oooo ++++++ OOOOO  oooooOOOooOOOO ++++++++++++++++++++++++++++++",
"+++++++++++++++++++++++++++++++++++ oooo ++++++ OOOOO + ooooooooOOOO +++++++++++++++++++++++++++++++",
"+++++++++++++++++++++++++++++++++++ ooooo +++++ OOOOO ++      oOOOOO +++++++++++++++++++++++++++++++",
"+++++++++++++++++++++++++++++++++++ ooooo +++++ OOOO ++++++++ oOOOO ++++++++++++++++++++++++++++++++",
"++++++++++++++++++++++++++++++++++++ oooo ++++ OOOOO +++++++ ooOOO +++++++++++++++++++++++++++++++++",
"+++++++++++++++++++++++++++++++++++++    +++++ OOOOO +++++++ ooooo +++++++++++++++++++++++++++++++++",
"++++++++++++++++++++++++++++++++++++++++++++++ OOOO ++++++++ oooo ++++++++++++++++++++++++++++++++++",
"++++++++++++++++++++++++++++++++++++++++++++++++++++++++++++++++++++++++++++++++++++++++++++++++++++",
"++++++++++++++++++++++++++++++++++++++++++++++++++++++++++++++++++++++++++++++++++++++++++++++++++++",
"++++++++++++++++++++++++++++++++++++++++++++++++++++++++++++++++++++++++++++++++++++++++++++++++++++",
"++++++++++++++++++++++++++++++++++++++++++++++++++++++++++++++++++++++++++++++++++++++++++++++++++++",
"++++++++++++++++++++++++++++++++++++++++++++++++++++++++++++++++++++++++++++++++++++++++++++++++++++",
"++++++++++++++++++++++++++++++++++++++++++++++++++++++++++++++++++++++++++++++++++++++++++++++++++++",
"++++++++++++++++++++++++++++++++++++++++++++++++++++++++++++++++++++++++++++++++++++++++++++++++++++",
"++++++++++++++++++++++++++++++++++++++++++++++++++++++++++++++++++++++++++++++++++++++++++++++++++++",
"++++++++++++++++++++++++++++++++++++++++++++++++++++++++++++++++++++++++++++++++++++++++++++++++++++",
"++++++++++++++++++++++++++++++++++++++++++++++++++++++++++++++++++++++++++++++++++++++++++++++++++++",
"++++++++++++++++++++++++++++++++++++++++++++++++++++++++++++++++++++++++++++++++++++++++++++++++++++",
"++++++++++++++++++++++++++++++++++++++++++++++++++++++++++++++++++++++++++++++++++++++++++++++++++++",
"++++++++++++++++++++++++++++++++++++++++++++++++++++++++++++++++++++++++++++++++++++++++++++++++++++",
"++++++++++++++++++++++++++++++++++++++++++++++++++++++++++++++++++++++++++++++++++++++++++++++++++++",
"++++++++++++++++++++++++++++++++++++++++++++++++++++++++++++++++++++++++++++++++++++++++++++++++++++",
"++++++++++++++++++++++++++++++++++++++++++++++++++++++++++++++++++++++++++++++++++++++++++++++++++++",
"++++++++++++++++++++++++++++++++++++++++++++++++++++++++++++++++++++++++++++++++++++++++++++++++++++",
"++++++++++++++++++++++++++++++++++++++++++++++++++++++++++++++++++++++++++++++++++++++++++++++++++++",
"++++++++++++++++++++++++++++++++++++++++++++++++++++++++++++++++++++++++++++++++++++++++++++++++++++",
"++++++++++++++++++++++++++++++++++++++++++++++++++++++++++++++++++++++++++++++++++++++++++++++++++++",
"++++++++++++++++++++++++++++++++++++++++++++++++++++++++++++++++++++++++++++++++++++++++++++++++++++",
"++++++++++++++++++++++++++++++++++++++++++++++++++++++++++++++++++++++++++++++++++++++++++++++++++++",
"++++++++++++++++++++++++++++++++++++++++++++++++++++++++++++++++++++++++++++++++++++++++++++++++++++",
"++++++++++++++++++++++++++++++++++++++++++++++++++++++++++++++++++++++++++++++++++++++++++++++++++++",
"++++++++++++++++++++++++++++++++++++++++++++++++++++++++++++++++++++++++++++++++++++++++++++++++++++",
"++++++++++++++++++++++++++++++++++++++++++++++++++++++++++++++++++++++++++++++++++++++++++++++++++++"
};
