/* XPM */
static char *result[] = {
/* columns rows colors chars-per-pixel */
"32 32 181 2 ",
"   c #30493D",
".  c #3B533F",
"X  c #3F6532",
"o  c #36773E",
"O  c #357C3F",
"+  c #377D3F",
"@  c #3A783C",
"#  c #4A5E3C",
"$  c #50623B",
"%  c #547132",
"&  c #587534",
"*  c #547836",
"=  c #597B36",
"-  c #737F2F",
";  c #667935",
":  c #667B35",
">  c #637F36",
",  c #6D7A33",
"<  c #6F7C34",
"1  c #6F7D36",
"2  c #6C793A",
"3  c #707D33",
"4  c #717E33",
"5  c #083767",
"6  c #04396C",
"7  c #063872",
"8  c #134245",
"9  c #154749",
"0  c #14494B",
"q  c #164D4B",
"w  c #144A4C",
"e  c #164F4C",
"r  c #1A584B",
"t  c #1E5D4A",
"y  c #1A594C",
"u  c #1B5B4C",
"i  c #234743",
"p  c #2C4B41",
"a  c #2B4C44",
"s  c #2C5946",
"d  c #355040",
"f  c #345042",
"g  c #2C4057",
"h  c #364856",
"j  c #21674B",
"k  c #226949",
"l  c #256F4B",
"z  c #236D4C",
"x  c #246F4C",
"c  c #277245",
"v  c #2E7D41",
"b  c #27774C",
"n  c #275C6F",
"m  c #3E487D",
"M  c #425252",
"N  c #68565C",
"B  c #59664E",
"V  c #5E6A54",
"C  c #667443",
"Z  c #6D784E",
"A  c #737F44",
"S  c #737F46",
"D  c #717C4E",
"F  c #6D775A",
"G  c #6A7859",
"H  c #737E56",
"J  c #6C726B",
"K  c #717373",
"L  c #8D704A",
"P  c #55803B",
"I  c #57803A",
"U  c #5B8039",
"Y  c #6F8736",
"T  c #638439",
"R  c #748230",
"E  c #758232",
"W  c #768431",
"Q  c #758235",
"!  c #788637",
"~  c #708836",
"^  c #7A8A33",
"/  c #7C8932",
"(  c #7D8932",
")  c #7E8C33",
"_  c #7D8A36",
"`  c #75813C",
"'  c #2E8143",
"]  c #2D8349",
"[  c #2F8649",
"{  c #2C824C",
"}  c #2F894C",
"|  c #2F8A4C",
" . c #308243",
".. c #3B8140",
"X. c #318D48",
"o. c #318E48",
"O. c #318E49",
"+. c #318F49",
"@. c #33924A",
"#. c #33934B",
"$. c #379049",
"%. c #33944B",
"&. c #34954B",
"*. c #33944C",
"=. c #33954C",
"-. c #34954C",
";. c #34964C",
":. c #378A72",
">. c #7C8841",
",. c #7F8B46",
"<. c #7A8751",
"1. c #798558",
"2. c #818E33",
"3. c #808E38",
"4. c #869432",
"5. c #819035",
"6. c #859334",
"7. c #869435",
"8. c #879635",
"9. c #889736",
"0. c #899736",
"q. c #8A9836",
"w. c #8A9936",
"e. c #8B9937",
"r. c #8A9A37",
"t. c #8B9A37",
"y. c #8C9A37",
"u. c #8C9B37",
"i. c #838F48",
"p. c #183282",
"a. c #320FBB",
"s. c #3733A0",
"d. c #3A2EB0",
"f. c #402CA5",
"g. c #443FA7",
"h. c #4D3CAA",
"j. c #5C2EB5",
"k. c #3D6B85",
"l. c #325EB5",
"z. c #634F98",
"x. c #5F6481",
"c. c #626980",
"v. c #4542A3",
"b. c #544AA3",
"n. c #594EB8",
"m. c #6E5AA5",
"M. c #6A49B4",
"N. c #2B0CC6",
"B. c #3109CE",
"V. c #2C14CB",
"C. c #2C11CF",
"Z. c #2D13CF",
"A. c #3016C1",
"S. c #341EC6",
"D. c #2E0ED3",
"F. c #3007D3",
"G. c #320BD4",
"H. c #3005D8",
"J. c #2E10D1",
"K. c #470EC9",
"L. c #4827CC",
"P. c #6E35D1",
"I. c #660AE1",
"U. c #671CE6",
"Y. c #6C0AF0",
"T. c #750BF6",
"R. c #770BF7",
"E. c #7809F7",
"W. c #780BF7",
"Q. c #4445CD",
"!. c #6544C3",
"~. c #6F55D1",
"^. c #885DDA",
"/. c #886FC1",
"(. c #816DCD",
"). c #8A7BCE",
"_. c #855DE8",
"`. c #8E69F0",
"'. c #A88AA2",
"]. c #A589A8",
"[. c #A898EE",
/* pixels */
"u.u.u.u.u.u.u.u.u.u.u.u.u.u.u.u.u.u.u.u.u.u.u.u.u.u.u.u.u.u.u.u.",
"u.u.u.u.u.u.u.u.u.u.u.u.u.u.u.u.u.u.u.u.u.u.u.u.u.u.u.u.u.u.u.u.",
"u.u.u.u.u.u.u.u.u.u.u.u.u.u.u.u.u.u.u.u.u.u.u.u.u.u.u.u.u.u.u.u.",
"u.u.u.u.u.u.u.u.u.u.u.u.u.u.u.u.u.u.u.u.u.u.u.u.u.u.u.u.u.u.u.u.",
"u.u.u.u.u.u.u.u.u.u.u.u.u.u.u.u.u.u.u.u.u.u.u.u.u.u.u.u.u.u.u.u.",
"u.u.u.u.u.u.u.u.u.u.u.u.u.u.u.u.u.u.u.u.u.u.u.u.u.u.u.u.u.u.u.u.",
"u.u.u.u.u.u.u.u.u.u.u.u.u.u.u.u.u.u.u.u.u.u.u.u.u.u.u.u.u.u.u.u.",
"u.u.u.u.u.u.u.u.u.u.u.u.u.u.u.u.u.u.u.u.u.u.u.u.u.u.u.u.u.u.u.u.",
"u.u.u.u.u.u.u.u.u.u.u.u.u.u.u.u.u.u.u.u.u.u.u.u.u.u.u.u.u.u.u.u.",
"u.u.u.u.u.u.u.u.u.u.u.u.u.u.u.u.u.u.u.u.u.u.u.u.u.u.u.u.u.u.u.u.",
"u.u.u.u.u.u.u.w._ F Z 2 Q E u.u.u.u.u.u.u.u.u.u.u.u.u.u.u.u.u.u.",
"u.u.u.u.u.u.3.m N.H.Z.p.f.j.M.b.G * / u.u.i.z.q.u.u.u.u.u.u.u.u.",
"u.u.u.u.u.u.h J.H.H.B.K.R.W.W.T.Q.l f 5.4.P.m.u.u.u.u.u.u.u.u.u.",
"u.u.u.u.u.9.N C.~.G.a.Y.W.W.E.W.L.[ b : K I.,.u.u.u.u.u.u.u.u.u.",
"u.u.u.u.u.2.L ]./.h.'.^._.`.[.U.n v o.) <.S.d.x.H u.u.u.u.u.u.u.",
"u.u.u.u.u.u.t.>.S A J !.(.).n.:.-.#.T y.u.1.g.A.F.c.u.u.u.u.u.u.",
"u.u.u.u.u.u.u.u.u.w.) < q t %.-.X R Y = 7.u.t.` V.s.u.u.u.u.u.u.",
"u.u.u.u.u.u.u.u.u.8.o s *.;.;.;.&. .@.O U D V M 6 g u.u.u.u.u.u.",
"u.u.u.u.u.u.u.u.u.u.; u ;.;.;.;.;.;.;.;.;.l.D.7 5 C u.u.u.u.u.u.",
"u.u.u.u.u.u.u.u.u.u.4 r -.;.;.-.} | { ;.;.k.v.B ! u.u.u.u.u.u.u.",
"u.u.u.u.u.u.u.u.u.u.6.8 j c ] =.y e x ;.X.W & q.u.u.u.u.u.u.u.u.",
"u.u.u.u.u.u.u.u.u.u.3 0 d - o.' 9 w z ;.;.+...q.u.u.u.u.u.u.u.u.",
"u.u.u.u.u.u.u.u.u.u., w . > ;.I 1 $ p k % O.P u.u.u.u.u.u.u.u.u.",
"u.u.u.u.u.u.u.u.u.u.0.#   @ $.^ u.8.i a ( + ~ u.u.u.u.u.u.u.u.u.",
"u.u.u.u.u.u.u.u.u.u.u.t.t.t.t.u.u.u.r.t.u.e.u.u.u.u.u.u.u.u.u.u.",
"u.u.u.u.u.u.u.u.u.u.u.u.u.u.u.u.u.u.u.u.u.u.u.u.u.u.u.u.u.u.u.u.",
"u.u.u.u.u.u.u.u.u.u.u.u.u.u.u.u.u.u.u.u.u.u.u.u.u.u.u.u.u.u.u.u.",
"u.u.u.u.u.u.u.u.u.u.u.u.u.u.u.u.u.u.u.u.u.u.u.u.u.u.u.u.u.u.u.u.",
"u.u.u.u.u.u.u.u.u.u.u.u.u.u.u.u.u.u.u.u.u.u.u.u.u.u.u.u.u.u.u.u.",
"u.u.u.u.u.u.u.u.u.u.u.u.u.u.u.u.u.u.u.u.u.u.u.u.u.u.u.u.u.u.u.u.",
"u.u.u.u.u.u.u.u.u.u.u.u.u.u.u.u.u.u.u.u.u.u.u.u.u.u.u.u.u.u.u.u.",
"u.u.u.u.u.u.u.u.u.u.u.u.u.u.u.u.u.u.u.u.u.u.u.u.u.u.u.u.u.u.u.u."
};
