/* XPM */
static char *result[] = {
/* columns rows colors chars-per-pixel */
"32 32 182 2 ",
"   c #36533E",
".  c #2F743C",
"X  c #4F5C33",
"o  c #4A5D3B",
"O  c #5C692D",
"+  c #4B6032",
"@  c #526F32",
"#  c #576638",
"$  c #54653A",
"%  c #576A3F",
"&  c #5D6C38",
"*  c #407A3E",
"=  c #4D7F3C",
"-  c #587735",
";  c #587D38",
":  c #667433",
">  c #6F7D35",
",  c #727F33",
"<  c #76793C",
"1  c #063869",
"2  c #05386C",
"3  c #134245",
"4  c #13484A",
"5  c #13494B",
"6  c #174849",
"7  c #14484B",
"8  c #14494C",
"9  c #144A4C",
"0  c #1C5043",
"q  c #16504C",
"w  c #1D5B4A",
"e  c #2D5341",
"r  c #385140",
"t  c #395840",
"y  c #2B4059",
"u  c #21684C",
"i  c #236D4C",
"p  c #2C7145",
"a  c #297846",
"s  c #2B7D47",
"d  c #24714C",
"f  c #25734C",
"g  c #27764C",
"h  c #297B4C",
"j  c #2A7E4C",
"k  c #307F41",
"l  c #357F40",
"z  c #3F626B",
"x  c #2C667E",
"c  c #48584F",
"v  c #415252",
"b  c #4E585F",
"n  c #546941",
"m  c #586C40",
"M  c #5A684B",
"N  c #467C53",
"B  c #4E7D51",
"V  c #6D7A41",
"C  c #717B5B",
"Z  c #655E7F",
"A  c #636D62",
"S  c #666E6C",
"D  c #6A7365",
"F  c #676F76",
"G  c #946B5E",
"H  c #4B803D",
"J  c #48803E",
"K  c #48813E",
"L  c #61883C",
"P  c #618B3D",
"I  c #718132",
"U  c #768333",
"Y  c #758633",
"T  c #768734",
"R  c #788533",
"E  c #758935",
"W  c #7A8933",
"Q  c #7C8B33",
"!  c #7D8C33",
"~  c #7B8B34",
"^  c #7E8C36",
"/  c #2E874A",
"(  c #2D854C",
")  c #2F8B4C",
"_  c #308242",
"`  c #338745",
"'  c #308845",
"]  c #308946",
"[  c #308A4A",
"{  c #338E48",
"}  c #328F49",
"|  c #33924A",
" . c #33934B",
".. c #33944B",
"X. c #34944B",
"o. c #34964A",
"O. c #33944C",
"+. c #34954C",
"@. c #34954D",
"#. c #34964C",
"$. c #5B9246",
"%. c #5C9746",
"&. c #7C874D",
"*. c #78805A",
"=. c #859331",
"-. c #839134",
";. c #859334",
":. c #849335",
">. c #859435",
",. c #869435",
"<. c #869535",
"1. c #879535",
"2. c #879635",
"3. c #889734",
"4. c #889635",
"5. c #889636",
"6. c #899835",
"7. c #8A9835",
"8. c #899836",
"9. c #8A9836",
"0. c #8A9936",
"q. c #8B9A37",
"w. c #8C9B36",
"e. c #8C9B37",
"r. c #86943A",
"t. c #84923F",
"y. c #818D42",
"u. c #1F3683",
"i. c #382991",
"p. c #3510BC",
"a. c #2326A5",
"s. c #2B22AE",
"d. c #3A30AD",
"f. c #3E35AD",
"g. c #433EAD",
"h. c #4A36B6",
"j. c #553CB6",
"k. c #2D6C8E",
"l. c #4D5384",
"z. c #4C4B9C",
"x. c #4D4C9D",
"c. c #4F5098",
"v. c #545791",
"b. c #615D93",
"n. c #4744A4",
"m. c #5E42B9",
"M. c #5844BA",
"N. c #6852AC",
"B. c #6C51AF",
"V. c #6D59BE",
"C. c #4D62A9",
"Z. c #2E03CF",
"A. c #3C03CF",
"S. c #281BC1",
"D. c #2E11CF",
"F. c #2F03D3",
"G. c #2F0BD4",
"H. c #3005D6",
"J. c #3006D7",
"K. c #3E0AD2",
"L. c #3005D8",
"P. c #3135CE",
"I. c #6806DE",
"U. c #651DD9",
"Y. c #6E06E5",
"T. c #6D0FE1",
"R. c #680AED",
"E. c #6809EE",
"W. c #6E0BEF",
"Q. c #780BF7",
"!. c #6F4DCF",
"~. c #7F6AC9",
"^. c #8D7998",
"/. c #813CF6",
"(. c #845DE8",
"). c #834EF4",
"_. c #8665E4",
"`. c #8E64F3",
"'. c #448281",
"]. c #9C80BF",
"[. c #A585B6",
"{. c #A38FEF",
/* pixels */
"e.e.e.e.e.e.e.e.e.e.e.e.e.e.e.e.e.e.e.e.e.e.e.e.e.e.e.e.e.e.e.e.",
"e.e.e.e.e.e.e.e.e.e.e.e.e.e.e.e.e.e.e.e.e.e.e.e.e.e.e.e.e.e.e.e.",
"e.e.e.e.e.e.e.e.e.e.e.e.e.e.e.e.e.e.e.e.e.e.e.e.e.e.e.e.e.e.e.e.",
"e.e.e.e.e.e.e.e.e.e.e.e.e.e.e.e.e.e.e.e.e.e.e.e.e.e.e.e.e.e.e.e.",
"e.e.e.e.e.e.e.e.e.e.e.e.e.e.e.e.e.e.e.e.e.e.e.e.e.e.e.e.e.e.e.e.",
"e.e.e.e.e.e.e.e.e.e.e.e.e.e.e.e.e.e.e.e.e.e.e.e.e.e.e.e.e.e.e.e.",
"e.e.e.e.e.e.e.e.e.e.e.e.e.e.e.e.e.e.e.e.e.e.e.e.e.e.e.e.e.e.e.e.",
"e.e.e.e.e.e.e.e.e.e.e.e.e.e.e.e.e.e.e.e.e.e.e.e.e.e.e.e.e.e.e.e.",
"e.e.e.e.e.e.e.e.e.e.e.e.e.e.e.e.e.e.e.e.e.e.e.e.e.e.e.e.e.e.e.e.",
"e.e.e.e.e.e.e.e.e.e.e.e.e.e.e.e.e.e.e.e.e.e.e.e.e.e.e.e.e.e.e.e.",
"e.e.e.e.e.e.e.^ A c.l.c # O =.7.9.5.e.e.3.y.*.6.e.e.e.e.e.e.e.e.",
"e.e.e.e.e.e.V a.L.L.D.i.U.T.I.j.B + 0.t.g.A.Y.B.q.e.e.e.e.e.e.e.",
"e.e.e.e.e.e.y G.L.J.p.W.Q.Q.Q.E.k.q $ D Z.S &.Z q.e.e.e.e.e.e.e.",
"e.e.e.e.e.-.G V.].M.K.Q.Q./.).R.x / * C F.f.z.r.e.e.e.e.e.e.e.e.",
"e.e.e.e.e.,.< ^.h.N.[.(._.{.`.C.s X.= w.F x.H.n.q.e.e.e.e.e.e.e.",
"e.e.e.e.e.e.e.0.8.2.b.~.!.m.'.@.` J >.q.e.q.d.s.:.e.e.e.e.e.e.e.",
"e.e.e.e.e.e.e.e.e.W E t i ( #.' - I H @ q.e.M 2 U e.e.e.e.e.e.e.",
"e.e.e.e.e.e.e.e.e.~ p g #.#.#.#.#.+..._ N v.u.1 R e.e.e.e.e.e.e.",
"e.e.e.e.e.e.e.e.e.e.o g #.#.#.O.#.#.O.#.o.P.S.v q.e.e.e.e.e.e.e.",
"e.e.e.e.e.e.e.e.e.e.& u +.#.#.h ) f d #.#.z b <.e.e.e.e.e.e.e.e.",
"e.e.e.e.e.e.e.e.e.e., 7 0 [ | e 8 9   } #.l . 8.e.e.e.e.e.e.e.e.",
"e.e.e.e.e.e.e.e.e.e.;.3 w +.K > 6 9 4 a  .] k 8.e.e.e.e.e.e.e.e.",
"e.e.e.e.e.e.e.e.e.e.9.r j | T e.R X 5 : Y ; { ! e.e.e.e.e.e.e.e.",
"e.e.e.e.e.e.e.e.e.e.1.n $.P 0.e.0.% m 4.e.L %.Q e.e.e.e.e.e.e.e.",
"e.e.e.e.e.e.e.e.e.e.e.e.e.e.e.e.e.e.e.e.e.e.e.e.e.e.e.e.e.e.e.e.",
"e.e.e.e.e.e.e.e.e.e.e.e.e.e.e.e.e.e.e.e.e.e.e.e.e.e.e.e.e.e.e.e.",
"e.e.e.e.e.e.e.e.e.e.e.e.e.e.e.e.e.e.e.e.e.e.e.e.e.e.e.e.e.e.e.e.",
"e.e.e.e.e.e.e.e.e.e.e.e.e.e.e.e.e.e.e.e.e.e.e.e.e.e.e.e.e.e.e.e.",
"e.e.e.e.e.e.e.e.e.e.e.e.e.e.e.e.e.e.e.e.e.e.e.e.e.e.e.e.e.e.e.e.",
"e.e.e.e.e.e.e.e.e.e.e.e.e.e.e.e.e.e.e.e.e.e.e.e.e.e.e.e.e.e.e.e.",
"e.e.e.e.e.e.e.e.e.e.e.e.e.e.e.e.e.e.e.e.e.e.e.e.e.e.e.e.e.e.e.e.",
"e.e.e.e.e.e.e.e.e.e.e.e.e.e.e.e.e.e.e.e.e.e.e.e.e.e.e.e.e.e.e.e."
};
