/* XPM */
static char *result[] = {
/* columns rows colors chars-per-pixel */
"32 32 163 2 ",
"   c #1C463C",
".  c #3B7339",
"X  c #3B763B",
"o  c #495F33",
"O  c #4A5D3B",
"+  c #4A5D3C",
"@  c #58642B",
"#  c #496D33",
"$  c #47613B",
"%  c #4C653B",
"&  c #4E653C",
"*  c #536239",
"=  c #51633A",
"-  c #51603C",
";  c #497739",
":  c #407B3E",
">  c #4F7F3C",
",  c #587D38",
"<  c #687635",
"1  c #6E783B",
"2  c #6F7C3C",
"3  c #747B3A",
"4  c #03396A",
"5  c #063868",
"6  c #04386A",
"7  c #144749",
"8  c #144A4C",
"9  c #17524C",
"0  c #204745",
"q  c #354F40",
"w  c #385A41",
"e  c #2C4059",
"r  c #1E624C",
"t  c #20674C",
"y  c #2D7045",
"u  c #2F7D43",
"i  c #24704C",
"p  c #27764C",
"a  c #357542",
"s  c #3D7D43",
"d  c #2B647C",
"f  c #425251",
"g  c #4B7C55",
"h  c #6A7742",
"j  c #4A4F7D",
"k  c #5F686B",
"l  c #986C5D",
"z  c #4C803D",
"x  c #52803B",
"c  c #5E8138",
"v  c #78862E",
"b  c #628137",
"n  c #6A8335",
"m  c #688236",
"M  c #738231",
"N  c #778534",
"B  c #798533",
"V  c #788632",
"C  c #738835",
"Z  c #798832",
"A  c #7E8B32",
"S  c #7B8937",
"D  c #7C8C34",
"F  c #7D8D34",
"G  c #76863B",
"H  c #79883A",
"J  c #77903C",
"K  c #78953C",
"L  c #78993E",
"P  c #2F8747",
"I  c #2C8048",
"U  c #2C834C",
"Y  c #2E874C",
"T  c #2F884A",
"R  c #368644",
"E  c #3F8140",
"W  c #308946",
"Q  c #318D48",
"!  c #328F49",
"~  c #318E4C",
"^  c #34954B",
"/  c #34964A",
"(  c #31904C",
")  c #32904C",
"_  c #33934C",
"`  c #33944C",
"'  c #34954C",
"]  c #34964C",
"[  c #31895A",
"{  c #7D894F",
"}  c #41847A",
"|  c #82902F",
" . c #839134",
".. c #839135",
"X. c #809337",
"o. c #849234",
"O. c #859435",
"+. c #869435",
"@. c #879535",
"#. c #879634",
"$. c #899735",
"%. c #899736",
"&. c #899836",
"*. c #8A9836",
"=. c #8A9936",
"-. c #8B9A36",
";. c #8B9A37",
":. c #8C9B37",
">. c #86943A",
",. c #86943B",
"<. c #153083",
"1. c #3B2896",
"2. c #271BAB",
"3. c #3610BC",
"4. c #2424AA",
"5. c #3E36AA",
"6. c #423CA6",
"7. c #4330B3",
"8. c #5436BC",
"9. c #2D6C8E",
"0. c #484C8A",
"q. c #4C4C97",
"w. c #4A499D",
"e. c #4A499E",
"r. c #4A489F",
"t. c #5E5D90",
"y. c #4947A1",
"u. c #5742B7",
"i. c #5941B3",
"p. c #5D49B8",
"a. c #6450AA",
"s. c #6E58A8",
"d. c #6745B0",
"f. c #745FBB",
"g. c #4B66A4",
"h. c #2E10CF",
"j. c #2F09D0",
"k. c #2F0BD4",
"l. c #3006D6",
"z. c #3007D6",
"x. c #3E09D3",
"c. c #3005D8",
"v. c #2A2BC0",
"b. c #2D35C0",
"n. c #681ADD",
"m. c #6839C9",
"M. c #6A04E3",
"N. c #6F0DE6",
"B. c #670BED",
"V. c #6809EE",
"C. c #6F0BF0",
"Z. c #780BF7",
"A. c #6C4ACC",
"S. c #7B65C5",
"D. c #897696",
"F. c #8241F6",
"G. c #8554F3",
"H. c #8763E6",
"J. c #8768E2",
"K. c #8C60F3",
"L. c #A787B4",
"P. c #A083BD",
"I. c #A38FEF",
/* pixels */
":.:.:.:.:.:.:.:.:.:.:.:.:.:.:.:.:.:.:.:.:.:.:.:.:.:.:.:.:.:.:.:.",
":.:.:.:.:.:.:.:.:.:.:.:.:.:.:.:.:.:.:.:.:.:.:.:.:.:.:.:.:.:.:.:.",
":.:.:.:.:.:.:.:.:.:.:.:.:.:.:.:.:.:.:.:.:.:.:.:.:.:.:.:.:.:.:.:.",
":.:.:.:.:.:.:.:.:.:.:.:.:.:.:.:.:.:.:.:.:.:.:.:.:.:.:.:.:.:.:.:.",
":.:.:.:.:.:.:.:.:.:.:.:.:.:.:.:.:.:.:.:.:.:.:.:.:.:.:.:.:.:.:.:.",
":.:.:.:.:.:.:.:.:.:.:.:.:.:.:.:.:.:.:.:.:.:.:.:.:.:.:.:.:.:.:.:.",
":.:.:.:.:.:.:.:.:.:.:.:.:.:.:.:.:.:.:.:.:.:.:.:.:.:.:.:.:.:.:.:.",
":.:.:.:.:.:.:.:.:.:.:.:.:.:.:.:.:.:.:.:.:.:.:.:.:.:.:.:.:.:.:.:.",
":.:.:.:.:.:.:.:.:.:.:.:.:.:.:.:.:.:.:.:.:.:.:.:.:.:.:.:.:.:.:.:.",
":.:.:.:.:.:.:.:.:.:.:.:.:.:.:.:.:.:.:.:.:.:.:.:.:.:.:.:.:.:.:.:.",
":.:.:.:.:.:.:.:.:.:.:.:.:.:.:.:.:.:.:.:.:.:.:.:.:.:.:.:.:.:.:.:.",
":.:.:.:.:.:.:.:.:.:.:.:.:.:.+.%.$.| @ * f 0.w.k S :.:.:.:.:.:.:.",
":.:.:.:.:.:.:.:.:.:.:.:.:.&.o g 8.M.N.n.1.h.c.c.4.h :.:.:.:.:.:.",
":.:.:.:.:.:.:.:.;.A :.:.:.= 9 9.V.Z.Z.Z.C.3.l.c.k.e :.:.:.:.:.:.",
":.:.:.:.:.:.:.,.s.d.:.:.:.: T d B.G.F.Z.Z.x.p.P.f.l  .:.:.:.:.:.",
":.:.:.:.:.:.>.u.m.1 B :.:.> ^ I g.K.I.J.H.L.a.7.D.3 @.:.:.:.:.:.",
":.:.:.:.:.:.r.e.j 6 5 2 V M z R ' } i.A.S.t.&.=.;.:.:.:.:.:.:.:.",
":.:.:.:.:.:.5.j.z.<.4 - # ! x ; W ] Y i w C Z :.:.:.:.:.:.:.:.:.",
":.:.:.:.:.:.{ 6.q.2.v.[ ] ] ] ] ] ] ] ] p y D :.:.:.:.:.:.:.:.:.",
":.:.:.:.:.:.:.:.-.y.b./ ] ~ _ ' ~ ] ] ] p O :.:.:.:.:.:.:.:.:.:.",
":.:.:.:.:.:.:.:.:.#.v E ] ` r U _ ) ( ' t O :.:.:.:.:.:.:.:.:.:.",
":.:.:.:.:.:.:.:.:.@.X . ] ] i   ' s % $ 7 0 ..:.:.:.:.:.:.:.:.:.",
":.:.:.:.:.:.:.:.:.:.b ] P u & , ' m :.:.+ 8 < :.:.:.:.:.:.:.:.:.",
":.:.:.:.:.:.:.:.:.:.F Q a o.;.c ^ n :.:.N 7 q =.:.:.:.:.:.:.:.:.",
":.:.:.:.:.:.:.:.:.:.*.J K *.:.O.L X.:.:.:.H G ;.:.:.:.:.:.:.:.:.",
":.:.:.:.:.:.:.:.:.:.:.:.:.:.:.:.:.:.:.:.:.:.:.:.:.:.:.:.:.:.:.:.",
":.:.:.:.:.:.:.:.:.:.:.:.:.:.:.:.:.:.:.:.:.:.:.:.:.:.:.:.:.:.:.:.",
":.:.:.:.:.:.:.:.:.:.:.:.:.:.:.:.:.:.:.:.:.:.:.:.:.:.:.:.:.:.:.:.",
":.:.:.:.:.:.:.:.:.:.:.:.:.:.:.:.:.:.:.:.:.:.:.:.:.:.:.:.:.:.:.:.",
":.:.:.:.:.:.:.:.:.:.:.:.:.:.:.:.:.:.:.:.:.:.:.:.:.:.:.:.:.:.:.:.",
":.:.:.:.:.:.:.:.:.:.:.:.:.:.:.:.:.:.:.:.:.:.:.:.:.:.:.:.:.:.:.:.",
":.:.:.:.:.:.:.:.:.:.:.:.:.:.:.:.:.:.:.:.:.:.:.:.:.:.:.:.:.:.:.:."
};
