/* XPM */
static char *result[] = {
/* columns rows colors chars-per-pixel */
"100 100 11 1 ",
"  c #1C121B",
". c #392022",
"X c #03396B",
"o c #144A4C",
"O c #34964C",
"+ c #8C9B37",
"@ c #E59B6A",
"# c #3005D8",
"$ c #780BF7",
"% c #F3CBA1",
"& c #DDE2E9",
/* pixels */
"++++++++++++++++++++++++++++++++++++++++++++++++++++++++++++++++++++++++++++++++++++++++++++++++++++",
"++++++++++++++++++++++++++++++++++++++++++++++++++++++++++++++++++++++++++++++++++++++++++++++++++++",
"++++++++++++++++++++++++++++++++++++++++++++++++++++++++++++++++++++++++++++++++++++++++++++++++++++",
"++++++++++++++++++++++++++++++++++++++++++++++++++++++++++++++++++++++++++++++++++++++++++++++++++++",
"++++++++++++++++++++++++++++++++++++++++++++++++++++++++++++++++++++++++++++++++++++++++++++++++++++",
"++++++++++++++++++++++++++++++++++++++++++++++++++++++++++++++++++++++++++++++++++++++++++++++++++++",
"++++++++++++++++++++++++++++++++++++++++++++++++++++++++++++++++++++++++++++++++++++++++++++++++++++",
"++++++++++++++++++++++++++++++++++++++++++++++++++++++++++++++++++++++++++++++++++++++++++++++++++++",
"++++++++++++++++++++++++++++++++++++++++++++++++++++++++++++++++++++++++++++++++++++++++++++++++++++",
"++++++++++++++++++++++++++++++++++++++++++++++++++++++++++++++++++++++++++++++++++++++++++++++++++++",
"++++++++++++++++++++++++++++++++++++++++++++++++++++++++++++++++++++++++++++++++++++++++++++++++++++",
"++++++++++++++++++++++++++++++++++++++++++++++++++++++++++++++++++++++++++++++++++++++++++++++++++++",
"++++++++++++++++++++++++++++++++++++++++++++++++++++++++++++++++++++++++++++++++++++++++++++++++++++",
"++++++++++++++++++++++++++++++++++++++++++++++++++++++++++++++++++++++++++++++++++++++++++++++++++++",
"++++++++++++++++++++++++++++++++++++++++++++++++++++++++++++++++++++++++++++++++++++++++++++++++++++",
"++++++++++++++++++++++++++++++++++++++++++++++++++++++++++++++++++++++++++++++++++++++++++++++++++++",
"++++++++++++++++++++++++++++++++++++++++++++++++++++++++++++++++++++++++++++++++++++++++++++++++++++",
"++++++++++++++++++++++++++++++++++++++++++++++++++++++++++++++++++++++++++++++++++++++++++++++++++++",
"++++++++++++++++++++++++++++++++++++++++++++++++++++++++++++++++++++++++++++++++++++++++++++++++++++",
"++++++++++++++++++++++++++++++++++++++++++++++++++++++++++++++++++++++++++++++++++++++++++++++++++++",
"++++++++++++++++++++++++++++++++++++++++++++++++++++++++++++++++++++++++++++++++++++++++++++++++++++",
"++++++++++++++++++++++++++++++++++++++++++++++++++++++++++++++++++++++++++++++++++++++++++++++++++++",
"++++++++++++++++++++++++++++++++++++++++++++++++++++++++++++++++++++++++++++++++++++++++++++++++++++",
"++++++++++++++++++++++++++++++++++++++++++++++++++++++++++++++++++++++++++++++++++++++++++++++++++++",
"++++++++++++++++++++++++++++++++++++++++++++++++++++++++++++++++++++++++++++++++++++++++++++++++++++",
"++++++++++++++++++++++++++++++++++++++++++++++++++++++++++++++++++++++++++++++++++++++++++++++++++++",
"++++++++++++++++++++++++++++++++++++++++++++++++++++++++++++++++++++++++++++++++++++++++++++++++++++",
"++++++++++++++++++++++++++++++++++++++++++++++++++++++++++++++++++++++++++++++++++++++++++++++++++++",
"++++++++++++++++++++++++++++++++++++++++++++++++++++++++++++++++++++++++++++++++++++++++++++++++++++",
"++++++++++++++++++++++++++++++++++++++++++++++++++++++++++++++++++++++++++++++++++++++++++++++++++++",
"++++++++++++++++++++++++++++++++++++++++++++++++++++++++++++++++++++++++++++++++++++++++++++++++++++",
"++++++++++++++++++++++++++++++++++++++++++++++++++++++++++++++++++++++++++++++++++++++++++++++++++++",
"++++++++++++++++++++++++++++++++++++++++++++++++++++++++++++++++++++++++++++++++++++++++++++++++++++",
"++++++++++++++++++++++++++++++++++++++++++++++++++++++++++++++++++++++++++++++++++++++++++++++++++++",
"++++++++++++++++++++++++++++++++++++++++++++++++++++++++++++++++++++++++++++++++++++++++++++++++++++",
"+++++++++++++++++++++++++++++++++++++++++++++++++++++++++    +           +++++++++++++++++++++++++++",
"+++++++++++++++++++++++++++++++++++++++++++++++++++++++++ ooo XXXXX#####X   ++++++++++++++++++++++++",
"+++++++++++++++++++++++++++++++++++++++++++++   ++++       oo.XXXX#########X  ++++++++++++++++++++++",
"+++++++++++++++++++++++++++++++++++++++++++++ OO +  ##$$$$$$$#..XX##########XX +++++++++++++++++++++",
"++++++++++++++++++++++++++++++++++++++++++++   OO ##$$$$$$$$$$$#.X###########XX ++++++++++++++++++++",
"+++++++++++++++++++++++++++++++++++++++++++ oooOO##$$$$$$$$$$$$$#.############XX +++++++++++++++++++",
"++++++++++++++++++++++++++++++++++++++++++ oooooo##$$$$$$$$$$$$$$#.###########XX +++++++++++++++++++",
"+++++++++++++++++++++++++++++++++++++++++ oooooOO##$$$$$$$$$$$$$$##.##########XX +++++++++++++++++++",
"++++++++++++++++++++++++++++   ++++++++++ ooooOOO##$$$$$$$$$$$$$$$##.#########XX +++++++++++++++++++",
"+++++++++++++++++++++++++++ $$ ++++++++++ OOOoOOO##$$$$$$$$$$$$$$$##.#########XX +++++++++++++++++++",
"+++++++++++++++++++++++++  $$$ ++++++++++ OOOOOO ##$$$$$$$$$$$$$$$###.##%%###XX@@ ++++++++++++++++++",
"++++++++++++++++++++++++ $$$$ +++++++++++ OOOO   o#$$$#&&$$$$$$$$$###%XX%%XX%%.@@ ++++++++++++++++++",
"+++++++++++++++++++++++ $$$$ ++++++++++++ OOOOO oo #$$$&&$$$$$$$$$###%######%%X   ++++++++++++++++++",
"++++++++++++++++++++++ #$$$ +++++++++++++ OOOOOOOOOo$$$$$#&&$$$$$$%%.########  +++++++++++++++++++++",
"+++++++++++++++++++++ #### +      ++++++++ OOOOOOOOOO$$$$$&&XX&&XX%%.        +++++++++++++++++++++++",
"++++++++++++++++++++ ###  + XXXXXX ++++++++ OOOOOOOOOOo$$$$$$$&&$$## +++++++++++++++++++++++++++++++",
"+++++++++++++++++++ ### ++ XXXXXXXX ++++++++ OOOOOOOOOOO  $$$$$$$## ++++++++++++++++++++++++++++++++",
"+++++++++++++++++++ ### + ##XXXXXXX ++     ++    OOOOOOOO ooooo    +++++++++++++++++++++++++++++++++",
"+++++++++++++++++++ #### ###XXXXXXX ++ OOOO +++++  OOOOOOOoooooo +++++++++++++++++++++++++++++++++++",
"+++++++++++++++++++ #########XXXXXX +++ OOOO       OOOOOOOoooooo +++  ++++++++++++++++++++++++++++++",
"+++++++++++++++++++ ######### XXXXX      OOOOOOOOOOOOOOOOOOOOOOoo + O ++++++++++++++++++++++++++++++",
"++++++++++++++++++++ ####### XXXXX  OOOOOOOOOOOOOOOOOOOOOOOOOOOOoo OO ++++++++++++++++++++++++++++++",
"+++++++++++++++++++++ #####  ######OOOOOOOOOOOOOOOOOOOOOOOOOOOOOoooOO ++++++++++++++++++++++++++++++",
"++++++++++++++++++++++     + #####OOOOOOOOOOOOOOOOOOOOOOOOOOOOOOoooO +++++++++++++++++++++++++++++++",
"++++++++++++++++++++++++++++ #####OOOOOOOOOOOOOOOOOOOOOOOOOOOOOOooo ++++++++++++++++++++++++++++++++",
"++++++++++++++++++++++++++++ #####OOOOOOOOOOOOOOOOOOOOOOOOOOOOOOooo ++++++++++++++++++++++++++++++++",
"+++++++++++++++++++++++++++++ ####OOOOOOOOoOOOOOOOoOOOOOOOOOOOOOooo ++++++++++++++++++++++++++++++++",
"++++++++++++++++++++++++++++++    OOOOOOOOOoOOoOOOoOOOOOOOOOOOOOooo ++++++++++++++++++++++++++++++++",
"++++++++++++++++++++++++++++++++++ OOOOOOOOOoooOOOOOOOOOOOOOOOOOooo ++++++++++++++++++++++++++++++++",
"+++++++++++++++++++++++++++++++++++ OOOOOOOOoooOOoOOOOOOoOOOOOOoooo ++++++++++++++++++++++++++++++++",
"+++++++++++++++++++++++++++++++  ++  OOOOOOOOoooooOOOOOooOOOOOooooo ++++++++++++++++++++++++++++++++",
"+++++++++++++++++++++++++++++++ O +  OOOOOOOOoooooOOOOOooooooooooooo +++++++++++++++++++++++++++++++",
"+++++++++++++++++++++++++++++++ OO  OOOOOOOOOoo   OOOOO        ooooo +++++++++++++++++++++++++++++++",
"+++++++++++++++++++++++++++++++ OOOOOOOOOOOOOoo  OOOOO +++++++ oooooo ++++++++++++++++++++++++++++++",
"++++++++++++++++++++++++++++++++ OOOOOOOOOOOoo + OOOOO ++++++++ ooooo ++++++++++++++++++++++++++++++",
"+++++++++++++++++++++++++++++++++ OOOOOOOOOoo ++ OOOOO ++++++++ ooooo ++++++++++++++++++++++++++++++",
"+++++++++++++++++++++++++++++++++ OOOOo      +++ OOOO ++++++++++ ooooo +++++++++++++++++++++++++++++",
"+++++++++++++++++++++++++++++++++ OOOOo ++++++++ OOOO ++++++++++ ooooo +++++++++++++++++++++++++++++",
"++++++++++++++++++++++++++++++++++ OOOOo +++++++ OOOOO ++++++++++ ooooo ++++++++++++++++++++++++++++",
"++++++++++++++++++++++++++++++++++ OOOOO +++++++ OOOOO ++++++++++ ooooo ++++++++++++++++++++++++++++",
"++++++++++++++++++++++++++++++++++ oOOOO ++++++++ OOOO +++++++++++ oooo ++++++++++++++++++++++++++++",
"++++++++++++++++++++++++++++++++++++++++++++++++++++++++++++++++++++++++++++++++++++++++++++++++++++",
"++++++++++++++++++++++++++++++++++++++++++++++++++++++++++++++++++++++++++++++++++++++++++++++++++++",
"++++++++++++++++++++++++++++++++++++++++++++++++++++++++++++++++++++++++++++++++++++++++++++++++++++",
"++++++++++++++++++++++++++++++++++++++++++++++++++++++++++++++++++++++++++++++++++++++++++++++++++++",
"++++++++++++++++++++++++++++++++++++++++++++++++++++++++++++++++++++++++++++++++++++++++++++++++++++",
"++++++++++++++++++++++++++++++++++++++++++++++++++++++++++++++++++++++++++++++++++++++++++++++++++++",
"++++++++++++++++++++++++++++++++++++++++++++++++++++++++++++++++++++++++++++++++++++++++++++++++++++",
"++++++++++++++++++++++++++++++++++++++++++++++++++++++++++++++++++++++++++++++++++++++++++++++++++++",
"++++++++++++++++++++++++++++++++++++++++++++++++++++++++++++++++++++++++++++++++++++++++++++++++++++",
"++++++++++++++++++++++++++++++++++++++++++++++++++++++++++++++++++++++++++++++++++++++++++++++++++++",
"++++++++++++++++++++++++++++++++++++++++++++++++++++++++++++++++++++++++++++++++++++++++++++++++++++",
"++++++++++++++++++++++++++++++++++++++++++++++++++++++++++++++++++++++++++++++++++++++++++++++++++++",
"++++++++++++++++++++++++++++++++++++++++++++++++++++++++++++++++++++++++++++++++++++++++++++++++++++",
"++++++++++++++++++++++++++++++++++++++++++++++++++++++++++++++++++++++++++++++++++++++++++++++++++++",
"++++++++++++++++++++++++++++++++++++++++++++++++++++++++++++++++++++++++++++++++++++++++++++++++++++",
"++++++++++++++++++++++++++++++++++++++++++++++++++++++++++++++++++++++++++++++++++++++++++++++++++++",
"++++++++++++++++++++++++++++++++++++++++++++++++++++++++++++++++++++++++++++++++++++++++++++++++++++",
"++++++++++++++++++++++++++++++++++++++++++++++++++++++++++++++++++++++++++++++++++++++++++++++++++++",
"++++++++++++++++++++++++++++++++++++++++++++++++++++++++++++++++++++++++++++++++++++++++++++++++++++",
"++++++++++++++++++++++++++++++++++++++++++++++++++++++++++++++++++++++++++++++++++++++++++++++++++++",
"++++++++++++++++++++++++++++++++++++++++++++++++++++++++++++++++++++++++++++++++++++++++++++++++++++",
"++++++++++++++++++++++++++++++++++++++++++++++++++++++++++++++++++++++++++++++++++++++++++++++++++++",
"++++++++++++++++++++++++++++++++++++++++++++++++++++++++++++++++++++++++++++++++++++++++++++++++++++",
"++++++++++++++++++++++++++++++++++++++++++++++++++++++++++++++++++++++++++++++++++++++++++++++++++++"
};
