/* XPM */
static char *result[] = {
/* columns rows colors chars-per-pixel */
"32 32 182 2 ",
"   c #2E6237",
".  c #376F38",
"X  c #367B3E",
"o  c #4A5931",
"O  c #44593C",
"+  c #4A5C3B",
"@  c #406F36",
"#  c #5C6B37",
"$  c #5E6D37",
"%  c #417B3F",
"&  c #647030",
"*  c #6D7A33",
"=  c #687D33",
"-  c #6F7F31",
";  c #63733B",
":  c #697939",
">  c #06376C",
",  c #03396C",
"<  c #213B6A",
"1  c #154547",
"2  c #14494B",
"3  c #14494C",
"4  c #144A4C",
"5  c #175049",
"6  c #195049",
"7  c #1C594A",
"8  c #1B5B4C",
"9  c #234744",
"0  c #244A46",
"q  c #304F44",
"w  c #335043",
"e  c #1F644C",
"r  c #206146",
"t  c #20664C",
"y  c #21694C",
"u  c #236C4C",
"i  c #346B40",
"p  c #297544",
"a  c #28784C",
"s  c #2A7E4C",
"d  c #2C7B52",
"f  c #2E7762",
"g  c #495854",
"h  c #576541",
"j  c #546C45",
"k  c #5B6946",
"l  c #5D6A45",
"z  c #586648",
"x  c #6E7A40",
"c  c #6C7752",
"v  c #515A6C",
"b  c #566E72",
"n  c #757A62",
"m  c #72796C",
"M  c #9A784F",
"N  c #5C8139",
"B  c #5D8139",
"V  c #77832D",
"C  c #7B882D",
"Z  c #658137",
"A  c #6D8A39",
"S  c #728131",
"D  c #738231",
"F  c #748231",
"G  c #758331",
"H  c #758533",
"J  c #768335",
"K  c #7D8234",
"L  c #798634",
"P  c #788436",
"I  c #738A37",
"U  c #7B8935",
"Y  c #798C36",
"T  c #7B883A",
"R  c #7F8C3A",
"E  c #2E8347",
"W  c #2E8848",
"Q  c #378041",
"!  c #308645",
"~  c #308745",
"^  c #3A8141",
"/  c #3A8240",
"(  c #328B47",
")  c #368A45",
"_  c #318C48",
"`  c #328E48",
"'  c #338E48",
"]  c #318D4A",
"[  c #308D4C",
"{  c #33924A",
"}  c #33944B",
"|  c #31904C",
" . c #32914C",
".. c #33944C",
"X. c #34954C",
"o. c #34964C",
"O. c #369453",
"+. c #588546",
"@. c #5B9343",
"#. c #5C9846",
"$. c #79864A",
"%. c #798558",
"&. c #798459",
"*. c #818F2F",
"=. c #808D34",
"-. c #818F35",
";. c #808E38",
":. c #828F3C",
">. c #859331",
",. c #879633",
"<. c #819135",
"1. c #839134",
"2. c #829035",
"3. c #849134",
"4. c #859335",
"5. c #869435",
"6. c #879535",
"7. c #869437",
"8. c #899736",
"9. c #899836",
"0. c #8B9936",
"q. c #8B9A36",
"w. c #8B9A37",
"e. c #8C9B37",
"r. c #928279",
"t. c #313E81",
"y. c #282A94",
"u. c #2622BA",
"i. c #392ABB",
"p. c #4039A8",
"a. c #4431B4",
"s. c #4C39B3",
"d. c #5037BF",
"f. c #3A428E",
"g. c #3045AC",
"h. c #3251B7",
"j. c #3267AD",
"k. c #4E528D",
"l. c #55598B",
"z. c #545F88",
"x. c #4F5194",
"c. c #545693",
"v. c #5F6580",
"b. c #5D618D",
"n. c #4B6E94",
"m. c #706A87",
"M. c #725EA5",
"N. c #2B00C5",
"B. c #2C00C9",
"V. c #320DC3",
"C. c #2D12CD",
"Z. c #331DC1",
"A. c #331ACA",
"S. c #341DC8",
"D. c #2E0DD3",
"F. c #3005D8",
"G. c #3004D9",
"H. c #3006D8",
"J. c #5C1CCA",
"K. c #5D0CDE",
"L. c #5929C8",
"P. c #663CC7",
"I. c #6C2CD3",
"U. c #6706E5",
"Y. c #6D07E1",
"T. c #6D18E2",
"R. c #6E0AF1",
"E. c #760AF6",
"W. c #770BF6",
"Q. c #780AF7",
"!. c #780BF7",
"~. c #6443C3",
"^. c #755EC0",
"/. c #6349D3",
"(. c #7D65C2",
"). c #885DDA",
"_. c #816ECD",
"`. c #845DE8",
"'. c #8B61F3",
"]. c #997BF2",
"[. c #9E81A8",
"{. c #A594ED",
/* pixels */
"e.e.e.e.e.e.e.e.e.e.e.e.e.e.e.e.e.e.e.e.e.e.e.e.e.e.e.e.e.e.e.e.",
"e.e.e.e.e.e.e.e.e.e.e.e.e.e.e.e.e.e.e.e.e.e.e.e.e.e.e.e.e.e.e.e.",
"e.e.e.e.e.e.e.e.e.e.e.e.e.e.e.e.e.e.e.e.e.e.e.e.e.e.e.e.e.e.e.e.",
"e.e.e.e.e.e.e.e.e.e.e.e.e.e.e.e.e.e.e.e.e.e.e.e.e.e.e.e.e.e.e.e.",
"e.e.e.e.e.e.e.e.e.e.e.e.e.e.e.e.e.e.e.e.e.e.e.e.e.e.e.e.e.e.e.e.",
"e.e.e.e.e.e.e.e.e.e.e.e.e.e.e.e.e.e.e.e.e.e.e.e.e.e.e.e.e.e.e.e.",
"e.e.e.e.e.e.e.e.e.e.e.e.e.e.e.e.e.e.e.e.e.e.e.e.e.e.e.e.e.e.e.e.",
"e.e.e.e.e.e.e.e.e.e.e.e.e.e.e.e.e.e.e.e.e.e.e.e.e.e.e.e.e.e.e.e.",
"e.e.e.e.e.e.e.e.e.e.e.e.e.e.e.e.e.e.e.e.e.e.e.e.e.e.e.e.e.e.e.e.",
"e.e.e.e.e.e.e.e.e.e.e.e.e.e.e.e.e.e.e.e.e.e.e.e.e.e.e.e.e.e.e.e.",
"e.e.e.e.e.e.e.e.7.n >.q.e.e.4.e.,.*.o h g x.k.c 6.e.e.e.e.e.e.e.",
"e.e.e.e.e.e.e.:.I.U.N.b.q.2.  b L.Y.T.J.y.G.F.D.t.;.e.e.e.e.e.e.",
"e.e.e.e.e.e.e.T m.$.l.B.C w e h.W.!.!.!.K.V.F.F.u.l e.e.e.e.e.e.",
"e.e.e.e.e.e.e.e.%.p.i.Z.V W E g.E.'.Q.!.R.d.^.(.M.M e.e.e.e.e.e.",
"e.e.e.e.e.e.e.R S.A.c.&.1.) _ d /.].{.`.).[.s.a.r.K e.e.e.e.e.e.",
"e.e.e.e.e.e.e.x C.v.e.e.0.Y Q ' O.n.P._.~.m 9.9.w.e.e.e.e.e.e.e.",
"e.e.e.e.e.e.e.z > P e.3.. B S @ X.o.a y # = 8.e.e.e.e.e.e.e.e.e.",
"e.e.e.e.e.e.e.k , f.z./ ! o.X.o.o.o.o.o.7 % 9.e.e.e.e.e.e.e.e.e.",
"e.e.e.e.e.e.e.=.< H.j.o.o...o...o.o.o.o.8 * e.e.e.e.e.e.e.e.e.e.",
"e.e.e.e.e.e.e.e.J v f o. .u a s [ o.o.| 5 L e.e.e.e.e.e.e.e.e.e.",
"e.e.e.e.e.e.e.e.D X ` o.^ 0 4 3 i o.p 6 9 5.e.e.e.e.e.e.e.e.e.e.",
"e.e.e.e.e.e.e.e.F { ~ } r 4 4 q G ( ] 2 O e.e.e.e.e.e.e.e.e.e.e.",
"e.e.e.e.e.e.e.e.Z { - H + 1 & -.e.N o.t $ e.e.e.e.e.e.e.e.e.e.e.",
"e.e.e.e.e.e.e.e.A #.I e.U j : e.e.<.@.+.; e.e.e.e.e.e.e.e.e.e.e.",
"e.e.e.e.e.e.e.e.e.e.e.e.e.e.e.e.e.e.e.e.e.e.e.e.e.e.e.e.e.e.e.e.",
"e.e.e.e.e.e.e.e.e.e.e.e.e.e.e.e.e.e.e.e.e.e.e.e.e.e.e.e.e.e.e.e.",
"e.e.e.e.e.e.e.e.e.e.e.e.e.e.e.e.e.e.e.e.e.e.e.e.e.e.e.e.e.e.e.e.",
"e.e.e.e.e.e.e.e.e.e.e.e.e.e.e.e.e.e.e.e.e.e.e.e.e.e.e.e.e.e.e.e.",
"e.e.e.e.e.e.e.e.e.e.e.e.e.e.e.e.e.e.e.e.e.e.e.e.e.e.e.e.e.e.e.e.",
"e.e.e.e.e.e.e.e.e.e.e.e.e.e.e.e.e.e.e.e.e.e.e.e.e.e.e.e.e.e.e.e.",
"e.e.e.e.e.e.e.e.e.e.e.e.e.e.e.e.e.e.e.e.e.e.e.e.e.e.e.e.e.e.e.e.",
"e.e.e.e.e.e.e.e.e.e.e.e.e.e.e.e.e.e.e.e.e.e.e.e.e.e.e.e.e.e.e.e."
};
