/* XPM */
static char *result[] = {
/* columns rows colors chars-per-pixel */
"100 100 11 1 ",
"  c #1C121B",
". c #392022",
"X c #03396B",
"o c #144A4C",
"O c #34964C",
"+ c #8C9B37",
"@ c #E59B6A",
"# c #3005D8",
"$ c #780BF7",
"% c #F3CBA1",
"& c #DDE2E9",
/* pixels */
"++++++++++++++++++++++++++++++++++++++++++++++++++++++++++++++++++++++++++++++++++++++++++++++++++++",
"++++++++++++++++++++++++++++++++++++++++++++++++++++++++++++++++++++++++++++++++++++++++++++++++++++",
"++++++++++++++++++++++++++++++++++++++++++++++++++++++++++++++++++++++++++++++++++++++++++++++++++++",
"++++++++++++++++++++++++++++++++++++++++++++++++++++++++++++++++++++++++++++++++++++++++++++++++++++",
"++++++++++++++++++++++++++++++++++++++++++++++++++++++++++++++++++++++++++++++++++++++++++++++++++++",
"++++++++++++++++++++++++++++++++++++++++++++++++++++++++++++++++++++++++++++++++++++++++++++++++++++",
"++++++++++++++++++++++++++++++++++++++++++++++++++++++++++++++++++++++++++++++++++++++++++++++++++++",
"++++++++++++++++++++++++++++++++++++++++++++++++++++++++++++++++++++++++++++++++++++++++++++++++++++",
"++++++++++++++++++++++++++++++++++++++++++++++++++++++++++++++++++++++++++++++++++++++++++++++++++++",
"++++++++++++++++++++++++++++++++++++++++++++++++++++++++++++++++++++++++++++++++++++++++++++++++++++",
"++++++++++++++++++++++++++++++++++++++++++++++++++++++++++++++++++++++++++++++++++++++++++++++++++++",
"++++++++++++++++++++++++++++++++++++++++++++++++++++++++++++++++++++++++++++++++++++++++++++++++++++",
"++++++++++++++++++++++++++++++++++++++++++++++++++++++++++++++++++++++++++++++++++++++++++++++++++++",
"++++++++++++++++++++++++++++++++++++++++++++++++++++++++++++++++++++++++++++++++++++++++++++++++++++",
"++++++++++++++++++++++++++++++++++++++++++++++++++++++++++++++++++++++++++++++++++++++++++++++++++++",
"++++++++++++++++++++++++++++++++++++++++++++++++++++++++++++++++++++++++++++++++++++++++++++++++++++",
"++++++++++++++++++++++++++++++++++++++++++++++++++++++++++++++++++++++++++++++++++++++++++++++++++++",
"++++++++++++++++++++++++++++++++++++++++++++++++++++++++++++++++++++++++++++++++++++++++++++++++++++",
"++++++++++++++++++++++++++++++++++++++++++++++++++++++++++++++++++++++++++++++++++++++++++++++++++++",
"++++++++++++++++++++++++++++++++++++++++++++++++++++++++++++++++++++++++++++++++++++++++++++++++++++",
"++++++++++++++++++++++++++++++++++++++++++++++++++++++++++++++++++++++++++++++++++++++++++++++++++++",
"++++++++++++++++++++++++++++++++++++++++++++++++++++++++++++++++++++++++++++++++++++++++++++++++++++",
"++++++++++++++++++++++++++++++++++++++++++++++++++++++++++++++++++++++++++++++++++++++++++++++++++++",
"++++++++++++++++++++++++++++++++++++++++++++++++++++++++++++++++++++++++++++++++++++++++++++++++++++",
"++++++++++++++++++++++++++++++++++++++++++++++++++++++++++++++++++++++++++++++++++++++++++++++++++++",
"++++++++++++++++++++++++++++++++++++++++++++++++++++++++++++++++++++++++++++++++++++++++++++++++++++",
"++++++++++++++++++++++++++++++++++++++++++++++++++++++++++++++++++++++++++++++++++++++++++++++++++++",
"++++++++++++++++++++++++++++++++++++++++++++++++++++++++++++++++++++++++++++++++++++++++++++++++++++",
"++++++++++++++++++++++++++++++++++++++++++++++++++++++++++++++++++++++++++++++++++++++++++++++++++++",
"++++++++++++++++++++++++++++++++++++++++++++++++++++++++++++++++++++++++++++++++++++++++++++++++++++",
"++++++++++++++++++++++++++++++++++++++++++++++++++++++++++++++++++++++++++++++++++++++++++++++++++++",
"++++++++++++++++++++++++++++++++++++++++++++++++++++++++++++++++++++++++++++++++++++++++++++++++++++",
"+++++++++++++++++++++++++++++++++++++++++++++++++++++++    +           +++++++++++++++++++++++++++++",
"+++++++++++++++++++++++++++++++++++++++++++++++++++++++ ooo XXXXX#####X   ++++++++++++++++++++++++++",
"+++++++++++++++++++++++++++++++++++++++++   ++++         oo.XXXX#########X  ++++++++++++++++++++++++",
"+++++++++++++++++++++++   +++++++++++++++ OO    ###$$$$$$$##.XX###########XX +++++++++++++++++++++++",
"+++++++++++++++++++++++ $$ +++++++++++++   OOO###$$$$$$$$$$$#.#############XX ++++++++++++++++++++++",
"+++++++++++++++++++++++ $$$ +++++++++++ oooOOO##$$$$$$$$$$$$$#.#############XX +++++++++++++++++++++",
"++++++++++++++++++++++++ $$$ +++++++++ oooooo##$$$$$$$$$$$$$$##.############XX +++++++++++++++++++++",
"++++++++++++++++++++++++ $$$ ++++++++ oooooOO##$$$$$$$$$$$$$$$##.###########XX +++++++++++++++++++++",
"++++++++++++++++++++++++ $$$$ +++++++ ooooOOO##$$$$$$$$$$$$$$$$##.##########XX +++++++++++++++++++++",
"+++++++++++++++++++++++++ $$$ +++++++ OOOoOOOo#$$$$$$$$$$$$$$$$###.#########XX +++++++++++++++++++++",
"++++++++++++++++++++++    $$$ +++++++ OOOOO   ##$$$$$$$$$$$$$$$###.###%%###XX@@ ++++++++++++++++++++",
"+++++++++++++++++++++ ####$$ +++++++++ OOOO   o#$$$#&&$$$$$$$$$###%.XX%%XX%%.@@ ++++++++++++++++++++",
"++++++++++++++++++++ ###### ++++++++++ OOOOO oo #$$$&&$$$$$$$$$%%.%.######%%X   ++++++++++++++++++++",
"+++++++++++++++++++ #####  +++++++++++ OOOOOOOoo #$$$$#&&XX&&XX%%..########  +++++++++++++++++++++++",
"++++++++++++++++++ ####  ++++++++++++++ OOOOOOOOOo#$$$$&&$$&&$$##          +++++++++++++++++++++++++",
"+++++++++++++++++ #### +++++++++++++++++ OOOOOOOOOOo $$$$$$$$$## +++++++++++++++++++++++++++++++++++",
"+++++++++++++++++ #### ++++++++++++++++++ OOOOOOOOOOo  ooooo    ++++++++++++++++++++++++++++++++++++",
"+++++++++++++++++ ### ++++++++++++++++++++  OOOOOOOOO  ooooo +++++++++++++++++++++++++++++++++++++++",
"+++++++++++++++++ ### +++++++++++++     ++++  OOOOOOOO ooooo +++++++++++++++++++++++++++++++++++++++",
"++++++++++++++++ #### +       +++++ OOOO +++++  OOOOOOOoooooo ++++++++++++++++++++++++++++++++++++++",
"++++++++++++++++ ####  XXXXXXX +++++ OOOO        OOOOOOoooooo +++  +++++++++++++++++++++++++++++++++",
"++++++++++++++++ #####XXXXXXX## +     OOOOOOOOOOOOOOOOOOOOOOoo + O +++++++++++++++++++++++++++++++++",
"++++++++++++++++ #####XXXXXX#### OOOOOOOOOOOOOOOOOOOOOOOOOOOOoo OO +++++++++++++++++++++++++++++++++",
"++++++++++++++++ #####XXXXXX####OOOOOOOOOOOOOOOOOOOOOOOOOOOOOoooOO +++++++++++++++++++++++++++++++++",
"+++++++++++++++++ ###XXXXXXX###OOOOOOOOOOOOOOOOOOOOOOOOOOOOOOoooO ++++++++++++++++++++++++++++++++++",
"++++++++++++++++++ XXXXX    ###OOOOOOOOOOOOOOOOOOOOOOOOOOOOOOooo +++++++++++++++++++++++++++++++++++",
"+++++++++++++++++++     ++++ ##OOOOOOOOOOOOOOOOOOOOOOOOOOOOOOooo +++++++++++++++++++++++++++++++++++",
"+++++++++++++++++++++++++++++ #OOOOOOOOoOOOOOOOoOOOOOOOOOOOOOooo +++++++++++++++++++++++++++++++++++",
"++++++++++++++++++++++++++++++ OOOOOOOOOoOOoOOOoOOOOOOOOOOOOOooo +++++++++++++++++++++++++++++++++++",
"++++++++++++++++++++++++++++  + OOOOOOOOOoooOOOoOOOOOOOOOOOOOooo +++++++++++++++++++++++++++++++++++",
"++++++++++++++++++++++++++++ O + OOOOOOOOOooOOOoOOOOOoOOOOOOooo ++++++++++++++++++++++++++++++++++++",
"++++++++++++++++++++++++++++ OO   OOOOOOOOoooooOOOOOOoOOOOOoooo ++++++++++++++++++++++++++++++++++++",
"++++++++++++++++++++++++++++ OOOOOOOOOOOOOoooooOOOOOO ooooooooo ++++++++++++++++++++++++++++++++++++",
"+++++++++++++++++++++++++++++ OOOOOOOOOOOOoooo OOOOOO     ooooo ++++++++++++++++++++++++++++++++++++",
"++++++++++++++++++++++++++++++ OOOOOOOOOOooooo OOOOO +++++ ooooo +++++++++++++++++++++++++++++++++++",
"++++++++++++++++++++++++++++++ OOOOooOOOooooo  OOOOO ++++++ oooo +++++++++++++++++++++++++++++++++++",
"+++++++++++++++++++++++++++++++ OOOOoooooooo + OOOOO ++++++ oooo +++++++++++++++++++++++++++++++++++",
"+++++++++++++++++++++++++++++++ OOOOOo      ++ OOOOO +++++ ooooo +++++++++++++++++++++++++++++++++++",
"++++++++++++++++++++++++++++++++ OOOOo ++++++++ OOOO +++++ ooooo +++++++++++++++++++++++++++++++++++",
"+++++++++++++++++++++++++++++++++ OOOoo +++++++ OOOOO ++++ oooo ++++++++++++++++++++++++++++++++++++",
"+++++++++++++++++++++++++++++++++ ooooo +++++++ OOOOO +++++    +++++++++++++++++++++++++++++++++++++",
"++++++++++++++++++++++++++++++++++ oooo ++++++++ OOOO ++++++++++++++++++++++++++++++++++++++++++++++",
"++++++++++++++++++++++++++++++++++++++++++++++++++++++++++++++++++++++++++++++++++++++++++++++++++++",
"++++++++++++++++++++++++++++++++++++++++++++++++++++++++++++++++++++++++++++++++++++++++++++++++++++",
"++++++++++++++++++++++++++++++++++++++++++++++++++++++++++++++++++++++++++++++++++++++++++++++++++++",
"++++++++++++++++++++++++++++++++++++++++++++++++++++++++++++++++++++++++++++++++++++++++++++++++++++",
"++++++++++++++++++++++++++++++++++++++++++++++++++++++++++++++++++++++++++++++++++++++++++++++++++++",
"++++++++++++++++++++++++++++++++++++++++++++++++++++++++++++++++++++++++++++++++++++++++++++++++++++",
"++++++++++++++++++++++++++++++++++++++++++++++++++++++++++++++++++++++++++++++++++++++++++++++++++++",
"++++++++++++++++++++++++++++++++++++++++++++++++++++++++++++++++++++++++++++++++++++++++++++++++++++",
"++++++++++++++++++++++++++++++++++++++++++++++++++++++++++++++++++++++++++++++++++++++++++++++++++++",
"++++++++++++++++++++++++++++++++++++++++++++++++++++++++++++++++++++++++++++++++++++++++++++++++++++",
"++++++++++++++++++++++++++++++++++++++++++++++++++++++++++++++++++++++++++++++++++++++++++++++++++++",
"++++++++++++++++++++++++++++++++++++++++++++++++++++++++++++++++++++++++++++++++++++++++++++++++++++",
"++++++++++++++++++++++++++++++++++++++++++++++++++++++++++++++++++++++++++++++++++++++++++++++++++++",
"++++++++++++++++++++++++++++++++++++++++++++++++++++++++++++++++++++++++++++++++++++++++++++++++++++",
"++++++++++++++++++++++++++++++++++++++++++++++++++++++++++++++++++++++++++++++++++++++++++++++++++++",
"++++++++++++++++++++++++++++++++++++++++++++++++++++++++++++++++++++++++++++++++++++++++++++++++++++",
"++++++++++++++++++++++++++++++++++++++++++++++++++++++++++++++++++++++++++++++++++++++++++++++++++++",
"++++++++++++++++++++++++++++++++++++++++++++++++++++++++++++++++++++++++++++++++++++++++++++++++++++",
"++++++++++++++++++++++++++++++++++++++++++++++++++++++++++++++++++++++++++++++++++++++++++++++++++++",
"++++++++++++++++++++++++++++++++++++++++++++++++++++++++++++++++++++++++++++++++++++++++++++++++++++",
"++++++++++++++++++++++++++++++++++++++++++++++++++++++++++++++++++++++++++++++++++++++++++++++++++++",
"++++++++++++++++++++++++++++++++++++++++++++++++++++++++++++++++++++++++++++++++++++++++++++++++++++",
"++++++++++++++++++++++++++++++++++++++++++++++++++++++++++++++++++++++++++++++++++++++++++++++++++++",
"++++++++++++++++++++++++++++++++++++++++++++++++++++++++++++++++++++++++++++++++++++++++++++++++++++",
"++++++++++++++++++++++++++++++++++++++++++++++++++++++++++++++++++++++++++++++++++++++++++++++++++++",
"++++++++++++++++++++++++++++++++++++++++++++++++++++++++++++++++++++++++++++++++++++++++++++++++++++"
};
