/* XPM */
static char *result[] = {
/* columns rows colors chars-per-pixel */
"32 32 183 2 ",
"   c #3E523B",
".  c #28693B",
"X  c #3F6133",
"o  c #2F753C",
"O  c #3A7B3D",
"+  c #3A7D3F",
"@  c #45593C",
"#  c #4F613B",
"$  c #426E3D",
"%  c #50623A",
"&  c #4C763B",
"*  c #4F7A39",
"=  c #4F7C3A",
"-  c #537D39",
";  c #5F7F38",
":  c #68792F",
">  c #6B792F",
",  c #6E792F",
"<  c #607C35",
"1  c #6C7932",
"2  c #677638",
"3  c #6C7939",
"4  c #6F7C3B",
"5  c #707E36",
"6  c #0C3867",
"7  c #043668",
"8  c #033869",
"9  c #144245",
"0  c #134447",
"q  c #1F4341",
"w  c #194640",
"e  c #1B4546",
"r  c #1D4544",
"t  c #154947",
"y  c #134648",
"u  c #144A4C",
"i  c #1E4C4A",
"p  c #16504C",
"a  c #18544C",
"s  c #19544C",
"d  c #19554C",
"f  c #1B5A4C",
"g  c #204544",
"h  c #264C44",
"j  c #355D42",
"k  c #1E614C",
"l  c #246F4C",
"z  c #277346",
"x  c #297647",
"c  c #287A4C",
"v  c #2D7668",
"b  c #2D7970",
"n  c #4E5C4E",
"m  c #485953",
"M  c #556158",
"N  c #626F43",
"B  c #6E7E46",
"V  c #727D45",
"C  c #737F46",
"Z  c #7B704A",
"A  c #697455",
"S  c #6D7852",
"D  c #6D7857",
"F  c #4F5874",
"G  c #6A736B",
"H  c #616979",
"J  c #907941",
"K  c #57803A",
"L  c #598039",
"P  c #658136",
"I  c #6B8537",
"U  c #628238",
"Y  c #768332",
"T  c #778733",
"R  c #728034",
"E  c #758237",
"W  c #788632",
"Q  c #788833",
"!  c #798833",
"~  c #7C8931",
"^  c #7C8932",
"/  c #7C8A33",
"(  c #7D8B34",
")  c #2E884C",
"_  c #2F894C",
"`  c #2F8B4C",
"'  c #308243",
"]  c #348242",
"[  c #308845",
"{  c #318845",
"}  c #328B47",
"|  c #308A48",
" . c #328E48",
".. c #338F49",
"X. c #308D4C",
"o. c #318E4C",
"O. c #32924A",
"+. c #34944B",
"@. c #34954B",
"#. c #33944C",
"$. c #33954C",
"%. c #34954C",
"&. c #34964C",
"*. c #38964B",
"=. c #378468",
"-. c #4B8640",
";. c #7A8540",
":. c #818F30",
">. c #808F34",
",. c #849233",
"<. c #839134",
"1. c #859334",
"2. c #869435",
"3. c #879634",
"4. c #879635",
"5. c #879537",
"6. c #879636",
"7. c #899736",
"8. c #8A9935",
"9. c #899836",
"0. c #8A9936",
"q. c #8A9A37",
"w. c #8B9A37",
"e. c #8C9B37",
"r. c #86943A",
"t. c #87953A",
"y. c #83903C",
"u. c #8B9B38",
"i. c #1D2D9E",
"p. c #183095",
"a. c #322A90",
"s. c #2913BB",
"d. c #301AB7",
"f. c #3310B9",
"g. c #3610BD",
"h. c #2D22AA",
"j. c #2424B6",
"k. c #2C28B3",
"l. c #3624BD",
"z. c #542AB5",
"x. c #563BB4",
"c. c #3A509D",
"v. c #337E8D",
"b. c #555792",
"n. c #525496",
"m. c #417B8D",
"M. c #706D81",
"N. c #6F609B",
"B. c #4541A3",
"V. c #4642AD",
"C. c #4A47AA",
"Z. c #5E49AB",
"A. c #6E5CA1",
"S. c #6947B4",
"D. c #614EBB",
"F. c #705BBF",
"G. c #2A13C5",
"H. c #2F0CD4",
"J. c #3006D5",
"K. c #3006D6",
"L. c #3008D7",
"P. c #3003D8",
"I. c #3005D8",
"U. c #6512DF",
"Y. c #5339D5",
"T. c #6B2AD2",
"R. c #5909E5",
"E. c #5918E5",
"W. c #610BE8",
"Q. c #700BF1",
"!. c #7809F7",
"~. c #780BF7",
"^. c #732EF0",
"/. c #5B41D4",
"(. c #6546C5",
"). c #8F7391",
"_. c #8575CE",
"`. c #8A7ACC",
"'. c #A079CB",
"]. c #8963E9",
"[. c #8D6AEC",
"{. c #A78B8A",
"}. c #A797EF",
/* pixels */
"e.e.e.e.e.e.e.e.e.e.e.e.e.e.e.e.e.e.e.e.e.e.e.e.e.e.e.e.e.e.e.e.",
"e.e.e.e.e.e.e.e.e.e.e.e.e.e.e.e.e.e.e.e.e.e.e.e.e.e.e.e.e.e.e.e.",
"e.e.e.e.e.e.e.e.e.e.e.e.e.e.e.e.e.e.e.e.e.e.e.e.e.e.e.e.e.e.e.e.",
"e.e.e.e.e.e.e.e.e.e.e.e.e.e.e.e.e.e.e.e.e.e.e.e.e.e.e.e.e.e.e.e.",
"e.e.e.e.e.e.e.e.e.e.e.e.e.e.e.e.e.e.e.e.e.e.e.e.e.e.e.e.e.e.e.e.",
"e.e.e.e.e.e.e.e.e.e.e.e.e.e.e.e.e.e.e.e.e.e.e.e.e.e.e.e.e.e.e.e.",
"e.e.e.e.e.e.e.e.e.e.e.e.e.e.e.e.e.e.e.e.e.e.e.e.e.e.e.e.e.e.e.e.",
"e.e.e.e.e.e.e.e.e.e.e.e.e.e.e.e.e.e.e.e.e.e.e.e.e.e.e.e.e.e.e.e.",
"e.e.e.e.e.e.e.e.e.e.e.e.e.e.e.e.e.e.e.e.e.e.e.e.e.e.e.e.e.e.e.e.",
"e.e.e.e.e.e.e.e.e.e.e.e.e.e.e.e.e.e.e.e.e.e.e.e.e.e.e.e.e.e.e.e.",
"e.e.e.e.e.e.e.e.e.e.e.e.e.e.e.e.e.0.1 E 3 D S ,.e.e.e.e.e.e.e.e.",
"e.e.e.e.e.e.e.e.;.N.8.e.e.: ; H Z.S.z.a.i.L.H.s.M 9.e.e.e.e.e.e.",
"e.e.e.e.e.e.e.e.t.T.A.e.5 e b E.~.~.~.Q.g.K.I.I.j.N e.e.e.e.e.e.",
"e.e.e.e.e.e.e.e.e.M.U.:.$ c v W.~.!.~.~.R.f.Y./.k.Z e.e.e.e.e.e.",
"e.e.e.e.e.e.5.G b.l.V.3.P &.. c.^.}.].[.'.).D.F.{.J e.e.e.e.e.e.",
"e.e.e.e.e.4.C.J.d.n.r.e.6.-.+.%.m.(._.`.x.V C C y.e.e.e.e.e.e.e.",
"e.e.e.e.e.~ G.h.9.e.e.T L Q > o &.| p h <./ e.e.e.e.e.e.e.e.e.e.",
"e.e.e.e.e.^ 7 6 n A B = [ } { &.&.&.&.) j - e.e.e.e.e.e.e.e.e.e.",
"e.e.e.e.e.7.m 8 p.P.v.&.&.&.&.&.&.&.&.o.t >.e.e.e.e.e.e.e.e.e.e.",
"e.e.e.e.e.e.7.4 F B.=.&.X._ X.) &.&.&.` g 2.e.e.e.e.e.e.e.e.e.e.",
"e.e.e.e.e.e.e.e.W I < &.$.s d l &.x z f @ e.e.e.e.e.e.e.e.e.e.e.",
"e.e.e.e.e.e.e.e.!  .O.&.#.a u w @.O Y y r 2.e.e.e.e.e.e.e.e.e.e.",
"e.e.e.e.e.e.e.e.9.' + & k   % ( ] .., 0 9 1.e.e.e.e.e.e.e.e.e.e.",
"e.e.e.e.e.e.e.e.w.K * R i # e.e.U *.X q 2 e.e.e.e.e.e.e.e.e.e.e.",
"e.e.e.e.e.e.e.e.e.w.w.e.q.w.e.e.w.u.w.0.e.e.e.e.e.e.e.e.e.e.e.e.",
"e.e.e.e.e.e.e.e.e.e.e.e.e.e.e.e.e.e.e.e.e.e.e.e.e.e.e.e.e.e.e.e.",
"e.e.e.e.e.e.e.e.e.e.e.e.e.e.e.e.e.e.e.e.e.e.e.e.e.e.e.e.e.e.e.e.",
"e.e.e.e.e.e.e.e.e.e.e.e.e.e.e.e.e.e.e.e.e.e.e.e.e.e.e.e.e.e.e.e.",
"e.e.e.e.e.e.e.e.e.e.e.e.e.e.e.e.e.e.e.e.e.e.e.e.e.e.e.e.e.e.e.e.",
"e.e.e.e.e.e.e.e.e.e.e.e.e.e.e.e.e.e.e.e.e.e.e.e.e.e.e.e.e.e.e.e.",
"e.e.e.e.e.e.e.e.e.e.e.e.e.e.e.e.e.e.e.e.e.e.e.e.e.e.e.e.e.e.e.e.",
"e.e.e.e.e.e.e.e.e.e.e.e.e.e.e.e.e.e.e.e.e.e.e.e.e.e.e.e.e.e.e.e."
};
