/* XPM */
static char *result[] = {
/* columns rows colors chars-per-pixel */
"100 100 11 1 ",
"  c #1C121B",
". c #392022",
"X c #03396B",
"o c #144A4C",
"O c #34964C",
"+ c #8C9B37",
"@ c #E59B6A",
"# c #3005D8",
"$ c #780BF7",
"% c #F3CBA1",
"& c #DDE2E9",
/* pixels */
"++++++++++++++++++++++++++++++++++++++++++++++++++++++++++++++++++++++++++++++++++++++++++++++++++++",
"++++++++++++++++++++++++++++++++++++++++++++++++++++++++++++++++++++++++++++++++++++++++++++++++++++",
"++++++++++++++++++++++++++++++++++++++++++++++++++++++++++++++++++++++++++++++++++++++++++++++++++++",
"++++++++++++++++++++++++++++++++++++++++++++++++++++++++++++++++++++++++++++++++++++++++++++++++++++",
"++++++++++++++++++++++++++++++++++++++++++++++++++++++++++++++++++++++++++++++++++++++++++++++++++++",
"++++++++++++++++++++++++++++++++++++++++++++++++++++++++++++++++++++++++++++++++++++++++++++++++++++",
"++++++++++++++++++++++++++++++++++++++++++++++++++++++++++++++++++++++++++++++++++++++++++++++++++++",
"++++++++++++++++++++++++++++++++++++++++++++++++++++++++++++++++++++++++++++++++++++++++++++++++++++",
"++++++++++++++++++++++++++++++++++++++++++++++++++++++++++++++++++++++++++++++++++++++++++++++++++++",
"++++++++++++++++++++++++++++++++++++++++++++++++++++++++++++++++++++++++++++++++++++++++++++++++++++",
"++++++++++++++++++++++++++++++++++++++++++++++++++++++++++++++++++++++++++++++++++++++++++++++++++++",
"++++++++++++++++++++++++++++++++++++++++++++++++++++++++++++++++++++++++++++++++++++++++++++++++++++",
"++++++++++++++++++++++++++++++++++++++++++++++++++++++++++++++++++++++++++++++++++++++++++++++++++++",
"++++++++++++++++++++++++++++++++++++++++++++++++++++++++++++++++++++++++++++++++++++++++++++++++++++",
"++++++++++++++++++++++++++++++++++++++++++++++++++++++++++++++++++++++++++++++++++++++++++++++++++++",
"++++++++++++++++++++++++++++++++++++++++++++++++++++++++++++++++++++++++++++++++++++++++++++++++++++",
"++++++++++++++++++++++++++++++++++++++++++++++++++++++++++++++++++++++++++++++++++++++++++++++++++++",
"++++++++++++++++++++++++++++++++++++++++++++++++++++++++++++++++++++++++++++++++++++++++++++++++++++",
"++++++++++++++++++++++++++++++++++++++++++++++++++++++++++++++++++++++++++++++++++++++++++++++++++++",
"++++++++++++++++++++++++++++++++++++++++++++++++++++++++++++++++++++++++++++++++++++++++++++++++++++",
"++++++++++++++++++++++++++++++++++++++++++++++++++++++++++++++++++++++++++++++++++++++++++++++++++++",
"++++++++++++++++++++++++++++++++++++++++++++++++++++++++++++++++++++++++++++++++++++++++++++++++++++",
"++++++++++++++++++++++++++++++++++++++++++++++++++++++++++++++++++++++++++++++++++++++++++++++++++++",
"++++++++++++++++++++++++++++++++++++++++++++++++++++++++++++++++++++++++++++++++++++++++++++++++++++",
"++++++++++++++++++++++++++++++++++++++++++++++++++++++++++++++++++++++++++++++++++++++++++++++++++++",
"++++++++++++++++++++++++++++++++++++++++++++++++++++++++++++++++++++++++++++++++++++++++++++++++++++",
"++++++++++++++++++++++++++++++++++++++++++++++++++++++++++++++++++++++++++++++++++++++++++++++++++++",
"++++++++++++++++++++++++++++++++++++++++++++++++++++++++++++++++++++++++++++++++++++++++++++++++++++",
"++++++++++++++++++++++++++++++++++++++++++++++++++++++++++++++++++++++++++++++++++++++++++++++++++++",
"++++++++++++++++++++++++++++++++++++++++++++++++++++++++++++++++++++++++++++++++++++++++++++++++++++",
"++++++++++++++++++++++++++++++++++++++++++++++++++++++++++++++++++++++++++++++++++++++++++++++++++++",
"++++++++++++++++++++++++++++++++++++++++++++++++++++++++++++++++++++++++++++++++++++++++++++++++++++",
"++++++++++++++++++++++++++++++++++++++++++++++++++++++++    +           ++++++++++++++++++++++++++++",
"++++++++++++++++++++++++++++   +++++++++++++++++++++++++ ooo XXXXX#####X   +++++++++++++++++++++++++",
"++++++++++++++++++++++++++  $$$    +++++++++   ++++       oo.XXXX#########X  +++++++++++++++++++++++",
"+++++++++++++++++++++++++ $$$$$#### ++++++++ OO +  ##$$$$$$$#..XX##########XX ++++++++++++++++++++++",
"++++++++++++++++++++++++ $$$$$###### ++++++   OO ##$$$$$$$$$$$#.X###########XX +++++++++++++++++++++",
"++++++++++++++++++++++++ $$$  ####### ++++ oooOO##$$$$$$$$$$$$$#.############XX ++++++++++++++++++++",
"++++++++++++++++++++++++ $  ++   #### +++ oooooo##$$$$$$$$$$$$$$#.###########XX ++++++++++++++++++++",
"++++++++++++++++++++++++  +++++++ ### ++ oooooOO##$$$$$$$$$$$$$$##.##########XX ++++++++++++++++++++",
"+++++++++++++++++++++++++++++++++ ### ++ ooooOOO##$$$$$$$$$$$$$$$##.#########XX ++++++++++++++++++++",
"++++++++++++++++++++++++++++     #### ++ OOOoOOO##$$$$$$$$$$$$$$$##.#########XX ++++++++++++++++++++",
"+++++++++++++++++++++++++++ ######### ++ OOOOOO ##$$$$$$$$$$$$$$$###.##%%###XX@@ +++++++++++++++++++",
"++++++++++++++++++++++++++ ######### +++ OOOO   o#$$$#&&$$$$$$$$$###%XX%%XX%%.@@ +++++++++++++++++++",
"+++++++++++++++++++++++++ ######### ++++ OOOOO oo #$$$&&$$$$$$$$$###%######%%X   +++++++++++++++++++",
"++++++++++++++++++++++++ ######    +++++ OOOOOOOOOo$$$$$#&&$$$$$$%%.########  ++++++++++++++++++++++",
"++++++++++++++++++++++++ ##### ++++++++++ OOOOOOOOOO$$$$$&&XX&&XX%%.        ++++++++++++++++++++++++",
"++++++++++++++++++++++++ #### ++++++++++++ OOOOOOOOOOo$$$$$$$&&$$## ++++++++++++++++++++++++++++++++",
"++++++++++++++++++++++++ #### +++++++++++++ OOOOOOOOOOO  $$$$$$$## +++++++++++++++++++++++++++++++++",
"+++++++++++++++++++++++ XX### ++++++++++++++    OOOOOOOO ooooo    ++++++++++++++++++++++++++++++++++",
"+++++++++++++++++++++++ XXXX ++++++++    +++++++  OOOOOOOoooooo ++++++++++++++++++++++++++++++++++++",
"+++++++++++++++++++++++ XXXX ++++++++ OOO  ++++   OOOOOOOoooooo +++  +++++++++++++++++++++++++++++++",
"+++++++++++++++++++++++ XXXX +++++++++ OOOO    OOOOOOOOOOOOOOOoo + O +++++++++++++++++++++++++++++++",
"+++++++++++++++++++++++ XXXXX +++++     OOOOOOOOOOOOOOOOOOOOOOOoo OO +++++++++++++++++++++++++++++++",
"+++++++++++++++++++++++ XXXXXX     OOOOOOOOOOOOOOOOOOOOOOOOOOOOoooOO +++++++++++++++++++++++++++++++",
"+++++++++++++++++++++++ XXXXX#####OOOOOOOOOOOOOOOOOOOOOOOOOOOOOoooO ++++++++++++++++++++++++++++++++",
"++++++++++++++++++++++++ XXX#####OOOOOOOOOOOOOOOOOOOOOOOOOOOOOOooo +++++++++++++++++++++++++++++++++",
"++++++++++++++++++++++++ XXX#####OOOOOOOOOOOOOOOOOOOOOOOOOOOOOOooo +++++++++++++++++++++++++++++++++",
"+++++++++++++++++++++++++ XX#####OOOOOOOOOOOOOOOOOOOOOOOOOOOOOOooo +++++++++++++++++++++++++++++++++",
"++++++++++++++++++++++++++  #####OOOOOOOOoOOOOOOOoOOOOOOOOOOOOOooo +++++++++++++++++++++++++++++++++",
"++++++++++++++++++++++++++++     OOOOOOOOoOOOoOOOoOOOOOOOOOOOOOooo +++++++++++++++++++++++++++++++++",
"+++++++++++++++++++++++++++  ++ OOOOOOOOooooooOOOooOOOOOOOOOOOooo ++++++++++++++++++++++++++++++++++",
"+++++++++++++++++++++++++++ O + OOOOOOOOoooooooooooOOOOOOOOOOoooo ++++++++++++++++++++++++++++++++++",
"+++++++++++++++++++++++++++ OO  OOOOOOOO oooooooooooOOOOOoooooooo ++++++++++++++++++++++++++++++++++",
"+++++++++++++++++++++++++++ OO OOOOOOOO + oooooooo  OOOOOO  ooooo ++++++++++++++++++++++++++++++++++",
"+++++++++++++++++++++++++++  OOOOOOOOOO  ooooooooo + OOOOO  oooo +++++++++++++++++++++++++++++++++++",
"+++++++++++++++++++++++++++ OOOOOOOOOOOooooooooooo + OOOOOOooooo +++++++++++++++++++++++++++++++++++",
"+++++++++++++++++++++++++++ OOOOOOOOOOooooooooooo +++ OOOOOooooo +++++++++++++++++++++++++++++++++++",
"+++++++++++++++++++++++++++ OOO   OOO  ooooooooo ++++ OOOOOooooo +++++++++++++++++++++++++++++++++++",
"+++++++++++++++++++++++++++ OOO ++   + oooo     ++++++ OOOOOooo ++++++++++++++++++++++++++++++++++++",
"++++++++++++++++++++++++++ OOOO ++++++ oooo ++++++++++ OOOOOooo ++++++++++++++++++++++++++++++++++++",
"++++++++++++++++++++++++++ OOOOO ++++++ oooo ++++++++++ OOOOOooo +++++++++++++++++++++++++++++++++++",
"++++++++++++++++++++++++++ OOOOO ++++++ ooooo +++++++++ OOOOOooo +++++++++++++++++++++++++++++++++++",
"++++++++++++++++++++++++++ OOOOO +++++++ oooo ++++++++++ OOOOooo +++++++++++++++++++++++++++++++++++",
"++++++++++++++++++++++++++++++++++++++++++++++++++++++++++++++++++++++++++++++++++++++++++++++++++++",
"++++++++++++++++++++++++++++++++++++++++++++++++++++++++++++++++++++++++++++++++++++++++++++++++++++",
"++++++++++++++++++++++++++++++++++++++++++++++++++++++++++++++++++++++++++++++++++++++++++++++++++++",
"++++++++++++++++++++++++++++++++++++++++++++++++++++++++++++++++++++++++++++++++++++++++++++++++++++",
"++++++++++++++++++++++++++++++++++++++++++++++++++++++++++++++++++++++++++++++++++++++++++++++++++++",
"++++++++++++++++++++++++++++++++++++++++++++++++++++++++++++++++++++++++++++++++++++++++++++++++++++",
"++++++++++++++++++++++++++++++++++++++++++++++++++++++++++++++++++++++++++++++++++++++++++++++++++++",
"++++++++++++++++++++++++++++++++++++++++++++++++++++++++++++++++++++++++++++++++++++++++++++++++++++",
"++++++++++++++++++++++++++++++++++++++++++++++++++++++++++++++++++++++++++++++++++++++++++++++++++++",
"++++++++++++++++++++++++++++++++++++++++++++++++++++++++++++++++++++++++++++++++++++++++++++++++++++",
"++++++++++++++++++++++++++++++++++++++++++++++++++++++++++++++++++++++++++++++++++++++++++++++++++++",
"++++++++++++++++++++++++++++++++++++++++++++++++++++++++++++++++++++++++++++++++++++++++++++++++++++",
"++++++++++++++++++++++++++++++++++++++++++++++++++++++++++++++++++++++++++++++++++++++++++++++++++++",
"++++++++++++++++++++++++++++++++++++++++++++++++++++++++++++++++++++++++++++++++++++++++++++++++++++",
"++++++++++++++++++++++++++++++++++++++++++++++++++++++++++++++++++++++++++++++++++++++++++++++++++++",
"++++++++++++++++++++++++++++++++++++++++++++++++++++++++++++++++++++++++++++++++++++++++++++++++++++",
"++++++++++++++++++++++++++++++++++++++++++++++++++++++++++++++++++++++++++++++++++++++++++++++++++++",
"++++++++++++++++++++++++++++++++++++++++++++++++++++++++++++++++++++++++++++++++++++++++++++++++++++",
"++++++++++++++++++++++++++++++++++++++++++++++++++++++++++++++++++++++++++++++++++++++++++++++++++++",
"++++++++++++++++++++++++++++++++++++++++++++++++++++++++++++++++++++++++++++++++++++++++++++++++++++",
"++++++++++++++++++++++++++++++++++++++++++++++++++++++++++++++++++++++++++++++++++++++++++++++++++++",
"++++++++++++++++++++++++++++++++++++++++++++++++++++++++++++++++++++++++++++++++++++++++++++++++++++",
"++++++++++++++++++++++++++++++++++++++++++++++++++++++++++++++++++++++++++++++++++++++++++++++++++++",
"++++++++++++++++++++++++++++++++++++++++++++++++++++++++++++++++++++++++++++++++++++++++++++++++++++",
"++++++++++++++++++++++++++++++++++++++++++++++++++++++++++++++++++++++++++++++++++++++++++++++++++++",
"++++++++++++++++++++++++++++++++++++++++++++++++++++++++++++++++++++++++++++++++++++++++++++++++++++"
};
