/* XPM */
static char *result[] = {
/* columns rows colors chars-per-pixel */
"32 32 172 2 ",
"   c #2F463A",
".  c #3E5C3F",
"X  c #316137",
"o  c #357D3F",
"O  c #3A7C3E",
"+  c #485735",
"@  c #4A5C3B",
"#  c #4B5E3B",
"$  c #4C5F3B",
"%  c #4F662E",
"&  c #4F6035",
"*  c #51623A",
"=  c #567132",
"-  c #527F3B",
";  c #727E2B",
":  c #697734",
">  c #6F7C33",
",  c #62733B",
"<  c #737F31",
"1  c #707D32",
"2  c #063871",
"3  c #073873",
"4  c #134648",
"5  c #14494B",
"6  c #154D4C",
"7  c #17504C",
"8  c #18544C",
"9  c #1B594A",
"0  c #375141",
"q  c #1E624C",
"w  c #236642",
"e  c #297747",
"r  c #2E7E41",
"t  c #257148",
"y  c #25714B",
"u  c #26744C",
"i  c #27764C",
"p  c #287648",
"a  c #28784C",
"s  c #28794C",
"d  c #3B7542",
"f  c #337C5F",
"g  c #27497C",
"h  c #3C4776",
"j  c #3F746A",
"k  c #46564F",
"l  c #525F49",
"z  c #4D5B5E",
"x  c #546E44",
"c  c #5D6A43",
"v  c #54624A",
"b  c #5D6D49",
"n  c #606C4B",
"m  c #64714C",
"M  c #767E56",
"N  c #4B5669",
"B  c #585F7B",
"V  c #497464",
"C  c #6D766E",
"Z  c #616875",
"A  c #656D74",
"S  c #6F7072",
"D  c #76767E",
"F  c #4B803D",
"G  c #50823D",
"H  c #66893B",
"J  c #708132",
"K  c #708333",
"L  c #768434",
"P  c #748734",
"I  c #798632",
"U  c #7F8E35",
"Y  c #2E8348",
"T  c #2C834C",
"R  c #2D844C",
"E  c #2D854C",
"W  c #308242",
"Q  c #378241",
"!  c #368543",
"~  c #348245",
"^  c #358744",
"/  c #3C8040",
"(  c #388E47",
")  c #308C4C",
"_  c #318F4C",
"`  c #33924A",
"'  c #33934A",
"]  c #33934B",
"[  c #34934B",
"{  c #34954B",
"}  c #32914C",
"|  c #33924C",
" . c #33944C",
".. c #34954C",
"X. c #34964C",
"o. c #5C9545",
"O. c #758146",
"+. c #798546",
"@. c #7F8C4B",
"#. c #7B8452",
"$. c #808D33",
"%. c #818B34",
"&. c #818F34",
"*. c #8D843D",
"=. c #859331",
"-. c #829034",
";. c #839135",
":. c #849234",
">. c #859234",
",. c #869435",
"<. c #879535",
"1. c #869536",
"2. c #889634",
"3. c #889636",
"4. c #889736",
"5. c #899836",
"6. c #8A9836",
"7. c #8A9936",
"8. c #8B9936",
"9. c #8B9937",
"0. c #8B9A37",
"q. c #8C9B37",
"w. c #888154",
"e. c #1A2D98",
"r. c #2D0EBD",
"t. c #3610BD",
"y. c #3D24A3",
"u. c #433EA5",
"i. c #5237A0",
"p. c #4934B6",
"a. c #3E4E9D",
"s. c #305CAC",
"d. c #4D4D9B",
"f. c #4F5098",
"g. c #695385",
"h. c #61519D",
"j. c #636784",
"k. c #726F82",
"l. c #4D4BA6",
"z. c #5044A6",
"x. c #5842AF",
"c. c #6954AE",
"v. c #2F09CF",
"b. c #2A16C4",
"n. c #2D15CB",
"m. c #2D13CF",
"M. c #3012C5",
"N. c #2F09D6",
"B. c #3006D6",
"V. c #3005D8",
"C. c #3536C0",
"Z. c #4102DC",
"A. c #6706DD",
"S. c #6813DB",
"D. c #651CDD",
"F. c #4C2BC0",
"G. c #6D09E1",
"H. c #6A0AED",
"J. c #7310EC",
"K. c #6D0CF0",
"L. c #730AF4",
"P. c #780BF7",
"I. c #5F4AC6",
"U. c #856684",
"Y. c #987CC0",
"T. c #8241F6",
"R. c #824AF4",
"E. c #885FF0",
"W. c #8B72E0",
"Q. c #AB8AAE",
"!. c #9A87E4",
"~. c #A28EEF",
/* pixels */
"q.q.q.q.q.q.q.q.q.q.q.q.q.q.q.q.q.q.q.q.q.q.q.q.q.q.q.q.q.q.q.q.",
"q.q.q.q.q.q.q.q.q.q.q.q.q.q.q.q.q.q.q.q.q.q.q.q.q.q.q.q.q.q.q.q.",
"q.q.q.q.q.q.q.q.q.q.q.q.q.q.q.q.q.q.q.q.q.q.q.q.q.q.q.q.q.q.q.q.",
"q.q.q.q.q.q.q.q.q.q.q.q.q.q.q.q.q.q.q.q.q.q.q.q.q.q.q.q.q.q.q.q.",
"q.q.q.q.q.q.q.q.q.q.q.q.q.q.q.q.q.q.q.q.q.q.q.q.q.q.q.q.q.q.q.q.",
"q.q.q.q.q.q.q.q.q.q.q.q.q.q.q.q.q.q.q.q.q.q.q.q.q.q.q.q.q.q.q.q.",
"q.q.q.q.q.q.q.q.q.q.q.q.q.q.q.q.q.q.q.q.q.q.q.q.q.q.q.q.q.q.q.q.",
"q.q.q.q.q.q.q.q.q.q.q.q.q.q.q.q.q.q.q.q.q.q.q.q.q.q.q.q.q.q.q.q.",
"q.q.q.q.q.q.q.q.q.q.q.q.q.q.q.q.q.q.q.q.q.q.q.q.q.q.q.q.q.q.q.q.",
"q.q.q.q.q.q.q.q.q.q.q.q.q.q.q.q.q.q.q.q.q.q.q.q.q.q.q.q.q.q.q.q.",
"q.q.q.q.q.q.q.q.q.q.q.q.q.,.q.2.=.; & l N f.B O.7.q.q.q.q.q.q.q.",
"q.q.q.q.q.q.q.S D q.q.q.;.X V F.A.G.D.y.n.V.V.b.z 5.q.q.q.q.q.q.",
"q.q.q.q.q.q.q.M J.#.q.<.0 q s.L.P.P.P.H.t.B.V.V.e.I q.q.q.q.q.q.",
"q.q.q.q.q.q.3.Z S.k.q.>.~ Y g K.R.T.P.P.Z.x.Y.I.U.*.q.q.q.q.q.q.",
"q.q.q.q.q.3.l.M.j.8.q.q.- { e a.E.~.W.!.Q.g.p.c.w.%.q.q.q.q.q.q.",
"q.q.q.q.q.A v.+.q.q.q.0.,.F [ ..f i.z.h.C 5.5.5.q.q.q.q.q.q.q.q.",
"q.q.q.q.q.d.r.c v m 7.= / J % r X.p 7 $ 1.-.q.q.q.q.q.q.q.q.q.q.",
"q.q.q.q.q.u.N.3 2 m.j W ] ....X.X.X.X.y d K q.q.q.q.q.q.q.q.q.q.",
"q.q.q.q.q.@.h k n C.X.X. .X.X. .X.X.X.s . 8.q.q.q.q.q.q.q.q.q.q.",
"q.q.q.q.q.q.q.q.9.b ( X._ a | R X. .X.i # q.q.q.q.q.q.q.q.q.q.q.",
"q.q.q.q.q.q.q.q.6.O o X.X.u 9 } ] w t 6 : q.q.q.q.q.q.q.q.q.q.q.",
"q.q.q.q.q.q.q.q.q.P ` T E 8   ' Q :.L 4 @ q.q.q.q.q.q.q.q.q.q.q.",
"q.q.q.q.q.q.q.q.q.7.G ) + 1 &.^ ! <.> 5 * q.q.q.q.q.q.q.q.q.q.q.",
"q.q.q.q.q.q.q.q.q.q.U x , q.q.H o.$.4.< 3.q.q.q.q.q.q.q.q.q.q.q.",
"q.q.q.q.q.q.q.q.q.q.q.q.q.q.q.q.q.q.q.q.q.q.q.q.q.q.q.q.q.q.q.q.",
"q.q.q.q.q.q.q.q.q.q.q.q.q.q.q.q.q.q.q.q.q.q.q.q.q.q.q.q.q.q.q.q.",
"q.q.q.q.q.q.q.q.q.q.q.q.q.q.q.q.q.q.q.q.q.q.q.q.q.q.q.q.q.q.q.q.",
"q.q.q.q.q.q.q.q.q.q.q.q.q.q.q.q.q.q.q.q.q.q.q.q.q.q.q.q.q.q.q.q.",
"q.q.q.q.q.q.q.q.q.q.q.q.q.q.q.q.q.q.q.q.q.q.q.q.q.q.q.q.q.q.q.q.",
"q.q.q.q.q.q.q.q.q.q.q.q.q.q.q.q.q.q.q.q.q.q.q.q.q.q.q.q.q.q.q.q.",
"q.q.q.q.q.q.q.q.q.q.q.q.q.q.q.q.q.q.q.q.q.q.q.q.q.q.q.q.q.q.q.q.",
"q.q.q.q.q.q.q.q.q.q.q.q.q.q.q.q.q.q.q.q.q.q.q.q.q.q.q.q.q.q.q.q."
};
