/* XPM */
static char *f14734fac0f546639061708bd18052e2KNBZXPhWbLO1NC9P[] = {
/* columns rows colors chars-per-pixel */
"100 100 15 1 ",
"  c #3D1D1A",
". c #193926",
"X c #43231E",
"o c #4B2925",
"O c #5C3434",
"+ c #2D603D",
"@ c #357137",
"# c #6D423A",
"$ c #97593E",
"% c #4D843B",
"& c #68963D",
"* c #8C9B37",
"= c #87AB3E",
"- c #97BA3A",
"; c #B2854C",
/* pixels */
"****************************************************************************************************",
"****************************************************************************************************",
"****************************************************************************************************",
"****************************************************************************************************",
"****************************************************************************************************",
"****************************************************************************************************",
"****************************************************************************************************",
"****************************************************************************************************",
"****************************************************************************************************",
"****************************************************************************************************",
"****************************************************************************************************",
"****************************************************.***********************************************",
"********************************************.****.*.%.****..****************************************",
"******************************************..%..*.%..%%.*..%%.***************************************",
"**************************************.**.%.%%%.%%.%%%&.%%%....*************************************",
"*************************************.%...%&%%%&%%%%%&&%%%.%%%%.************************************",
"***********************************...%%%&&&==%&&%=%&&&%%==%%%......********************************",
"*********************************..%%.%%&%&&&==&&%&=&&&%==%%%..%%%%%.*******************************",
"********************************.%%%%%.%%&&=&&%&&&&&=&&&%%%===%%%%%.********************************",
"*********************************..%%%%&-&&==&&&&&-&&&&=%&===%%%%%.....*****************************",
"*******************************..%%===%%&--==&=&&---&&==&&=&&&&&&%%%%%%.****************************",
"******************************.%%%=====%&--&&&==-----&&&&&&&&&&&%%&&&@.*****************************",
"*****************************.@@%%%%==&&&&&&&&&&----&&&&&&&--&&&&=%&%%%..***************************",
"*****************************..@@@&&&&&&&&&&&-&&&--&&---&----&&====%%%%%@.**************************",
"***************************..%%&@%%%&&&&&&&&&---&&&&--------&&&&&=%%%%%@@@..************************",
"**************************.%%%&&&%==%&==&--&=-----&---------&=&&&&&%=%@@%%@@.***********************",
"*************************.%%%&&&====&&&-----=----------&---&===--&&===%@@%%.************************",
"************************.%%@@%%%&==&&&&&----&&--------&&&&&&==-----&%==%@@@.************************",
"*************************.@@%%%&&&==---&&&-&&&&-----------&==&&---&&%%%%%%@@.***********************",
"************************.@@%%%&&&&&-----&&&&---------------&&&&&&&&&=%%%%@@@@.**********************",
"***********************.@@%%@&&&&%%%&-&&&&&--------------&&&&==&&&&===&@@@@.@@.*********************",
"************************..+@@@%%%%&&&&&&&=-------------&&---&&==&&&&=&&&%%%%..**********************",
"************************..%%&&%&&&&&&&=====----------&&&-----====&&&&&&&&&%@.***********************",
"***********************.%%%&&&%%&&&&&====&&&&&--------&=------&&&===%%%%%%@@.***********************",
"**********************.%%%&&&%%%==&&====&&&&&&----&----=&----&&&======%%%@@%@.**********************",
"***********************..@&&%%%===&===&&&---==&--&&----=&&&&&&=&&======%%%@%%.**********************",
"***********************.@@@%%%====&&&&&&-----=&-&&&&---==&&&&===&&==%%@@%%@%%%.*********************",
"**********************.@@@%%%%===&&&&&=-----&==&&--&&--==&=&=====&&&&&@@@%%@%%.*********************",
"**********************.@@%%%@=@%&&&&==----&&&==&----&&&=&&&=&&&&=&%&&&&@@@@@.%.*********************",
"*********************.++@%%&@@%%&&%====&&&&--===----=&&=&-&==&%&&&%%&&&&@@%%..**********************",
"*********************.++%@&&@%%%&%====&&&&---===----=&&=---===&%&&&%%@@%%@@%%.**********************",
"*********************.+.@@&@@%%@%%==%%&&&&--&===&---&=&&---===&==&&&@@%%%%@+%%.*********************",
"**********************..+@+@%%@%&%=%%&&&&&-&&&==&--&===&&--&&&====%%&@@%%%%++.**********************",
"***********************.%++@@@@&&%%%&&&&&&&&&====&-&====&&&&&&=====%%%@@@%%@++.*********************",
"**********************.%%+%%@@%&%%%@&&&&==&&&===&&&======&&&%&&==%%%%@@@+@%@@+.*********************",
"***********************.%%%@@%%%%%@@&@%====&&===&&&&&====&&&&&&&%%%%@@@@@+@@.+.*********************",
"***********************..%@@@@%%@@@@@%%===&&&==&&&&&&&===&&%&&&&@%@%%%@@@++.*.**********************",
"**********************.@%%@&@@@@@@@@%%==&&&&%=&&&=&&%&&==&%=%%&&&@%%%%%&&&+..***********************",
"*********************.@%%&&=&&@@&&&@%%%%&&&%%&&&====%%&&=&===%%%@@@@%%&&&%%%%.**********************",
"********************.@%%%%===&&&&&%@%@%%&&&%%&&&====%&&%%%%==@@@%@@@@@@@%%%%%%.*********************",
"*********************.@@%&&==&==&@@@@@@%&&%%&&&&====%&&&%%%%@@@%@@==@@&&&%%@@.**********************",
"********************.@@%&&&%&====%%&&@@%&@%%&&&&%===@&&&@%%%%@@%%&===&&&@@%%++.*********************",
"********************.@@%%%==&=====%&&&@%@%%%&&&&%%=%@&&&%@@%%@%%&&===&&%@@@%%++.********************",
"*******************.+@%%@====%=&&@@&&&@@@&&%%&&%%%%%%@&&%@@@%@@@@&&==&@@&&@@@%+.********************",
"*******************.+.%@===&==&&&&@@%&@@&&&%%&@%%&&%%%@&%%@@@%%@&&&&@==@&&&%@+.*.*******************",
"*******************..*.@=@&===&=&&@%%%@@&&&%%%@@&&&@%%@%%%@@%%%&&&@&====@&&&@++.********************",
"*******************.*.+@@&&==&===&@%%%@@@&@%%%@@&&@@@&&%%@@@%%%&@==&====@@%%%.+.********************",
"*********************.+@@&%=&&===&&@%%@+@@@%%%@@@&%@@&&&%@@%%%@@===&&====@%%%...********************",
"**********************.+@.%@&&@==&&@@%@++@@%%@@@@%%@@@&&@@@@@@@@==&&&&%@@@@%%.*.********************",
"**********************.+..%@%&@%%%&@@@.++@@@%@@@@%%%@@@&@@@@@@@=&&@=&%%&&@@@.***********************",
"***********************.*.+@%%%@%@@@@..%%@@@@@@@@@%@@@@@@+@%%@&&&%==&@%&&&@+.***********************",
"*************************.++@%@@%+@@.@@@%%@@@%%%@@@@@@@@@+%%%@&&%%=@%@%%&&@+.***********************",
"**************************.+.@@@.+@..@@&&%%@%%%@@@@+@@@@++%%@@&@@%@%%%@%%&.+.***********************",
"***************************..++@..+.@@%%&&%%&&@@+@+++@@+++%@@+@@@%+%%@@+%.*.************************",
"*****************************.+.**.*.%%%&&%&&&&@++++++@++++@+.+@@@+@%@@+.***************************",
"******************************.****.@%@%%&&%&%%%.+++++++++.+..+@+.++.@++.***************************",
"***********************************.+@@%&&&%@@%%@.+++.+++.*.*.++..+..++.****************************",
"***********************************.+@%%&&%%%@@%@..+.X.+.**.*.+.**.**.+.****************************",
"***********************************.+.%%@@%%%@+@@.X.XoX. *****.*******.*****************************",
"************************************..%@+@@%%@+.+.XXooXX *******************************************",
"**************************************.@++@@%++..XoooooX *******************************************",
"**************************************.+..+@.+. ooOooOOo *******************************************",
"***************************************.**.+.. ooOOOOO#oo ******************************************",
"*******************************************. o oOO#OO##oOO  ****************************************",
"*****************************************   oooO######$#O##$ ***************************************",
"**************************************** OOO##o##$$##$$#$OO# ***************************************",
"****************************************  ###oO$$$$#$$$$#$;;; **************************************",
"****************************************** #OO$$$$$$$$$$O#$$$$ *************************************",
"***************************************** OO;$$#$$$#$$$;$o##  **************************************",
"**************************************** $;;$$$#$;$#$;#$;;o ****************************************",
"*************************************** $$$$ ##$;;$ $;;#$;;; ***************************************",
"*************************************** $   * $;;$ * $;;#$;;$ **************************************",
"**************************************** *** $$$$ *** $;#  $$ **************************************",
"******************************************** $$  **** $$ **  ***************************************",
"*********************************************  *******  ********************************************",
"****************************************************************************************************",
"****************************************************************************************************",
"****************************************************************************************************",
"****************************************************************************************************",
"****************************************************************************************************",
"****************************************************************************************************",
"****************************************************************************************************",
"****************************************************************************************************",
"****************************************************************************************************",
"****************************************************************************************************",
"****************************************************************************************************",
"****************************************************************************************************",
"****************************************************************************************************",
"****************************************************************************************************",
"****************************************************************************************************"
};
