/* XPM */
static char *result[] = {
/* columns rows colors chars-per-pixel */
"32 32 238 2 ",
"   c #00162A",
".  c #001929",
"X  c #00182A",
"o  c #001D2D",
"O  c #001C2F",
"+  c #001F2F",
"@  c #0B1A2D",
"#  c #280723",
"$  c #380928",
"%  c #002131",
"&  c #032233",
"*  c #002632",
"=  c #052734",
"-  c #002E3B",
";  c #052C38",
":  c #002E3C",
">  c #36242B",
",  c #223732",
"<  c #5C0E33",
"1  c #451730",
"2  c #491C33",
"3  c #6F172C",
"4  c #640D30",
"5  c #720A37",
"6  c #631738",
"7  c #651A38",
"8  c #651C39",
"9  c #7B2D25",
"0  c #752F2A",
"q  c #7C2F28",
"w  c #69322D",
"e  c #672035",
"r  c #5D692D",
"t  c #717B2D",
"y  c #646F3F",
"u  c #64723E",
"i  c #7B7232",
"p  c #797C30",
"a  c #2E3F48",
"s  c #505D51",
"d  c #714750",
"f  c #6F7D46",
"g  c #6B7850",
"h  c #424163",
"j  c #4B5761",
"k  c #47556F",
"l  c #4A596F",
"z  c #495B71",
"x  c #5F6B60",
"c  c #747C71",
"v  c #811732",
"b  c #90113C",
"n  c #9E1539",
"m  c #B0193F",
"M  c #81332C",
"N  c #8B3A2C",
"B  c #9E2E3D",
"V  c #943A31",
"C  c #A63333",
"Z  c #C02F37",
"A  c #8C483C",
"S  c #9F4837",
"D  c #83513A",
"F  c #875039",
"G  c #885838",
"H  c #A44839",
"J  c #A64E3A",
"K  c #A6483C",
"L  c #B14736",
"P  c #A45738",
"I  c #A5593C",
"U  c #8A6C3C",
"Y  c #90753B",
"T  c #977C3D",
"R  c #A96B3B",
"E  c #851041",
"W  c #AD1840",
"Q  c #B11B47",
"!  c #9C2C41",
"~  c #BC2941",
"^  c #C21C46",
"/  c #D82246",
"(  c #8D4E40",
")  c #974A43",
"_  c #925C4D",
"`  c #AB4B43",
"'  c #AE5848",
"]  c #A76044",
"[  c #AB6044",
"{  c #B96446",
"}  c #BD6546",
"|  c #BF604C",
" . c #BB6A49",
".. c #B96E4B",
"X. c #B27343",
"o. c #B57F47",
"O. c #AC6E51",
"+. c #BC6457",
"@. c #B05D70",
"#. c #937170",
"$. c #C16A48",
"%. c #C26C4A",
"&. c #C46D4A",
"*. c #CA6F4B",
"=. c #CD724B",
"-. c #CA724C",
";. c #CD714C",
":. c #CB744E",
">. c #CD784F",
",. c #CA7C4D",
"<. c #D2724C",
"1. c #D5754E",
"2. c #D27A4F",
"3. c #CF7951",
"4. c #CD7F54",
"5. c #D37B51",
"6. c #D07D53",
"7. c #D77C52",
"8. c #D67D52",
"9. c #D07F54",
"0. c #D67F54",
"q. c #78852E",
"w. c #78852F",
"e. c #7B892F",
"r. c #798631",
"t. c #7B8930",
"y. c #7D8A31",
"u. c #7F8D32",
"i. c #7D8D53",
"p. c #808D31",
"a. c #848C33",
"s. c #878A35",
"d. c #858C34",
"f. c #848D34",
"g. c #898B33",
"h. c #8E8838",
"j. c #888C3F",
"k. c #97823B",
"l. c #938438",
"z. c #97853C",
"x. c #829032",
"c. c #839033",
"v. c #849233",
"b. c #859034",
"n. c #849234",
"m. c #859334",
"M. c #849335",
"N. c #879535",
"B. c #879635",
"V. c #889235",
"C. c #889735",
"Z. c #899736",
"A. c #899836",
"S. c #8B9936",
"D. c #8B9A36",
"F. c #8B9A37",
"G. c #8C9B37",
"H. c #839139",
"J. c #8E9038",
"K. c #83C634",
"L. c #828F4E",
"P. c #AA8544",
"I. c #AB8645",
"U. c #A78844",
"Y. c #A1844E",
"T. c #AF8848",
"R. c #BB8149",
"E. c #BB884C",
"W. c #8B9772",
"Q. c #CB8656",
"!. c #D78654",
"~. c #DB8255",
"^. c #D88256",
"/. c #DA8656",
"(. c #DF8655",
"). c #D78658",
"_. c #D68759",
"`. c #DA8758",
"'. c #D7925B",
"]. c #DC965C",
"[. c #E18456",
"{. c #E98556",
"}. c #E88657",
"|. c #E08758",
" X c #E68959",
".X c #E68A5A",
"XX c #E28C5B",
"oX c #E38E5B",
"OX c #E78C5B",
"+X c #E98858",
"@X c #EC8D5B",
"#X c #E6915E",
"$X c #F3915E",
"%X c #F4945F",
"&X c #D7836F",
"*X c #D78571",
"=X c #E79360",
"-X c #E79460",
";X c #EF9762",
":X c #EB9862",
">X c #EC9862",
",X c #EF9963",
"<X c #F19661",
"1X c #F49460",
"2X c #F69560",
"3X c #F09A64",
"4X c #F79E65",
"5X c #F89B63",
"6X c #F89D65",
"7X c #EA977F",
"8X c #F4A067",
"9X c #F6A167",
"0X c #FCA76B",
"qX c #FDA86C",
"wX c #5F5D85",
"eX c #5A6880",
"rX c #56638D",
"tX c #57658F",
"yX c #5F7C9A",
"uX c #607DA9",
"iX c #B29F9F",
"pX c #E89A81",
"aX c #EA9A81",
"sX c #F39F85",
"dX c #D0A880",
"fX c #DFB197",
"gX c #F6A087",
"hX c #F6A78B",
"jX c #FAAF91",
"kX c #F1B897",
"lX c #F6BC9A",
"zX c #F8BD9B",
"xX c #FAC09E",
"cX c #FBC19E",
"vX c #FFC2A0",
"bX c #FFC4A1",
"nX c #A4AEC1",
"mX c #C5CACA",
/* pixels */
"G.G.G.G.G.G.G.G.G.G.G.G.G.G.G.G.G.G.G.G.G.G.G.G.G.G.G.G.G.G.G.G.",
"G.G.G.G.G.G.G.G.G.G.G.G.G.G.G.G.G.G.G.G.G.G.G.G.G.G.G.G.G.G.G.G.",
"G.G.G.G.G.G.G.G.G.G.G.G.G.G.G.G.G.G.G.G.G.G.G.G.G.G.G.G.G.G.G.G.",
"G.G.G.G.G.G.G.G.G.G.G.G.G.G.G.G.G.G.G.G.G.G.G.G.G.G.G.G.G.G.G.G.",
"G.G.G.G.G.G.G.G.G.G.G.G.G.G.G.G.G.G.G.G.G.G.G.G.G.G.G.G.G.G.G.G.",
"G.G.G.G.G.G.G.G.G.G.G.G.A.e.t.t.x.G.G.G.G.G.G.G.G.G.G.G.G.G.G.G.",
"G.G.G.G.G.G.G.G.G.G.n.U.'.8X{.@X(.R.J.G.G.G.G.G.G.G.G.G.G.G.G.G.",
"G.G.G.G.G.G.G.G.G.V.].1X2X6X9X-X=X$X!.z.Z.G.G.G.G.G.G.G.G.G.G.G.",
"G.G.G.G.G.G.G.G.G.P. X<X[.XX>XqX0X,X~.`.o.A.G.G.G.G.G.G.G.G.G.G.",
"G.G.G.G.G.G.G.G.b.2.3X7.4X5X%X|.{ | ' <.4.h.G.G.G.G.G.G.G.G.G.G.",
"G.G.G.G.G.G.G.G.I.0.|.#X;X+XS ) *XgXzX( 5.T G.G.G.G.G.G.G.G.G.G.",
"G.G.G.G.G.G.G.c./._.:.).}.} K #.k w aX_ >.w.G.G.G.G.G.G.G.G.G.G.",
"G.G.G.G.G.G.G.T.$..XJ :X .=.&XiXmXK.pX9 R F.G.G.G.G.G.G.G.G.G.G.",
"G.G.G.G.G.G.F.,...-.%.OX9.H hXcXfXdXkXP l.G.G.G.G.G.G.G.G.G.G.G.",
"G.G.G.G.G.G.G.E.3.6.;.] 8.M sXbXbXbXxXY.F.G.G.G.G.G.G.G.G.G.G.G.",
"G.G.G.G.G.G.G.a.X.Q.1.[ *.q ` 7XjXvXlXj.G.G.G.G.G.G.G.G.G.G.G.G.",
"G.G.G.G.G.G.G.G.F.s.oX^.&.N V 0 +.O.Y G.G.G.G.G.G.G.G.G.G.G.G.G.",
"G.G.G.G.G.G.G.G.G.G.d.k.U I > e C N.G.q.F.G.G.G.G.G.G.G.G.G.G.G.",
"G.G.G.G.G.G.G.G.G.G.B.i.z * - 8 Z D.f h t G.G.G.G.G.G.G.G.G.G.G.",
"G.G.G.G.G.G.G.G.g.p , u a : : 7 ~ yXuXl p.G.G.G.G.G.G.G.G.G.G.G.",
"G.G.G.G.G.G.G.F.L 3 < 1 o . X # v j s u.G.G.G.G.G.G.G.G.G.G.G.G.",
"G.G.G.G.G.G.G.F.A b ^ 6 + O %   ; r S.G.G.G.G.G.G.G.G.G.G.G.G.G.",
"G.G.G.G.G.G.G.G.f.i F 4 W $ & 2 @ = c L.G.G.G.G.G.G.G.G.G.G.G.G.",
"G.G.G.G.G.G.G.G.G.G.D.G Q E m / 5 n @.nXW.G.G.G.G.G.G.G.G.G.G.G.",
"G.G.G.G.G.G.G.G.G.G.G.x tXrXd B D ! wXy H.G.G.G.G.G.G.G.G.G.G.G.",
"G.G.G.G.G.G.G.G.G.G.G.y.r.r.M.F.G.C.eXg G.G.G.G.G.G.G.G.G.G.G.G.",
"G.G.G.G.G.G.G.G.G.G.G.G.G.G.G.G.G.G.m.v.G.G.G.G.G.G.G.G.G.G.G.G.",
"G.G.G.G.G.G.G.G.G.G.G.G.G.G.G.G.G.G.G.G.G.G.G.G.G.G.G.G.G.G.G.G.",
"G.G.G.G.G.G.G.G.G.G.G.G.G.G.G.G.G.G.G.G.G.G.G.G.G.G.G.G.G.G.G.G.",
"G.G.G.G.G.G.G.G.G.G.G.G.G.G.G.G.G.G.G.G.G.G.G.G.G.G.G.G.G.G.G.G.",
"G.G.G.G.G.G.G.G.G.G.G.G.G.G.G.G.G.G.G.G.G.G.G.G.G.G.G.G.G.G.G.G.",
"G.G.G.G.G.G.G.G.G.G.G.G.G.G.G.G.G.G.G.G.G.G.G.G.G.G.G.G.G.G.G.G."
};
