/* XPM */
static char *result[] = {
/* columns rows colors chars-per-pixel */
"32 32 239 2 ",
"   c #00061F",
".  c #000D22",
"X  c #1D0923",
"o  c #02152A",
"O  c #001B2F",
"+  c #0E1E2F",
"@  c #240E24",
"#  c #340927",
"$  c #22172A",
"%  c #152C2E",
"&  c #002230",
"*  c #002133",
"=  c #002534",
"-  c #032634",
";  c #002838",
":  c #002C39",
">  c #002C3B",
",  c #002E3C",
"<  c #082F3A",
"1  c #491832",
"2  c #7E0F38",
"3  c #611C36",
"4  c #682C2A",
"5  c #67332B",
"6  c #7D3128",
"7  c #304331",
"8  c #504328",
"9  c #685D35",
"0  c #775634",
"q  c #6A7329",
"w  c #747F2E",
"e  c #7E6A35",
"r  c #6C7931",
"t  c #6C783B",
"y  c #747130",
"u  c #787330",
"i  c #7E7B30",
"p  c #213442",
"a  c #413C44",
"s  c #3B4A49",
"d  c #69454D",
"f  c #576340",
"g  c #5A6558",
"h  c #717E4D",
"j  c #73446A",
"k  c #60567B",
"l  c #496A66",
"z  c #576374",
"x  c #5F6C70",
"c  c #626F69",
"v  c #657A7C",
"b  c #860D3E",
"n  c #9B183A",
"m  c #B61A3C",
"M  c #BB1B3D",
"N  c #B91B3F",
"B  c #BD1C3C",
"V  c #833332",
"C  c #933930",
"Z  c #8E4939",
"A  c #9D453D",
"S  c #934D3B",
"D  c #9E4B3A",
"F  c #99563C",
"G  c #A2453E",
"H  c #A05630",
"J  c #A3503C",
"K  c #AB5A3D",
"L  c #B0513B",
"P  c #B1553A",
"I  c #8D672B",
"U  c #886F2D",
"Y  c #94633B",
"T  c #8F7D37",
"R  c #9D7736",
"E  c #9A1245",
"W  c #921A4A",
"Q  c #A01440",
"!  c #A51540",
"~  c #A81543",
"^  c #8F2942",
"/  c #CA1E47",
"(  c #D22345",
")  c #D22046",
"_  c #844342",
"`  c #9B5147",
"'  c #AE5045",
"]  c #B95A40",
"[  c #B85E41",
"{  c #9C6756",
"}  c #B86446",
"|  c #B06949",
" . c #A67C45",
".. c #AA714D",
"X. c #BA744F",
"o. c #A66057",
"O. c #B56558",
"+. c #B46F5D",
"@. c #A77259",
"#. c #B97851",
"$. c #87557B",
"%. c #CB5F56",
"&. c #C06B49",
"*. c #C36E49",
"=. c #C06D4A",
"-. c #C6714D",
";. c #C6734D",
":. c #C2754F",
">. c #C6754E",
",. c #C8754E",
"<. c #C67C4D",
"1. c #C97A4E",
"2. c #D0734D",
"3. c #C47652",
"4. c #CF7B51",
"5. c #CD7E54",
"6. c #D17850",
"7. c #D47A51",
"8. c #D57A51",
"9. c #D27D53",
"0. c #D47C51",
"q. c #D27E54",
"w. c #C07462",
"e. c #D37D6A",
"r. c #76812D",
"t. c #7B892F",
"y. c #7C892F",
"u. c #7A8733",
"i. c #7A8831",
"p. c #7D8A31",
"a. c #7F8D31",
"s. c #7A8844",
"d. c #788954",
"f. c #808732",
"g. c #858435",
"h. c #858634",
"j. c #828F32",
"k. c #878B35",
"l. c #868C34",
"z. c #888B36",
"x. c #99873E",
"c. c #94893A",
"v. c #829032",
"b. c #839133",
"n. c #849233",
"m. c #839134",
"M. c #849034",
"N. c #849134",
"B. c #859334",
"V. c #869334",
"C. c #869434",
"Z. c #869534",
"A. c #8A9137",
"S. c #889535",
"D. c #889635",
"F. c #889735",
"G. c #899836",
"H. c #8A9936",
"J. c #8B9A36",
"K. c #8B9A37",
"L. c #8C9B37",
"P. c #859339",
"I. c #82903C",
"U. c #86943C",
"Y. c #A3813F",
"T. c #9F8B41",
"R. c #A18045",
"E. c #A08344",
"W. c #A68744",
"Q. c #B68147",
"!. c #B2894A",
"~. c #BA8A4D",
"^. c #BD894D",
"/. c #AC9062",
"(. c #BA8870",
"). c #CD8551",
"_. c #CE8155",
"`. c #C98058",
"'. c #DB8255",
"]. c #DC8355",
"[. c #DD8356",
"{. c #D98457",
"}. c #DC8557",
"|. c #D58359",
" X c #DD915B",
".X c #E28255",
"XX c #E18959",
"oX c #E08A5A",
"OX c #E58E5C",
"+X c #EC8959",
"@X c #E4925F",
"#X c #E5925F",
"$X c #EF905D",
"%X c #F1915D",
"&X c #F1915E",
"*X c #F4945F",
"=X c #C49074",
"-X c #CD9179",
";X c #DD937B",
":X c #E99460",
">X c #EA9560",
",X c #EE9963",
"<X c #EB9C63",
"1X c #F29761",
"2X c #F19762",
"3X c #F49761",
"4X c #F19963",
"5X c #F79962",
"6X c #F79963",
"7X c #F79B63",
"8X c #F89A63",
"9X c #F89B64",
"0X c #F0977F",
"qX c #D1BA69",
"wX c #FAA167",
"eX c #FBA167",
"rX c #FDA76B",
"tX c #566486",
"yX c #566690",
"uX c #5C6C99",
"iX c #5D7097",
"pX c #617CA7",
"aX c #877E90",
"sX c #8E9880",
"dX c #8FB28B",
"fX c #8893AA",
"gX c #A2A9B2",
"hX c #F39C83",
"jX c #DBA588",
"kX c #E1AC8D",
"lX c #F5A98D",
"zX c #FAAF92",
"xX c #F5B596",
"cX c #F6BD9B",
"vX c #D1BEB7",
"bX c #FBC19E",
"nX c #FEC3A0",
"mX c #FFC3A1",
"MX c #FFC4A1",
/* pixels */
"L.L.L.L.L.L.L.L.L.L.L.L.L.L.L.L.L.L.L.L.L.L.L.L.L.L.L.L.L.L.L.L.",
"L.L.L.L.L.L.L.L.L.L.L.L.L.L.L.L.L.L.L.L.L.L.L.L.L.L.L.L.L.L.L.L.",
"L.L.L.L.L.L.L.L.L.L.L.L.L.L.L.L.L.L.L.L.L.L.L.L.L.L.L.L.L.L.L.L.",
"L.L.L.L.L.L.L.L.L.L.L.L.L.L.L.L.L.L.L.L.L.L.L.L.L.L.L.L.L.L.L.L.",
"L.L.L.L.L.L.L.L.L.L.L.L.L.L.L.L.L.L.L.L.L.L.L.L.L.L.L.L.L.L.L.L.",
"L.L.L.L.L.L.L.L.L.L.L.L.L.L.L.L.L.L.L.L.L.L.L.L.L.L.L.L.L.L.L.L.",
"L.L.L.L.L.L.L.L.L.L.L.G.h.W.R Y.x.j.L.L.L.L.L.L.L.L.L.L.L.L.L.L.",
"L.L.L.L.L.L.L.L.L.L.A.).&X6X5X8X7X<X!.D.L.L.L.L.L.L.L.L.L.L.L.L.",
"L.L.L.L.L.L.L.L.H.E.X.+X#X@X#X#X3X*X$X~.L.L.L.L.L.L.L.L.L.L.L.L.",
"L.L.L.L.L.L.L.L.E.`.|.'.1XrXeXwXOX.X4X].z.L.L.L.L.L.L.L.L.L.L.L.",
"L.L.L.L.L.L.L.M.#.3.{ ;XO.D 7.3X9X,X[.XXQ.K.L.L.L.L.L.L.L.L.L.L.",
"L.L.L.L.L.L.L.S...S jX0Xw.+.` L %XoXq.>X4.k.L.L.L.L.L.L.L.L.L.L.",
"L.L.L.L.L.L.L.L.R.Z -XY l fXo.[ &.2X;.6.,.^.K.L.L.L.L.L.L.L.L.L.",
"L.L.L.L.L.L.L.L.f.F (.qXdXvXxX' }.7.5.] _.'.l.L.L.L.L.L.L.L.L.L.",
"L.L.L.L.L.L.L.L.J. .=XbXcXnXmX%.2.=.:.9.{.8.g.L.L.L.L.L.L.L.L.L.",
"L.L.L.L.L.L.L.L.L.C.kXMXMXMXzXA P | J :X>.<.D.L.L.L.L.L.L.L.L.L.",
"L.L.L.L.L.L.L.L.L.L./.lXhXe.G C K } -. XT c.L.L.L.L.L.L.L.L.L.L.",
"L.L.L.L.L.L.L.L.L.L.n.r.@.V 4 6 *.0.1.T.L.L.L.L.L.L.L.L.L.L.L.L.",
"L.L.L.L.L.L.L.L.L.q w L.U M : 5 9 a.b.L.L.L.L.L.L.L.L.L.L.L.L.L.",
"L.L.L.L.L.L.L.L.G.a iXd.I N : , p v i.m.L.L.L.L.L.L.L.L.L.L.L.L.",
"L.L.L.L.L.L.L.L.L.t z pX$.! = > - s % 7 H F.L.L.L.L.L.L.L.L.L.L.",
"L.L.L.L.L.L.L.L.L.L.p.f 8 @   . & $ E # B i L.L.L.L.L.L.L.L.L.L.",
"L.L.L.L.L.L.L.L.L.L.L.r < * ; O 1 + Q n ^ B.L.L.L.L.L.L.L.L.L.L.",
"L.L.L.L.L.L.L.L.L.P.sXd o 2 3 X ~ m 0 V.N.L.L.L.L.L.L.L.L.L.L.L.",
"L.L.L.L.L.L.L.L.U.gXaX( b / ) W j _ Z.L.L.L.L.L.L.L.L.L.L.L.L.L.",
"L.L.L.L.L.L.L.L.K.u.g k u e y tXuXyXh L.L.L.L.L.L.L.L.L.L.L.L.L.",
"L.L.L.L.L.L.L.L.L.L.x c L.L.L.v.y.t.F.L.L.L.L.L.L.L.L.L.L.L.L.L.",
"L.L.L.L.L.L.L.L.L.L.s.I.L.L.L.L.L.L.L.L.L.L.L.L.L.L.L.L.L.L.L.L.",
"L.L.L.L.L.L.L.L.L.L.L.L.L.L.L.L.L.L.L.L.L.L.L.L.L.L.L.L.L.L.L.L.",
"L.L.L.L.L.L.L.L.L.L.L.L.L.L.L.L.L.L.L.L.L.L.L.L.L.L.L.L.L.L.L.L.",
"L.L.L.L.L.L.L.L.L.L.L.L.L.L.L.L.L.L.L.L.L.L.L.L.L.L.L.L.L.L.L.L.",
"L.L.L.L.L.L.L.L.L.L.L.L.L.L.L.L.L.L.L.L.L.L.L.L.L.L.L.L.L.L.L.L."
};
