/* XPM */
static char *result[] = {
/* columns rows colors chars-per-pixel */
"32 32 226 2 ",
"   c #000D22",
".  c #001124",
"X  c #00152C",
"o  c #001F2E",
"O  c #001E2F",
"+  c #091F2D",
"@  c #031F30",
"#  c #191E31",
"$  c #0E2226",
"%  c #002131",
"&  c #002234",
"*  c #002535",
"=  c #002636",
"-  c #042735",
";  c #002B38",
":  c #052C39",
">  c #002E3C",
",  c #3A272E",
"<  c #2F2731",
"1  c #322C35",
"2  c #4B0D2B",
"3  c #541131",
"4  c #65132F",
"5  c #690A31",
"6  c #6A0F35",
"7  c #720F31",
"8  c #473230",
"9  c #672926",
"0  c #723637",
"q  c #59472A",
"w  c #5C5F23",
"e  c #7A5B35",
"r  c #5E6B2F",
"t  c #57633F",
"y  c #6A762A",
"u  c #747F2D",
"i  c #776A32",
"p  c #7D6E34",
"a  c #697732",
"s  c #6D7A32",
"d  c #7A7A31",
"f  c #546048",
"g  c #6C7952",
"h  c #4B566A",
"j  c #445072",
"k  c #4D5679",
"l  c #810E38",
"z  c #8D1139",
"x  c #8F113B",
"c  c #A2163A",
"v  c #AF173A",
"b  c #89372B",
"n  c #8B3832",
"m  c #953A31",
"M  c #903F3F",
"N  c #943D3C",
"B  c #A02C30",
"V  c #85483D",
"C  c #924034",
"Z  c #9A4933",
"A  c #9D4834",
"S  c #9F4836",
"D  c #964E3B",
"F  c #A74A36",
"G  c #A3433C",
"H  c #AE533B",
"J  c #AD5B3D",
"K  c #B2573E",
"L  c #B1583F",
"P  c #886136",
"I  c #9C6430",
"U  c #8C7A30",
"Y  c #8F0E42",
"T  c #941242",
"R  c #A51747",
"E  c #A51948",
"W  c #B61B40",
"Q  c #BE1F47",
"!  c #B22F50",
"~  c #CF1F47",
"^  c #8E5A49",
"/  c #945C4C",
"(  c #AC4D44",
")  c #B25044",
"_  c #AC5C51",
"`  c #BF6646",
"'  c #B76944",
"]  c #BD6847",
"[  c #BE6D4A",
"{  c #AF7241",
"}  c #AD7543",
"|  c #AE7F45",
" . c #B27041",
".. c #B17648",
"X. c #BE724D",
"o. c #BE774E",
"O. c #A06754",
"+. c #826362",
"@. c #9D7E7D",
"#. c #AC636C",
"$. c #BD7160",
"%. c #C85B53",
"&. c #C46F4B",
"*. c #C56F4B",
"=. c #CD6B48",
"-. c #CA6E49",
";. c #C37446",
":. c #C9754E",
">. c #CF754D",
",. c #C47D4B",
"<. c #C9784D",
"1. c #D2764E",
"2. c #CB7A52",
"3. c #CA7B52",
"4. c #D17A51",
"5. c #D37A50",
"6. c #D77A51",
"7. c #D17D53",
"8. c #D97D52",
"9. c #DD7D52",
"0. c #CF7F6B",
"q. c #2C912D",
"w. c #768334",
"e. c #7F8630",
"r. c #7B8832",
"t. c #75823D",
"y. c #7F8D3C",
"u. c #778443",
"i. c #748148",
"p. c #818632",
"a. c #818C32",
"s. c #838D33",
"d. c #878935",
"f. c #868D35",
"g. c #848E34",
"h. c #858E34",
"j. c #878E3C",
"k. c #9A843D",
"l. c #948B3B",
"z. c #839033",
"x. c #869134",
"c. c #849234",
"v. c #859434",
"b. c #889635",
"n. c #889735",
"m. c #889636",
"M. c #8A9836",
"N. c #8A9936",
"B. c #8B9A37",
"V. c #8C9A37",
"C. c #8C9B37",
"Z. c #8E9038",
"A. c #87954A",
"S. c #9E8951",
"D. c #A28742",
"F. c #A58643",
"G. c #AC8746",
"H. c #A08C41",
"J. c #B08345",
"K. c #B5884A",
"L. c #BF8662",
"P. c #B4966A",
"I. c #A7AA73",
"U. c #C8804E",
"Y. c #CC8D55",
"T. c #D18054",
"R. c #D58054",
"E. c #D68155",
"W. c #D48256",
"Q. c #DB8456",
"!. c #DC8557",
"~. c #D58558",
"^. c #D78558",
"/. c #DD8D58",
"(. c #E08658",
"). c #E18758",
"_. c #E28758",
"`. c #E18A5A",
"'. c #E38A5A",
"]. c #E78B5A",
"[. c #E98859",
"{. c #EB8B5A",
"}. c #E88F5D",
"|. c #EC8E5C",
" X c #E4925F",
".X c #E6925E",
"XX c #E8925D",
"oX c #ED915E",
"OX c #F4935E",
"+X c #C7846C",
"@X c #D6826E",
"#X c #D39069",
"$X c #C39075",
"%X c #E79460",
"&X c #E69760",
"*X c #E99661",
"=X c #F69761",
"-X c #F29A63",
";X c #F79963",
":X c #F29A64",
">X c #F79C64",
",X c #F89B63",
"<X c #F89B64",
"1X c #F89D65",
"2X c #FA9E66",
"3X c #E78A76",
"4X c #E7907A",
"5X c #F9A067",
"6X c #FAA268",
"7X c #4E678B",
"8X c #5B6F8D",
"9X c #5E7585",
"0X c #5B6C97",
"qX c #747E8A",
"wX c #5D7BAA",
"eX c #8A9390",
"rX c #96A09C",
"tX c #EA9980",
"yX c #F7A68A",
"uX c #F8B293",
"iX c #F2BA90",
"pX c #D6B7A8",
"aX c #F9C09E",
"sX c #FFC2A0",
"dX c #FFC4A1",
"fX c #BEC4D2",
/* pixels */
"C.C.C.C.C.C.C.C.C.C.C.C.C.C.C.C.C.C.C.C.C.C.C.C.C.C.C.C.C.C.C.C.",
"C.C.C.C.C.C.C.C.C.C.C.C.C.C.C.C.C.C.C.C.C.C.C.C.C.C.C.C.C.C.C.C.",
"C.C.C.C.C.C.C.C.C.C.C.C.C.C.C.C.C.C.C.C.C.C.C.C.C.C.C.C.C.C.C.C.",
"C.C.C.C.C.C.C.C.C.C.C.C.C.C.C.C.C.C.C.C.C.C.C.C.C.C.C.C.C.C.C.C.",
"C.C.C.C.C.C.C.C.C.C.C.C.C.C.C.C.C.C.C.C.C.C.C.C.C.C.C.C.C.C.C.C.",
"C.C.C.C.C.C.C.C.C.C.C.C.C.C.C.C.C.C.C.C.C.C.C.C.C.C.C.C.C.C.C.C.",
"C.C.C.C.C.C.C.C.C.C.C.C.z.D.,.;.U.Y.D.z.C.C.C.C.C.C.C.C.C.C.C.C.",
"C.C.C.C.C.C.C.C.C.C.B.d./.OX5X6X<X;X=X&XH.C.C.C.C.C.C.C.C.C.C.C.",
"C.C.C.C.C.C.C.C.C.M.| T.].%X%X%X X).>X[..Xf.C.C.C.C.C.C.C.C.C.C.",
"C.C.C.C.C.C.C.C.C.k.W.9.H >.}.5X,X1X`.{.(.J.C.C.C.C.C.C.C.C.C.C.",
"C.C.C.C.C.C.C.C.N...6./ uXtX_ C 8.2XoX^.:X5.h.C.C.C.C.C.C.C.C.C.",
"C.C.C.C.C.C.C.C.C.i *.$X4XN +.$.S =.-XR.!.3.K.C.C.C.C.C.C.C.C.C.",
"C.C.C.C.C.C.C.C.C.f.J O.#Xq.fX@.) E.1.~.K ~.Q.g.C.C.C.C.C.C.C.C.",
"C.C.C.C.C.C.C.C.C.N. .^ iXI.pXaX@X-.[ *XL '.` G.C.C.C.C.C.C.C.C.",
"C.C.C.C.C.C.C.C.C.C.Z.L.dXdXdXdX3XA 2.X._.4.&.F.C.C.C.C.C.C.C.C.",
"C.C.C.C.C.C.C.C.C.C.C.P.dXdXsXyX( b :.D |.o.<.x.C.C.C.C.C.C.C.C.",
"C.C.C.C.C.C.C.C.C.C.C.j.+X0.%.n m Z ] 7.XXp.a.C.C.C.C.C.C.C.C.C.",
"C.C.C.C.C.C.C.C.C.C.C.C.C.S.0 < 9 ' { } l.C.C.C.C.C.C.C.C.C.C.C.",
"C.C.C.C.C.C.C.C.C.b.w c.C.e.v * 1 8 u.C.C.C.C.C.C.C.C.C.C.C.C.C.",
"C.C.C.C.C.C.C.C.C.u k 9Xy.I x * > ; 7Xy r v.B.C.C.C.C.C.C.C.C.C.",
"C.C.C.C.C.C.C.C.C.N.f 8XwX! 5 X = o $ , # B U C.C.C.C.C.C.C.C.C.",
"C.C.C.C.C.C.C.C.C.C.V.s t q +   . % O T z c P C.C.C.C.C.C.C.C.C.",
"C.C.C.C.C.C.C.C.C.C.C.C.a : @ - & 3 4 6 G V s.C.C.C.C.C.C.C.C.C.",
"C.C.C.C.C.C.C.C.C.C.A.rX#.2 l W 7 Y ~ e b.B.C.C.C.C.C.C.C.C.C.C.",
"C.C.C.C.C.C.C.C.C.N.eXqXF R E Q M d p b.C.C.C.C.C.C.C.C.C.C.C.C.",
"C.C.C.C.C.C.C.C.C.C.C.V.n.t.h j g C.C.C.C.C.C.C.C.C.C.C.C.C.C.C.",
"C.C.C.C.C.C.C.C.C.C.C.C.C.C.r.0Xw.C.C.C.C.C.C.C.C.C.C.C.C.C.C.C.",
"C.C.C.C.C.C.C.C.C.C.C.C.C.C.C.i.m.C.C.C.C.C.C.C.C.C.C.C.C.C.C.C.",
"C.C.C.C.C.C.C.C.C.C.C.C.C.C.C.C.C.C.C.C.C.C.C.C.C.C.C.C.C.C.C.C.",
"C.C.C.C.C.C.C.C.C.C.C.C.C.C.C.C.C.C.C.C.C.C.C.C.C.C.C.C.C.C.C.C.",
"C.C.C.C.C.C.C.C.C.C.C.C.C.C.C.C.C.C.C.C.C.C.C.C.C.C.C.C.C.C.C.C.",
"C.C.C.C.C.C.C.C.C.C.C.C.C.C.C.C.C.C.C.C.C.C.C.C.C.C.C.C.C.C.C.C."
};
