/* XPM */
static char *result[] = {
/* columns rows colors chars-per-pixel */
"100 100 27 1 ",
"  c black",
". c #001313",
"X c #000927",
"o c #002E3C",
"O c #24333D",
"+ c #4C1E2C",
"@ c #53192D",
"# c #005032",
"$ c #002D68",
"% c #973B32",
"& c #A4104F",
"* c #EA2743",
"= c #E8714A",
"- c #F16A62",
"; c #00C300",
": c #00DD00",
"> c #8C9B37",
", c #FFAA6D",
"< c #BAF245",
"1 c #657791",
"2 c #60719F",
"3 c #699DEA",
"4 c #8595B5",
"5 c #FFC4A1",
"6 c #A2ABC6",
"7 c #D7E2EC",
"8 c white",
/* pixels */
">>>>>>>>>>>>>>>>>>>>>>>>>>>>>>>>>>>>>>>>>>>>>>>>>>>>>>>>>>>>>>>>>>>>>>>>>>>>>>>>>>>>>>>>>>>>>>>>>>>>",
">>>>>>>>>>>>>>>>>>>>>>>>>>>>>>>>>>>>>>>>>>>>>>>>>>>>>>>>>>>>>>>>>>>>>>>>>>>>>>>>>>>>>>>>>>>>>>>>>>>>",
">>>>>>>>>>>>>>>>>>>>>>>>>>>>>>>>>>>>>>>>>>>>>>>>>>>>>>>>>>>>>>>>>>>>>>>>>>>>>>>>>>>>>>>>>>>>>>>>>>>>",
">>>>>>>>>>>>>>>>>>>>>>>>>>>>>>>>>>>>>>>>>>>>>>>>>>>>>>>>>>>>>>>>>>>>>>>>>>>>>>>>>>>>>>>>>>>>>>>>>>>>",
">>>>>>>>>>>>>>>>>>>>>>>>>>>>>>>>>>>>>>>>>>>>>>>>>>>>>>>>>>>>>>>>>>>>>>>>>>>>>>>>>>>>>>>>>>>>>>>>>>>>",
">>>>>>>>>>>>>>>>>>>>>>>>>>>>>>>>>>>>>>>>>>>>>>>>>>>>>>>>>>>>>>>>>>>>>>>>>>>>>>>>>>>>>>>>>>>>>>>>>>>>",
">>>>>>>>>>>>>>>>>>>>>>>>>>>>>>>>>>>>>>>>>>>>>>>>>>>>>>>>>>>>>>>>>>>>>>>>>>>>>>>>>>>>>>>>>>>>>>>>>>>>",
">>>>>>>>>>>>>>>>>>>>>>>>>>>>>>>>>>>>>>>>>>>>>>>>>>>>>>>>>>>>>>>>>>>>>>>>>>>>>>>>>>>>>>>>>>>>>>>>>>>>",
">>>>>>>>>>>>>>>>>>>>>>>>>>>>>>>>>>>>>>>>>>>>>>>>>>>>>>>>>>>>>>>>>>>>>>>>>>>>>>>>>>>>>>>>>>>>>>>>>>>>",
">>>>>>>>>>>>>>>>>>>>>>>>>>>>>>>>>>>>>>>>>>>>>>>>>>>>>>>>>>>>>>>>>>>>>>>>>>>>>>>>>>>>>>>>>>>>>>>>>>>>",
">>>>>>>>>>>>>>>>>>>>>>>>>>>>>>>>>>>>>>>>>>>>>>>>>>>>>>>>>>>>>>>>>>>>>>>>>>>>>>>>>>>>>>>>>>>>>>>>>>>>",
">>>>>>>>>>>>>>>>>>>>>>>>>>>>>>>>>>>>>>>>>>>>>>>>>>>>>>>>>>>>>>>>>>>>>>>>>>>>>>>>>>>>>>>>>>>>>>>>>>>>",
">>>>>>>>>>>>>>>>>>>>>>>>>>>>>>>>>>>>>>>>>>>>>>>>>>>>>>>>>>>>>>>>>>>>>>>>>>>>>>>>>>>>>>>>>>>>>>>>>>>>",
">>>>>>>>>>>>>>>>>>>>>>>>>>>>>>>>>>>>>>>>>>>>>>>>>>>>>>>>>>>>>>>>>>>>>>>>>>>>>>>>>>>>>>>>>>>>>>>>>>>>",
">>>>>>>>>>>>>>>>>>>>>>>>>>>>>>>>>>>>>>>>>>>>>>>>>>>>>>>>>>>>>>>>>>>>>>>>>>>>>>>>>>>>>>>>>>>>>>>>>>>>",
">>>>>>>>>>>>>>>>>>>>>>>>>>>>>>>>>>>>>>>>>>>>>>>>>>>>>>>>>>>>>>>>>>>>>>>>>>>>>>>>>>>>>>>>>>>>>>>>>>>>",
">>>>>>>>>>>>>>>>>>>>>>>>>>>>>>>>>>>>>>>>>>>>>>>>>>>>>>>>>>>>>>>>>>>>>>>>>>>>>>>>>>>>>>>>>>>>>>>>>>>>",
">>>>>>>>>>>>>>>>>>>>>>>>>>>>>>>>>>>>>>>>>>>>>>>>>>>>>>>>>>>>>>>>>>>>>>>>>>>>>>>>>>>>>>>>>>>>>>>>>>>>",
">>>>>>>>>>>>>>>>>>>>>>>>>>>>>>>>>>>>>>>>            >>>>>>>>>>>>>>>>>>>>>>>>>>>>>>>>>>>>>>>>>>>>>>>>",
">>>>>>>>>>>>>>>>>>>>>>>>>>>>>>>>>>>>>   ,,,,====,,,,   >>>>>>>>>>>>>>>>>>>>>>>>>>>>>>>>>>>>>>>>>>>>>",
">>>>>>>>>>>>>>>>>>>>>>>>>>>>>>>>>>>  ,,,,,,,,,,=====,,,  >>>>>>>>>>>>>>>>>>>>>>>>>>>>>>>>>>>>>>>>>>>",
">>>>>>>>>>>>>>>>>>>>>>>>>>>>>>>>>  ,,,,,,,,====,,,,====,, >>>>>>>>>>>>>>>>>>>>>>>>>>>>>>>>>>>>>>>>>>",
">>>>>>>>>>>>>>>>>>>>>>>>>>>>>>>> ,,,,,,====,,,,,,,,,,,==,, >>>>>>>>>>>>>>>>>>>>>>>>>>>>>>>>>>>>>>>>>",
">>>>>>>>>>>>>>>>>>>>>>>>>>>>>>> ,,,,====,,,,,,,,,,,,,,,==,,  >>>>>>>>>>>>>>>>>>>>>>>>>>>>>>>>>>>>>>>",
">>>>>>>>>>>>>>>>>>>>>>>>>>>>>> ,,,===,,,,,,,,,%%%%%%%,,===%,,  >>>>>>>>>>>>>>>>>>>>>>>>>>>>>>>>>>>>>",
">>>>>>>>>>>>>>>>>>>>>>>>>>>>>> ,,==%,,,,==%%%%,,,,,,,%%,,%%%=,, >>>>>>>>>>>>>>>>>>>>>>>>>>>>>>>>>>>>",
">>>>>>>>>>>>>>>>>>>>>>>>>>>>> ,,=%,,,,==%%,,,,,,,,,,,,,,,,,,%+=, >>>>>>>>>>>>>>>>>>>>>>>>>>>>>>>>>>>",
">>>>>>>>>>>>>>>>>>>>>>>>>>>>> ,=%,,,==%%,,,,,,,,,,,,,,,,=%=,,,+=, >>>>>>>>>>>>>>>>>>>>>>>>>>>>>>>>>>",
">>>>>>>>>>>>>>>>>>>>>>>>>>>> ,=%,,,==%,,,,,,===,,,,,====%%===,,+, >>>>>>>>>>>>>>>>>>>>>>>>>>>>>>>>>>",
">>>>>>>>>>>>>>>>>>>>>>>>>>>> ,=%,,==+,,,,===,,,,,==%%%    %+==,+=, >>>>>>>>>>>>>>>>>>>>>>>>>>>>>>>>>",
">>>>>>>>>>>>>>>>>>>>>>>>>>> ,=%,,,=+,,,==,,,,,==%%%++ ---- %+==,+, >>>>>>>>>>>>>>>>>>>>>>>>>>>>>>>>>",
">>>>>>>>>>>>>>>>>>>>>>>>>>> ,=%,,=+,,,=,,,,,==%%+++ --55555 %+=,+=, >>>>>>>>>>>>>>>>>>>>>>>>>>>>>>>>",
">>>>>>>>>>>>>>>>>>>>>>>>>> ,=%,,,=+,,=%,,,==%%++  --5555555 %+==,+, >>>>>>>>>>>>>>>>>>>>>>>>>>>>>>>>",
">>>>>>>>>>>>>>>>>>>>>>>>>> ,=+,,=+,,=%,,,==%++% --55----5555 %+=,+ >>>>>>>>>>>>>>>>>>>>>>>>>>>>>>>>>",
">>>>>>>>>>>>>>>>>>>>>>>>> ,,%+,,=+,=+,,,==%+=% -5     ---555 %+=,+ >>>>>>>>>>>>>>>>>>>>>>>>>>>>>>>>>",
">>>>>>>>>>>>>>>>>>>>>>>>> ,=+,,=+,=+,,,==%+=% -5        --55 %+=,+ >>>>>>>>>>>>>>>>>>>>>>>>>>>>>>>>>",
">>>>>>>>>>>>>>>>>>>>>>>> ,,=+,,=+,=+,,==%+,=% -  444$..  -55 %+=, >>>>>>>>>>>>>>>>>>>>>>>>>>>>>>>>>>",
">>>>>>>>>>>>>>>>>>>>>>>> ,=%+,=%+=+,,,=%+,=% -  4444$### -5 %%+=, >>>>>>>>>>>>>>>>>>>>>>>>>>>>>>>>>>",
">>>>>>>>>>>>>>>>>>>>>>> ,,=+,,=%+=+,,=%+,,=% -5 4488.;;<--5 %% = >>>>>>>>>>>>>>>>>>>>>>>>>>>>>>>>>>>",
">>>>>>>>>>>>>>>>>>>>>>> ,=%+,,=%+=+,,=%+,=% --55 888.::<-55 %% = >>>>>>>>>>>>>>>>>>>>>>>>>>>>>>>>>>>",
">>>>>>>>>>>>>>>>>>>>>> ,,=%+,=%%=+,,,=+,,=% -5555  88.<<-55 % =, >>>>>>>>>>>>>>>>>>>>>>>>>>>>>>>>>>>",
">>>>>>>>>>>>>>>>>>>>>> ,=%+,,=%+=+,,=%+,=%% -555555   ..555 % = >>>>>>>>>>>>>>>>>>>>>>>>>>>>>>>>>>>>",
">>>>>>>>>>>>>>>>>>>>>> ,=%+,,=+,=+,,=%+,=% --55555555555555  =, >>>>>>>>>>>>>>>>>>>>>>>>>>>>>>>>>>>>",
">>>>>>>>>>>>>>>>>>>>>> ,=%+,=%+,=%+,=+,,=% --55555555555555 =, >>>>>>>>>>>>>>>>>>>>>>>>>>>>>>>>>>>>>",
">>>>>>>>>>>>>>>>>>>>>> ,,=+,=+,,=%+,%+,=%% --55555555555555 , >>>>>>>>>>>>>>>>>>>>>>>>>>>>>>>>>>>>>>",
">>>>>>>>>>>>>>>>>>>>>>> ,=+,=+,,=%+,%+,=%%  -555555555555555 >>>>>>>>>>>>>>>>>>>>>>>>>>>>>>>>>>>>>>>",
">>>>>>>>>>>>>>>>>>>>>>> ,=+,=+,,=%%+%+,=% % --55555555555555 >>>>>>>>>>>>>>>>>>>>>>>>>>>>>>>>>>>>>>>",
">>>>>>>>>>>>>>>>>>>>>>>> ,= ,+,,=%%+%+,=% %% --5555555555555 >>>>>>>>>>>>>>>>>>>>>>>>>>>>>>>>>>>>>>>",
">>>>>>>>>>>>>>>>>>>>>>>> ,= ,+,,=%+,+%,=% %%% ---5555555555 >>>>>>>>>>>>>>>>>>>>>>>>>>>>>>>>>>>>>>>>",
">>>>>>>>>>>>>>>>>>>>>>>>>  >  ,,==+,=%+=% %%%%  -----555555 >>>>>>>>>>>>>>>>>>>>>>>>>>>>>>>>>>>>>>>>",
">>>>>>>>>>>>>>>>>>>>>>>>>>>>>> ,,=+,=%+,% %%%%%%   ------- >>>>>>>>>>>>>>>>>>>>>>>>>>>>>>>>>>>>>>>>>",
">>>>>>>>>>>>>>>>>>>>>>>>>>>>>> ,,=+,,=+,=% %%%%% --        >>>>>>>>>>>>>>>>>>>>>>>>>>>>>>>>>>>>>>>>>",
">>>>>>>>>>>>>>>>>>>>>>>>>>>>>>> ,,=+,==+=% %%%%    -55 >>>>>>>>>>>>>>>>>>>>>>>>>>>>>>>>>>>>>>>>>>>>>",
">>>>>>>>>>>>>>>>>>>>>>>>>>>>>>>>  ,=+,=+,=% %  oo   - >>>>>>>>>>>>>>>>>>>>>>>>>>>>>>>>>>>>>>>>>>>>>>",
">>>>>>>>>>>>>>>>>>>>>>>>>>>>>>>>>>  >  > ,%  ooo **  >>>>>>>>>>>>>>>>>>>>>>>>>>>>>>>>>>>>>>>>>>>>>>>",
">>>>>>>>>>>>>>>>>>>>>>>>>>>>>>>>>>>>>>> O =% ooo &** >>>>>>>  >>>>>>>>>>>>>>>>>>>>>>>>>>>>>>>>>>>>>>",
">>>>>>>>>>>>>>>>>>>>>>>>>>>>>>>>>>>>>> 1O   oooo &** >>>>>> @  >>>>>>>>>>>>>>>>>>>>>>>>>>>>>>>>>>>>>",
">>>>>>>>>>>>>>>>>>>>>>>>>>>>>>>>>>>>> 1O ooooooo &** >>>>> @ @@ >>>>>>>>>>>>>>>>>>>>>>>>>>>>>>>>>>>>",
">>>>>>>>>>>>>>>>>>>>>>>>>>>>>>>>>>>> 31O ooooooo &** >>>>>  3 @ >>>>>>>>>>>>>>>>>>>>>>>>>>>>>>>>>>>>",
">>>>>>>>>>>>>>>>>>>>>>>>>>>>>>>>  >> 31 oooooooo &** >>>  331 @ >>>>>>>>>>>>>>>>>>>>>>>>>>>>>>>>>>>>",
">>>>>>>>>>>>>>>>>>>>>>>>>>>>>>> oo >> O oooooooo &**    331111 >>>>>>>>>>>>>>>>>>>>>>>>>>>>>>>>>>>>>",
">>>>>>>>>>>>>>>>>>>>>>>>>>>  > oooo >> ooooooooo &** 3331111OO >>>>>>>>>>>>>>>>>>>>>>>>>>>>>>>>>>>>>",
">>>>>>>>>>>>>>>>>>>>>>>>>> ** oooXXo   XoooooooX &&* 111111O  >>>>>>>>>>>>>>>>>>>>>>>>>>>>>>>>>>>>>>",
">>>>>>>>>>>>>>>>>>>>>>>>>> ** oXX  oooo XXXooXXXX &&* 111OO >>>>>>>>>>>>>>>>>>>>>>>>>>>>>>>>>>>>>>>>",
">>>>>>>>>>>>>>>>>>>>>>>>> ** XXX &&  Xoo   XXXXXXX    OOO  >>>>>>>>>>>>>>>>>>>>>>>>>>>>>>>>>>>>>>>>>",
">>>>>>>>>>>>>>>>>>>>>>>>> &** X &&&& XXXooX       X  >   >>>>>>>>>>>>>>>>>>>>>>>>>>>>>>>>>>>>>>>>>>>",
">>>>>>>>>>>>>>>>>>>>>>>>> &&* X &*&& XooooXXXXXXXXooo >>>>>>>>>>>>>>>>>>>>>>>>>>>>>>>>>>>>>>>>>>>>>>",
">>>>>>>>>>>>>>>>>>>>>>>>>> &&& &**& oooXXoXXoooXXooooo >>>>>>>>>>>>>>>>>>>>>>>>>>>>>>>>>>>>>>>>>>>>>",
">>>>>>>>>>>>>>>>>>>>>>>>>> &&&&**&& oXX  oXXooooXXooooo >>>>>>>>>>>>>>>>>>>>>>>>>>>>>>>>>>>>>>>>>>>>",
">>>>>>>>>>>>>>>>>>>>>>>>>>> &   && XXX && XXoooooXXooooo  >>>>>>>>>>>>>>>>>>>>>>>>>>>>>>>>>>>>>>>>>>",
">>>>>>>>>>>>>>>>>>>>>>>>>>>> >>> &&   *&& XXXooo  XXXoooo   >>>>>>>>>>>>>>>>>>>>>>>>>>>>>>>>>>>>>>>>",
">>>>>>>>>>>>>>>>>>>>>>>>>>>>>>>>>  &&***& XXXX  && XXXXX 677  >>>>>>>>>>>>>>>>>>>>>>>>>>>>>>>>>>>>>>",
">>>>>>>>>>>>>>>>>>>>>>>>>>>>>>>>>>> &***&&    &&*&& XX  * 6677 >>>>>>>>>>>>>>>>>>>>>>>>>>>>>>>>>>>>>",
">>>>>>>>>>>>>>>>>>>>>>>>>>>>>>>>>>> &&&&&&&&&*****& X &*** 6667 >>>>>>>>>>>>>>>>>>>>>>>>>>>>>>>>>>>>",
">>>>>>>>>>>>>>>>>>>>>>>>>>>>>>>>>>>> &&   &&&*****&& &&*** 11667 >>>>>>>>>>>>>>>>>>>>>>>>>>>>>>>>>>>",
">>>>>>>>>>>>>>>>>>>>>>>>>>>>>>>>>>>>   222  &&&&**&&&&**& 2     >>>>>>>>>>>>>>>>>>>>>>>>>>>>>>>>>>>>",
">>>>>>>>>>>>>>>>>>>>>>>>>>>>>>>>>>> 22222222   &&&&  &&& 22 >>>>>>>>>>>>>>>>>>>>>>>>>>>>>>>>>>>>>>>>",
">>>>>>>>>>>>>>>>>>>>>>>>>>>>>>>>>>> 222222222 >    >>   2222 >>>>>>>>>>>>>>>>>>>>>>>>>>>>>>>>>>>>>>>",
">>>>>>>>>>>>>>>>>>>>>>>>>>>>>>>>>>>          >>>>>>>>>>> 222 >>>>>>>>>>>>>>>>>>>>>>>>>>>>>>>>>>>>>>>",
">>>>>>>>>>>>>>>>>>>>>>>>>>>>>>>>>>>>>>>>>>>>>>>>>>>>>>>> 222 >>>>>>>>>>>>>>>>>>>>>>>>>>>>>>>>>>>>>>>",
">>>>>>>>>>>>>>>>>>>>>>>>>>>>>>>>>>>>>>>>>>>>>>>>>>>>>>>>> 22 >>>>>>>>>>>>>>>>>>>>>>>>>>>>>>>>>>>>>>>",
">>>>>>>>>>>>>>>>>>>>>>>>>>>>>>>>>>>>>>>>>>>>>>>>>>>>>>>>>>   >>>>>>>>>>>>>>>>>>>>>>>>>>>>>>>>>>>>>>>",
">>>>>>>>>>>>>>>>>>>>>>>>>>>>>>>>>>>>>>>>>>>>>>>>>>>>>>>>>>>>>>>>>>>>>>>>>>>>>>>>>>>>>>>>>>>>>>>>>>>>",
">>>>>>>>>>>>>>>>>>>>>>>>>>>>>>>>>>>>>>>>>>>>>>>>>>>>>>>>>>>>>>>>>>>>>>>>>>>>>>>>>>>>>>>>>>>>>>>>>>>>",
">>>>>>>>>>>>>>>>>>>>>>>>>>>>>>>>>>>>>>>>>>>>>>>>>>>>>>>>>>>>>>>>>>>>>>>>>>>>>>>>>>>>>>>>>>>>>>>>>>>>",
">>>>>>>>>>>>>>>>>>>>>>>>>>>>>>>>>>>>>>>>>>>>>>>>>>>>>>>>>>>>>>>>>>>>>>>>>>>>>>>>>>>>>>>>>>>>>>>>>>>>",
">>>>>>>>>>>>>>>>>>>>>>>>>>>>>>>>>>>>>>>>>>>>>>>>>>>>>>>>>>>>>>>>>>>>>>>>>>>>>>>>>>>>>>>>>>>>>>>>>>>>",
">>>>>>>>>>>>>>>>>>>>>>>>>>>>>>>>>>>>>>>>>>>>>>>>>>>>>>>>>>>>>>>>>>>>>>>>>>>>>>>>>>>>>>>>>>>>>>>>>>>>",
">>>>>>>>>>>>>>>>>>>>>>>>>>>>>>>>>>>>>>>>>>>>>>>>>>>>>>>>>>>>>>>>>>>>>>>>>>>>>>>>>>>>>>>>>>>>>>>>>>>>",
">>>>>>>>>>>>>>>>>>>>>>>>>>>>>>>>>>>>>>>>>>>>>>>>>>>>>>>>>>>>>>>>>>>>>>>>>>>>>>>>>>>>>>>>>>>>>>>>>>>>",
">>>>>>>>>>>>>>>>>>>>>>>>>>>>>>>>>>>>>>>>>>>>>>>>>>>>>>>>>>>>>>>>>>>>>>>>>>>>>>>>>>>>>>>>>>>>>>>>>>>>",
">>>>>>>>>>>>>>>>>>>>>>>>>>>>>>>>>>>>>>>>>>>>>>>>>>>>>>>>>>>>>>>>>>>>>>>>>>>>>>>>>>>>>>>>>>>>>>>>>>>>",
">>>>>>>>>>>>>>>>>>>>>>>>>>>>>>>>>>>>>>>>>>>>>>>>>>>>>>>>>>>>>>>>>>>>>>>>>>>>>>>>>>>>>>>>>>>>>>>>>>>>",
">>>>>>>>>>>>>>>>>>>>>>>>>>>>>>>>>>>>>>>>>>>>>>>>>>>>>>>>>>>>>>>>>>>>>>>>>>>>>>>>>>>>>>>>>>>>>>>>>>>>",
">>>>>>>>>>>>>>>>>>>>>>>>>>>>>>>>>>>>>>>>>>>>>>>>>>>>>>>>>>>>>>>>>>>>>>>>>>>>>>>>>>>>>>>>>>>>>>>>>>>>",
">>>>>>>>>>>>>>>>>>>>>>>>>>>>>>>>>>>>>>>>>>>>>>>>>>>>>>>>>>>>>>>>>>>>>>>>>>>>>>>>>>>>>>>>>>>>>>>>>>>>",
">>>>>>>>>>>>>>>>>>>>>>>>>>>>>>>>>>>>>>>>>>>>>>>>>>>>>>>>>>>>>>>>>>>>>>>>>>>>>>>>>>>>>>>>>>>>>>>>>>>>",
">>>>>>>>>>>>>>>>>>>>>>>>>>>>>>>>>>>>>>>>>>>>>>>>>>>>>>>>>>>>>>>>>>>>>>>>>>>>>>>>>>>>>>>>>>>>>>>>>>>>",
">>>>>>>>>>>>>>>>>>>>>>>>>>>>>>>>>>>>>>>>>>>>>>>>>>>>>>>>>>>>>>>>>>>>>>>>>>>>>>>>>>>>>>>>>>>>>>>>>>>>",
">>>>>>>>>>>>>>>>>>>>>>>>>>>>>>>>>>>>>>>>>>>>>>>>>>>>>>>>>>>>>>>>>>>>>>>>>>>>>>>>>>>>>>>>>>>>>>>>>>>>"
};
