/* XPM */
static char *result[] = {
/* columns rows colors chars-per-pixel */
"32 32 149 2 ",
"   c #160F28",
".  c #03162C",
"X  c #0D1729",
"o  c #0D1F30",
"O  c #291C2F",
"+  c #3B1625",
"@  c #00202F",
"#  c #002435",
"$  c #032836",
"%  c #002C3A",
"&  c #363F25",
"*  c #302D3A",
"=  c #4C0E2D",
"-  c #55092F",
";  c #581231",
":  c #6A0E2A",
">  c #670934",
",  c #562426",
"<  c #542433",
"1  c #493737",
"2  c #7C2928",
"3  c #793A28",
"4  c #5E4929",
"5  c #67532B",
"6  c #6A6C2A",
"7  c #6F7C2C",
"8  c #747C2D",
"9  c #787830",
"0  c #4B3656",
"q  c #5A4A46",
"w  c #565943",
"e  c #525555",
"r  c #7E4644",
"t  c #677543",
"y  c #636F59",
"u  c #687554",
"i  c #4C5B7C",
"p  c #515A78",
"a  c #684D61",
"s  c #7B4166",
"d  c #57657B",
"f  c #59707F",
"g  c #6B7777",
"h  c #971439",
"j  c #B61B3A",
"k  c #942E2C",
"l  c #87392B",
"z  c #8D3F35",
"x  c #923A31",
"c  c #C22039",
"v  c #8E4624",
"b  c #8D482C",
"n  c #974629",
"m  c #974336",
"M  c #9B443B",
"N  c #AA4832",
"B  c #B15238",
"V  c #8B7730",
"C  c #A96738",
"Z  c #C25D3C",
"A  c #991646",
"S  c #BE1B44",
"D  c #962542",
"F  c #9A3742",
"G  c #A72D42",
"H  c #AE2C51",
"J  c #CA1E45",
"K  c #A84C43",
"L  c #AE594D",
"P  c #B15B48",
"I  c #B85D51",
"U  c #BC6243",
"Y  c #BD6E4B",
"T  c #AE7A45",
"R  c #B87643",
"E  c #89476C",
"W  c #9B736C",
"Q  c #BE7664",
"!  c #CC6242",
"~  c #C9694B",
"^  c #D26E47",
"/  c #C4754C",
"(  c #C8734D",
")  c #D5744C",
"_  c #DC7B4F",
"`  c #CA6B5E",
"'  c #CE7657",
"]  c #D27C52",
"[  c #E27E51",
"{  c #7A862F",
"}  c #7B892F",
"|  c #7D8A30",
" . c #78845E",
".. c #6CCF58",
"X. c #848333",
"o. c #858A34",
"O. c #8A8933",
"+. c #93863B",
"@. c #998C3D",
"#. c #859333",
"$. c #899336",
"%. c #8C9B37",
"&. c #8E9038",
"*. c #A48843",
"=. c #B98A4C",
"-. c #828E6C",
";. c #C1834F",
":. c #CE8E56",
">. c #D58355",
",. c #DC8456",
"<. c #D08E56",
"1. c #D7895A",
"2. c #DD8C5B",
"3. c #D59159",
"4. c #DC925C",
"5. c #E58455",
"6. c #E18758",
"7. c #E58B5A",
"8. c #ED8959",
"9. c #F08E5C",
"0. c #F3925E",
"q. c #CF8169",
"w. c #D2836E",
"e. c #DE8574",
"r. c #EB9762",
"t. c #E69B62",
"y. c #EB9B63",
"u. c #F69761",
"i. c #F59963",
"p. c #F89D65",
"a. c #E6937C",
"s. c #F6A268",
"d. c #FCA46A",
"f. c #FEA96C",
"g. c #627E95",
"h. c #5E7BA7",
"j. c #9BA5A4",
"k. c #ACBAB9",
"l. c #CB9686",
"z. c #D8A284",
"x. c #DBB48E",
"c. c #C0AF9E",
"v. c #F3AE90",
"b. c #EEB594",
"n. c #FBB295",
"m. c #FCBA9A",
"M. c #FDC09F",
"N. c #FFC4A1",
"B. c #EEC9B5",
/* pixels */
"%.%.%.%.%.%.%.%.%.%.%.%.%.%.%.%.%.%.%.%.%.%.%.%.%.%.%.%.%.%.%.%.",
"%.%.%.%.%.%.%.%.%.%.%.%.%.%.%.%.%.%.%.%.%.%.%.%.%.%.%.%.%.%.%.%.",
"%.%.%.%.%.%.%.%.%.%.%.%.%.%.%.%.%.%.%.%.%.%.%.%.%.%.%.%.%.%.%.%.",
"%.%.%.%.%.%.%.%.%.%.%.%.%.%.%.%.%.%.%.%.%.%.%.%.%.%.%.%.%.%.%.%.",
"%.%.%.%.%.%.%.%.%.%.%.%.%.%.%.%.%.%.%.%.%.%.%.%.%.%.%.%.%.%.%.%.",
"%.%.%.%.%.%.%.%.%.%.%.%.} } } } %.%.%.%.%.%.%.%.%.%.%.%.%.%.%.%.",
"%.%.%.%.%.%.%.%.%.#.*.>.5.Z 6.s.:.*.#.%.%.%.%.%.%.%.%.%.%.%.%.%.",
"%.%.%.%.%.%.%.%.$.3.8.0.7.6.! 8.f.f.t.&.%.%.%.%.%.%.%.%.%.%.%.%.",
"%.%.%.%.%.%.%.%.:.r.7.r.d.f.s.2.q.6.0.t.$.%.%.%.%.%.%.%.%.%.%.%.",
"%.%.%.%.%.%.%.+.t.p.i.p.s.,.~ P 9.,.7.u.=.%.%.%.%.%.%.%.%.%.%.%.",
"%.%.%.%.%.%.%.;.y.7.i.^ P e.n.m.~ ,.1.r.>.#.%.%.%.%.%.%.%.%.%.%.",
"%.%.%.%.%.%.+.7.] 6.! m a e W v.w.5./ p.1.+.%.%.%.%.%.%.%.%.%.%.",
"%.%.%.%.%.%.<.( / ~ z l.k...c.M.' 8.Y 6.4.T %.%.%.%.%.%.%.%.%.%.",
"%.%.%.%.%.+.2.r.' l ` N.B.x.N.v.) 1.q.) y.( $.%.%.%.%.%.%.%.%.%.",
"%.%.%.%.%.@.] 8.U n I M.M.M.N.M.z.b.m.~ 4.7.O.%.%.%.%.%.%.%.%.%.",
"%.%.%.%.%.#.T [ B 2 x L a.m.M.m.M.n.w._ ] i.o.%.%.%.%.%.%.%.%.%.",
"%.%.%.%.%.%.#.R Z B x x l M ' Q K x m 0.) 1.%.%.%.%.%.%.%.%.%.%.",
"%.%.%.%.%.%.%.#.| C l 2 c + r q 2 k >.1.t.@.%.%.%.%.%.%.%.%.%.%.",
"%.%.%.%.%.%.%.%.%.%.o.N S O % % < J E f t X.#.%.%.%.%.%.%.%.%.%.",
"%.%.%.%.%.%.%.%.%.%.{ S = % % % # 6 w p 0 C k.j.j.j.j.-.%.%.%.%.",
"%.%.%.%.%.%.%.%.%.%.g.i + # % @ 5 4 7 8 , n g g g g g  .%.%.%.%.",
"%.%.%.%.%.%.%.%.%.t h.* 3 v v b < o # & } O.#.%.%.%.%.%.%.%.%.%.",
"%.%.%.%.%.%.%.%.%.1 i + $ # % # $ $ = : { %.%.%.%.%.%.%.%.%.%.%.",
"%.%.%.%.%.%.%.%.V j X $ o o # # .   S M %.%.%.%.%.%.%.%.%.%.%.%.",
"%.%.%.%.%.%.%.%.#.F > - J j . ; h ; D o.%.%.%.%.%.%.%.%.%.%.%.%.",
"%.%.%.%.%.%.%.%.%.{ 9 A H s 5 D G i  .%.%.%.%.%.%.%.%.%.%.%.%.%.",
"%.%.%.%.%.%.%.%.%.%.%.} y d %.#.#.d u %.%.%.%.%.%.%.%.%.%.%.%.%.",
"%.%.%.%.%.%.%.%.%.%.%.%.#.| %.%.%.#.#.%.%.%.%.%.%.%.%.%.%.%.%.%.",
"%.%.%.%.%.%.%.%.%.%.%.%.%.%.%.%.%.%.%.%.%.%.%.%.%.%.%.%.%.%.%.%.",
"%.%.%.%.%.%.%.%.%.%.%.%.%.%.%.%.%.%.%.%.%.%.%.%.%.%.%.%.%.%.%.%.",
"%.%.%.%.%.%.%.%.%.%.%.%.%.%.%.%.%.%.%.%.%.%.%.%.%.%.%.%.%.%.%.%.",
"%.%.%.%.%.%.%.%.%.%.%.%.%.%.%.%.%.%.%.%.%.%.%.%.%.%.%.%.%.%.%.%."
};
