/* XPM */
static char *result[] = {
/* columns rows colors chars-per-pixel */
"32 32 228 2 ",
"   c #071121",
".  c #001B2A",
"X  c #111A2C",
"o  c #001F30",
"O  c #291228",
"+  c #33172F",
"@  c #35192F",
"#  c #002233",
"$  c #002635",
"%  c #002636",
"&  c #002736",
"*  c #092736",
"=  c #0A2A34",
"-  c #172431",
";  c #1A3233",
":  c #333F26",
">  c #530A2F",
",  c #531F2F",
"<  c #6C172A",
"1  c #720A37",
"2  c #730D35",
"3  c #681536",
"4  c #7E103C",
"5  c #4B3E20",
"6  c #632122",
"7  c #783B36",
"8  c #3D4B2D",
"9  c #1C642A",
"0  c #794737",
"q  c #5E6025",
"w  c #776732",
"e  c #78633F",
"r  c #7C7A33",
"t  c #717E3A",
"y  c #6E2841",
"u  c #384454",
"i  c #354F76",
"p  c #57475B",
"a  c #747F56",
"s  c #5A4863",
"d  c #44536E",
"f  c #485476",
"g  c #604163",
"h  c #526164",
"j  c #6F7C67",
"k  c #93172F",
"l  c #831A3B",
"z  c #803229",
"x  c #80322A",
"c  c #84362B",
"v  c #923931",
"b  c #90562F",
"n  c #81473A",
"m  c #88433D",
"M  c #994335",
"N  c #9D473D",
"B  c #9B4C3B",
"V  c #984E3B",
"C  c #82513A",
"Z  c #9B5137",
"A  c #A34A36",
"S  c #A84C39",
"D  c #A94D3F",
"F  c #977F39",
"G  c #9F7B39",
"H  c #9A7D3F",
"J  c #A76339",
"K  c #A07D3C",
"L  c #8F1043",
"P  c #A31444",
"I  c #AD1743",
"U  c #AE1645",
"Y  c #B91C42",
"T  c #BC2145",
"R  c #CE2041",
"E  c #CC2042",
"W  c #DC2346",
"Q  c #9B4D46",
"!  c #AE4344",
"~  c #B55E40",
"^  c #B8584E",
"/  c #91794D",
"(  c #AE6C4B",
")  c #BA6746",
"_  c #BA6747",
"`  c #BE6747",
"'  c #BE6948",
"]  c #BE6A48",
"[  c #BB794A",
"{  c #A46C58",
"}  c #B16657",
"|  c #B3715E",
" . c #8A6B73",
".. c #82707F",
"X. c #AF7B65",
"o. c #C16E49",
"O. c #C56D4A",
"+. c #C7714E",
"@. c #C4744E",
"#. c #CB764F",
"$. c #CF7B4E",
"%. c #D1754E",
"&. c #D3784F",
"*. c #CC7750",
"=. c #C97A52",
"-. c #CC7A51",
";. c #CF7A50",
":. c #CB7D51",
">. c #CD7D53",
",. c #D17850",
"<. c #D37A51",
"1. c #D47B52",
"2. c #D47F54",
"3. c #DD7950",
"4. c #CB7061",
"5. c #CD7F6B",
"6. c #D07565",
"7. c #D27D6B",
"8. c #7A862F",
"9. c #758330",
"0. c #758231",
"q. c #7D8531",
"w. c #7D8730",
"e. c #7E8B31",
"r. c #7E8C30",
"t. c #7F8D32",
"y. c #798638",
"u. c #758247",
"i. c #72B746",
"p. c #818434",
"a. c #828534",
"s. c #888431",
"d. c #858B34",
"f. c #858F34",
"g. c #878C3E",
"h. c #8C8938",
"j. c #96893B",
"k. c #908F39",
"l. c #968B3C",
"z. c #829032",
"x. c #839033",
"c. c #849133",
"v. c #849233",
"b. c #859134",
"n. c #869134",
"m. c #859335",
"M. c #879537",
"N. c #889735",
"B. c #899735",
"V. c #899836",
"C. c #8A9836",
"Z. c #8B9936",
"A. c #8B9A36",
"S. c #8B9A37",
"D. c #8C9A37",
"F. c #8C9B37",
"G. c #A18741",
"H. c #A68744",
"J. c #AA8343",
"K. c #A88644",
"L. c #AA8645",
"P. c #B48048",
"I. c #B48749",
"U. c #B9854A",
"Y. c #B8864B",
"T. c #8A9767",
"R. c #859071",
"E. c #B5966B",
"W. c #C58C52",
"Q. c #D08054",
"!. c #D48155",
"~. c #D48457",
"^. c #D58457",
"/. c #DE8155",
"(. c #D98756",
"). c #DC8758",
"_. c #E08154",
"`. c #E18155",
"'. c #E08658",
"]. c #E48758",
"[. c #E1895A",
"{. c #E38A5A",
"}. c #E58A5A",
"|. c #EB8858",
" X c #E98C5A",
".X c #EC8E5C",
"XX c #E7905E",
"oX c #E4925F",
"OX c #E5935F",
"+X c #E3955E",
"@X c #EF915E",
"#X c #EF945F",
"$X c #D08068",
"%X c #D69178",
"&X c #E89661",
"*X c #EE9460",
"=X c #ED9661",
"-X c #EF9A63",
";X c #F39661",
":X c #F59560",
">X c #F09963",
",X c #F79962",
"<X c #F59B64",
"1X c #F89A63",
"2X c #F89B64",
"3X c #F89C64",
"4X c #F99D65",
"5X c #E18874",
"6X c #F3957F",
"7X c #F5A066",
"8X c #FAA369",
"9X c #FDA66B",
"0X c #486083",
"qX c #596993",
"wX c #5976A3",
"eX c #8D96AC",
"rX c #A5AEBD",
"tX c #EDA78B",
"yX c #F4A58A",
"uX c #F3B38A",
"iX c #F9AF91",
"pX c #E5B49A",
"aX c #F6BD9B",
"sX c #FEBE9D",
"dX c #FBC19E",
"fX c #FEC3A0",
"gX c #FFC4A1",
"hX c #D1C9C6",
/* pixels */
"F.F.F.F.F.F.F.F.F.F.F.F.F.F.F.F.F.F.F.F.F.F.F.F.F.F.F.F.F.F.F.F.",
"F.F.F.F.F.F.F.F.F.F.F.F.F.F.F.F.F.F.F.F.F.F.F.F.F.F.F.F.F.F.F.F.",
"F.F.F.F.F.F.F.F.F.F.F.F.F.F.F.F.F.F.F.F.F.F.F.F.F.F.F.F.F.F.F.F.",
"F.F.F.F.F.F.F.F.F.F.F.F.F.F.F.F.F.F.F.F.F.F.F.F.F.F.F.F.F.F.F.F.",
"F.F.F.F.F.F.F.F.F.F.F.F.F.F.F.F.F.F.F.F.F.F.F.F.F.F.F.F.F.F.F.F.",
"F.F.F.F.F.F.F.F.F.F.F.F.F.F.F.F.F.F.F.F.F.F.F.F.F.F.F.F.F.F.F.F.",
"F.F.F.F.F.F.F.F.F.F.F.e.G.K G H.w.D.F.F.F.F.F.F.F.F.F.F.F.F.F.F.",
"F.F.F.F.F.F.F.F.F.C.I. X:X1X,X3X7XW.k.F.F.F.F.F.F.F.F.F.F.F.F.F.",
"F.F.F.F.F.F.F.F.l.[ `.XXoXoXOX*X,X|.+Xc.F.F.F.F.F.F.F.F.F.F.F.F.",
"F.F.F.F.F.F.F.d.Q.}.&.#X8X9X4X-X/.;X'.J.F.F.F.F.F.F.F.F.F.F.F.F.",
"F.F.F.F.F.F.F.P.1.B %X5.N ) @X2X<X2.>X$.b.F.F.F.F.F.F.F.F.F.F.F.",
"F.F.F.F.F.F.F.w ,.X.iX6.| } M 3.=X).[.-.L.F.F.F.F.F.F.F.F.F.F.F.",
"F.F.F.F.F.F.F.q.o.{ $X9 eX .D #._.^.` ~.(.n.F.F.F.F.F.F.F.F.F.F.",
"F.F.F.F.F.F.F.A.J n uXi.hXpX7.%.] &XS {.O.K.F.F.F.F.F.F.F.F.F.F.",
"F.F.F.F.F.F.F.F.j.( fXaXdXgX6XA =.!.<.1._ U.F.F.F.F.F.F.F.F.F.F.",
"F.F.F.F.F.F.F.F.F.E.gXgXgXsX4.z *.V ].>.;.h.F.F.F.F.F.F.F.F.F.F.",
"F.F.F.F.F.F.F.F.F.g.tXyX5X^ v c ' @..XH F V.F.F.F.F.F.F.F.F.F.F.",
"F.F.F.F.F.F.F.F.F.Z.8./ Q 6 x ~ +.:.Y.N.F.F.F.F.F.F.F.F.F.F.F.F.",
"F.F.F.F.F.F.F.F.F.F.F.z., E < 0 h t.F.F.F.F.F.F.F.F.F.F.F.F.F.F.",
"F.F.F.F.F.F.F.F.F.F.F.r.$ y T - 0X0.9.F.F.F.F.F.F.F.F.F.F.F.F.F.",
"F.F.F.F.F.F.F.F.F.F.N.5 i wXp * : 8 = b s.F.F.F.F.F.F.F.F.F.F.F.",
"F.F.F.F.F.F.F.F.F.F.S.q d u   . o 4 2 k Z F.F.F.F.F.F.F.F.F.F.F.",
"F.F.F.F.F.F.F.F.F.m.a ; & # % + @ 3 Y L r F.F.F.F.F.F.F.F.F.F.F.",
"F.F.F.F.F.F.F.F.T.rX..X > l O 1 R 7 p.x.F.F.F.F.F.F.F.F.F.F.F.F.",
"F.F.F.F.F.F.F.D.R.j ! I P W U C m a.F.F.F.F.F.F.F.F.F.F.F.F.F.F.",
"F.F.F.F.F.F.F.F.F.F.f.e s g f B.F.F.F.F.F.F.F.F.F.F.F.F.F.F.F.F.",
"F.F.F.F.F.F.F.F.F.F.F.F.v.t qXy.F.F.F.F.F.F.F.F.F.F.F.F.F.F.F.F.",
"F.F.F.F.F.F.F.F.F.F.F.F.F.F.u.M.F.F.F.F.F.F.F.F.F.F.F.F.F.F.F.F.",
"F.F.F.F.F.F.F.F.F.F.F.F.F.F.F.F.F.F.F.F.F.F.F.F.F.F.F.F.F.F.F.F.",
"F.F.F.F.F.F.F.F.F.F.F.F.F.F.F.F.F.F.F.F.F.F.F.F.F.F.F.F.F.F.F.F.",
"F.F.F.F.F.F.F.F.F.F.F.F.F.F.F.F.F.F.F.F.F.F.F.F.F.F.F.F.F.F.F.F.",
"F.F.F.F.F.F.F.F.F.F.F.F.F.F.F.F.F.F.F.F.F.F.F.F.F.F.F.F.F.F.F.F."
};
