/* XPM */
static char *result[] = {
/* columns rows colors chars-per-pixel */
"32 32 237 2 ",
"   c #160E27",
".  c #1F0E27",
"X  c #0B1627",
"o  c #0B1528",
"O  c #0E1C2B",
"+  c #0E1C2F",
"@  c #121D2E",
"#  c #310F2A",
"$  c #361829",
"%  c #301C2F",
"&  c #361C31",
"*  c #11222F",
"=  c #122233",
"-  c #162937",
";  c #162A37",
":  c #1F2D30",
">  c #182E3B",
",  c #1A313D",
"<  c #1B323E",
"1  c #233028",
"2  c #4B0D2C",
"3  c #550F34",
"4  c #5D1235",
"5  c #631638",
"6  c #55222D",
"7  c #412C31",
"8  c #4B3334",
"9  c #743A2E",
"0  c #793731",
"q  c #7D3D33",
"w  c #7E3B34",
"e  c #3B482C",
"r  c #444E3F",
"t  c #49493A",
"y  c #4A5634",
"u  c #6B4536",
"i  c #755839",
"p  c #5D6930",
"a  c #69712B",
"s  c #616730",
"d  c #747A30",
"f  c #727E3C",
"g  c #283642",
"h  c #7F1541",
"j  c #761A45",
"k  c #744948",
"l  c #5D6844",
"z  c #596255",
"x  c #6A755B",
"c  c #6F7E5F",
"v  c #535563",
"b  c #61567C",
"n  c #5D6775",
"m  c #5A657D",
"M  c #737068",
"N  c #89163D",
"B  c #871C38",
"V  c #9B3233",
"C  c #A22E3F",
"Z  c #854235",
"A  c #825337",
"S  c #955735",
"D  c #97513F",
"F  c #9B7F3F",
"G  c #961C44",
"H  c #9E1F44",
"J  c #9C1C46",
"K  c #9B1D48",
"L  c #991C4A",
"P  c #962941",
"I  c #893746",
"U  c #A52048",
"Y  c #A13242",
"T  c #874943",
"R  c #9B4C44",
"E  c #9D5842",
"W  c #9C5C4F",
"Q  c #A05741",
"!  c #A25E41",
"~  c #A55D43",
"^  c #A75F43",
"/  c #A2504A",
"(  c #A2524A",
")  c #9D6248",
"_  c #A56247",
"`  c #AB6046",
"'  c #AB6346",
"]  c #A96549",
"[  c #AB6648",
"{  c #AF6448",
"}  c #B26648",
"|  c #A57045",
" . c #A97646",
".. c #A77C46",
"X. c #AA704B",
"o. c #B47248",
"O. c #B9744F",
"+. c #B4784D",
"@. c #B07C4C",
"#. c #B57E4C",
"$. c #BB7B4E",
"%. c #BA6A5E",
"&. c #AB7758",
"*. c #B47150",
"=. c #B77150",
"-. c #B67251",
";. c #BE7351",
":. c #926A63",
">. c #B17363",
",. c #BE7263",
"<. c #C0724F",
"1. c #C27552",
"2. c #C17652",
"3. c #C17752",
"4. c #C27954",
"5. c #C27A54",
"6. c #C67B55",
"7. c #C07C56",
"8. c #C67E57",
"9. c #C97C55",
"0. c #C97F57",
"q. c #CA7F57",
"w. c #CC7D56",
"e. c #76832F",
"r. c #778532",
"t. c #788530",
"y. c #7B8530",
"u. c #7E8731",
"i. c #7C8930",
"p. c #808B32",
"a. c #858A35",
"s. c #858B35",
"d. c #878936",
"f. c #898937",
"g. c #8A8838",
"h. c #91863C",
"j. c #829133",
"k. c #849333",
"l. c #859335",
"z. c #869334",
"x. c #859337",
"c. c #859434",
"v. c #869434",
"b. c #879434",
"n. c #869534",
"m. c #879635",
"M. c #8A9137",
"N. c #8A9237",
"B. c #889635",
"V. c #889735",
"C. c #899736",
"Z. c #899836",
"A. c #8A9936",
"S. c #8B9A36",
"D. c #8B9A37",
"F. c #8C9B37",
"G. c #82903A",
"H. c #82903B",
"J. c #8B9038",
"K. c #9D8541",
"L. c #9D8642",
"P. c #849245",
"I. c #959247",
"U. c #988451",
"Y. c #AA8348",
"T. c #B0804A",
"R. c #BC8551",
"E. c #BA8951",
"W. c #8C976D",
"Q. c #BD8A72",
"!. c #C48656",
"~. c #CD8157",
"^. c #C18B54",
"/. c #C28A55",
"(. c #C68058",
"). c #C78259",
"_. c #CE8158",
"`. c #CE8259",
"'. c #CC855B",
"]. c #CD8F5B",
"[. c #D38058",
"{. c #D1855B",
"}. c #D9875B",
"|. c #D9895D",
" X c #D88B5F",
".X c #DB8B5E",
"XX c #DD8B5D",
"oX c #C7816F",
"OX c #C3856E",
"+X c #D88D60",
"@X c #D98F61",
"#X c #DA8F61",
"$X c #DC8F61",
"%X c #DD9263",
"&X c #DE9263",
"*X c #C48A73",
"=X c #D98C78",
"-X c #C39379",
";X c #E39363",
":X c #E49363",
">X c #E39464",
",X c #E89463",
"<X c #E99665",
"1X c #E89866",
"2X c #E99866",
"3X c #E99966",
"4X c #E89967",
"5X c #EC9966",
"6X c #EC9967",
"7X c #EC9A67",
"8X c #EC9B68",
"9X c #EE9C68",
"0X c #EE9C69",
"qX c #D4B77A",
"wX c #F4A36D",
"eX c #596281",
"rX c #5D6788",
"tX c #646080",
"yX c #606B86",
"uX c #657683",
"iX c #697D93",
"pX c #61729A",
"aX c #799B85",
"sX c #99979B",
"dX c #BAAC98",
"fX c #8D94A0",
"gX c #D8A284",
"hX c #E1AD8D",
"jX c #EAAF91",
"kX c #F4AF92",
"lX c #E0B39B",
"zX c #FABB9B",
"xX c #FCBD9D",
"cX c #FDC09F",
"vX c #FEC2A0",
"bX c #FFC3A1",
"nX c #ACB1C1",
/* pixels */
"F.F.F.F.F.F.F.F.F.F.F.F.F.F.F.F.F.F.F.F.F.F.F.F.F.F.F.F.F.F.F.F.",
"F.F.F.F.F.F.F.F.F.F.F.F.F.F.F.F.F.F.F.F.F.F.F.F.F.F.F.F.F.F.F.F.",
"F.F.F.F.F.F.F.F.F.F.F.F.F.F.F.F.F.F.F.F.F.F.F.F.F.F.F.F.F.F.F.F.",
"F.F.F.F.F.F.F.F.F.F.F.F.F.F.F.F.F.F.F.F.F.F.F.F.F.F.F.F.F.F.F.F.",
"F.F.F.F.F.F.F.F.F.F.F.F.F.F.F.F.F.F.F.F.F.F.F.F.F.F.F.F.F.F.F.F.",
"F.F.F.F.F.F.F.F.F.F.F.F.F.F.F.F.F.F.F.F.F.F.F.F.F.F.F.F.F.F.F.F.",
"F.F.F.F.F.F.F.F.F.F.F.Z.h.E.!.o.$.Y.d.F.F.F.F.F.F.F.F.F.F.F.F.F.",
"F.F.F.F.F.F.F.F.F.F.M.].7X,X6X0XwX<XXXL.C.F.F.F.F.F.F.F.F.F.F.F.",
"F.F.F.F.F.F.F.F.F.A./.}.2X|.#X%X&X%X:Xq.+.J.F.F.F.F.F.F.F.F.F.F.",
"F.F.F.F.F.F.F.F.F.f.9.3Xw.4X5X9X1X6.' } {.@.A.F.F.F.F.F.F.F.F.F.",
"F.F.F.F.F.F.F.F.S.#. X0.>X8X.XE T oXkXQ.{ 7.a.F.F.F.F.F.F.F.F.F.",
"F.F.F.F.F.F.F.F.g.8.$X5.+X[.Q W :.k %.jXq X.B.F.F.F.F.F.F.F.F.F.",
"F.F.F.F.F.F.F.D.R.=.1.] ;X*.~ >.nXaXI.*XZ F F.F.F.F.F.F.F.F.F.F.",
"F.F.F.F.F.F.F.u._.).` (.2.`.R xXlXdXqX-X! s.F.F.F.F.F.F.F.F.F.F.",
"F.F.F.F.F.F.F.p.~.4.'._ -.<./ cXbXbXbXgXK.D.F.F.F.F.F.F.F.F.F.F.",
"F.F.F.F.F.F.F.D.T.O.@XD ) ^ w =XzXvXbXhXk.F.F.F.F.F.F.F.F.F.F.F.",
"F.F.F.F.F.F.F.F.z.p.^.3.;.[ 0 0 ( ,.OXU.F.F.F.F.F.F.F.F.F.F.F.F.",
"F.F.F.F.F.F.F.F.F.F.N... .| 9 7 6 &.m.F.Z.D.F.F.F.F.F.F.F.F.F.F.",
"F.F.F.F.F.F.F.F.F.F.F.F.x.r 8 , 4 S F.V.t a F.F.F.F.F.F.F.F.F.F.",
"F.F.F.F.F.F.F.F.F.c.r.p uXg < < # C c iXpXs F.F.F.F.F.F.F.F.F.F.",
"F.F.F.F.F.F.F.F.b.V : & 1 * ; =   N tXm l c.F.F.F.F.F.F.F.F.F.F.",
"F.F.F.F.F.F.F.F.y.H 2 L % - o X O e e.t.D.F.F.F.F.F.F.F.F.F.F.F.",
"F.F.F.F.F.F.F.F.S.i A h $ 5 + , @ > y C.F.F.F.F.F.F.F.F.F.F.F.F.",
"F.F.F.F.F.F.F.F.F.D.F.d J K 3 B G . I sXW.F.F.F.F.F.F.F.F.F.F.F.",
"F.F.F.F.F.F.F.F.F.F.F.x b v u P U j Y M fXP.F.F.F.F.F.F.F.F.F.F.",
"F.F.F.F.F.F.F.F.F.F.l.rXyXG.F.v.z eXi.F.D.F.F.F.F.F.F.F.F.F.F.F.",
"F.F.F.F.F.F.F.F.F.F.f n H.F.F.F.n.j.F.F.F.F.F.F.F.F.F.F.F.F.F.F.",
"F.F.F.F.F.F.F.F.F.F.F.F.F.F.F.F.F.F.F.F.F.F.F.F.F.F.F.F.F.F.F.F.",
"F.F.F.F.F.F.F.F.F.F.F.F.F.F.F.F.F.F.F.F.F.F.F.F.F.F.F.F.F.F.F.F.",
"F.F.F.F.F.F.F.F.F.F.F.F.F.F.F.F.F.F.F.F.F.F.F.F.F.F.F.F.F.F.F.F.",
"F.F.F.F.F.F.F.F.F.F.F.F.F.F.F.F.F.F.F.F.F.F.F.F.F.F.F.F.F.F.F.F.",
"F.F.F.F.F.F.F.F.F.F.F.F.F.F.F.F.F.F.F.F.F.F.F.F.F.F.F.F.F.F.F.F."
};
