/* XPM */
static char *result[] = {
/* columns rows colors chars-per-pixel */
"32 32 219 2 ",
"   c #3F211E",
".  c #001123",
"X  c #001F2E",
"o  c #001E2F",
"O  c #031F30",
"+  c #191E31",
"@  c #002131",
"#  c #012332",
"$  c #072632",
"%  c #002234",
"&  c #042735",
"*  c #002A39",
"=  c #162331",
"-  c #3A262E",
";  c #25342A",
":  c #26323E",
">  c #4B0D2B",
",  c #541131",
"<  c #65132F",
"1  c #72142C",
"2  c #6A0F35",
"3  c #720F31",
"4  c #432634",
"5  c #452F32",
"6  c #672925",
"7  c #545A27",
"8  c #7A5B35",
"9  c #5E6B2F",
"0  c #6D772A",
"q  c #6C792D",
"w  c #776A32",
"e  c #7D6E34",
"r  c #7A7A31",
"t  c #293948",
"y  c #55605E",
"u  c #51476B",
"i  c #475860",
"p  c #48526A",
"a  c #656E68",
"s  c #810E38",
"d  c #871932",
"f  c #8D1139",
"g  c #A2163A",
"h  c #89372B",
"j  c #89213F",
"k  c #803637",
"l  c #8B3832",
"z  c #953A31",
"x  c #943D3C",
"c  c #A02C30",
"v  c #CD213E",
"b  c #85483D",
"n  c #924034",
"m  c #9A4933",
"M  c #9D4834",
"N  c #9F4836",
"B  c #964E3B",
"V  c #A3433C",
"C  c #A85339",
"Z  c #AE533B",
"A  c #AD5B3D",
"S  c #B2573E",
"D  c #B1583F",
"F  c #886136",
"G  c #8C7A30",
"H  c #8F0E42",
"J  c #941242",
"K  c #A51747",
"L  c #A51948",
"P  c #B61B40",
"I  c #BE1F47",
"U  c #AB2847",
"Y  c #CF1F47",
"T  c #8E5A49",
"R  c #945C4C",
"E  c #AC4D44",
"W  c #B25044",
"Q  c #AC5C51",
"!  c #AC6B4D",
"~  c #BF6646",
"^  c #BD6847",
"/  c #B66849",
"(  c #BE6D4A",
")  c #AD7543",
"_  c #AE7F45",
"`  c #B27041",
"'  c #B17648",
"]  c #BE724D",
"[  c #BE774E",
"{  c #A06754",
"}  c #955567",
"|  c #826362",
" . c #9D7E7D",
".. c #BD7160",
"X. c #C85B53",
"o. c #C46F4B",
"O. c #C56F4B",
"+. c #CD6B48",
"@. c #CA6E49",
"#. c #C37446",
"$. c #C9754E",
"%. c #CF754D",
"&. c #C47D4B",
"*. c #C9784D",
"=. c #D2764E",
"-. c #CB7A52",
";. c #CA7B52",
":. c #D17A51",
">. c #D37A50",
",. c #D77A51",
"<. c #D17D53",
"1. c #D97D52",
"2. c #DD7D52",
"3. c #CF7F6B",
"4. c #2C912D",
"5. c #768434",
"6. c #7B8831",
"7. c #7C8930",
"8. c #75823D",
"9. c #7D8B39",
"0. c #818632",
"q. c #818C32",
"w. c #838D33",
"e. c #878935",
"r. c #808E35",
"t. c #868D35",
"y. c #848E34",
"u. c #858E34",
"i. c #878E3C",
"p. c #9A843D",
"a. c #948B3B",
"s. c #839033",
"d. c #849232",
"f. c #849233",
"g. c #879533",
"h. c #869134",
"j. c #859434",
"k. c #889635",
"l. c #889735",
"z. c #899836",
"x. c #8A9836",
"c. c #8A9936",
"v. c #8A9937",
"b. c #8B9A37",
"n. c #8C9B37",
"m. c #8E9038",
"M. c #9E8951",
"N. c #A28742",
"B. c #A58643",
"V. c #AC8746",
"C. c #A08C41",
"Z. c #B08345",
"A. c #B5884A",
"S. c #879367",
"D. c #BF8662",
"F. c #B4966A",
"G. c #A7AA73",
"H. c #C8804E",
"J. c #CC8D55",
"K. c #D18054",
"L. c #D58054",
"P. c #D68155",
"I. c #D48256",
"U. c #DB8456",
"Y. c #DC8557",
"T. c #D58558",
"R. c #D78558",
"E. c #DD8D58",
"W. c #E08658",
"Q. c #E18758",
"!. c #E28758",
"~. c #E18A5A",
"^. c #E38A5A",
"/. c #E78B5A",
"(. c #E98859",
"). c #EB8B5A",
"_. c #E88F5D",
"`. c #EC8E5C",
"'. c #E4925F",
"]. c #E6925E",
"[. c #E8925D",
"{. c #ED915E",
"}. c #F4935E",
"|. c #C7846C",
" X c #D6826E",
".X c #D39069",
"XX c #C39075",
"oX c #E79460",
"OX c #E69760",
"+X c #E99661",
"@X c #F69761",
"#X c #F29A63",
"$X c #F79963",
"%X c #F29A64",
"&X c #F79C64",
"*X c #F89B63",
"=X c #F89B64",
"-X c #F89D65",
";X c #FA9E66",
":X c #E78A76",
">X c #E7907A",
",X c #F9A067",
"<X c #FAA268",
"1X c #546284",
"2X c #596E81",
"3X c #58678A",
"4X c #4F6D9B",
"5X c #5D769B",
"6X c #959F96",
"7X c #9DA8BD",
"8X c #EA9980",
"9X c #F7A68A",
"0X c #F8B293",
"qX c #F2BA90",
"wX c #D6B7A8",
"eX c #F9C09E",
"rX c #FFC2A0",
"tX c #FFC4A1",
"yX c #BEC4D2",
/* pixels */
"n.n.n.n.n.n.n.n.n.n.n.n.n.n.n.n.n.n.n.n.n.n.n.n.n.n.n.n.n.n.n.n.",
"n.n.n.n.n.n.n.n.n.n.n.n.n.n.n.n.n.n.n.n.n.n.n.n.n.n.n.n.n.n.n.n.",
"n.n.n.n.n.n.n.n.n.n.n.n.n.n.n.n.n.n.n.n.n.n.n.n.n.n.n.n.n.n.n.n.",
"n.n.n.n.n.n.n.n.n.n.n.n.n.n.n.n.n.n.n.n.n.n.n.n.n.n.n.n.n.n.n.n.",
"n.n.n.n.n.n.n.n.n.n.n.n.n.n.n.n.n.n.n.n.n.n.n.n.n.n.n.n.n.n.n.n.",
"n.n.n.n.n.n.n.n.n.n.n.n.n.n.n.n.n.n.n.n.n.n.n.n.n.n.n.n.n.n.n.n.",
"n.n.n.n.n.n.n.n.n.n.n.n.s.N.J.H.#.&.N.s.n.n.n.n.n.n.n.n.n.n.n.n.",
"n.n.n.n.n.n.n.n.n.n.n.C.OX@X$X=X<X,X}.E.e.b.n.n.n.n.n.n.n.n.n.n.",
"n.n.n.n.n.n.n.n.n.n.t.].(.&XQ.'.oXoXoX/.K._ x.n.n.n.n.n.n.n.n.n.",
"n.n.n.n.n.n.n.n.n.n.Z.W.).~.-X*X,X_.%.Z 2.I.p.n.n.n.n.n.n.n.n.n.",
"n.n.n.n.n.n.n.n.n.u.>.%XR.{.;X1.n Q 8X0XR ,.' c.n.n.n.n.n.n.n.n.",
"n.n.n.n.n.n.n.n.n.A.;.Y.L.#X+.N ..| x >XXXO.w n.n.n.n.n.n.n.n.n.",
"n.n.n.n.n.n.n.n.y.U.T.S T.=.P.W  .yX4..X{ A t.n.n.n.n.n.n.n.n.n.",
"n.n.n.n.n.n.n.n.V.~ ^.D +X( @. XeXwXG.qXT ` c.n.n.n.n.n.n.n.n.n.",
"n.n.n.n.n.n.n.n.B.o.:.!.] -.M :XtXtXtXtXD.m.n.n.n.n.n.n.n.n.n.n.",
"n.n.n.n.n.n.n.n.h.*.[ `.B $.h E 9XrXtXtXF.n.n.n.n.n.n.n.n.n.n.n.",
"n.n.n.n.n.n.n.n.n.q.0.[.<.^ m z l X.3.|.i.n.n.n.n.n.n.n.n.n.n.n.",
"n.n.n.n.n.n.n.n.n.n.n.a.) ! / 6 1 k M.n.n.n.n.n.n.n.n.n.n.n.n.n.",
"n.n.n.n.n.n.n.n.n.n.n.n.g.2X5 d v 4 7.n.n.n.n.n.n.n.n.n.n.n.n.n.",
"n.n.n.n.n.n.n.n.n.b.j.9 q i $ U u # 0 n.n.n.n.n.n.n.n.n.n.n.n.n.",
"n.n.n.n.n.n.n.n.n.G c + - ; X t 5X4X  f.n.n.n.n.n.n.n.n.n.n.n.n.",
"n.n.n.n.n.n.n.n.n.F g f J o @ . = : 7 z.n.n.n.n.n.n.n.n.n.n.n.n.",
"n.n.n.n.n.n.n.n.n.w.b V 2 < , % & O * a S.v.n.n.n.n.n.n.n.n.n.n.",
"n.n.n.n.n.n.n.n.n.n.b.k.8 Y H 3 P s > } 7X6Xc.n.n.n.n.n.n.n.n.n.",
"n.n.n.n.n.n.n.n.n.n.n.n.k.e r j I L K C 5.9.n.n.n.n.n.n.n.n.n.n.",
"n.n.n.n.n.n.n.n.n.n.n.n.n.n.c.1Xp y 8.l.n.n.n.n.n.n.n.n.n.n.n.n.",
"n.n.n.n.n.n.n.n.n.n.n.n.n.n.6.3Xr.n.n.n.n.n.n.n.n.n.n.n.n.n.n.n.",
"n.n.n.n.n.n.n.n.n.n.n.n.n.n.n.d.n.n.n.n.n.n.n.n.n.n.n.n.n.n.n.n.",
"n.n.n.n.n.n.n.n.n.n.n.n.n.n.n.n.n.n.n.n.n.n.n.n.n.n.n.n.n.n.n.n.",
"n.n.n.n.n.n.n.n.n.n.n.n.n.n.n.n.n.n.n.n.n.n.n.n.n.n.n.n.n.n.n.n.",
"n.n.n.n.n.n.n.n.n.n.n.n.n.n.n.n.n.n.n.n.n.n.n.n.n.n.n.n.n.n.n.n.",
"n.n.n.n.n.n.n.n.n.n.n.n.n.n.n.n.n.n.n.n.n.n.n.n.n.n.n.n.n.n.n.n."
};
