/* XPM */
static char *result[] = {
/* columns rows colors chars-per-pixel */
"32 32 231 2 ",
"   c #001828",
".  c #00182B",
"X  c #001B2C",
"o  c #001B2E",
"O  c #001D2C",
"+  c #001C2F",
"@  c #001F30",
"#  c #30142D",
"$  c #002031",
"%  c #002535",
"&  c #002736",
"*  c #0F2834",
"=  c #002C39",
"-  c #002D3A",
";  c #002D3B",
":  c #392234",
">  c #52072A",
",  c #411530",
"<  c #690C34",
"1  c #6B0C35",
"2  c #760D34",
"3  c #601535",
"4  c #6F1D32",
"5  c #512626",
"6  c #4B2931",
"7  c #742C26",
"8  c #77222F",
"9  c #712739",
"0  c #3F4E2F",
"q  c #394932",
"w  c #4F5A29",
"e  c #616D3D",
"r  c #7D6D34",
"t  c #7B7133",
"y  c #7D7433",
"u  c #7C7733",
"i  c #423645",
"p  c #525B49",
"a  c #667058",
"s  c #65745D",
"d  c #697659",
"f  c #6E7C58",
"g  c #6F7C5F",
"h  c #4A5868",
"j  c #435A7A",
"k  c #545E72",
"l  c #586563",
"z  c #57647D",
"x  c #58657E",
"c  c #831F31",
"v  c #8E1A3B",
"b  c #9B133D",
"n  c #A11737",
"m  c #A51A32",
"M  c #A9183E",
"N  c #AF183F",
"B  c #89382B",
"V  c #8F3C2E",
"C  c #933930",
"Z  c #9A3E37",
"A  c #8F443D",
"S  c #94413C",
"D  c #A94E39",
"F  c #AC4D3A",
"G  c #A45038",
"H  c #A8583A",
"J  c #856736",
"K  c #876C33",
"L  c #926A32",
"P  c #857E30",
"I  c #A9653F",
"U  c #A8793F",
"Y  c #8A1343",
"T  c #901640",
"R  c #9D1340",
"E  c #A21344",
"W  c #B61B47",
"Q  c #912A4E",
"!  c #893254",
"~  c #D82245",
"^  c #955B4B",
"/  c #AB4E47",
"(  c #B65B40",
")  c #B35C41",
"_  c #BC5F42",
"`  c #B95A46",
"'  c #B65D4E",
"]  c #BD5E52",
"[  c #9D7241",
"{  c #A96144",
"}  c #AC6144",
"|  c #A06D41",
" . c #A1664E",
".. c #BD6141",
"X. c #BE6545",
"o. c #BD6747",
"O. c #A57245",
"+. c #AF7242",
"@. c #B9735D",
"#. c #8A476A",
"$. c #AB6C62",
"%. c #A77560",
"&. c #C64553",
"*. c #C26B49",
"=. c #C36E4B",
"-. c #C66D4A",
";. c #C56F4B",
":. c #C0724D",
">. c #C9704C",
",. c #C8774F",
"<. c #C37D4B",
"1. c #C17F4B",
"2. c #D1764E",
"3. c #CB7B52",
"4. c #CE7951",
"5. c #D17A50",
"6. c #D07A51",
"7. c #D17C53",
"8. c #D27E53",
"9. c #C37665",
"0. c #D07867",
"q. c #DA7E6C",
"w. c #78852C",
"e. c #7B8930",
"r. c #7D8A30",
"t. c #778540",
"y. c #788647",
"u. c #77854C",
"i. c #63B749",
"p. c #868435",
"a. c #8C8937",
"s. c #818F3D",
"d. c #8D8838",
"f. c #8D8938",
"g. c #958039",
"h. c #958139",
"j. c #93873B",
"k. c #96863C",
"l. c #958A3C",
"z. c #849133",
"x. c #839134",
"c. c #859134",
"v. c #869334",
"b. c #859435",
"n. c #869534",
"m. c #879535",
"M. c #879635",
"N. c #889135",
"B. c #899535",
"V. c #889735",
"C. c #899736",
"Z. c #8A9835",
"A. c #899836",
"S. c #8A9936",
"D. c #8B9A36",
"F. c #8B9A37",
"G. c #8C9A37",
"H. c #8C9B37",
"J. c #A38242",
"K. c #A78243",
"L. c #B18647",
"P. c #A5915E",
"I. c #859075",
"U. c #8C9871",
"Y. c #BF916C",
"T. c #BD8970",
"R. c #C7804F",
"E. c #C68750",
"W. c #C08E50",
"Q. c #CA8C55",
"!. c #D68155",
"~. c #DA8054",
"^. c #DE8054",
"/. c #DF8557",
"(. c #DE8759",
"). c #D68E58",
"_. c #D98859",
"`. c #DB895A",
"'. c #DB8C5C",
"]. c #E78757",
"[. c #E08658",
"{. c #E28758",
"}. c #E48A5A",
"|. c #E48B5B",
" X c #E78C5B",
".X c #E28F5D",
"XX c #E58F5D",
"oX c #E78E5C",
"OX c #EA8958",
"+X c #E88B5A",
"@X c #EB8B5A",
"#X c #EA8D5A",
"$X c #EA8D5B",
"%X c #E6935F",
"&X c #EF905D",
"*X c #EE935F",
"=X c #DD826F",
"-X c #E79460",
";X c #EF9661",
":X c #EE9963",
">X c #F39761",
",X c #F29762",
"<X c #F59560",
"1X c #F59661",
"2X c #F19A63",
"3X c #F59862",
"4X c #F79962",
"5X c #F79963",
"6X c #F89B63",
"7X c #E28974",
"8X c #F3A167",
"9X c #FBA56A",
"0X c #FCA76B",
"qX c #FDA86C",
"wX c #E6A976",
"eX c #596891",
"rX c #5F789F",
"tX c #5977A1",
"yX c #A0AAB7",
"uX c #C49D8E",
"iX c #F19780",
"pX c #CDA684",
"aX c #F9AD90",
"sX c #E7B598",
"dX c #F7BE9A",
"fX c #FEBC9B",
"gX c #FEBE9C",
"hX c #FFC3A0",
"jX c #FFC3A1",
"kX c #FFC4A1",
"lX c #D1D4D9",
/* pixels */
"H.H.H.H.H.H.H.H.H.H.H.H.H.H.H.H.H.H.H.H.H.H.H.H.H.H.H.H.H.H.H.H.",
"H.H.H.H.H.H.H.H.H.H.H.H.H.H.H.H.H.H.H.H.H.H.H.H.H.H.H.H.H.H.H.H.",
"H.H.H.H.H.H.H.H.H.H.H.H.H.H.H.H.H.H.H.H.H.H.H.H.H.H.H.H.H.H.H.H.",
"H.H.H.H.H.H.H.H.H.H.H.H.H.H.H.H.H.H.H.H.H.H.H.H.H.H.H.H.H.H.H.H.",
"H.H.H.H.H.H.H.H.H.H.H.H.H.H.H.H.H.H.H.H.H.H.H.H.H.H.H.H.H.H.H.H.",
"H.H.H.H.H.H.H.H.H.H.H.H.H.H.r.e.e.r.H.H.H.H.H.H.H.H.H.H.H.H.H.H.",
"H.H.H.H.H.H.H.H.H.H.H.H.l.<.#XOX@X8XQ.j.A.H.H.H.H.H.H.H.H.H.H.H.",
"H.H.H.H.H.H.H.H.H.H.c.J.].,X%X-X9X4X<X3XW.A.H.H.H.H.H.H.H.H.H.H.",
"H.H.H.H.H.H.H.H.H.N.R.(.|.:XqX0X%X[.+X*X}.a.H.H.H.H.H.H.H.H.H.H.",
"H.H.H.H.H.H.H.H.H.K.!._ ' ` =. X5X6X2X^.XX1.S.H.H.H.H.H.H.H.H.H.",
"H.H.H.H.H.H.H.H.S.| 2.%.fXiX9.A ( 1XoX`.;X5.f.H.H.H.H.H.H.H.H.H.",
"H.H.H.H.H.H.H.H.H.y ;.T.0.6 z $.D X.>X7.6.3.E.S.H.H.H.H.H.H.H.H.",
"H.H.H.H.H.H.H.H.H.v.H ^ wXi.lXuX] /.-.'.F _.~.d.H.H.H.H.H.H.H.H.",
"H.H.H.H.H.H.H.H.H.F.U  .dXpXsXkX7X..:..Xo.{.) L.H.H.H.H.H.H.H.H.",
"H.H.H.H.H.H.H.H.H.H.C.Y.kXkXkXjXq.V ,.{ $X6.4.k.H.H.H.H.H.H.H.H.",
"H.H.H.H.H.H.H.H.H.H.H.P.hXgXaX=XZ B *.} &XO.+.A.H.H.H.H.H.H.H.H.",
"H.H.H.H.H.H.H.H.H.H.H.b.[ @./ 7 C G >.8.).n.F.H.H.H.H.H.H.H.H.H.",
"H.H.H.H.H.H.H.H.H.H.H.r.m.p.8 4 5 I g.h.z.H.H.H.H.H.H.H.H.H.H.H.",
"H.H.H.H.H.H.H.H.H.H.n.i l w.c v = * s Z.V.H.H.H.H.H.H.H.H.H.H.H.",
"H.H.H.H.H.H.H.H.H.H.D.p rXtX#.M ; - j w q P B.H.H.H.H.H.H.H.H.H.",
"H.H.H.H.H.H.H.H.H.H.H.M.e h 9 > X   O 3 , m L H.H.H.H.H.H.H.H.H.",
"H.H.H.H.H.H.H.H.H.H.H.H.A.0 & . o $ @ T N E r H.H.H.H.H.H.H.H.H.",
"H.H.H.H.H.H.H.H.H.H.H.x.a % # : + 1 n < J t C.H.H.H.H.H.H.H.H.H.",
"H.H.H.H.H.H.H.H.H.H.U.yX&.2 R ~ b Y W u G.H.H.H.H.H.H.H.H.H.H.H.",
"H.H.H.H.H.H.H.H.H.S.I.g K Q ! S r x k F.H.H.H.H.H.H.H.H.H.H.H.H.",
"H.H.H.H.H.H.H.H.H.H.H.H.H.f d H.H.u.eXt.H.H.H.H.H.H.H.H.H.H.H.H.",
"H.H.H.H.H.H.H.H.H.H.H.H.H.H.H.H.H.H.y.s.H.H.H.H.H.H.H.H.H.H.H.H.",
"H.H.H.H.H.H.H.H.H.H.H.H.H.H.H.H.H.H.H.H.H.H.H.H.H.H.H.H.H.H.H.H.",
"H.H.H.H.H.H.H.H.H.H.H.H.H.H.H.H.H.H.H.H.H.H.H.H.H.H.H.H.H.H.H.H.",
"H.H.H.H.H.H.H.H.H.H.H.H.H.H.H.H.H.H.H.H.H.H.H.H.H.H.H.H.H.H.H.H.",
"H.H.H.H.H.H.H.H.H.H.H.H.H.H.H.H.H.H.H.H.H.H.H.H.H.H.H.H.H.H.H.H.",
"H.H.H.H.H.H.H.H.H.H.H.H.H.H.H.H.H.H.H.H.H.H.H.H.H.H.H.H.H.H.H.H."
};
