/* XPM */
static char *result[] = {
/* columns rows colors chars-per-pixel */
"32 32 237 2 ",
"   c #001124",
".  c #001025",
"X  c #001727",
"o  c #00172C",
"O  c #06192C",
"+  c #001D2D",
"@  c #220824",
"#  c #3D1426",
"$  c #3C172F",
"%  c #35182D",
"&  c #142829",
"*  c #152B2E",
"=  c #002535",
"-  c #002635",
";  c #0F2A36",
":  c #002A39",
">  c #002D3B",
",  c #002E3C",
"<  c #2C3C2B",
"1  c #2A2433",
"2  c #58082B",
"3  c #461430",
"4  c #7E1B29",
"5  c #640933",
"6  c #651C39",
"7  c #741137",
"8  c #4C252A",
"9  c #43393A",
"0  c #523132",
"q  c #415031",
"w  c #5B682E",
"e  c #5B6930",
"r  c #74683E",
"t  c #687434",
"y  c #787B30",
"u  c #2F3D4B",
"i  c #743B60",
"p  c #7E4949",
"a  c #6B7748",
"s  c #61715E",
"d  c #4F5E6F",
"f  c #55587F",
"g  c #4C626E",
"h  c #5C6970",
"j  c #606D6E",
"k  c #6C7F75",
"l  c #9D1838",
"z  c #A8193A",
"x  c #8B362D",
"c  c #8A362E",
"v  c #82392B",
"b  c #8E3C2F",
"n  c #8F3932",
"m  c #BF223B",
"M  c #B33032",
"N  c #974132",
"B  c #815739",
"V  c #925337",
"C  c #A9513C",
"Z  c #AF573E",
"A  c #B3573E",
"S  c #B25F3E",
"D  c #8A1745",
"F  c #951041",
"G  c #A31E40",
"H  c #B01743",
"J  c #B71845",
"K  c #B51847",
"L  c #B81B43",
"P  c #B3164A",
"I  c #9D3545",
"U  c #AE2540",
"Y  c #B62E40",
"T  c #C01B48",
"R  c #964841",
"E  c #AF4C43",
"W  c #AA5C4E",
"Q  c #B75D41",
"!  c #B85F40",
"~  c #B75049",
"^  c #B7524A",
"/  c #A76245",
"(  c #AB6245",
")  c #B46244",
"_  c #B76546",
"`  c #BD6043",
"'  c #BB6344",
"]  c #B96745",
"[  c #AF7C44",
"{  c #B47544",
"}  c #B37149",
"|  c #BD794B",
" . c #B97D4A",
".. c #BF7F4A",
"X. c #A57757",
"o. c #986B63",
"O. c #BD7463",
"+. c #C26445",
"@. c #C46645",
"#. c #C27346",
"$. c #C0714D",
"%. c #C1734E",
"&. c #C4724D",
"*. c #C5754C",
"=. c #CD744E",
"-. c #C67C4B",
";. c #D1724C",
":. c #D0764F",
">. c #D1764F",
",. c #CD6B5E",
"<. c #CF7750",
"1. c #CF7A51",
"2. c #CF7B52",
"3. c #CA7D53",
"4. c #D47C52",
"5. c #D27F54",
"6. c #D87D52",
"7. c #DB7E53",
"8. c #CF7263",
"9. c #77822E",
"0. c #7D8A2F",
"q. c #778532",
"w. c #798630",
"e. c #798631",
"r. c #788533",
"t. c #7C8530",
"y. c #7C8730",
"u. c #7E8731",
"i. c #7C8930",
"p. c #7C8932",
"a. c #808B31",
"s. c #808B32",
"d. c #828F33",
"f. c #878B34",
"g. c #868A35",
"h. c #808E35",
"j. c #898936",
"k. c #8A8936",
"l. c #8B8937",
"z. c #94873B",
"x. c #849333",
"c. c #869334",
"v. c #859434",
"b. c #879434",
"n. c #879635",
"m. c #8B9137",
"M. c #8A9236",
"N. c #8C9037",
"B. c #889635",
"V. c #889735",
"C. c #889736",
"Z. c #899736",
"A. c #899836",
"S. c #899837",
"D. c #8A9936",
"F. c #8B9936",
"G. c #8B9A36",
"H. c #8B9A37",
"J. c #8C9B37",
"K. c #A2803E",
"L. c #A3863F",
"P. c #879545",
"I. c #9C9242",
"U. c #9B8451",
"Y. c #A08641",
"T. c #B08446",
"R. c #B88148",
"E. c #BE8B4F",
"W. c #818B7B",
"Q. c #C3874F",
"!. c #C78C52",
"~. c #C88B52",
"^. c #CC8853",
"/. c #D18155",
"(. c #D08357",
"). c #D68054",
"_. c #D68055",
"`. c #DA8254",
"'. c #DD8255",
"]. c #DC8356",
"[. c #D68658",
"{. c #DE8658",
"}. c #D39159",
"|. c #E58255",
" X c #E78A5A",
".X c #E38D5C",
"XX c #E28F5D",
"oX c #E88858",
"OX c #E98C5B",
"+X c #EC8D5A",
"@X c #E2915E",
"#X c #E4915E",
"$X c #E6915E",
"%X c #CD856E",
"&X c #D4826F",
"*X c #C18A72",
"=X c #CA8B73",
"-X c #C59379",
";X c #E69360",
":X c #E79460",
">X c #EF9460",
",X c #EF9661",
"<X c #F09560",
"1X c #F69660",
"2X c #F39963",
"3X c #F59963",
"4X c #F69862",
"5X c #F59A63",
"6X c #F29B64",
"7X c #F79C64",
"8X c #F79D65",
"9X c #F89B63",
"0X c #F89B64",
"qX c #F99D65",
"wX c #F99E66",
"eX c #E78D78",
"rX c #D5B777",
"tX c #FCA56A",
"yX c #4F5B80",
"uX c #506284",
"iX c #596F92",
"pX c #5F7CA1",
"aX c #749B85",
"sX c #959F98",
"dX c #B8AC98",
"fX c #A8A7B6",
"gX c #DAA383",
"hX c #E1AE8D",
"jX c #FBAF92",
"kX c #ECB091",
"lX c #E0B49B",
"zX c #FDBC9B",
"xX c #FEBE9D",
"cX c #FEC19F",
"vX c #FFC3A0",
"bX c #FFC4A1",
"nX c #AAB2C3",
/* pixels */
"J.J.J.J.J.J.J.J.J.J.J.J.J.J.J.J.J.J.J.J.J.J.J.J.J.J.J.J.J.J.J.J.",
"J.J.J.J.J.J.J.J.J.J.J.J.J.J.J.J.J.J.J.J.J.J.J.J.J.J.J.J.J.J.J.J.",
"J.J.J.J.J.J.J.J.J.J.J.J.J.J.J.J.J.J.J.J.J.J.J.J.J.J.J.J.J.J.J.J.",
"J.J.J.J.J.J.J.J.J.J.J.J.J.J.J.J.J.J.J.J.J.J.J.J.J.J.J.J.J.J.J.J.",
"J.J.J.J.J.J.J.J.J.J.J.J.J.J.J.J.J.J.J.J.J.J.J.J.J.J.J.J.J.J.J.J.",
"J.J.J.J.J.J.J.J.J.J.J.J.J.J.J.J.J.J.J.J.J.J.J.J.J.J.J.J.J.J.J.J.",
"J.J.J.J.J.J.J.J.J.J.J.A.z.E.^.#.-.T.j.J.J.J.J.J.J.J.J.J.J.J.J.J.",
"J.J.J.J.J.J.J.J.J.J.m.}.7X1X0XwXtX4X+XY.Z.J.J.J.J.J.J.J.J.J.J.J.",
"J.J.J.J.J.J.J.J.J.D.~.oX3X X#X;X:X;X<X).| N.J.J.J.J.J.J.J.J.J.J.",
"J.J.J.J.J.J.J.J.J.k.6.5X7.6X9XqX2X4.' @.{. .D.J.J.J.J.J.J.J.J.J.",
"J.J.J.J.J.J.J.J.G....X_.,X8XOXZ R &XjX*X+.3.g.J.J.J.J.J.J.J.J.J.",
"J.J.J.J.J.J.J.J.l.5.$X2.XX|.A W o.p ,.kXb } B.J.J.J.J.J.J.J.J.J.",
"J.J.J.J.J.J.J.H.Q.&.>._ >X$.Q O.nXaXI.=XN K.J.J.J.J.J.J.J.J.J.J.",
"J.J.J.J.J.J.J.u.'.(.` /.:.].E xXlXdXrX-XS f.J.J.J.J.J.J.J.J.J.J.",
"J.J.J.J.J.J.J.s.`.1.[.) %.;.~ cXbXbXbXgXL.H.J.J.J.J.J.J.J.J.J.J.",
"J.J.J.J.J.J.J.H.R.*.@XC / ! n eXzXvXbXhXx.J.J.J.J.J.J.J.J.J.J.J.",
"J.J.J.J.J.J.J.J.c.a.!.<.=.] x c ^ 8.%XU.J.J.J.J.J.J.J.J.J.J.J.J.",
"J.J.J.J.J.J.J.J.J.J.M.[ { ( v 8 4 X.n.V.J.J.J.J.J.J.J.J.J.J.J.J.",
"J.J.J.J.J.J.J.J.J.J.J.J.k u 0 1 z w 0.9 y.J.J.J.J.J.J.J.J.J.J.J.",
"J.J.J.J.J.J.J.J.J.v.q.e s ; , 6 m g pXuX9.J.J.J.J.J.J.J.J.J.J.J.",
"J.J.J.J.J.J.J.J.b.M * $ < + - 3 G iXd t F.J.J.J.J.J.J.J.J.J.J.J.",
"J.J.J.J.J.J.J.J.t.L 2 P % = .   X & i.J.J.J.J.J.J.J.J.J.J.J.J.J.",
"J.J.J.J.J.J.J.J.G.B V F # 7 o > O : q r.J.J.J.J.J.J.J.J.J.J.J.J.",
"J.J.J.J.J.J.J.J.J.H.J.y J K 5 l H @ I fXsXS.J.J.J.J.J.J.J.J.J.J.",
"J.J.J.J.J.J.J.J.J.J.J.J.r f i U T D Y a W.P.J.J.J.J.J.J.J.J.J.J.",
"J.J.J.J.J.J.J.J.J.J.J.J.C.e.w.p.yXh d.J.J.J.J.J.J.J.J.J.J.J.J.J.",
"J.J.J.J.J.J.J.J.J.J.J.J.J.J.J.h.j B.J.J.J.J.J.J.J.J.J.J.J.J.J.J.",
"J.J.J.J.J.J.J.J.J.J.J.J.J.J.J.J.J.J.J.J.J.J.J.J.J.J.J.J.J.J.J.J.",
"J.J.J.J.J.J.J.J.J.J.J.J.J.J.J.J.J.J.J.J.J.J.J.J.J.J.J.J.J.J.J.J.",
"J.J.J.J.J.J.J.J.J.J.J.J.J.J.J.J.J.J.J.J.J.J.J.J.J.J.J.J.J.J.J.J.",
"J.J.J.J.J.J.J.J.J.J.J.J.J.J.J.J.J.J.J.J.J.J.J.J.J.J.J.J.J.J.J.J.",
"J.J.J.J.J.J.J.J.J.J.J.J.J.J.J.J.J.J.J.J.J.J.J.J.J.J.J.J.J.J.J.J."
};
