/* XPM */
static char *result[] = {
/* columns rows colors chars-per-pixel */
"32 32 254 2 ",
"   c #2F2F3F",
".  c #32333D",
"X  c #30303E",
"o  c #515939",
"O  c #535B39",
"+  c #51593A",
"@  c #535B3A",
"#  c #545B3A",
"$  c #6A7437",
"%  c #677138",
"&  c #6A743C",
"*  c #6A743D",
"=  c #6B753D",
"-  c #292545",
";  c #2A2546",
":  c #2C2A41",
">  c #2C2A42",
",  c #2C2B42",
"<  c #2D274B",
"1  c #2D284B",
"2  c #2D284C",
"3  c #2E284C",
"4  c #322E4B",
"5  c #31294C",
"6  c #32294F",
"7  c #303042",
"8  c #343246",
"9  c #38374A",
"0  c #3A384C",
"q  c #332B55",
"w  c #332C55",
"e  c #342C56",
"r  c #362D57",
"t  c #382E57",
"y  c #372E5B",
"u  c #382E5B",
"i  c #382E5C",
"p  c #382F5C",
"a  c #392F5C",
"s  c #392F5D",
"d  c #3A2F5D",
"f  c #363050",
"g  c #373055",
"h  c #383156",
"j  c #383256",
"k  c #3D3356",
"l  c #3B315E",
"z  c #3B305F",
"x  c #3C315E",
"c  c #3C305F",
"v  c #3C3060",
"b  c #3C3160",
"n  c #3D3262",
"m  c #3E3262",
"M  c #3F3364",
"N  c #403362",
"B  c #403364",
"V  c #403465",
"C  c #413465",
"Z  c #413466",
"A  c #453665",
"S  c #453566",
"D  c #423568",
"F  c #433668",
"G  c #433669",
"H  c #44376A",
"J  c #47396E",
"K  c #49396D",
"L  c #4A396D",
"P  c #493A6F",
"I  c #4A3A6E",
"U  c #4D3B6F",
"Y  c #493A71",
"T  c #493B71",
"R  c #4A3B70",
"E  c #4A3B72",
"W  c #4B3B73",
"Q  c #4C3B71",
"!  c #4D3B71",
"~  c #4B3C73",
"^  c #4E3C71",
"/  c #4C3C73",
"(  c #4E3C72",
")  c #4C3C74",
"_  c #4D3C74",
"`  c #4D3D75",
"'  c #4E3D75",
"]  c #4E3D76",
"[  c #503E76",
"{  c #513F77",
"}  c #535A42",
"|  c #545A43",
" . c #5D5F52",
".. c #697240",
"X. c #6B7440",
"o. c #6D7640",
"O. c #6F7644",
"+. c #72774B",
"@. c #72764D",
"#. c #727848",
"$. c #73784D",
"%. c #616158",
"&. c #62605D",
"*. c #594673",
"=. c #584871",
"-. c #54407A",
";. c #54417B",
":. c #56407A",
">. c #55417C",
",. c #55427C",
"<. c #56427D",
"1. c #57427D",
"2. c #57437E",
"3. c #5A4279",
"4. c #5B437B",
"5. c #5A417C",
"6. c #58437E",
"7. c #5C447C",
"8. c #634B7D",
"9. c #654E7D",
"0. c #73557F",
"q. c #6D6865",
"w. c #776972",
"e. c #776874",
"r. c #788437",
"t. c #798637",
"y. c #7A8736",
"u. c #7A8737",
"i. c #798638",
"p. c #79863A",
"a. c #7B873A",
"s. c #79843C",
"d. c #7C883C",
"f. c #7C883E",
"g. c #889737",
"h. c #899837",
"j. c #8A9837",
"k. c #8B9A37",
"l. c #8C9B37",
"z. c #899738",
"x. c #8A9838",
"c. c #594480",
"v. c #5B4480",
"b. c #5D4784",
"n. c #5E4785",
"m. c #5F4785",
"M. c #5F4886",
"N. c #604685",
"B. c #614686",
"V. c #604885",
"C. c #614887",
"Z. c #644B85",
"A. c #654A86",
"S. c #634988",
"D. c #634989",
"F. c #664B89",
"G. c #654B8A",
"H. c #664C8C",
"J. c #664C8D",
"K. c #674C8D",
"L. c #674D8E",
"P. c #6B4F89",
"I. c #694B8E",
"U. c #694E8F",
"Y. c #78588C",
"T. c #6A4E90",
"R. c #6B4F91",
"E. c #6C5093",
"W. c #6E5094",
"Q. c #6E5195",
"!. c #6F5195",
"~. c #6F5196",
"^. c #725292",
"/. c #725394",
"(. c #705196",
"). c #715196",
"_. c #715297",
"`. c #715397",
"'. c #725297",
"]. c #755497",
"[. c #7E5992",
"{. c #725298",
"}. c #725398",
"|. c #77569B",
" X c #79519A",
".X c #78559D",
"XX c #78559E",
"oX c #79569E",
"OX c #7D579C",
"+X c #7E5BA1",
"@X c #845B96",
"#X c #84589C",
"$X c #815D9D",
"%X c #95709D",
"&X c #8157A2",
"*X c #8257A3",
"=X c #8357A4",
"-X c #815AA3",
";X c #805CA3",
":X c #815CA3",
">X c #8358A4",
",X c #825BA4",
"<X c #8558A5",
"1X c #815CA4",
"2X c #825DA4",
"3X c #825DA5",
"4X c #865FA7",
"5X c #8960A3",
"6X c #8E68A7",
"7X c #8861AA",
"8X c #8A62AB",
"9X c #8F65AF",
"0X c #9062AD",
"qX c #9065AF",
"wX c #9872A0",
"eX c #9F7AA1",
"rX c #9262B0",
"tX c #9066B0",
"yX c #9066B1",
"uX c #9267B2",
"iX c #9367B3",
"pX c #9366B4",
"aX c #9865B2",
"sX c #9A67B7",
"dX c #9368B2",
"fX c #9368B3",
"gX c #9468B3",
"hX c #9569B4",
"jX c #9C67BA",
"kX c #9B68B8",
"lX c #9A6AB8",
"zX c #9B6AB9",
"xX c #9F71B9",
"cX c #A060BA",
"vX c #A069BC",
"bX c #A26DBE",
"nX c #A26DBF",
"mX c #A273BB",
"MX c #A172BC",
"NX c #A470BF",
"BX c #A773BF",
"VX c #A475BC",
"CX c #AA6FC5",
"ZX c #AD71C7",
"AX c #AF73C9",
"SX c #B178C7",
"DX c #B37EC6",
"FX c #B074C9",
"GX c #A984AA",
"HX c #BE85CF",
"JX c #BB88CB",
"KX c #BD83D0",
"LX c #C089CD",
"PX c #D29BDA",
/* pixels */
"l.l.l.l.l.l.l.l.l.l.l.l.l.l.l.l.l.l.l.l.l.l.l.l.l.l.l.l.l.l.l.l.",
"l.l.l.l.l.l.l.l.l.l.l.l.l.l.l.l.l.l.l.l.l.l.l.l.l.l.l.l.l.l.l.l.",
"l.l.l.l.l.l.l.l.l.l.l.l.l.l.l.l.l.l.l.l.l.l.l.l.l.l.l.l.l.l.l.l.",
"l.l.l.l.l.l.l.l.l.l.l.l.l.l.l.l.l.l.l.l.l.l.l.l.l.l.l.l.l.l.l.l.",
"l.l.l.l.l.l.l.l.l.l.k.j.l.l.l.l.l.l.l.l.l.l.l.l.l.l.l.l.l.l.l.l.",
"l.l.l.l.l.l.l.l.l.l.#.eX$.z.l.l.l.l.l.l.l.l.l.l.l.l.l.l.l.l.l.l.",
"l.l.l.l.l.l.l.l.l.g.GXPXLXwX+.z.k.l.l.l.l.l.l.l.l.l.l.l.l.l.l.l.",
"l.l.l.l.l.l.l.l.l.X.6XHXKXFXSX[.e.f.k.l.l.l.l.j.h.j.l.l.l.l.l.l.",
"l.l.l.l.l.l.l.l.g.9.}.ZXAXbXzXiXdX5Xw.k.x.O.@.%X@XY.d.l.l.l.l.l.",
"l.l.l.l.l.l.l.l.= G.M.rXnXgXBXVXJXgX$Xs. .aXDXNXzX:X* l.l.l.l.l.",
"l.l.l.l.l.l.l.k.| ,.~ :.CXlXfXhXVXsXqXk ;.].kXmXyX!...l.l.l.l.l.",
"l.l.l.l.l.l.l.u.g / N.[ -X,X8XpXjXMXtXC.N.{ xXkX3X(.=.j.l.l.l.l.",
"l.l.l.l.l.l.k.} F <.` b.Q.Q.*X8XuXfX2Xn.` 6.9XtX`.&X*.h.l.l.l.l.",
"l.l.l.l.l.l.j.9 5.` ~ K..XQ.(.U.;X1X_.K.1.6.N 7.|.oX8.h.l.l.l.l.",
"l.l.l.l.l.l.l.% m ,.) ).<XXX.XL.J.Q..X!.H s c d ! R.&.k.l.l.l.l.",
"l.l.l.l.l.l.l.u.h >.2.=XcX{.~.E.' M.+X7XR i i L r 8 u.l.l.l.l.l.",
"l.l.l.l.l.l.k.p.f V.] D._.&X_.F.E _ { /.2.M z w 7 t.l.l.l.l.l.l.",
"l.l.l.l.l.k.q.P.-.V Q G A.4X4XI ` N.E E [ OX#X0.r.l.l.l.l.l.l.l.",
"l.l.l.l.l.l.& 5 x l y s u S 3.J ,.,.` N.^.lXvX0Xo.l.l.l.l.l.l.l.",
"l.l.l.l.l.l.j.+ ; 6 3 K s y p Y ~ <.E W 4.1X>XW.* l.l.l.l.l.l.l.",
"l.l.l.l.l.l.l.y..   - e c i s D ) ~ W n s S.'.E.* l.l.l.l.l.l.l.",
"l.l.l.l.l.l.l.l.j.g.+ 1 s s K C I.B.>.p y (  XZ.a.l.l.l.l.l.l.l.",
"l.l.l.l.l.l.l.l.l.l.y.> A a c z H.c.T b v Z t %.k.l.l.l.l.l.l.l.",
"l.l.l.l.l.l.l.l.l.l.k.O : < e y v.m.N.B e 2 @ j.l.l.l.l.l.l.l.l.",
"l.l.l.l.l.l.l.l.l.l.l.k.y.o , q ^ T.P j X # j.l.l.l.l.l.l.l.l.l.",
"l.l.l.l.l.l.l.l.l.l.l.l.l.k.y.+ 4 U 0 i.h.k.l.l.l.l.l.l.l.l.l.l.",
"l.l.l.l.l.l.l.l.l.l.l.l.l.l.l.k.y.$ g.l.l.l.l.l.l.l.l.l.l.l.l.l.",
"l.l.l.l.l.l.l.l.l.l.l.l.l.l.l.l.l.l.l.l.l.l.l.l.l.l.l.l.l.l.l.l.",
"l.l.l.l.l.l.l.l.l.l.l.l.l.l.l.l.l.l.l.l.l.l.l.l.l.l.l.l.l.l.l.l.",
"l.l.l.l.l.l.l.l.l.l.l.l.l.l.l.l.l.l.l.l.l.l.l.l.l.l.l.l.l.l.l.l.",
"l.l.l.l.l.l.l.l.l.l.l.l.l.l.l.l.l.l.l.l.l.l.l.l.l.l.l.l.l.l.l.l.",
"l.l.l.l.l.l.l.l.l.l.l.l.l.l.l.l.l.l.l.l.l.l.l.l.l.l.l.l.l.l.l.l."
};
