/* XPM */
static char *_fdbc2f58ca74753cda44dcd7d9fb047cNW8Vq5XuxNyBLrY[] = {
/* columns rows colors chars-per-pixel */
"100 100 14 1 ",
"  c #1E1D33",
". c #292545",
"X c #372E5B",
"o c #4A376C",
"O c #4A3B72",
"+ c #8C9B37",
"@ c #6E5195",
"# c #75569C",
"$ c #9267B2",
"% c #9663B9",
"& c #B267C9",
"* c #AF72C9",
"= c #CC95D6",
"- c #E6B0E6",
/* pixels */
"++++++++++++++++++++++++++++++++++++++++++++++++++++++++++++++++++++++++++++++++++++++++++++++++++++",
"++++++++++++++++++++++++++++++++++++++++++++++++++++++++++++++++++++++++++++++++++++++++++++++++++++",
"++++++++++++++++++++++++++++++++++++++++++++++++++++++++++++++++++++++++++++++++++++++++++++++++++++",
"++++++++++++++++++++++++++++++++++++++++++++++++++++++++++++++++++++++++++++++++++++++++++++++++++++",
"++++++++++++++++++++++++++++++++++++++++++++++++++++++++++++++++++++++++++++++++++++++++++++++++++++",
"++++++++++++++++++++++++++++++++++++++++++++++++++++++++++++++++++++++++++++++++++++++++++++++++++++",
"++++++++++++++++++++++++++++++++++++++++++++++++++++++++++++++++++++++++++++++++++++++++++++++++++++",
"++++++++++++++++++++++++++++++++++++++++++++++++++++++++++++++++++++++++++++++++++++++++++++++++++++",
"++++++++++++++++++++++++++++++++++++++++++++++++++++++++++++++++++++++++++++++++++++++++++++++++++++",
"++++++++++++++++++++++++++++++++++++++++++++++++++++++++++++++++++++++++++++++++++++++++++++++++++++",
"++++++++++++++++++++++++++++++++++++++++++++++++++++++++++++++++++++++++++++++++++++++++++++++++++++",
"++++++++++++++++++++++++++++++++++++++++++++++++++++++++++++++++++++++++++++++++++++++++++++++++++++",
"++++++++++++++++++++++++++++++++++++++++++++++++++++++++++++++++++++++++++++++++++++++++++++++++++++",
"++++++++++++++++++++++++++++++++++++++++++++++++++++++++++++++++++++++++++++++++++++++++++++++++++++",
"++++++++++++++++++++++++++++++++++++++++++++++++++++++++++++++++++++++++++++++++++++++++++++++++++++",
"++++++++++++++++++++++++++++++++++++++++++++++++++++++++++++++++++++++++++++++++++++++++++++++++++++",
"++++++++++++++++++++++++++++++++++++++++++++++++++++++++++++++++++++++++++++++++++++++++++++++++++++",
"++++++++++++++++++++++++++++++++++++++++++++++++++++++++++++++++++++++++++++++++++++++++++++++++++++",
"++++++++++++++++++++++++++++++++++++++++++++++++++++++++++++++++++++++++++++++++++++++++++++++++++++",
"++++++++++++++++++++++++++++++++++++++++++++++++++++++++++++++++++++++++++++++++++++++++++++++++++++",
"++++++++++++++++++++++++++++++++++++++++++++++++++++++++++++++++++++++++++++++++++++++++++++++++++++",
"++++++++++++++++++++++++++++++++++++++++++++++++++++++++++++++++++++++++++++++++++++++++++++++++++++",
"++++++++++++++++++++++++++++++++++++++++++++++++++++++++++++++++++++++++++++++++++++++++++++++++++++",
"++++++++++++++++++++++++++++++++++++++++++++++++++++++++++++++++++++++++++++++++++++++++++++++++++++",
"++++++++++++++++++++++++++++++++++++++++++++++++++++++++++++++++++++++++++++++++++++++++++++++++++++",
"++++++++++++++++++++++++++++++++++++++++++++++++++++++++++++++++++++++++++++++++++++++++++++++++++++",
"++++++++++++++++++++++++++++++++++++++++++++++++++++++++++++++++++++++++++++++++++++++++++++++++++++",
"++++++++++++++++++++++++++++++++++++++++++++++++++++++++++++++++++++++++++++++++++++++++++++++++++++",
"+++++++++++++++++++++++++++++++++++++++   ++++++++++++++++++++++++++++++++++++++++++++++++++++++++++",
"+++++++++++++++++++++++++++++++++++++++ -=  ++++++++++++++++++++++++++++++++++++++++++++++++++++++++",
"++++++++++++++++++++++++++++++++++++++ --===  ++++++++++++++++++++++++++++++++++++++++++++++++++++++",
"++++++++++++++++++++++++++++++++++++++ -==*===  ++++++++++++++++++++++++++++++++++++++++++++++++++++",
"+++++++++++++++++++++++++++++++++++++ @==******=   +++++++++++++++++++++++++++++++++++++++++++++++++",
"+++++++++++++++++++++++++++++++++++++ @@=*-******$*  +++++++++++++++++++++++++++++++++++++++++++++++",
"++++++++++++++++++++++++++++++++++++ @@@*******$$$$$*  +++++++++      ++++++++++++++++++++++++++++++",
"++++++++++++++++++++++++++++++++++++ %@@****$$$$$$$$$$* ++++    ==***$ +++++++++++++++++++++++++++++",
"+++++++++++++++++++++++++++++++++++ @@@@@**$$$$&$$=$$$$ +++ **==***$$@ +++++++++++++++++++++++++++++",
"+++++++++++++++++++++++++++++++++++ @OOO@**$$$=$$===$$$$ + OO**$$$$$$@ +++++++++++++++++++++++++++++",
"+++++++++++++++++++++++++++++++++++ O#OOOO**$$$$$$=$$&$$  O#O$$$=$$$@@ +++++++++++++++++++++++++++++",
"++++++++++++++++++++++++++++++++++ XOOOOOO***$$$$$$$$$$$ OOOO$$&$$$$@@ +++++++++++++++++++++++++++++",
"++++++++++++++++++++++++++++++++++ XOOOOOO*@@*$$$%&$%$$$@OOOOO$$$&$@@@@ ++++++++++++++++++++++++++++",
"+++++++++++++++++++++++++++++++++ XXOO%OOO@@@@@$$$$%=$$$@O%OOO$=$$$@@@@ ++++++++++++++++++++++++++++",
"+++++++++++++++++++++++++++++++++ XOOOOOO@@@@@@@$$$$$$$@@OOOOO$$$$@@@&@ ++++++++++++++++++++++++++++",
"++++++++++++++++++++++++++++++++ XXOO#OOO@@@@@@&@$$$$$$@@OOOO@$$$$@@@@@ ++++++++++++++++++++++++++++",
"++++++++++++++++++++++++++++++++ XX%OOOOO@@@@@@@@@$$$$@@@O#OO@XXX$@@%@@ ++++++++++++++++++++++++++++",
"++++++++++++++++++++++++++++++++ XXOOOOO@@%@@@@@@O@@@@@@@@OO@XXXXX$@@@% ++++++++++++++++++++++++++++",
"+++++++++++++++++++++++++++++++++ XOOOOO@@@@@@@@@O@@@@@%@@OXXXXXXXX@@@@ ++++++++++++++++++++++++++++",
"+++++++++++++++++++++++++++++++++ XX#OOO@@&@%@@%@@O@@@@@@@OXXXXoXXXX@@ +++++++++++++++++++++++++++++",
"+++++++++++++++++++++++++++++++++ XXOOOO@&&&@@@@@@OO@@@@#$OXXXXXX#XX.. +++++++++++++++++++++++++++++",
"++++++++++++++++++++++++++++++++++ X@OO#@@&@@@@@@@OOOO$$$$OOXXXXXXX.. ++++++++++++++++++++++++++++++",
"++++++++++++++++++++++++++++++++++ X@@OO@@@@@&@@@XOOOOOO$$OOXXoXXX.. +++++++++++++++++++++++++++++++",
"+++++++++++++++++++++++++++++++++  XX@OOX@@@@@@@$OOOOOOOOOO#OXXXX.. ++++++++++++++++++++++++++++++++",
"+++++++++++++++++++++++++++++++  @@OXX@OOX@$$@@$XOOO%OOOOOOOOOX... +++++++++++++++++++++++++++++++++",
"++++++++++++++++++++++++++++++ $$@OOOXXXOXXX$$$$XOOOOOOOOOOO$***= ++++++++++++++++++++++++++++++++++",
"+++++++++++++++++++++++++++++++ ..OOOOXXXXXXXX$XXO#OOOOOOOO$$$$*** +++++++++++++++++++++++++++++++++",
"+++++++++++++++++++++++++++++++ ......XXXXXXXoXXOOOOO#OO%OX$*$&$@@ +++++++++++++++++++++++++++++++++",
"++++++++++++++++++++++++++++++++ ......XX#XXXXXXOOOOOOOOOOX$$$@@@@ +++++++++++++++++++++++++++++++++",
"+++++++++++++++++++++++++++++++++ ..o...XXXXXXXXOOOO#OOOOOXX@@@&@@ +++++++++++++++++++++++++++++++++",
"+++++++++++++++++++++++++++++++++ ......XXXXXXXXXOOOOOOOOXXX@@@@@@ +++++++++++++++++++++++++++++++++",
"++++++++++++++++++++++++++++++++++    ...XXoXXXXXOOOOOOOXXXXX@@@@@ +++++++++++++++++++++++++++++++++",
"++++++++++++++++++++++++++++++++++++++ ..XXXXX#XXO%OOO#OXXXXX@@&@@ +++++++++++++++++++++++++++++++++",
"+++++++++++++++++++++++++++++++++++++++ ..XXXXXXXX@O%OOOXXXXXOO@@ ++++++++++++++++++++++++++++++++++",
"+++++++++++++++++++++++++++++++++++++++ ..X#XXXXXX@OOOOOXoXXXOO.@ ++++++++++++++++++++++++++++++++++",
"++++++++++++++++++++++++++++++++++++++++ ...XXXoXX#@#OOOXXXoOX.. +++++++++++++++++++++++++++++++++++",
"++++++++++++++++++++++++++++++++++++++++ ....XXXXXX@@OOOXXXXX.. ++++++++++++++++++++++++++++++++++++",
"+++++++++++++++++++++++++++++++++++++++++  ....XXXX#@OO%OXX... +++++++++++++++++++++++++++++++++++++",
"+++++++++++++++++++++++++++++++++++++++++++  ...XXX##OOOO.... ++++++++++++++++++++++++++++++++++++++",
"+++++++++++++++++++++++++++++++++++++++++++++  ..XXX##OXX    +++++++++++++++++++++++++++++++++++++++",
"+++++++++++++++++++++++++++++++++++++++++++++++  ..X#OXX +++++++++++++++++++++++++++++++++++++++++++",
"+++++++++++++++++++++++++++++++++++++++++++++++++  ..X  ++++++++++++++++++++++++++++++++++++++++++++",
"+++++++++++++++++++++++++++++++++++++++++++++++++++   ++++++++++++++++++++++++++++++++++++++++++++++",
"++++++++++++++++++++++++++++++++++++++++++++++++++++++++++++++++++++++++++++++++++++++++++++++++++++",
"++++++++++++++++++++++++++++++++++++++++++++++++++++++++++++++++++++++++++++++++++++++++++++++++++++",
"++++++++++++++++++++++++++++++++++++++++++++++++++++++++++++++++++++++++++++++++++++++++++++++++++++",
"++++++++++++++++++++++++++++++++++++++++++++++++++++++++++++++++++++++++++++++++++++++++++++++++++++",
"++++++++++++++++++++++++++++++++++++++++++++++++++++++++++++++++++++++++++++++++++++++++++++++++++++",
"++++++++++++++++++++++++++++++++++++++++++++++++++++++++++++++++++++++++++++++++++++++++++++++++++++",
"++++++++++++++++++++++++++++++++++++++++++++++++++++++++++++++++++++++++++++++++++++++++++++++++++++",
"++++++++++++++++++++++++++++++++++++++++++++++++++++++++++++++++++++++++++++++++++++++++++++++++++++",
"++++++++++++++++++++++++++++++++++++++++++++++++++++++++++++++++++++++++++++++++++++++++++++++++++++",
"++++++++++++++++++++++++++++++++++++++++++++++++++++++++++++++++++++++++++++++++++++++++++++++++++++",
"++++++++++++++++++++++++++++++++++++++++++++++++++++++++++++++++++++++++++++++++++++++++++++++++++++",
"++++++++++++++++++++++++++++++++++++++++++++++++++++++++++++++++++++++++++++++++++++++++++++++++++++",
"++++++++++++++++++++++++++++++++++++++++++++++++++++++++++++++++++++++++++++++++++++++++++++++++++++",
"++++++++++++++++++++++++++++++++++++++++++++++++++++++++++++++++++++++++++++++++++++++++++++++++++++",
"++++++++++++++++++++++++++++++++++++++++++++++++++++++++++++++++++++++++++++++++++++++++++++++++++++",
"++++++++++++++++++++++++++++++++++++++++++++++++++++++++++++++++++++++++++++++++++++++++++++++++++++",
"++++++++++++++++++++++++++++++++++++++++++++++++++++++++++++++++++++++++++++++++++++++++++++++++++++",
"++++++++++++++++++++++++++++++++++++++++++++++++++++++++++++++++++++++++++++++++++++++++++++++++++++",
"++++++++++++++++++++++++++++++++++++++++++++++++++++++++++++++++++++++++++++++++++++++++++++++++++++",
"++++++++++++++++++++++++++++++++++++++++++++++++++++++++++++++++++++++++++++++++++++++++++++++++++++",
"++++++++++++++++++++++++++++++++++++++++++++++++++++++++++++++++++++++++++++++++++++++++++++++++++++",
"++++++++++++++++++++++++++++++++++++++++++++++++++++++++++++++++++++++++++++++++++++++++++++++++++++",
"++++++++++++++++++++++++++++++++++++++++++++++++++++++++++++++++++++++++++++++++++++++++++++++++++++",
"++++++++++++++++++++++++++++++++++++++++++++++++++++++++++++++++++++++++++++++++++++++++++++++++++++",
"++++++++++++++++++++++++++++++++++++++++++++++++++++++++++++++++++++++++++++++++++++++++++++++++++++",
"++++++++++++++++++++++++++++++++++++++++++++++++++++++++++++++++++++++++++++++++++++++++++++++++++++",
"++++++++++++++++++++++++++++++++++++++++++++++++++++++++++++++++++++++++++++++++++++++++++++++++++++",
"++++++++++++++++++++++++++++++++++++++++++++++++++++++++++++++++++++++++++++++++++++++++++++++++++++",
"++++++++++++++++++++++++++++++++++++++++++++++++++++++++++++++++++++++++++++++++++++++++++++++++++++"
};
