/* XPM */
static char *result[] = {
/* columns rows colors chars-per-pixel */
"32 32 184 2 ",
"   c #393730",
".  c #512D2A",
"X  c #49372B",
"o  c #56332D",
"O  c #5B352C",
"+  c #593D29",
"@  c #5C3630",
"#  c #5E3931",
"$  c #613B31",
"%  c #335739",
"&  c #3C6436",
"*  c #36643B",
"=  c #3A6B39",
"-  c #3B7B3A",
";  c #43452C",
":  c #5A4C29",
">  c #4A562F",
",  c #59562A",
"<  c #4F4932",
"1  c #465433",
"2  c #475833",
"3  c #535734",
"4  c #5E5437",
"5  c #62522C",
"6  c #695C2B",
"7  c #685B2E",
"8  c #674532",
"9  c #6C4335",
"0  c #674A30",
"q  c #764A36",
"w  c #724338",
"e  c #794838",
"r  c #665537",
"t  c #6C5433",
"y  c #6B5C34",
"u  c #735434",
"i  c #705B32",
"p  c #765E38",
"a  c #53622D",
"s  c #5B622D",
"d  c #5B6B2C",
"f  c #4E6838",
"g  c #526231",
"h  c #5A6730",
"j  c #556A33",
"k  c #5C6D34",
"l  c #53673A",
"z  c #5C6039",
"x  c #546C39",
"c  c #49753D",
"v  c #447C39",
"b  c #567335",
"n  c #5C7236",
"m  c #547A37",
"M  c #597C36",
"N  c #58773C",
"B  c #66652C",
"V  c #69642E",
"C  c #6D6B2D",
"Z  c #736E2E",
"A  c #6D722D",
"S  c #74742D",
"D  c #757B2E",
"F  c #656334",
"G  c #6E6E34",
"H  c #6F673F",
"J  c #736431",
"K  c #7D6439",
"L  c #7E6F3B",
"P  c #627535",
"I  c #647A35",
"U  c #6D7C32",
"Y  c #6D7D3A",
"T  c #757332",
"R  c #7B7333",
"E  c #757A31",
"W  c #7C7A33",
"Q  c #7C753E",
"!  c #7C7C3D",
"~  c #547841",
"^  c #5C7B42",
"/  c #6F6846",
"(  c #796D44",
")  c #697A43",
"_  c #727541",
"`  c #757A44",
"'  c #435C75",
"]  c #617C6C",
"[  c #815339",
"{  c #82653D",
"}  c #88643D",
"|  c #826D3C",
" . c #807235",
".. c #83753B",
"X. c #857C3A",
"o. c #897C3F",
"O. c #826240",
"+. c #8A6C43",
"@. c #857143",
"#. c #8C7244",
"$. c #917547",
"%. c #957C47",
"&. c #947E49",
"*. c #997C4B",
"=. c #46883D",
"-. c #57843B",
";. c #77822F",
":. c #648336",
">. c #6D8235",
",. c #6F8937",
"<. c #638438",
"1. c #638A39",
"2. c #748433",
"3. c #7B8631",
"4. c #758936",
"5. c #7D8C34",
"6. c #72873C",
"7. c #7B8639",
"8. c #7F9036",
"9. c #7E963F",
"0. c #388B42",
"q. c #558346",
"w. c #5D8345",
"e. c #56864A",
"r. c #598648",
"t. c #578A4C",
"y. c #5C8B4A",
"u. c #5D904D",
"i. c #668643",
"p. c #6A8A43",
"a. c #6D8349",
"s. c #618D49",
"d. c #7B8549",
"f. c #6C9146",
"g. c #63904A",
"h. c #749343",
"j. c #7A9541",
"k. c #628578",
"l. c #828D34",
"z. c #86853B",
"x. c #89843C",
"c. c #878C39",
"v. c #898E39",
"b. c #859435",
"n. c #889636",
"m. c #8C9B37",
"M. c #81973D",
"N. c #8B9239",
"B. c #85993B",
"V. c #899A39",
"C. c #8D8142",
"Z. c #8E8C45",
"A. c #938544",
"S. c #948C44",
"D. c #94844B",
"F. c #978B49",
"G. c #9D8C4C",
"H. c #959144",
"J. c #999547",
"K. c #9C934D",
"L. c #9C8650",
"P. c #998953",
"I. c #A2864F",
"U. c #A08B4E",
"Y. c #A3904F",
"T. c #A58C52",
"R. c #AB9457",
"E. c #A79957",
"W. c #AF9658",
"Q. c #B3995A",
"!. c #BA9E5E",
"~. c #9C8B66",
"^. c #B5A060",
"/. c #BBA163",
"(. c #C5AA65",
"). c #3E6682",
"_. c #3E7995",
"`. c #456F84",
"'. c #3E839E",
"]. c #518B96",
"[. c #4388A8",
"{. c #4690AF",
"}. c #4CA6BF",
"|. c #53BCC7",
/* pixels */
"m.m.m.m.m.m.m.m.m.m.m.m.m.m.m.m.m.m.m.m.m.m.m.m.m.m.m.m.m.m.m.m.",
"m.m.m.m.m.m.m.m.m.m.m.m.m.m.m.m.m.m.m.m.m.m.m.m.m.m.m.m.m.m.m.m.",
"m.m.m.m.m.m.m.m.m.m.m.m.m.m.m.-.b.m.m.m.m.m.m.m.m.m.m.m.m.m.m.m.",
"m.m.m.m.m.m.m.m.m.m.m.m.m.m.m.2.b.>.m.m.m.m.m.m.m.m.m.m.m.m.m.m.",
"m.m.m.m.m.m.m.m.m.b.b.m.m.-.n.v.b.I m.b.b.1.l.m.m.m.m.m.m.m.m.m.",
"m.m.m.m.m.m.m.m.b.>.=.b.m.:.,.S.Z b.m.b ,.-.n.m.m.m.2.m.m.m.m.m.",
"m.m.m.m.m.5.n.8.b.M 3.3.m.m.z.x.S.- ;.;.5.V.m.>.m.5.- m.m.m.m.m.",
"m.m.m.m.m.8.j - m.D =.l.x.J i O + g | J.=.3.8.1.- j & 2.m.m.m.m.",
"m.m.m.m.m.<.5.U T 2 m E a M 3.U I a A C.c - 4.F.B D m.m.m.m.m.m.",
"m.m.V.4.b.<.-.W U F ..C n.I v T ` d 5.b.D L.Q.c.D :.,.4.M m.m.m.",
"m.m.m.M = n.3.c.F h i H.b.D ..y Z S j 0.U o.I.b.x.l.U = 4.m.m.m.",
"m.m.m.m.I A S R &.8 T D.z.Z.E X.G.R V , D U.I.o.v.v.D m.m.m.m.m.",
"m.m.m.b.>.8.V Z T #.n.U.G 4.6.~ K.n.m.T R D.W.T.c.L A * 4.m.m.m.",
"m.m.m.m.n.b E ! & F x.o.l.U V.z / 2.>.I J Z Q.o.X.C 5.b.3.m.m.m.",
"m.m.m.m.b 8.l.Y.B a o.%.D.Y.K.` |.A.Z.7.5.8 U.#.c., V.m.m.m.m.m.",
"m.m.m.m.P j U T.> k A.D C.T.X.].}.k.Z.W.J.: #.%.D D >.5.m.V.m.m.",
"m.m.m.m.m.5., | L.$.H.N.&.i 9 '.{.`.W c.R.` K O.; P k b.m.m.m.m.",
"m.m.m.m.m.3.3.: +.I.m.X.q 5 : _.[.`.S 0 L Q.%.$ X D m.m.m.m.m.m.",
"m.m.m.m.4.% n.R $ 6 l.e A U ; ).[.] N. .# u } O 5 b.b n = V.m.m.",
"m.m.m.m.l.n.m.W u 6 t A E x 7.~.' ( R P : @ 8 t O 3.s 4.b.m.m.m.",
"m.m.m.m.m.m.m.W +.# O t 1 n Y.^.i R m.a f : 8 o . B n I m.m.m.m.",
"m.m.m.m.m.m.m...*.. $ 4.D H Q.n.b.t  .: b.7 *.#.o 3.m.V.m.m.m.m.",
"m.m.m.m.m.m.j.F ( X 9 G Y #.! h.f.p.[ 3 ^ Q (.F w <.6.V.m.m.m.m.",
"m.m.m.m.m.j.t.&.P.0 $ P f.{ p.f.M.h.K y P C./.4 u l e.9.m.m.m.m.",
"m.m.m.m.m.Z.e.a._ 1 0 @.E.K j.h.f.u.p n i.1 !.l t.s.s.Z.V.m.m.m.",
"m.m.m.m.m.m.j.,.~   9 p.S.L.h.t.g.f.r 3 k 7.!.:.f.h.M.m.V.m.m.m.",
"m.m.m.m.m.m.B.u.r.O e ^ ^ T.y.h.Z.j.4 z e.d.(.! t.j.m.m.m.m.m.m.",
"m.m.m.m.m.m.B.u.q.N l y.) (.a.s.j.t.4 < e.) E.w.t.h.m.m.m.m.m.m.",
"m.m.m.m.m.m.m.9.f.g.y.g.u.p.u.f.h.u.e.u.g.g.p.y.j.m.m.m.m.m.m.m.",
"m.m.m.m.m.m.m.m.V.V.B.B.h.f.f.B.V.9.h.9.B.V.V.V.m.m.m.m.m.m.m.m.",
"m.m.m.m.m.m.m.m.m.m.m.m.m.m.m.m.m.m.V.m.m.m.m.m.m.m.m.m.m.m.m.m.",
"m.m.m.m.m.m.m.m.m.m.m.m.m.m.m.m.m.m.m.m.m.m.m.m.m.m.m.m.m.m.m.m."
};
