/* XPM */
static char *result[] = {
/* columns rows colors chars-per-pixel */
"32 32 185 2 ",
"   c #3D1B19",
".  c #46331E",
"X  c #432220",
"o  c #482623",
"O  c #492624",
"+  c #4C2924",
"@  c #4C2A25",
"#  c #532D26",
"$  c #512B2A",
"%  c #552F28",
"&  c #56302A",
"*  c #56312C",
"=  c #5D3429",
"-  c #5B342E",
";  c #5C342C",
":  c #562F30",
">  c #5A3333",
",  c #5C3533",
"<  c #5C3434",
"1  c #5D3534",
"2  c #5F3635",
"3  c #5F3735",
"4  c #5F3832",
"5  c #60362B",
"6  c #64392F",
"7  c #603735",
"8  c #603832",
"9  c #623934",
"0  c #623936",
"q  c #623A36",
"w  c #643B36",
"e  c #643B37",
"r  c #653B37",
"t  c #663D36",
"y  c #673C37",
"u  c #673E37",
"i  c #6B3D35",
"p  c #683D37",
"a  c #6B3D36",
"s  c #6C3E36",
"d  c #6D3F37",
"f  c #673E38",
"g  c #693F39",
"h  c #554D23",
"j  c #584E27",
"k  c #594E27",
"l  c #594F27",
"z  c #5F402F",
"x  c #5A5723",
"c  c #595524",
"v  c #5A5624",
"b  c #5C5028",
"n  c #69562A",
"m  c #615829",
"M  c #615929",
"N  c #614230",
"B  c #6D4034",
"V  c #6E4135",
"C  c #6E4037",
"Z  c #6A4039",
"A  c #6B413A",
"S  c #68473C",
"D  c #724131",
"F  c #704236",
"G  c #7E4A36",
"H  c #714338",
"J  c #734439",
"K  c #70443A",
"L  c #744539",
"P  c #754539",
"I  c #74453A",
"U  c #76463A",
"Y  c #76473A",
"T  c #76473B",
"R  c #77473B",
"E  c #7A493B",
"W  c #7D4E3C",
"Q  c #7E5236",
"!  c #7A513C",
"~  c #6A6E2A",
"^  c #71602E",
"/  c #6F702D",
"(  c #73772E",
")  c #72782E",
"_  c #73782E",
"`  c #76792E",
"'  c #797B35",
"]  c #7B5142",
"[  c #775947",
"{  c #795B49",
"}  c #7F5E4E",
"|  c #7B6A44",
" . c #864E37",
".. c #874E37",
"X. c #804B38",
"o. c #834D38",
"O. c #814C3A",
"+. c #824C3A",
"@. c #834D3B",
"#. c #844E3B",
"$. c #854F3C",
"%. c #86503C",
"&. c #885038",
"*. c #895039",
"=. c #8A513B",
"-. c #89513D",
";. c #8C533C",
":. c #8D533D",
">. c #8B553D",
",. c #8E543D",
"<. c #8D5A3A",
"1. c #91553D",
"2. c #95583E",
"3. c #935E3F",
"4. c #906D3D",
"5. c #976141",
"6. c #9F6B43",
"7. c #986D45",
"8. c #986F46",
"9. c #9E6F44",
"0. c #886251",
"q. c #8A6B55",
"w. c #8E6856",
"e. c #956F5A",
"r. c #A47245",
"t. c #A07644",
"y. c #987361",
"u. c #9B7663",
"i. c #9C7A63",
"p. c #9F7B66",
"a. c #A17C65",
"s. c #A07C67",
"d. c #A27D67",
"f. c #A27F67",
"g. c #A27D68",
"h. c #A27E68",
"j. c #A37E68",
"k. c #A47E69",
"l. c #A47F69",
"z. c #7D8731",
"x. c #7D8831",
"c. c #7E8831",
"v. c #7E8931",
"b. c #818D33",
"n. c #828D33",
"m. c #828E33",
"M. c #838E34",
"N. c #889636",
"B. c #899736",
"V. c #8C9B37",
"C. c #A5806A",
"Z. c #A5816A",
"A. c #A6816A",
"S. c #A7826B",
"D. c #A8866B",
"F. c #A8836C",
"G. c #A9856C",
"H. c #AA866D",
"J. c #AB886E",
"K. c #AC886E",
"L. c #AE8C6F",
"P. c #AE8D6F",
"I. c #AF8B70",
"U. c #B08D71",
"Y. c #B18F71",
"T. c #B28F71",
"R. c #B28E72",
"E. c #B28F73",
"W. c #B49074",
"Q. c #B49174",
"!. c #B69275",
"~. c #B69375",
"^. c #B89576",
"/. c #B89577",
"(. c #B99577",
"). c #B99677",
"_. c #BB9879",
"`. c #BC9979",
"'. c #BC997A",
"]. c #BE9B7A",
"[. c #BE9B7B",
"{. c #C19E7D",
"}. c #C29F7D",
"|. c #C3A07E",
" X c #C4A17E",
/* pixels */
"V.V.V.V.V.V.V.V.V.V.V.V.V.V.V.V.V.V.V.V.V.V.V.V.V.V.V.V.V.V.V.V.",
"V.V.V.V.V.V.V.V.V.V.V.V.V.V.V.V.V.V.V.V.V.V.V.V.V.V.V.V.V.V.V.V.",
"V.V.V.V.V.V.V.V.V.V.V.V.V.V.V.V.V.V.V.V.V.V.V.V.V.V.V.V.V.V.V.V.",
"V.V.V.V.V.V.V.V.V.V.V.V.V.V.V.V.V.V.V.V.V.V.V.V.V.V.V.V.V.V.V.V.",
"V.V.V.V.V.V.V.V.V.V.V.V.V.V.V.V.V.V.V.V.V.V.V.V.V.V.V.V.V.V.V.V.",
"V.V.V.V.V.V.V.V.V.V.V.V.V.V.V.V.V.V.V.V.V.V.V.V.V.V.V.V.V.V.V.V.",
"V.V.V.V.V.V.V.V.V.V.V.V.V.V.V.V.V.V.V.V.V.V.V.V.V.V.V.V.V.V.V.V.",
"V.V.V.V.V.V.V.V.V.V.V.V.V.V.M M M M / V.V.V.V.V.V.V.V.V.V.V.V.V.",
"V.V.V.V.V.V.V.V.V.V.V.m.' [ F./.`.'.L.{ z.B.V.V.V.V.V.V.V.V.V.V.",
"V.V.V.V.V.V.V.V.V.V.m.q.D.s./.^.W.y.u.`.P.| V.V.V.V.V.V.V.V.V.V.",
"V.V.V.V.V.V.V.V.V.M.} S.Z.!.C.I.|.]. XJ.G.{.| B.V.V.V.V.V.V.V.V.",
"V.V.V.V.V.V.V.V.V.m k.W._.E._.|.|.].Z.[.).{.P.z.V.V.V.V.V.V.V.V.",
"V.V.V.V.V.V.V.b._ + j.U.[.Z.(.A.K. XU.G.}.j.P.  V.V.V.V.V.V.V.V.",
"V.V.V.V.V.V.b.z t & S.W.Q. X[.K.h.g.G.}.G.W.i.$ c b.V.V.V.V.V.V.",
"V.V.V.V.V.V.x.j * r S l.~.d.).}.|.|.!.d.H.f.D C B n V.V.V.V.V.V.",
"V.V.V.V.V.~ B =.%.e i ] w.~.U.p.Z.[._.R.0.8.6 g ..n V.V.V.V.V.V.",
"V.V.V.V.V.V.x N 4 > < O.7.T a.T.T.Y.e.W J a , *.. n.V.V.V.V.V.V.",
"V.V.V.V.V.V.V.b.c.l #.g 7 I 3.3.P 9.>.W 3 g q :.4.b.V.V.V.V.V.V.",
"V.V.V.V.V.V.V.V.x.<.r.s E p U Y R I $.0 0 :.! w o.` V.V.V.V.V.V.",
"V.V.V.V.V.V.V.V.^ 6.L #.1.K @.2 Z 1 A $.$.d t.: p # V.V.V.V.V.V.",
"V.V.V.V.V.V.( O ,.I B  .9 -.+.H f f ;.u 5.Q &.= k 8 c V.V.V.V.V.",
"V.V.V.V.V.V.( O @ o x.x.% ; 5 r.X.X.V X y E h v.B.x.b.V.V.V.V.V.",
"V.V.V.V.V.V.V.V.V.V.V.V.b.b.z.G 2.F ~ V.v v - x.V.V.V.V.V.V.V.V.",
"V.V.V.V.V.V.V.V.V.V.V.V.V.V.B.b F ) V.V.V.V.x.N.V.V.V.V.V.V.V.V.",
"V.V.V.V.V.V.V.V.V.V.V.V.V.V.V.V.~ V.V.V.V.V.V.V.V.V.V.V.V.V.V.V.",
"V.V.V.V.V.V.V.V.V.V.V.V.V.V.V.V.V.V.V.V.V.V.V.V.V.V.V.V.V.V.V.V.",
"V.V.V.V.V.V.V.V.V.V.V.V.V.V.V.V.V.V.V.V.V.V.V.V.V.V.V.V.V.V.V.V.",
"V.V.V.V.V.V.V.V.V.V.V.V.V.V.V.V.V.V.V.V.V.V.V.V.V.V.V.V.V.V.V.V.",
"V.V.V.V.V.V.V.V.V.V.V.V.V.V.V.V.V.V.V.V.V.V.V.V.V.V.V.V.V.V.V.V.",
"V.V.V.V.V.V.V.V.V.V.V.V.V.V.V.V.V.V.V.V.V.V.V.V.V.V.V.V.V.V.V.V.",
"V.V.V.V.V.V.V.V.V.V.V.V.V.V.V.V.V.V.V.V.V.V.V.V.V.V.V.V.V.V.V.V.",
"V.V.V.V.V.V.V.V.V.V.V.V.V.V.V.V.V.V.V.V.V.V.V.V.V.V.V.V.V.V.V.V."
};
