/* XPM */
static char *result[] = {
/* columns rows colors chars-per-pixel */
"32 32 188 2 ",
"   c #383F2B",
".  c #453329",
"X  c #593230",
"o  c #5E3931",
"O  c #3C5D31",
"+  c #2F653B",
"@  c #336534",
"#  c #366836",
"$  c #376B38",
"%  c #396E38",
"&  c #3E7036",
"*  c #3D7236",
"=  c #3A7038",
"-  c #3D7239",
";  c #3D7339",
":  c #3C7539",
">  c #3F7439",
",  c #3C7638",
"<  c #3D7638",
"1  c #3D7738",
"2  c #3E7739",
"3  c #3E7838",
"4  c #5C492C",
"5  c #4E5C2E",
"6  c #7F4B39",
"7  c #456A33",
"8  c #486F34",
"9  c #586E31",
"0  c #477636",
"q  c #4A7134",
"w  c #4A7035",
"e  c #4C7335",
"r  c #4E7335",
"t  c #4D7437",
"y  c #437837",
"u  c #4A7836",
"i  c #4D7C37",
"p  c #427739",
"a  c #427B39",
"s  c #447C39",
"d  c #457D39",
"f  c #497B39",
"g  c #497D39",
"h  c #497C3A",
"j  c #487F3A",
"k  c #497F3A",
"l  c #587133",
"z  c #5C7632",
"x  c #587334",
"c  c #537A35",
"v  c #547A35",
"b  c #5A7934",
"n  c #607932",
"m  c #637834",
"M  c #647F34",
"N  c #687931",
"B  c #687A32",
"V  c #6A7F32",
"C  c #697D34",
"Z  c #697F34",
"A  c #7E7532",
"S  c #824D3B",
"D  c #87503C",
"F  c #855C39",
"G  c #8B5F3B",
"H  c #826937",
"J  c #87643A",
"K  c #827735",
"L  c #827A34",
"P  c #996541",
"I  c #9A6A43",
"U  c #4A803A",
"Y  c #4B813A",
"T  c #4D8039",
"R  c #4C813A",
"E  c #4D813A",
"W  c #4C823A",
"Q  c #4E823A",
"!  c #4F833A",
"~  c #528039",
"^  c #50833A",
"/  c #52833A",
"(  c #50843A",
")  c #50853B",
"_  c #52843A",
"`  c #53853A",
"'  c #52843B",
"]  c #52873B",
"[  c #55873B",
"{  c #56883B",
"}  c #56893B",
"|  c #57893B",
" . c #578A3B",
".. c #578A3C",
"X. c #588A3B",
"o. c #598A3B",
"O. c #598B3B",
"+. c #5A8A3B",
"@. c #5F8D3B",
"#. c #598B3C",
"$. c #5C8D3C",
"%. c #5D8E3C",
"&. c #6C8233",
"*. c #698134",
"=. c #6E8034",
"-. c #618E3B",
";. c #618F3B",
":. c #628F3B",
">. c #728434",
",. c #748734",
"<. c #7B8431",
"1. c #778835",
"2. c #7A8933",
"3. c #788A34",
"4. c #798A34",
"5. c #798B35",
"6. c #798C35",
"7. c #7B8C35",
"8. c #7C8D35",
"9. c #7C8E35",
"0. c #7F8F34",
"q. c #63913C",
"w. c #65923C",
"e. c #66923C",
"r. c #67943C",
"t. c #66943D",
"y. c #68933B",
"u. c #6A963B",
"i. c #6A963C",
"p. c #6A973D",
"a. c #6C973D",
"s. c #6E973C",
"d. c #6B983D",
"f. c #6C983D",
"g. c #6C993D",
"h. c #6D993D",
"j. c #719B3D",
"k. c #719C3D",
"l. c #729C3D",
"z. c #739D3D",
"x. c #759D3D",
"c. c #749E3D",
"v. c #759E3D",
"b. c #769F3D",
"n. c #779F3D",
"m. c #77A13C",
"M. c #77A03D",
"N. c #78A13C",
"B. c #78A03D",
"V. c #79A13D",
"C. c #7AA13D",
"Z. c #78A23C",
"A. c #79A23D",
"S. c #7BA23D",
"D. c #7AA33D",
"F. c #7AA23E",
"G. c #7CA33D",
"H. c #7EA53D",
"J. c #7FA53D",
"K. c #7EA63C",
"L. c #7FA63C",
"P. c #818233",
"I. c #838634",
"U. c #808F35",
"Y. c #809135",
"T. c #859134",
"R. c #849335",
"E. c #879736",
"W. c #889636",
"Q. c #889736",
"!. c #899736",
"~. c #8B9A37",
"^. c #8C9B37",
"/. c #80A73D",
"(. c #85AC3B",
"). c #86AC3B",
"_. c #87AD3B",
"`. c #81A83C",
"'. c #82A93C",
"]. c #84AA3C",
"[. c #86AC3C",
"{. c #87AD3C",
"}. c #88AE3B",
"|. c #89AF3B",
" X c #8BAF3C",
".X c #8AB03B",
"XX c #94B83A",
"oX c #97BA3A",
/* pixels */
"^.^.^.^.^.^.^.^.^.^.^.^.^.^.^.^.^.^.^.^.^.^.^.^.^.^.^.^.^.^.^.^.",
"^.^.^.^.^.^.^.^.^.^.^.^.^.^.^.^.^.^.^.^.^.^.^.^.^.^.^.^.^.^.^.^.",
"^.^.^.^.^.^.^.^.^.^.^.^.^.^.^.^.^.^.^.^.^.^.^.^.^.^.^.^.^.^.^.^.",
"^.^.^.^.^.^.^.^.^.^.^.^.^.^.^.^.^.^.^.^.^.^.^.^.^.^.^.^.^.^.^.^.",
"^.^.^.^.^.^.^.^.^.^.^.^.^.^.^.^.^.^.^.^.^.^.^.^.^.^.^.^.^.^.^.^.",
"^.^.^.^.^.^.^.^.^.^.^.^.^.^.^.^.^.^.^.^.^.^.^.^.^.^.^.^.^.^.^.^.",
"^.^.^.^.^.^.^.^.^.^.^.^.^.~.4.9.&.0.5.^.^.^.^.^.^.^.^.^.^.^.^.^.",
"^.^.^.^.^.^.^.^.^.^.^.Q.V v :.+.@.@.u z 6.^.^.^.^.^.^.^.^.^.^.^.",
"^.^.^.^.^.^.^.^.^.^.~.M y.u.A.m.K.d.z...c 8.^.^.^.^.^.^.^.^.^.^.",
"^.^.^.^.^.^.^.^.^.~.*.T p.k.Z.(.)..X).z.$.0 3.^.^.^.^.^.^.^.^.^.",
"^.^.^.^.^.^.^.^.^.,.k p.`.'.].XXoX.XG.).j.W b ~.^.^.^.^.^.^.^.^.",
"^.^.^.^.^.^.^.^.^.n ' %.g.V.|.oXXX_.}.M.l.| 8 Q.^.^.^.^.^.^.^.^.",
"^.^.^.^.^.^.^.^.~.q } S.z.'.[.].}.].D.F.V.R y R.^.^.^.^.^.^.^.^.",
"^.^.^.^.^.^.^.^.U.$ _ | C.N.[. X{.L./.h.O.U & R.^.^.^.^.^.^.^.^.",
"^.^.^.^.^.^.^.^.~.w 2 ] o.l.c.H.J.H.d.B.( : $ 0.^.^.^.^.^.^.^.^.",
"^.^.^.^.^.^.^.^.Y.i -.^ d a.t.v.f.j.i.! d ' e E.^.^.^.^.^.^.^.^.",
"^.^.^.^.^.^.^.^.Z ` V.n.[ R $.r.e.X.s Q n.[ > 1.^.^.^.^.^.^.^.^.",
"^.^.^.^.^.^.^.^.N ~ V.b.Y g ) ! Q ) a ;.x.s.f B ^.^.^.^.^.^.^.^.",
"^.^.^.^.^.^.^.^.~.9 h / * % 1 , < p 3 q.w.{ r Q.^.^.^.^.^.^.^.^.",
"^.^.^.^.^.^.^.^.^.~.C x 7  .#.- + + # = ; t 7.^.^.^.^.^.^.^.^.^.",
"^.^.^.^.^.^.^.^.^.^.^.^.l E j @   5 2.=.>.1.^.^.^.^.^.^.^.^.^.^.",
"^.^.^.^.^.^.^.^.^.^.^.^.~.m O . X 4 T.^.^.^.^.^.^.^.^.^.^.^.^.^.",
"^.^.^.^.^.^.^.^.^.^.^.^.^.<.o 6 D S J !.^.^.^.^.^.^.^.^.^.^.^.^.",
"^.^.^.^.^.^.^.^.^.^.^.^.^.A F P G I H ~.^.^.^.^.^.^.^.^.^.^.^.^.",
"^.^.^.^.^.^.^.^.^.^.^.^.^.W.I.L T.K P.^.^.^.^.^.^.^.^.^.^.^.^.^.",
"^.^.^.^.^.^.^.^.^.^.^.^.^.^.^.^.^.^.^.^.^.^.^.^.^.^.^.^.^.^.^.^.",
"^.^.^.^.^.^.^.^.^.^.^.^.^.^.^.^.^.^.^.^.^.^.^.^.^.^.^.^.^.^.^.^.",
"^.^.^.^.^.^.^.^.^.^.^.^.^.^.^.^.^.^.^.^.^.^.^.^.^.^.^.^.^.^.^.^.",
"^.^.^.^.^.^.^.^.^.^.^.^.^.^.^.^.^.^.^.^.^.^.^.^.^.^.^.^.^.^.^.^.",
"^.^.^.^.^.^.^.^.^.^.^.^.^.^.^.^.^.^.^.^.^.^.^.^.^.^.^.^.^.^.^.^.",
"^.^.^.^.^.^.^.^.^.^.^.^.^.^.^.^.^.^.^.^.^.^.^.^.^.^.^.^.^.^.^.^.",
"^.^.^.^.^.^.^.^.^.^.^.^.^.^.^.^.^.^.^.^.^.^.^.^.^.^.^.^.^.^.^.^."
};
