/* XPM */
static char *_45b97c92aac43f4e476110ea5d0556cf8A1N06AXWO9QaEC[] = {
/* columns rows colors chars-per-pixel */
"100 100 36 1 ",
"  c #010102",
". c #001313",
"X c #000927",
"o c #002E3C",
"O c #24333D",
"+ c #2D363F",
"@ c #4C1E2C",
"# c #491F30",
"$ c #44232F",
"% c #005032",
"& c #002D68",
"* c #843D36",
"= c #973B32",
"- c #A4104F",
"; c #EA2743",
": c #CE704D",
"> c #E8714A",
", c #F16A62",
"< c #00C300",
"1 c #00DD00",
"2 c #8C9B37",
"3 c #FFAA6D",
"4 c #F8A870",
"5 c #BAF245",
"6 c #6A768F",
"7 c #657791",
"8 c #60719F",
"9 c #699DEA",
"0 c #7A9CE7",
"q c #8595B5",
"w c #FFC3A1",
"e c #FFC4A1",
"r c #A3A9C4",
"t c #D7E2EC",
"y c #D9E1EB",
"u c white",
/* pixels */
"2222222222222222222222222222222222222222222222222222222222222222222222222222222222222222222222222222",
"2222222222222222222222222222222222222222222222222222222222222222222222222222222222222222222222222222",
"2222222222222222222222222222222222222222222222222222222222222222222222222222222222222222222222222222",
"2222222222222222222222222222222222222222222222222222222222222222222222222222222222222222222222222222",
"2222222222222222222222222222222222222222222222222222222222222222222222222222222222222222222222222222",
"2222222222222222222222222222222222222222222222222222222222222222222222222222222222222222222222222222",
"2222222222222222222222222222222222222222222222222222222222222222222222222222222222222222222222222222",
"2222222222222222222222222222222222222222222222222222222222222222222222222222222222222222222222222222",
"2222222222222222222222222222222222222222222222222222222222222222222222222222222222222222222222222222",
"2222222222222222222222222222222222222222222222222222222222222222222222222222222222222222222222222222",
"2222222222222222222222222222222222222222222222222222222222222222222222222222222222222222222222222222",
"2222222222222222222222222222222222222222222222222222222222222222222222222222222222222222222222222222",
"2222222222222222222222222222222222222222222222222222222222222222222222222222222222222222222222222222",
"2222222222222222222222222222222222222222222222222222222222222222222222222222222222222222222222222222",
"2222222222222222222222222222222222222222222222222222222222222222222222222222222222222222222222222222",
"2222222222222222222222222222222222222222222222222222222222222222222222222222222222222222222222222222",
"2222222222222222222222222222222222222222222222222222222222222222222222222222222222222222222222222222",
"2222222222222222222222222222222222222222222222222222222222222222222222222222222222222222222222222222",
"2222222222222222222222222222222222222222222222222222222222222222222222222222222222222222222222222222",
"2222222222222222222222222222222222222222222222222222222222222222222222222222222222222222222222222222",
"2222222222222222222222222222222222222222            222222222222222222222222222222222222222222222222",
"2222222222222222222222222222222222222   3333>>>>3333   222222222222222222222222222222222222222222222",
"22222222222222222222222222222222222  333>>>>>3333333333  2222222222222222222222222222222222222222222",
"2222222222222222222222222222222222 33>>>>3333>>>>33333333  22222222222222222222222222222222222222222",
"222222222222222222222222222222222 33>>33333333333>>>>333333 2222222222222222222222222222222222222222",
"2222222222222222222222222222222  43>>333333333333333>>>>3333 222222222222222222222222222222222222222",
"22222222222222222222222222222  44*>>>33=======333333333>>>333 22222222222222222222222222222222222222",
"2222222222222222222222222222 44:**=33==3333333====>>3333=>>33 22222222222222222222222222222222222222",
"222222222222222222222222222 4:$*443333333333333333==>>3333=>33 2222222222222222222222222222222222222",
"22222222222222222222222222 4:$444:=>3333333333333333==>>333=>3 2222222222222222222222222222222222222",
"22222222222222222222222222 4$44:::==>>>>33333>>>333333=>>333=>3 222222222222222222222222222222222222",
"2222222222222222222222222 4:$4::$*    ===>>33333>>>3333@>>33=>3 222222222222222222222222222222222222",
"2222222222222222222222222 4$4::$* ,,,, @@===>>33333>>333@>333=>3 22222222222222222222222222222222222",
"222222222222222222222222 4:$4:$* weeee,, @@@==>>33333>333@>33=>3 22222222222222222222222222222222222",
"222222222222222222222222 4$4::$* wweeewe,,  @@==>>333=>33@>333=>3 2222222222222222222222222222222222",
"2222222222222222222222222 $4:$* wwee,,,,ew,, =@@=>>333=>33@>33@>3 2222222222222222222222222222222222",
"2222222222222222222222222 $4:$* www,,,     w, =>@=>>333@>3@>33@=33 222222222222222222222222222222222",
"2222222222222222222222222 $4:$* ww,,        w, =>@=>>333@>3@>33@>3 222222222222222222222222222222222",
"22222222222222222222222222 4:$* ww,  ..&qqq  , =>3@=>>33@>3@>33@>33 22222222222222222222222222222222",
"22222222222222222222222222 4:$** w, %%%&qqqq  , =>3@=>333@>@=>3@=>3 22222222222222222222222222222222",
"222222222222222222222222222 : ** w,,5<<.uuqq w, =>33@=>33@>@=>33@>33 2222222222222222222222222222222",
"222222222222222222222222222 : ** we,511.uuu ee,, =>3@=>33@>@=>33@=>3 2222222222222222222222222222222",
"222222222222222222222222222 4: * we,55.uu  weee, =>33@>333@>==>3@=>33 222222222222222222222222222222",
"2222222222222222222222222222 : * wee..   eeeeee, ==>3@=>33@>@=>33@=>3 222222222222222222222222222222",
"2222222222222222222222222222 4:  weeeeeeweeeeee,, =>3@=>33@>3@>33@=>3 222222222222222222222222222222",
"22222222222222222222222222222 4: weeeeeeeeeeeee,, =>33@>3@=>3@=>3@=>3 222222222222222222222222222222",
"222222222222222222222222222222 4 weeeeeeeeeeeee,, ==>3@=3@=>33@>3@>33 222222222222222222222222222222",
"2222222222222222222222222222222 wweeeeeeeeeeeee,  ==>3@=3@=>33@>3@>3 2222222222222222222222222222222",
"2222222222222222222222222222222 wweeeeeeeeeeew,, = =>3@=@==>33@>3@>3 2222222222222222222222222222222",
"2222222222222222222222222222222 wweeeeeeeeeee,, == =>3@=@==>33@3 >3 22222222222222222222222222222222",
"22222222222222222222222222222222 weeeeeeeew,,, === =>3=@3@=>33@3 >3 22222222222222222222222222222222",
"22222222222222222222222222222222 weeeew,,,,,  ==== =>@=>3@>>33  2  222222222222222222222222222222222",
"222222222222222222222222222222222 ,,,,,,,   ====== =3@=>3@>33 22222222222222222222222222222222222222",
"222222222222222222222222222222222        ,, ===== =>3@>33@>33 22222222222222222222222222222222222222",
"2222222222222222222222222222222222222 ew,    ==== =>@>>3@>33 222222222222222222222222222222222222222",
"22222222222222222222222222222222222222 ,   oo  = =>3@>3@>3  2222222222222222222222222222222222222222",
"222222222222222222222222222222222222222  ;; ooo  =3 2  2  222222222222222222222222222222222222222222",
"222222222222222222222222222222  2222222 ;;- ooo =>  222222222222222222222222222222222222222222222222",
"22222222222222222222222222222  # 222222 ;;- oooo   O 22222222222222222222222222222222222222222222222",
"2222222222222222222222222222 @@ @ 22222 ;;- ooooooo 7 2222222222222222222222222222222222222222222222",
"2222222222222222222222222222 @ 0  22222 ;;- ooooooo O7 222222222222222222222222222222222222222222222",
"2222222222222222222222222222 @ 600  222 ;;- oooooooo 79 22  2222222222222222222222222222222222222222",
"22222222222222222222222222222 666699    ;;- oooooooo 79 2 oo 222222222222222222222222222222222222222",
"22222222222222222222222222222 ++6677999 ;;- ooooooooo  2 oooo 2  22222222222222222222222222222222222",
"222222222222222222222222222222  +677777 ;-- XoooooooX   oXXooo ;; 2222222222222222222222222222222222",
"22222222222222222222222222222222 +O777 ;-- XXXXooXXX oooo  XXo ;; 2222222222222222222222222222222222",
"222222222222222222222222222222222  OOO    XXXXXXX   ooX  -- XXX ;; 222222222222222222222222222222222",
"22222222222222222222222222222222222   2  X       XooXXX ---- X ;;- 222222222222222222222222222222222",
"22222222222222222222222222222222222222 oooXXXXXXXXooooX --;- X ;-- 222222222222222222222222222222222",
"2222222222222222222222222222222222222 oooooXXoooXXoXXooo -;;- --- 2222222222222222222222222222222222",
"222222222222222222222222222222222222 oooooXXooooXXo  XXo --;;---- 2222222222222222222222222222222222",
"22222222222222222222222222222222222 oooooXXoooooXX -- XXX --   - 22222222222222222222222222222222222",
"2222222222222222222222222222222222 ooooXXX  oooXXX --;   -- 222 222222222222222222222222222222222222",
"22222222222222222222222222222222  t XXXXX --  XXXX -;;;--  22222222222222222222222222222222222222222",
"222222222222222222222222222222  yy ;  XX --;--    --;;;- 2222222222222222222222222222222222222222222",
"22222222222222222222222222222 yyr ;;;- X -;;;;;--------- 2222222222222222222222222222222222222222222",
"2222222222222222222222222222 yrrr ;;;-- --;;;;;---   -- 22222222222222222222222222222222222222222222",
"222222222222222222222222222 yrr66  -;;----;;----  888  222222222222222222222222222222222222222222222",
"2222222222222222222222222222      8 ---  ----   8888888  2222222222222222222222222222222222222222222",
"222222222222222222222222222222222 88   22    2 8888888888 222222222222222222222222222222222222222222",
"22222222222222222222222222222222 8888 222222222 888888888 222222222222222222222222222222222222222222",
"22222222222222222222222222222222 888 22222222222         2222222222222222222222222222222222222222222",
"22222222222222222222222222222222 888 222222222222222222222222222222222222222222222222222222222222222",
"22222222222222222222222222222222 88 2222222222222222222222222222222222222222222222222222222222222222",
"22222222222222222222222222222222 88 2222222222222222222222222222222222222222222222222222222222222222",
"222222222222222222222222222222222  22222222222222222222222222222222222222222222222222222222222222222",
"2222222222222222222222222222222222222222222222222222222222222222222222222222222222222222222222222222",
"2222222222222222222222222222222222222222222222222222222222222222222222222222222222222222222222222222",
"2222222222222222222222222222222222222222222222222222222222222222222222222222222222222222222222222222",
"2222222222222222222222222222222222222222222222222222222222222222222222222222222222222222222222222222",
"2222222222222222222222222222222222222222222222222222222222222222222222222222222222222222222222222222",
"2222222222222222222222222222222222222222222222222222222222222222222222222222222222222222222222222222",
"2222222222222222222222222222222222222222222222222222222222222222222222222222222222222222222222222222",
"2222222222222222222222222222222222222222222222222222222222222222222222222222222222222222222222222222",
"2222222222222222222222222222222222222222222222222222222222222222222222222222222222222222222222222222",
"2222222222222222222222222222222222222222222222222222222222222222222222222222222222222222222222222222",
"2222222222222222222222222222222222222222222222222222222222222222222222222222222222222222222222222222",
"2222222222222222222222222222222222222222222222222222222222222222222222222222222222222222222222222222",
"2222222222222222222222222222222222222222222222222222222222222222222222222222222222222222222222222222",
"2222222222222222222222222222222222222222222222222222222222222222222222222222222222222222222222222222"
};
