/* XPM */
static char *result[] = {
/* columns rows colors chars-per-pixel */
"100 100 33 1 ",
"  c black",
". c #001313",
"X c #000927",
"o c #002E3C",
"O c #24333D",
"+ c #4C1E2C",
"@ c #53192D",
"# c #762932",
"$ c #005032",
"% c #002D68",
"& c #973B32",
"* c #EB773C",
"= c #A4104F",
"- c #EA2743",
"; c #E8714A",
": c #F16A62",
"> c #E8776A",
", c #00C300",
"< c #00DD00",
"1 c #8C9B37",
"2 c #FFA85A",
"3 c #FFAA6D",
"4 c #BAF245",
"5 c #657791",
"6 c #60719F",
"7 c #699DEA",
"8 c #8595B5",
"9 c #FFA299",
"0 c #FFB7A5",
"q c #FFC4A1",
"w c #A2ABC6",
"e c #D7E2EC",
"r c white",
/* pixels */
"1111111111111111111111111111111111111111111111111111111111111111111111111111111111111111111111111111",
"1111111111111111111111111111111111111111111111111111111111111111111111111111111111111111111111111111",
"1111111111111111111111111111111111111111111111111111111111111111111111111111111111111111111111111111",
"1111111111111111111111111111111111111111111111111111111111111111111111111111111111111111111111111111",
"1111111111111111111111111111111111111111111111111111111111111111111111111111111111111111111111111111",
"1111111111111111111111111111111111111111111111111111111111111111111111111111111111111111111111111111",
"1111111111111111111111111111111111111111111111111111111111111111111111111111111111111111111111111111",
"1111111111111111111111111111111111111111111111111111111111111111111111111111111111111111111111111111",
"1111111111111111111111111111111111111111111111111111111111111111111111111111111111111111111111111111",
"1111111111111111111111111111111111111111111111111111111111111111111111111111111111111111111111111111",
"1111111111111111111111111111111111111111111111111111111111111111111111111111111111111111111111111111",
"1111111111111111111111111111111111111111111111111111111111111111111111111111111111111111111111111111",
"1111111111111111111111111111111111111111111111111111111111111111111111111111111111111111111111111111",
"1111111111111111111111111111111111111111111111111111111111111111111111111111111111111111111111111111",
"1111111111111111111111111111111111111111111111111111111111111111111111111111111111111111111111111111",
"1111111111111111111111111111111111111111111111111111111111111111111111111111111111111111111111111111",
"1111111111111111111111111111111111111111111111111111111111111111111111111111111111111111111111111111",
"1111111111111111111111111111111111111111111111111111111111111111111111111111111111111111111111111111",
"1111111111111111111111111111111111111             11111111111111111111111111111111111111111111111111",
"1111111111111111111111111111111111   333;;;;333333   11111111111111111111111111111111111111111111111",
"11111111111111111111111111111111  3333;;&&&&;;3333333   11111111111111111111111111111111111111111111",
"111111111111111111111111111111  333;;;;;;;;;&;;333333333  111111111111111111111111111111111111111111",
"11111111111111111111111111111 333;;;;;333333;&;;3333333333 11111111111111111111111111111111111111111",
"1111111111111111111111111111 33;;;;3333333;;;;&;;3333333333 1111111111111111111111111111111111111111",
"111111111111111111111111111 333;;3333&&&&&&&&&;&;33333333333 111111111111111111111111111111111111111",
"11111111111111111111111111 3333;3&&&&333333333&&;;3333;;;3333 11111111111111111111111111111111111111",
"1111111111111111111111111 33333&&3333333333333333;33333;;;3333 1111111111111111111111111111111111111",
"1111111111111111111111111 333&&33333;;33333333333& +&++33;;3333 111111111111111111111111111111111111",
"111111111111111111111111 333&33333;;333333333;;&+333&;3+33;;333 111111111111111111111111111111111111",
"111111111111111111111111 33&3333;;33333333;;&  +&;;33&;3+33;;333 11111111111111111111111111111111111",
"11111111111111111111111 33&3333;3333333;;;   :::  &;33&33+33;;33 11111111111111111111111111111111111",
"11111111111111111111111 3&3333;33333;;;;  :::qqq:: ;;3&;3+333;;33 1111111111111111111111111111111111",
"1111111111111111111111 33&333;;333;;;;  ::qqqqqqqq: ;33&33+33&+;3 1111111111111111111111111111111111",
"1111111111111111111111 3&333;+33;;;;   :00:::qqqqq: ;;3&;3+333+;3 1111111111111111111111111111111111",
"111111111111111111111 33&33;+33;;;; & :     00:qqqq: ;3&;3+3333+33 111111111111111111111111111111111",
"111111111111111111111 3&33;&+3;;;; & :        0:qqq: ;;3&3+;333+;3 111111111111111111111111111111111",
"11111111111111111111 33&33;+33;;; & : 8%...    :qqq: ;;3&3+;3333+3 111111111111111111111111111111111",
"11111111111111111111 33&3;&+3;;; & : 88%$$rrr   qqq: ;;3&3+;;333+;3 11111111111111111111111111111111",
"1111111111111111111 333;+;+33;& & :q 8r.,,,,. qqqqq: ;33&3 &;333+;3 11111111111111111111111111111111",
"1111111111111111111 33;&+&+3;;& & :q rr.<<<<.rqqqq: ;;3&;3 &;3333+3 11111111111111111111111111111111",
"111111111111111111 33;&3&+&3;& & :qqq rr.44.rqqqqq: ;33&3 : ;;333+; 11111111111111111111111111111111",
"111111111111111111 33&333+3;;& & :qqqq rr..qqqqqq: ;;3&;3 : ;;333+;3 1111111111111111111111111111111",
"11111111111111111 33;+33;+3;& & ::qqqqqqqqqqqqqqq: ;33&3 q: ;;333+;3 1111111111111111111111111111111",
"11111111111111111 33;+33;+3;& & ::qqqqqqqqqqqqqqq ;;3&3 qq: ;;333+;3 1111111111111111111111111111111",
"11111111111111111 33;+33;&3; ;& ::qqqqqqqqqqqqqqqq   q qqqq: ;333+;3 1111111111111111111111111111111",
"11111111111111111 3;+33;;+&; ;&  :qqqqqqqqqqqqqqqqqqqqqqqqq: ;33+;;33 111111111111111111111111111111",
"111111111111111111 ;+33;;+&; & && :qqqqqqqqqqqqqqqqqqqqqqqq: ;33+;;33 111111111111111111111111111111",
"111111111111111111 ;+33;;+&; & &&& ::qqqqqqqqq9999qqqqqqqq: ;;33+;;33 111111111111111111111111111111",
"1111111111111111111 +33;; ;& & &&&&  :::qqqqqqqqqqqqqqqqq:: ;;33+;;33 111111111111111111111111111111",
"11111111111111111111 3 ;; ;;;& &&&&&&  :::qqqqqqqqqqqq:::  &;33+;;333 111111111111111111111111111111",
"111111111111111111111  3; ;;;& &&&&&&&&   ::::::::::::   &&;;33+;;33 1111111111111111111111111111111",
"1111111111111111111111 3; ;;;& &&&&&&&&&&&            &&& &;333+;333 1111111111111111111111111111111",
"11111111111111111111111 ;; ;;;& &&&&& &&&& >>>qqq &&&&&&& ;;33+;;33 11111111111111111111111111111111",
"111111111111111111111111    ;;& &&&& &      >>>q  &&&&&& &;333+;333 11111111111111111111111111111111",
"1111111111111111111111111111 3;& &&&  --- Xo    oo    && ;333+;333 111111111111111111111111111111111",
"11111111111111111111111111111  ;&  & ---= Xoooooooo --  ;333+;333 1111111111111111111111111111111111",
"1111111111111111111111111111111  11  ---= Xoooooooo ----    1    11111111111111111111111111111111111",
"11111111111111111111111111111111111 ---== Xooooooooo -----   111111111111111111111111111111111111111",
"11111111111111111111111111111111111 --== Xoooooooooo ===- 777   11  11111111111111111111111111111111",
"1111111111111111111111111111111111 --== XXooooooooooX  == 555777  22   11111111111111111111111111111",
"1111111111111111111111111111111111 --= XXoooooooooooX 1  OO555  ## 2 ee              111111111111111",
"111111111111111111111111111111111 --== XooooooooooooX 111  OO @@ @ * eeeeeeeeeeeeeeee  1111111111111",
"111111111111111111111111111111111   = XXoooooooooooXX 11111  @@@ @ * wwwwwwwwwwwwwwwwww 111111111111",
"11111111111111111111111111111111 777   XXoooooooooXX *  11111 #@@  * 5555555555555555  1111111111111",
"11111111111111111111111111111111 755O  XXXXooooXXX  * XX  1111 ### * 55              111111111111111",
"1111111111111111111111111111111 755O  *  XXXXXX   ** oooXX  111   **   11111111111111111111111111111",
"1111111111111111111111111111111 755O o **      ***  ooXoooXX  1111  11111111111111111111111111111111",
"11111111111111111111111111111  755O @ o  ******   ooooXXoooXXX 1111111111111111111111111111111111111",
"1111111111111111111111111111 X 755O @ ooo      ooooooooXXXoXoXX 111111111111111111111111111111111111",
"1111111111111111111111111111 X 755 #@ ooooooooooXXooooooXXX XXX 111111111111111111111111111111111111",
"11111111111111111111111111111 X 5 @  ooooXooooooXXXoooooXX = X 1111111111111111111111111111111111111",
"1111111111111111111111111111 = X #@ ooooXXoooooooXXooXoXX =--  1111111111111111111111111111111111111",
"111111111111111111111111111 -= XX  ooooXXXoooXoooXXXooXX =--- 11111111111111111111111111111111111111",
"11111111111111111111111111 ---= XooooooXXXoooXoooXXXoXXX =--= 11111111111111111111111111111111111111",
"111111111111111111111111111 =-= XXooXXX   XooXoooXXXXXX =--== 11111111111111111111111111111111111111",
"111111111111111111111111111 =-= XXXXX  === XXXooX   XXX ==== 111111111111111111111111111111111111111",
"1111111111111111111111111111 ===  XX ==---- XXoX === X ==== 1111111111111111111111111111111111111111",
"11111111111111111111111111111 ====  ==----- XXXX =--= =    11111111111111111111111111111111111111111",
"11111111111111111111111111111 ==  ====--===- XX =----= 6 1111111111111111111111111111111111111111111",
"111111111111111111111111111111  11 ==--=   ==  ====== 666 111111111111111111111111111111111111111111",
"1111111111111111111111111111111111 ==== 666  11 ===  6666 111111111111111111111111111111111111111111",
"11111111111111111111111111111111111    6666 1111   11 666 111111111111111111111111111111111111111111",
"111111111111111111111111111111111111111 666 111111111 666 111111111111111111111111111111111111111111",
"111111111111111111111111111111111111111 66 11111111111 66 111111111111111111111111111111111111111111",
"111111111111111111111111111111111111111    11111111111    111111111111111111111111111111111111111111",
"1111111111111111111111111111111111111111111111111111111111111111111111111111111111111111111111111111",
"1111111111111111111111111111111111111111111111111111111111111111111111111111111111111111111111111111",
"1111111111111111111111111111111111111111111111111111111111111111111111111111111111111111111111111111",
"1111111111111111111111111111111111111111111111111111111111111111111111111111111111111111111111111111",
"1111111111111111111111111111111111111111111111111111111111111111111111111111111111111111111111111111",
"1111111111111111111111111111111111111111111111111111111111111111111111111111111111111111111111111111",
"1111111111111111111111111111111111111111111111111111111111111111111111111111111111111111111111111111",
"1111111111111111111111111111111111111111111111111111111111111111111111111111111111111111111111111111",
"1111111111111111111111111111111111111111111111111111111111111111111111111111111111111111111111111111",
"1111111111111111111111111111111111111111111111111111111111111111111111111111111111111111111111111111",
"1111111111111111111111111111111111111111111111111111111111111111111111111111111111111111111111111111",
"1111111111111111111111111111111111111111111111111111111111111111111111111111111111111111111111111111",
"1111111111111111111111111111111111111111111111111111111111111111111111111111111111111111111111111111",
"1111111111111111111111111111111111111111111111111111111111111111111111111111111111111111111111111111",
"1111111111111111111111111111111111111111111111111111111111111111111111111111111111111111111111111111"
};
